999
RD_DXFFile_Emport https://www.rdacs.com/
  0
SECTION
  2
HEADER
  9
$ACADVER
  1
AC1015
  9
$HANDSEED
  5
FFFF
  0
ENDSEC
  0
SECTION
  2
TABLES
  0
TABLE
  2
VPORT
  5
8
100
AcDbSymbolTable
 70
1
  0
VPORT
  5
30
100
AcDbSymbolTableRecord
100
AcDbViewportTableRecord
  2
*Active
 70
0
 10
0.0
 20
0.0
 11
1.0
 21
1.0
 12
286.3055555555554861
 22
148.5
 13
0.0
 23
0.0
 14
10.0
 24
10.0
 15
10.0
 25
10.0
 16
0.0
 26
0.0
 36
1.0
 17
0.0
 27
0.0
 37
0.0
 40
297.0
 41
1.92798353909465
 42
50.0
 43
0.0
 44
0.0
 50
0.0
 51
0.0
 71
0
 72
100
 73
1
 74
3
 75
1
 76
1
 77
0
 78
0
281
0
 65
1
110
0.0
120
0.0
130
0.0
111
1.0
121
0.0
131
0.0
112
0.0
122
1.0
132
0.0
 79
0
146
0.0
  0
ENDTAB
  0
TABLE
  2
LTYPE
  5
5
100
AcDbSymbolTable
 70
3
  0
LTYPE
  5
14
100
AcDbSymbolTableRecord
100
AcDbLinetypeTableRecord
  2
BYBLOCK
 70
0
  3

 72
65
 73
0
 40
0.0
  0
LTYPE
  5
15
100
AcDbSymbolTableRecord
100
AcDbLinetypeTableRecord
  2
BYLAYER
 70
0
  3

 72
65
 73
0
 40
0.0
  0
LTYPE
  5
16
100
AcDbSymbolTableRecord
100
AcDbLinetypeTableRecord
  2
CONTINUOUS
 70
0
  3
Solid line
 72
65
 73
0
 40
0.0
  0
ENDTAB
  0
TABLE
  2
LAYER
  5
2
100
AcDbSymbolTable
 70
3
  0
LAYER
  5
10
100
AcDbSymbolTableRecord
100
AcDbLayerTableRecord
  2
0
 70
0
 62
250
  6
CONTINUOUS
370
100
390
F
  0
LAYER
  5
31
100
AcDbSymbolTableRecord
100
AcDbLayerTableRecord
  2
mainlayer
 70
0
 62
1
  6
CONTINUOUS
370
100
390
F
  0
LAYER
  5
32
100
AcDbSymbolTableRecord
100
AcDbLayerTableRecord
  2
anotherlayer
 70
0
 62
250
  6
CONTINUOUS
370
100
390
F
  0
ENDTAB
  0
TABLE
  2
STYLE
  5
3
100
AcDbSymbolTable
 70
1
  0
STYLE
  5
33
100
AcDbSymbolTableRecord
100
AcDbTextStyleTableRecord
  2
standard
 70
0
 40
2.5
 41
1.0
 50
0.0
 71
0
 42
2.5
  3

  4

1001
ACAD
1000
txt
1071
0
  0
ENDTAB
  0
TABLE
  2
VIEW
  5
6
100
AcDbSymbolTable
 70
0
  0
ENDTAB
  0
TABLE
  2
UCS
  5
7
100
AcDbSymbolTable
 70
0
  0
ENDTAB
  0
TABLE
  2
APPID
  5
9
100
AcDbSymbolTable
 70
1
  0
APPID
  5
12
100
AcDbSymbolTableRecord
100
AcDbRegAppTableRecord
  2
ACAD
 70
0
  0
ENDTAB
  0
TABLE
  2
DIMSTYLE
  5
A
100
AcDbSymbolTable
 70
1
100
AcDbDimStyleTable
 71
0
  0
DIMSTYLE
105
27
100
AcDbSymbolTableRecord
100
AcDbDimStyleTableRecord
  2
Standard
 41
1.0
 42
1.0
 43
3.75
 44
1.0
 70
0
 73
0
 74
0
 77
1
 78
8
140
1.0
141
2.5
143
0.03937007874016
147
1.0
171
3
172
1
271
2
272
2
274
3
278
44
283
0
284
8
340
0
  0
ENDTAB
  0
TABLE
  2
BLOCK_RECORD
  5
1
100
AcDbSymbolTable
 70
1
  0
BLOCK_RECORD
  5
1F
100
AcDbSymbolTableRecord
100
AcDbBlockTableRecord
  2
*Model_Space
340
22
  0
BLOCK_RECORD
  5
1B
100
AcDbSymbolTableRecord
100
AcDbBlockTableRecord
  2
*Paper_Space
340
1E
  0
BLOCK_RECORD
  5
23
100
AcDbSymbolTableRecord
100
AcDbBlockTableRecord
  2
*Paper_Space0
340
26
  0
ENDTAB
  0
ENDSEC
  0
SECTION
  2
BLOCKS
  0
BLOCK
  5
20
100
AcDbEntity
  8
0
100
AcDbBlockBegin
  2
*Model_Space
 70
0
 10
0.0
 20
0.0
 30
0.0
  3
*Model_Space
  1

  0
ENDBLK
  5
21
100
AcDbEntity
  8
0
100
AcDbBlockEnd
  0
BLOCK
  5
1C
100
AcDbEntity
 67
1
  8
0
100
AcDbBlockBegin
  2
*Paper_Space
 70
0
 10
0.0
 20
0.0
 30
0.0
  3
*Paper_Space
  1

  0
ENDBLK
  5
1D
100
AcDbEntity
 67
1
  8
0
100
AcDbBlockEnd
  0
BLOCK
  5
24
100
AcDbEntity
  8
0
100
AcDbBlockBegin
  2
*Paper_Space0
 70
0
 10
0.0
 20
0.0
 30
0.0
  3
*Paper_Space0
  1

  0
ENDBLK
  5
25
100
AcDbEntity
  8
0
100
AcDbBlockEnd
  0
ENDSEC
  0
SECTION
  2
ENTITIES
  0
LWPOLYLINE
  5
34
100
AcDbEntity
  8
mainlayer
 62
1
370
-1
 48
1.0
  6
BYLAYER
100
AcDbPolyline
 90
16
 70
0
 10
-2778.51025390625
 20
31.2597675323486328
 10
-2778.51025390625
 20
27.6523456573486328
 10
-2778.51025390625
 20
27.6523456573486328
 10
-2804.18505859375
 20
37.51171875
 10
-2804.18505859375
 20
37.51171875
 10
-2804.18505859375
 20
41.171875
 10
-2804.18505859375
 20
41.171875
 10
-2778.51025390625
 20
51.6806602478027344
 10
-2778.51025390625
 20
51.6806602478027344
 10
-2778.51025390625
 20
47.8095664978027344
 10
-2778.51025390625
 20
47.8095664978027344
 10
-2786.28662109375
 20
44.8154258728027344
 10
-2786.28662109375
 20
44.8154258728027344
 10
-2786.28662109375
 20
34.0791015625
 10
-2786.28662109375
 20
34.0791015625
 10
-2778.51025390625
 20
31.2597675323486328
  0
LWPOLYLINE
  5
35
100
AcDbEntity
  8
mainlayer
 62
1
370
-1
 48
1.0
  6
BYLAYER
100
AcDbPolyline
 90
16
 70
0
 10
-3619.73779296875
 20
30.0029315948486328
 10
-3619.73779296875
 20
26.3955097198486328
 10
-3619.73779296875
 20
26.3955097198486328
 10
-3645.41259765625
 20
36.2548828125
 10
-3645.41259765625
 20
36.2548828125
 10
-3645.41259765625
 20
39.916015625
 10
-3645.41259765625
 20
39.916015625
 10
-3619.73779296875
 20
50.4238243103027344
 10
-3619.73779296875
 20
50.4238243103027344
 10
-3619.73779296875
 20
46.5527305603027344
 10
-3619.73779296875
 20
46.5527305603027344
 10
-3627.51416015625
 20
43.55859375
 10
-3627.51416015625
 20
43.55859375
 10
-3627.51416015625
 20
32.822265625
 10
-3627.51416015625
 20
32.822265625
 10
-3619.73779296875
 20
30.0029315948486328
  0
LWPOLYLINE
  5
36
100
AcDbEntity
  8
mainlayer
 62
1
370
-1
 48
1.0
  6
BYLAYER
100
AcDbPolyline
 90
8
 70
0
 10
-3684.24267578125
 20
0.625977635383606
 10
-2484.24267578125
 20
0.625977635383606
 10
-2484.24267578125
 20
0.625977635383606
 10
-2484.24267578125
 20
2800.6259765625
 10
-2484.24267578125
 20
2800.6259765625
 10
-3684.24267578125
 20
2800.6259765625
 10
-3684.24267578125
 20
2800.6259765625
 10
-3684.24267578125
 20
0.625977635383606
  0
LWPOLYLINE
  5
37
100
AcDbEntity
  8
mainlayer
 62
1
370
-1
 48
1.0
  6
BYLAYER
100
AcDbPolyline
 90
22
 70
0
 10
-3412.31884765625
 20
65.2841796875
 10
-3412.21142578125
 20
73.38671875
 10
-3412.21142578125
 20
73.38671875
 10
-3411.77294921875
 20
75.294921875
 10
-3411.77294921875
 20
75.294921875
 10
-3410.89111328125
 20
76.615234375
 10
-3410.89111328125
 20
76.615234375
 10
-3409.55322265625
 20
77.466796875
 10
-3409.55322265625
 20
77.466796875
 10
-3407.90576171875
 20
77.75390625
 10
-3407.90576171875
 20
77.75390625
 10
-3406.22900390625
 20
77.4677734375
 10
-3406.22900390625
 20
77.4677734375
 10
-3404.91748046875
 20
76.66796875
 10
-3404.91748046875
 20
76.66796875
 10
-3404.08740234375
 20
75.5322265625
 10
-3404.08740234375
 20
75.5322265625
 10
-3403.56103515625
 20
73.5947265625
 10
-3403.56103515625
 20
73.5947265625
 10
-3403.49267578125
 20
65.2841796875
 10
-3403.49267578125
 20
65.2841796875
 10
-3412.31884765625
 20
65.2841796875
  0
SPLINE
  5
38
100
AcDbEntity
  8
mainlayer
 62
1
370
-1
 48
1.0
  6
BYLAYER
100
AcDbSpline
 70
8
 71
3
 72
8
 73
4
 74
0
 10
-3403.49267578125
 20
44.7763633728027344
 30
0.0
 10
-3404.1069335937509095
 20
45.1591758728027415
 30
0.0
 10
-3404.67822265625
 20
45.6044883728027273
 30
0.0
 10
-3405.19970703125
 20
46.1074180603027344
 30
0.0
 40
0.0
 40
0.0
 40
0.0
 40
0.0
 40
4.0
 40
4.0
 40
4.0
 40
4.0
  0
LWPOLYLINE
  5
39
100
AcDbEntity
  8
mainlayer
 62
1
370
-1
 48
1.0
  6
BYLAYER
100
AcDbPolyline
 90
6
 70
0
 10
-3405.19970703125
 20
46.1074180603027344
 10
-3412.51904296875
 20
54.2138633728027344
 10
-3412.51904296875
 20
54.2138633728027344
 10
-3414.94580078125
 20
56.1132774353027344
 10
-3414.94580078125
 20
56.1132774353027344
 10
-3416.08447265625
 20
56.7031211853027344
  0
SPLINE
  5
3A
100
AcDbEntity
  8
mainlayer
 62
1
370
-1
 48
1.0
  6
BYLAYER
100
AcDbSpline
 70
8
 71
3
 72
8
 73
4
 74
0
 10
-3416.08447265625
 20
56.7031211853027344
 30
0.0
 10
-3417.0444335937504547
 20
57.1152305603027415
 30
0.0
 10
-3418.0688476562495453
 20
57.3281211853027344
 30
0.0
 10
-3419.11376953125
 20
57.3330039978027344
 30
0.0
 40
0.0
 40
0.0
 40
0.0
 40
0.0
 40
4.0
 40
4.0
 40
4.0
 40
4.0
  0
LWPOLYLINE
  5
3B
100
AcDbEntity
  8
mainlayer
 62
1
370
-1
 48
1.0
  6
BYLAYER
100
AcDbPolyline
 90
38
 70
0
 10
-3419.11376953125
 20
57.3330039978027344
 10
-3421.24853515625
 20
57.0302696228027344
 10
-3421.24853515625
 20
57.0302696228027344
 10
-3423.10693359375
 20
56.1220664978027344
 10
-3423.10693359375
 20
56.1220664978027344
 10
-3424.67333984375
 20
54.6162071228027344
 10
-3424.67333984375
 20
54.6162071228027344
 10
-3425.72998046875
 20
52.6396446228027344
 10
-3425.72998046875
 20
52.6396446228027344
 10
-3426.20947265625
 20
50.2294883728027344
 10
-3426.20947265625
 20
50.2294883728027344
 10
-3426.12353515625
 20
47.5927696228027344
 10
-3426.12353515625
 20
47.5927696228027344
 10
-3425.49951171875
 20
45.3359336853027344
 10
-3425.49951171875
 20
45.3359336853027344
 10
-3424.34130859375
 20
43.498046875
 10
-3424.34130859375
 20
43.498046875
 10
-3422.67431640625
 20
42.1279296875
 10
-3422.67431640625
 20
42.1279296875
 10
-3420.52099609375
 20
41.2744140625
 10
-3420.52099609375
 20
41.2744140625
 10
-3418.81591796875
 20
40.9931640625
 10
-3418.81591796875
 20
40.9931640625
 10
-3418.48388671875
 20
44.2333984375
 10
-3418.48388671875
 20
44.2333984375
 10
-3420.63720703125
 20
44.5878868103027344
 10
-3420.63720703125
 20
44.5878868103027344
 10
-3421.90869140625
 20
45.2968711853027344
 10
-3421.90869140625
 20
45.2968711853027344
 10
-3422.86376953125
 20
46.3574180603027344
 10
-3422.86376953125
 20
46.3574180603027344
 10
-3423.54736328125
 20
48.1787071228027344
 10
-3423.54736328125
 20
48.1787071228027344
 10
-3423.55224609375
 20
50.2861289978027344
 10
-3423.55224609375
 20
50.2861289978027344
 10
-3422.90869140625
 20
52.0331993103027344
 10
-3422.90869140625
 20
52.0331993103027344
 10
-3422.34521484375
 20
52.7539024353027344
  0
SPLINE
  5
3C
100
AcDbEntity
  8
mainlayer
 62
1
370
-1
 48
1.0
  6
BYLAYER
100
AcDbSpline
 70
8
 71
3
 72
8
 73
4
 74
0
 10
-3422.34521484375
 20
52.7539024353027344
 30
0.0
 10
-3422.0258789062504547
 20
53.0849571228027415
 30
0.0
 10
-3421.65771484375
 20
53.3623008728027273
 30
0.0
 10
-3421.25146484375
 20
53.5790977478027344
 30
0.0
 40
0.0
 40
0.0
 40
0.0
 40
0.0
 40
4.0
 40
4.0
 40
4.0
 40
4.0
  0
SPLINE
  5
3D
100
AcDbEntity
  8
mainlayer
 62
1
370
-1
 48
1.0
  6
BYLAYER
100
AcDbSpline
 70
8
 71
3
 72
8
 73
4
 74
0
 10
-3421.25146484375
 20
53.5790977478027344
 30
0.0
 10
-3420.8452148437504547
 20
53.7958946228027486
 30
0.0
 10
-3420.40966796875
 20
53.9462852478027344
 30
0.0
 10
-3419.95556640625
 20
54.0263633728027344
 30
0.0
 40
0.0
 40
0.0
 40
0.0
 40
0.0
 40
4.0
 40
4.0
 40
4.0
 40
4.0
  0
SPLINE
  5
3E
100
AcDbEntity
  8
mainlayer
 62
1
370
-1
 48
1.0
  6
BYLAYER
100
AcDbSpline
 70
8
 71
3
 72
8
 73
4
 74
0
 10
-3419.95556640625
 20
54.0263633728027344
 30
0.0
 10
-3419.7006835937509095
 20
54.0712852478027344
 30
0.0
 10
-3419.44287109375
 20
54.0937461853027344
 30
0.0
 10
-3419.18408203125
 20
54.0937461853027344
 30
0.0
 40
0.0
 40
0.0
 40
0.0
 40
0.0
 40
4.0
 40
4.0
 40
4.0
 40
4.0
  0
LWPOLYLINE
  5
3F
100
AcDbEntity
  8
mainlayer
 62
1
370
-1
 48
1.0
  6
BYLAYER
100
AcDbPolyline
 90
12
 70
0
 10
-3419.18408203125
 20
54.0937461853027344
 10
-3417.34326171875
 20
53.7255821228027344
 10
-3417.34326171875
 20
53.7255821228027344
 10
-3415.39208984375
 20
52.6220664978027344
 10
-3415.39208984375
 20
52.6220664978027344
 10
-3412.32861328125
 20
49.7226524353027344
 10
-3412.32861328125
 20
49.7226524353027344
 10
-3406.93994140625
 20
43.6337890625
 10
-3406.93994140625
 20
43.6337890625
 10
-3404.37255859375
 20
41.6083984375
 10
-3404.37255859375
 20
41.6083984375
 10
-3402.65185546875
 20
40.765625
  0
SPLINE
  5
40
100
AcDbEntity
  8
mainlayer
 62
1
370
-1
 48
1.0
  6
BYLAYER
100
AcDbSpline
 70
8
 71
3
 72
8
 73
4
 74
0
 10
-3402.65185546875
 20
40.765625
 30
0.0
 10
-3401.9506835937509095
 20
40.4980468750000071
 30
0.0
 10
-3401.21142578125
 20
40.3740234375
 30
0.0
 10
-3400.46240234375
 20
40.3984375
 30
0.0
 40
0.0
 40
0.0
 40
0.0
 40
0.0
 40
4.0
 40
4.0
 40
4.0
 40
4.0
  0
LWPOLYLINE
  5
41
100
AcDbEntity
  8
mainlayer
 62
1
370
-1
 48
1.0
  6
BYLAYER
100
AcDbPolyline
 90
6
 70
0
 10
-3400.46240234375
 20
40.3984375
 10
-3400.46240234375
 20
57.3681602478027344
 10
-3400.46240234375
 20
57.3681602478027344
 10
-3403.49267578125
 20
57.3681602478027344
 10
-3403.49267578125
 20
57.3681602478027344
 10
-3403.49267578125
 20
44.7763633728027344
  0
LWPOLYLINE
  5
42
100
AcDbEntity
  8
mainlayer
 62
1
370
-1
 48
1.0
  6
BYLAYER
100
AcDbPolyline
 90
16
 70
0
 10
-2654.00732421875
 20
65.8623046875
 10
-2654.00732421875
 20
60.7314414978027344
 10
-2654.00732421875
 20
60.7314414978027344
 10
-2646.24951171875
 20
60.7314414978027344
 10
-2646.24951171875
 20
60.7314414978027344
 10
-2646.36572265625
 20
68.607421875
 10
-2646.36572265625
 20
68.607421875
 10
-2646.90673828125
 20
70.4052734375
 10
-2646.90673828125
 20
70.4052734375
 10
-2647.82568359375
 20
71.4755859375
 10
-2647.82568359375
 20
71.4755859375
 10
-2649.42138671875
 20
72.091796875
 10
-2649.42138671875
 20
72.091796875
 10
-2651.26904296875
 20
71.9794921875
 10
-2651.26904296875
 20
71.9794921875
 10
-2652.31787109375
 20
71.51953125
  0
SPLINE
  5
43
100
AcDbEntity
  8
mainlayer
 62
1
370
-1
 48
1.0
  6
BYLAYER
100
AcDbSpline
 70
8
 71
3
 72
8
 73
4
 74
0
 10
-2652.31787109375
 20
71.51953125
 30
0.0
 10
-2652.6010742187504547
 20
71.3378906250000284
 30
0.0
 10
-2652.85205078125
 20
71.1142578125
 30
0.0
 10
-2653.06494140625
 20
70.8544921875
 30
0.0
 40
0.0
 40
0.0
 40
0.0
 40
0.0
 40
4.0
 40
4.0
 40
4.0
 40
4.0
  0
SPLINE
  5
44
100
AcDbEntity
  8
mainlayer
 62
1
370
-1
 48
1.0
  6
BYLAYER
100
AcDbSpline
 70
8
 71
3
 72
8
 73
4
 74
0
 10
-2653.06494140625
 20
70.8544921875
 30
0.0
 10
-2653.3295898437504547
 20
70.5322265625000142
 30
0.0
 10
-2653.52587890625
 20
70.1660156249999858
 30
0.0
 10
-2653.64892578125
 20
69.767578125
 30
0.0
 40
0.0
 40
0.0
 40
0.0
 40
0.0
 40
4.0
 40
4.0
 40
4.0
 40
4.0
  0
LWPOLYLINE
  5
45
100
AcDbEntity
  8
mainlayer
 62
1
370
-1
 48
1.0
  6
BYLAYER
100
AcDbPolyline
 90
4
 70
0
 10
-2653.64892578125
 20
69.767578125
 10
-2653.98486328125
 20
67.14453125
 10
-2653.98486328125
 20
67.14453125
 10
-2654.00732421875
 20
65.8623046875
  0
LWPOLYLINE
  5
46
100
AcDbEntity
  8
mainlayer
 62
1
370
-1
 48
1.0
  6
BYLAYER
100
AcDbPolyline
 90
8
 70
0
 10
-2976.82666015625
 20
75.48046875
 10
-2976.82666015625
 20
65.6904296875
 10
-2976.82666015625
 20
65.6904296875
 10
-3002.50146484375
 20
65.6904296875
 10
-3002.50146484375
 20
65.6904296875
 10
-3002.39111328125
 20
77.365234375
 10
-3002.39111328125
 20
77.365234375
 10
-3001.72216796875
 20
80.04296875
  0
SPLINE
  5
47
100
AcDbEntity
  8
mainlayer
 62
1
370
-1
 48
1.0
  6
BYLAYER
100
AcDbSpline
 70
8
 71
3
 72
8
 73
4
 74
0
 10
-3001.72216796875
 20
80.04296875
 30
0.0
 10
-3001.4614257812509095
 20
80.6406250000000142
 30
0.0
 10
-3001.11083984375
 20
81.1904296875
 30
0.0
 10
-3000.67822265625
 20
81.6796875
 30
0.0
 40
0.0
 40
0.0
 40
0.0
 40
0.0
 40
4.0
 40
4.0
 40
4.0
 40
4.0
  0
SPLINE
  5
48
100
AcDbEntity
  8
mainlayer
 62
1
370
-1
 48
1.0
  6
BYLAYER
100
AcDbSpline
 70
8
 71
3
 72
8
 73
4
 74
0
 10
-3000.67822265625
 20
81.6796875
 30
0.0
 10
-3000.2836914062509095
 20
82.1259765625000142
 30
0.0
 10
-2999.8286132812495453
 20
82.5107421875
 30
0.0
 10
-2999.32275390625
 20
82.8271484375
 30
0.0
 40
0.0
 40
0.0
 40
0.0
 40
0.0
 40
4.0
 40
4.0
 40
4.0
 40
4.0
  0
LWPOLYLINE
  5
49
100
AcDbEntity
  8
mainlayer
 62
1
370
-1
 48
1.0
  6
BYLAYER
100
AcDbPolyline
 90
4
 70
0
 10
-2999.32275390625
 20
82.8271484375
 10
-2997.23974609375
 20
83.6923828125
 10
-2997.23974609375
 20
83.6923828125
 10
-2995.93408203125
 20
83.833984375
  0
SPLINE
  5
4A
100
AcDbEntity
  8
mainlayer
 62
1
370
-1
 48
1.0
  6
BYLAYER
100
AcDbSpline
 70
8
 71
3
 72
8
 73
4
 74
0
 10
-2995.93408203125
 20
83.833984375
 30
0.0
 10
-2995.3100585937509095
 20
83.8310546875000142
 30
0.0
 10
-2994.69482421875
 20
83.73046875
 30
0.0
 10
-2994.10302734375
 20
83.53515625
 30
0.0
 40
0.0
 40
0.0
 40
0.0
 40
0.0
 40
4.0
 40
4.0
 40
4.0
 40
4.0
  0
SPLINE
  5
4B
100
AcDbEntity
  8
mainlayer
 62
1
370
-1
 48
1.0
  6
BYLAYER
100
AcDbSpline
 70
8
 71
3
 72
8
 73
4
 74
0
 10
-2994.10302734375
 20
83.53515625
 30
0.0
 10
-2993.6567382812504547
 20
83.3876953125000142
 30
0.0
 10
-2993.23193359375
 20
83.1894531249999858
 30
0.0
 10
-2992.83349609375
 20
82.94140625
 30
0.0
 40
0.0
 40
0.0
 40
0.0
 40
0.0
 40
4.0
 40
4.0
 40
4.0
 40
4.0
  0
LWPOLYLINE
  5
4C
100
AcDbEntity
  8
mainlayer
 62
1
370
-1
 48
1.0
  6
BYLAYER
100
AcDbPolyline
 90
12
 70
0
 10
-2992.83349609375
 20
82.94140625
 10
-2991.23583984375
 20
81.46875
 10
-2991.23583984375
 20
81.46875
 10
-2990.48681640625
 20
80.244140625
 10
-2990.48681640625
 20
80.244140625
 10
-2989.56298828125
 20
82.3037109375
 10
-2989.56298828125
 20
82.3037109375
 10
-2988.15771484375
 20
83.8251953125
 10
-2988.15771484375
 20
83.8251953125
 10
-2986.36279296875
 20
84.7646484375
 10
-2986.36279296875
 20
84.7646484375
 10
-2984.27001953125
 20
85.0771484375
  0
SPLINE
  5
4D
100
AcDbEntity
  8
mainlayer
 62
1
370
-1
 48
1.0
  6
BYLAYER
100
AcDbSpline
 70
8
 71
3
 72
8
 73
4
 74
0
 10
-2984.27001953125
 20
85.0771484375
 30
0.0
 10
-2983.4711914062504547
 20
85.0810546875000284
 30
0.0
 10
-2982.6821289062495453
 20
84.9609375
 30
0.0
 10
-2981.92138671875
 20
84.7177734375
 30
0.0
 40
0.0
 40
0.0
 40
0.0
 40
0.0
 40
4.0
 40
4.0
 40
4.0
 40
4.0
  0
SPLINE
  5
4E
100
AcDbEntity
  8
mainlayer
 62
1
370
-1
 48
1.0
  6
BYLAYER
100
AcDbSpline
 70
8
 71
3
 72
8
 73
4
 74
0
 10
-2981.92138671875
 20
84.7177734375
 30
0.0
 10
-2981.5776367187504547
 20
84.6074218750000142
 30
0.0
 10
-2981.2416992187495453
 20
84.4736328125
 30
0.0
 10
-2980.91650390625
 20
84.3154296875
 30
0.0
 40
0.0
 40
0.0
 40
0.0
 40
0.0
 40
4.0
 40
4.0
 40
4.0
 40
4.0
  0
LWPOLYLINE
  5
4F
100
AcDbEntity
  8
mainlayer
 62
1
370
-1
 48
1.0
  6
BYLAYER
100
AcDbPolyline
 90
8
 70
0
 10
-2980.91650390625
 20
84.3154296875
 10
-2978.98974609375
 20
82.970703125
 10
-2978.98974609375
 20
82.970703125
 10
-2977.78759765625
 20
81.169921875
 10
-2977.78759765625
 20
81.169921875
 10
-2977.06787109375
 20
78.7294921875
 10
-2977.06787109375
 20
78.7294921875
 10
-2976.82666015625
 20
75.48046875
  0
LWPOLYLINE
  5
50
100
AcDbEntity
  8
mainlayer
 62
1
370
-1
 48
1.0
  6
BYLAYER
100
AcDbPolyline
 90
22
 70
0
 10
-2988.68310546875
 20
69.087890625
 10
-2988.57568359375
 20
77.1904296875
 10
-2988.57568359375
 20
77.1904296875
 10
-2988.13720703125
 20
79.0986328125
 10
-2988.13720703125
 20
79.0986328125
 10
-2987.25634765625
 20
80.41796875
 10
-2987.25634765625
 20
80.41796875
 10
-2985.91845703125
 20
81.2705078125
 10
-2985.91845703125
 20
81.2705078125
 10
-2984.27001953125
 20
81.5576171875
 10
-2984.27001953125
 20
81.5576171875
 10
-2982.59326171875
 20
81.271484375
 10
-2982.59326171875
 20
81.271484375
 10
-2981.28173828125
 20
80.4716796875
 10
-2981.28173828125
 20
80.4716796875
 10
-2980.45166015625
 20
79.3349609375
 10
-2980.45166015625
 20
79.3349609375
 10
-2979.92529296875
 20
77.3974609375
 10
-2979.92529296875
 20
77.3974609375
 10
-2979.85693359375
 20
69.087890625
 10
-2979.85693359375
 20
69.087890625
 10
-2988.68310546875
 20
69.087890625
  0
LWPOLYLINE
  5
51
100
AcDbEntity
  8
mainlayer
 62
1
370
-1
 48
1.0
  6
BYLAYER
100
AcDbPolyline
 90
6
 70
0
 10
-2581.451171875
 20
1785.07421875
 10
-2581.451171875
 20
1793.11328125
 10
-2581.451171875
 20
1793.11328125
 10
-2593.02734375
 20
1793.11328125
 10
-2593.02734375
 20
1793.11328125
 10
-2581.451171875
 20
1785.07421875
  0
LWPOLYLINE
  5
52
100
AcDbEntity
  8
mainlayer
 62
1
370
-1
 48
1.0
  6
BYLAYER
100
AcDbPolyline
 90
22
 70
0
 10
-2572.41455078125
 20
1796.265625
 10
-2578.5615234375
 20
1796.265625
 10
-2578.5615234375
 20
1796.265625
 10
-2578.5615234375
 20
1799.7333984375
 10
-2578.5615234375
 20
1799.7333984375
 10
-2581.451171875
 20
1799.7333984375
 10
-2581.451171875
 20
1799.7333984375
 10
-2581.451171875
 20
1796.265625
 10
-2581.451171875
 20
1796.265625
 10
-2598.0888671875
 20
1796.265625
 10
-2598.0888671875
 20
1796.265625
 10
-2598.0888671875
 20
1793.69140625
 10
-2598.0888671875
 20
1793.69140625
 10
-2581.451171875
 20
1781.974609375
 10
-2581.451171875
 20
1781.974609375
 10
-2578.5615234375
 20
1781.974609375
 10
-2578.5615234375
 20
1781.974609375
 10
-2578.5615234375
 20
1793.11328125
 10
-2578.5615234375
 20
1793.11328125
 10
-2572.41455078125
 20
1793.11328125
 10
-2572.41455078125
 20
1793.11328125
 10
-2572.41455078125
 20
1796.265625
  0
LWPOLYLINE
  5
53
100
AcDbEntity
  8
mainlayer
 62
1
370
-1
 48
1.0
  6
BYLAYER
100
AcDbPolyline
 90
8
 70
0
 10
-3400.46240234375
 20
71.6767578125
 10
-3400.46240234375
 20
61.8867149353027344
 10
-3400.46240234375
 20
61.8867149353027344
 10
-3426.13720703125
 20
61.8867149353027344
 10
-3426.13720703125
 20
61.8867149353027344
 10
-3426.02685546875
 20
73.5625
 10
-3426.02685546875
 20
73.5625
 10
-3425.35791015625
 20
76.2392578125
  0
SPLINE
  5
54
100
AcDbEntity
  8
mainlayer
 62
1
370
-1
 48
1.0
  6
BYLAYER
100
AcDbSpline
 70
8
 71
3
 72
8
 73
4
 74
0
 10
-3425.35791015625
 20
76.2392578125
 30
0.0
 10
-3425.0971679687509095
 20
76.8369140625000142
 30
0.0
 10
-3424.74658203125
 20
77.3876953125
 30
0.0
 10
-3424.31396484375
 20
77.8759765625
 30
0.0
 40
0.0
 40
0.0
 40
0.0
 40
0.0
 40
4.0
 40
4.0
 40
4.0
 40
4.0
  0
SPLINE
  5
55
100
AcDbEntity
  8
mainlayer
 62
1
370
-1
 48
1.0
  6
BYLAYER
100
AcDbSpline
 70
8
 71
3
 72
8
 73
4
 74
0
 10
-3424.31396484375
 20
77.8759765625
 30
0.0
 10
-3423.9184570312509095
 20
78.3222656250000142
 30
0.0
 10
-3423.46435546875
 20
78.70703125
 30
0.0
 10
-3422.95849609375
 20
79.0234375
 30
0.0
 40
0.0
 40
0.0
 40
0.0
 40
0.0
 40
4.0
 40
4.0
 40
4.0
 40
4.0
  0
LWPOLYLINE
  5
56
100
AcDbEntity
  8
mainlayer
 62
1
370
-1
 48
1.0
  6
BYLAYER
100
AcDbPolyline
 90
4
 70
0
 10
-3422.95849609375
 20
79.0234375
 10
-3420.87548828125
 20
79.888671875
 10
-3420.87548828125
 20
79.888671875
 10
-3419.56982421875
 20
80.0302734375
  0
SPLINE
  5
57
100
AcDbEntity
  8
mainlayer
 62
1
370
-1
 48
1.0
  6
BYLAYER
100
AcDbSpline
 70
8
 71
3
 72
8
 73
4
 74
0
 10
-3419.56982421875
 20
80.0302734375
 30
0.0
 10
-3418.9458007812504547
 20
80.0273437500000284
 30
0.0
 10
-3418.3305664062495453
 20
79.9267578125
 30
0.0
 10
-3417.73876953125
 20
79.7314453125
 30
0.0
 40
0.0
 40
0.0
 40
0.0
 40
0.0
 40
4.0
 40
4.0
 40
4.0
 40
4.0
  0
SPLINE
  5
58
100
AcDbEntity
  8
mainlayer
 62
1
370
-1
 48
1.0
  6
BYLAYER
100
AcDbSpline
 70
8
 71
3
 72
8
 73
4
 74
0
 10
-3417.73876953125
 20
79.7314453125
 30
0.0
 10
-3417.2924804687509095
 20
79.583984375
 30
0.0
 10
-3416.86767578125
 20
79.3857421875
 30
0.0
 10
-3416.46923828125
 20
79.1376953125
 30
0.0
 40
0.0
 40
0.0
 40
0.0
 40
0.0
 40
4.0
 40
4.0
 40
4.0
 40
4.0
  0
LWPOLYLINE
  5
59
100
AcDbEntity
  8
mainlayer
 62
1
370
-1
 48
1.0
  6
BYLAYER
100
AcDbPolyline
 90
12
 70
0
 10
-3416.46923828125
 20
79.1376953125
 10
-3414.87158203125
 20
77.6650390625
 10
-3414.87158203125
 20
77.6650390625
 10
-3414.12255859375
 20
76.4404296875
 10
-3414.12255859375
 20
76.4404296875
 10
-3413.19873046875
 20
78.5
 10
-3413.19873046875
 20
78.5
 10
-3411.79345703125
 20
80.021484375
 10
-3411.79345703125
 20
80.021484375
 10
-3409.99853515625
 20
80.9609375
 10
-3409.99853515625
 20
80.9609375
 10
-3407.90576171875
 20
81.2744140625
  0
SPLINE
  5
5A
100
AcDbEntity
  8
mainlayer
 62
1
370
-1
 48
1.0
  6
BYLAYER
100
AcDbSpline
 70
8
 71
3
 72
8
 73
4
 74
0
 10
-3407.90576171875
 20
81.2744140625
 30
0.0
 10
-3407.1069335937504547
 20
81.2783203125000284
 30
0.0
 10
-3406.31787109375
 20
81.1572265625
 30
0.0
 10
-3405.55712890625
 20
80.9150390625
 30
0.0
 40
0.0
 40
0.0
 40
0.0
 40
0.0
 40
4.0
 40
4.0
 40
4.0
 40
4.0
  0
SPLINE
  5
5B
100
AcDbEntity
  8
mainlayer
 62
1
370
-1
 48
1.0
  6
BYLAYER
100
AcDbSpline
 70
8
 71
3
 72
8
 73
4
 74
0
 10
-3405.55712890625
 20
80.9150390625
 30
0.0
 10
-3405.2124023437509095
 20
80.8046875000000284
 30
0.0
 10
-3404.87646484375
 20
80.6708984375
 30
0.0
 10
-3404.55126953125
 20
80.5126953125
 30
0.0
 40
0.0
 40
0.0
 40
0.0
 40
0.0
 40
4.0
 40
4.0
 40
4.0
 40
4.0
  0
LWPOLYLINE
  5
5C
100
AcDbEntity
  8
mainlayer
 62
1
370
-1
 48
1.0
  6
BYLAYER
100
AcDbPolyline
 90
8
 70
0
 10
-3404.55126953125
 20
80.5126953125
 10
-3402.62548828125
 20
79.16796875
 10
-3402.62548828125
 20
79.16796875
 10
-3401.42333984375
 20
77.3662109375
 10
-3401.42333984375
 20
77.3662109375
 10
-3400.70361328125
 20
74.92578125
 10
-3400.70361328125
 20
74.92578125
 10
-3400.46240234375
 20
71.6767578125
  0
LWPOLYLINE
  5
5D
100
AcDbEntity
  8
mainlayer
 62
1
370
-1
 48
1.0
  6
BYLAYER
100
AcDbPolyline
 90
4
 70
0
 10
-3423.10693359375
 20
65.2841796875
 10
-3422.96630859375
 20
73.23828125
 10
-3422.96630859375
 20
73.23828125
 10
-3422.74853515625
 20
74.3212890625
  0
SPLINE
  5
5E
100
AcDbEntity
  8
mainlayer
 62
1
370
-1
 48
1.0
  6
BYLAYER
100
AcDbSpline
 70
8
 71
3
 72
8
 73
4
 74
0
 10
-3422.74853515625
 20
74.3212890625
 30
0.0
 10
-3422.6489257812504547
 20
74.6425781250000142
 30
0.0
 10
-3422.50146484375
 20
74.9443359375
 30
0.0
 10
-3422.30810546875
 20
75.21875
 30
0.0
 40
0.0
 40
0.0
 40
0.0
 40
0.0
 40
4.0
 40
4.0
 40
4.0
 40
4.0
  0
SPLINE
  5
5F
100
AcDbEntity
  8
mainlayer
 62
1
370
-1
 48
1.0
  6
BYLAYER
100
AcDbSpline
 70
8
 71
3
 72
8
 73
4
 74
0
 10
-3422.30810546875
 20
75.21875
 30
0.0
 10
-3422.0688476562509095
 20
75.5595703125000142
 30
0.0
 10
-3421.76806640625
 20
75.84765625
 30
0.0
 10
-3421.41748046875
 20
76.072265625
 30
0.0
 40
0.0
 40
0.0
 40
0.0
 40
0.0
 40
4.0
 40
4.0
 40
4.0
 40
4.0
  0
LWPOLYLINE
  5
60
100
AcDbEntity
  8
mainlayer
 62
1
370
-1
 48
1.0
  6
BYLAYER
100
AcDbPolyline
 90
14
 70
0
 10
-3421.41748046875
 20
76.072265625
 10
-3419.78662109375
 20
76.6474609375
 10
-3419.78662109375
 20
76.6474609375
 10
-3417.93212890625
 20
76.521484375
 10
-3417.93212890625
 20
76.521484375
 10
-3416.70947265625
 20
75.8544921875
 10
-3416.70947265625
 20
75.8544921875
 10
-3415.87060546875
 20
74.6845703125
 10
-3415.87060546875
 20
74.6845703125
 10
-3415.42333984375
 20
72.775390625
 10
-3415.42333984375
 20
72.775390625
 10
-3415.34912109375
 20
65.2841796875
 10
-3415.34912109375
 20
65.2841796875
 10
-3423.10693359375
 20
65.2841796875
  0
LWPOLYLINE
  5
61
100
AcDbEntity
  8
mainlayer
 62
1
370
-1
 48
1.0
  6
BYLAYER
100
AcDbPolyline
 90
22
 70
0
 10
-2976.82666015625
 20
57.8623008728027344
 10
-2982.97412109375
 20
57.8623008728027344
 10
-2982.97412109375
 20
57.8623008728027344
 10
-2982.97412109375
 20
61.3290977478027344
 10
-2982.97412109375
 20
61.3290977478027344
 10
-2985.86376953125
 20
61.3290977478027344
 10
-2985.86376953125
 20
61.3290977478027344
 10
-2985.86376953125
 20
57.8623008728027344
 10
-2985.86376953125
 20
57.8623008728027344
 10
-3002.50146484375
 20
57.8623008728027344
 10
-3002.50146484375
 20
57.8623008728027344
 10
-3002.50146484375
 20
55.2871055603027344
 10
-3002.50146484375
 20
55.2871055603027344
 10
-2985.86376953125
 20
43.5712890625
 10
-2985.86376953125
 20
43.5712890625
 10
-2982.97412109375
 20
43.5712890625
 10
-2982.97412109375
 20
43.5712890625
 10
-2982.97412109375
 20
54.7099571228027344
 10
-2982.97412109375
 20
54.7099571228027344
 10
-2976.82666015625
 20
54.7099571228027344
 10
-2976.82666015625
 20
54.7099571228027344
 10
-2976.82666015625
 20
57.8623008728027344
  0
LWPOLYLINE
  5
62
100
AcDbEntity
  8
mainlayer
 62
1
370
-1
 48
1.0
  6
BYLAYER
100
AcDbPolyline
 90
24
 70
0
 10
-3645.51708984375
 20
17.8310565948486328
 10
-3643.39697265625
 20
16.3505878448486328
 10
-3643.39697265625
 20
16.3505878448486328
 10
-3641.23291015625
 20
13.9980478286743164
 10
-3641.23291015625
 20
13.9980478286743164
 10
-3639.39111328125
 20
11.0566415786743164
 10
-3639.39111328125
 20
11.0566415786743164
 10
-3639.07275390625
 20
10.4052743911743164
 10
-3639.07275390625
 20
10.4052743911743164
 10
-3636.02490234375
 20
10.4052743911743164
 10
-3636.02490234375
 20
10.4052743911743164
 10
-3637.65380859375
 20
13.7246103286743164
 10
-3637.65380859375
 20
13.7246103286743164
 10
-3639.28271484375
 20
16.0966815948486328
 10
-3639.28271484375
 20
16.0966815948486328
 10
-3639.82568359375
 20
16.7099628448486328
 10
-3639.82568359375
 20
16.7099628448486328
 10
-3619.73779296875
 20
16.7109394073486328
 10
-3619.73779296875
 20
16.7109394073486328
 10
-3619.73779296875
 20
19.8632831573486328
 10
-3619.73779296875
 20
19.8632831573486328
 10
-3645.51708984375
 20
19.8632831573486328
 10
-3645.51708984375
 20
19.8632831573486328
 10
-3645.51708984375
 20
17.8310565948486328
  0
LWPOLYLINE
  5
63
100
AcDbEntity
  8
mainlayer
 62
1
370
-1
 48
1.0
  6
BYLAYER
100
AcDbPolyline
 90
6
 70
0
 10
-2985.86376953125
 20
46.6708946228027344
 10
-2985.86376953125
 20
54.7099571228027344
 10
-2985.86376953125
 20
54.7099571228027344
 10
-2997.43994140625
 20
54.7099571228027344
 10
-2997.43994140625
 20
54.7099571228027344
 10
-2985.86376953125
 20
46.6708946228027344
  0
LWPOLYLINE
  5
64
100
AcDbEntity
  8
mainlayer
 62
1
370
-1
 48
1.0
  6
BYLAYER
100
AcDbPolyline
 90
4
 70
0
 10
-2999.47119140625
 20
69.087890625
 10
-2999.33154296875
 20
77.0419921875
 10
-2999.33154296875
 20
77.0419921875
 10
-2999.11279296875
 20
78.125
  0
SPLINE
  5
65
100
AcDbEntity
  8
mainlayer
 62
1
370
-1
 48
1.0
  6
BYLAYER
100
AcDbSpline
 70
8
 71
3
 72
8
 73
4
 74
0
 10
-2999.11279296875
 20
78.125
 30
0.0
 10
-2999.0131835937504547
 20
78.4462890625000142
 30
0.0
 10
-2998.86572265625
 20
78.748046875
 30
0.0
 10
-2998.67236328125
 20
79.0224609375
 30
0.0
 40
0.0
 40
0.0
 40
0.0
 40
0.0
 40
4.0
 40
4.0
 40
4.0
 40
4.0
  0
SPLINE
  5
66
100
AcDbEntity
  8
mainlayer
 62
1
370
-1
 48
1.0
  6
BYLAYER
100
AcDbSpline
 70
8
 71
3
 72
8
 73
4
 74
0
 10
-2998.67236328125
 20
79.0224609375
 30
0.0
 10
-2998.4331054687504547
 20
79.3632812500000284
 30
0.0
 10
-2998.1323242187495453
 20
79.6513671875
 30
0.0
 10
-2997.78173828125
 20
79.8759765625
 30
0.0
 40
0.0
 40
0.0
 40
0.0
 40
0.0
 40
4.0
 40
4.0
 40
4.0
 40
4.0
  0
LWPOLYLINE
  5
67
100
AcDbEntity
  8
mainlayer
 62
1
370
-1
 48
1.0
  6
BYLAYER
100
AcDbPolyline
 90
14
 70
0
 10
-2997.78173828125
 20
79.8759765625
 10
-2996.15087890625
 20
80.451171875
 10
-2996.15087890625
 20
80.451171875
 10
-2994.29638671875
 20
80.3251953125
 10
-2994.29638671875
 20
80.3251953125
 10
-2993.07373046875
 20
79.658203125
 10
-2993.07373046875
 20
79.658203125
 10
-2992.23486328125
 20
78.4873046875
 10
-2992.23486328125
 20
78.4873046875
 10
-2991.78759765625
 20
76.5791015625
 10
-2991.78759765625
 20
76.5791015625
 10
-2991.71337890625
 20
69.087890625
 10
-2991.71337890625
 20
69.087890625
 10
-2999.47119140625
 20
69.087890625
  0
LWPOLYLINE
  5
68
100
AcDbEntity
  8
mainlayer
 62
1
370
-1
 48
1.0
  6
BYLAYER
100
AcDbPolyline
 90
86
 70
0
 10
-2643.11474609375
 20
39.767578125
 10
-2644.53759765625
 20
41.1142578125
 10
-2644.53759765625
 20
41.1142578125
 10
-2645.42822265625
 20
42.9951171875
 10
-2645.42822265625
 20
42.9951171875
 10
-2645.57666015625
 20
45.0419883728027344
 10
-2645.57666015625
 20
45.0419883728027344
 10
-2645.21142578125
 20
46.6611289978027344
 10
-2645.21142578125
 20
46.6611289978027344
 10
-2644.40771484375
 20
48.0175743103027344
 10
-2644.40771484375
 20
48.0175743103027344
 10
-2643.19189453125
 20
49.0732383728027344
 10
-2643.19189453125
 20
49.0732383728027344
 10
-2641.64892578125
 20
49.7128868103027344
 10
-2641.64892578125
 20
49.7128868103027344
 10
-2639.09521484375
 20
49.9003868103027344
 10
-2639.09521484375
 20
49.9003868103027344
 10
-2637.22998046875
 20
49.5312461853027344
 10
-2637.22998046875
 20
49.5312461853027344
 10
-2635.6796875
 20
48.7187461853027344
 10
-2635.6796875
 20
48.7187461853027344
 10
-2634.482421875
 20
47.5175743103027344
 10
-2634.482421875
 20
47.5175743103027344
 10
-2633.75830078125
 20
46.1054649353027344
 10
-2633.75830078125
 20
46.1054649353027344
 10
-2633.51708984375
 20
44.4960899353027344
 10
-2633.51708984375
 20
44.4960899353027344
 10
-2633.8212890625
 20
42.7431640625
 10
-2633.8212890625
 20
42.7431640625
 10
-2634.73388671875
 20
41.265625
 10
-2634.73388671875
 20
41.265625
 10
-2636.2509765625
 20
40.16796875
 10
-2636.2509765625
 20
40.16796875
 10
-2638.3681640625
 20
39.5576171875
 10
-2638.3681640625
 20
39.5576171875
 10
-2638.087890625
 20
36.248046875
 10
-2638.087890625
 20
36.248046875
 10
-2635.837890625
 20
36.7509765625
 10
-2635.837890625
 20
36.7509765625
 10
-2633.947265625
 20
37.7890625
 10
-2633.947265625
 20
37.7890625
 10
-2632.4267578125
 20
39.3525390625
 10
-2632.4267578125
 20
39.3525390625
 10
-2631.41552734375
 20
41.3154296875
 10
-2631.41552734375
 20
41.3154296875
 10
-2630.95556640625
 20
43.640625
 10
-2630.95556640625
 20
43.640625
 10
-2631.11962890625
 20
46.5205039978027344
 10
-2631.11962890625
 20
46.5205039978027344
 10
-2631.9111328125
 20
48.7333946228027344
 10
-2631.9111328125
 20
48.7333946228027344
 10
-2633.3115234375
 20
50.5937461853027344
 10
-2633.3115234375
 20
50.5937461853027344
 10
-2635.37109375
 20
52.1279258728027344
 10
-2635.37109375
 20
52.1279258728027344
 10
-2637.5859375
 20
52.9843711853027344
 10
-2637.5859375
 20
52.9843711853027344
 10
-2640.06689453125
 20
53.2705039978027344
 10
-2640.06689453125
 20
53.2705039978027344
 10
-2642.62451171875
 20
52.9453086853027344
 10
-2642.62451171875
 20
52.9453086853027344
 10
-2644.80908203125
 20
51.9697227478027344
 10
-2644.80908203125
 20
51.9697227478027344
 10
-2646.60205078125
 20
50.3642539978027344
 10
-2646.60205078125
 20
50.3642539978027344
 10
-2647.80322265625
 20
48.3847618103027344
 10
-2647.80322265625
 20
48.3847618103027344
 10
-2648.34912109375
 20
46.1083946228027344
 10
-2648.34912109375
 20
46.1083946228027344
 10
-2648.28466796875
 20
44.029296875
 10
-2648.28466796875
 20
44.029296875
 10
-2647.75634765625
 20
42.19921875
 10
-2647.75634765625
 20
42.19921875
 10
-2646.77490234375
 20
40.43359375
 10
-2646.77490234375
 20
40.43359375
 10
-2653.67431640625
 20
41.81640625
 10
-2653.67431640625
 20
41.81640625
 10
-2653.67431640625
 20
52.0624961853027344
 10
-2653.67431640625
 20
52.0624961853027344
 10
-2656.68701171875
 20
52.0624961853027344
 10
-2656.68701171875
 20
52.0624961853027344
 10
-2656.68701171875
 20
39.294921875
 10
-2656.68701171875
 20
39.294921875
 10
-2643.49951171875
 20
36.8076171875
 10
-2643.49951171875
 20
36.8076171875
 10
-2643.11474609375
 20
39.767578125
  0
LWPOLYLINE
  5
69
100
AcDbEntity
  8
mainlayer
 62
1
370
-1
 48
1.0
  6
BYLAYER
100
AcDbPolyline
 90
28
 70
0
 10
-3198.00927734375
 20
11.4501962661743164
 10
-3197.44873046875
 20
14.6025400161743164
 10
-3197.44873046875
 20
14.6025400161743164
 10
-3199.47216796875
 20
15.1708993911743164
 10
-3199.47216796875
 20
15.1708993911743164
 10
-3200.91650390625
 20
16.1787128448486328
 10
-3200.91650390625
 20
16.1787128448486328
 10
-3201.78369140625
 20
17.5576190948486328
 10
-3201.78369140625
 20
17.5576190948486328
 10
-3202.07275390625
 20
19.2431659698486328
 10
-3202.07275390625
 20
19.2431659698486328
 10
-3201.78759765625
 20
20.9287128448486328
 10
-3201.78759765625
 20
20.9287128448486328
 10
-3200.93408203125
 20
22.2734394073486328
 10
-3200.93408203125
 20
22.2734394073486328
 10
-3199.64697265625
 20
23.1533222198486328
 10
-3199.64697265625
 20
23.1533222198486328
 10
-3198.06201171875
 20
23.4462909698486328
 10
-3198.06201171875
 20
23.4462909698486328
 10
-3196.58056640625
 20
23.2197284698486328
 10
-3196.58056640625
 20
23.2197284698486328
 10
-3195.41845703125
 20
22.5400409698486328
 10
-3195.41845703125
 20
22.5400409698486328
 10
-3194.36181640625
 20
21.0039081573486328
 10
-3194.36181640625
 20
21.0039081573486328
 10
-3193.83642578125
 20
19.1914081573486328
 10
-3193.83642578125
 20
19.1914081573486328
 10
-3193.77099609375
 20
18.2099628448486328
  0
SPLINE
  5
6A
100
AcDbEntity
  8
mainlayer
 62
1
370
-1
 48
1.0
  6
BYLAYER
100
AcDbSpline
 70
8
 71
3
 72
8
 73
4
 74
0
 10
-3193.77099609375
 20
18.2099628448486328
 30
0.0
 10
-3193.7739257812509095
 20
18.0400409698486399
 30
0.0
 10
-3193.78466796875
 20
17.8710956573486328
 30
0.0
 10
-3193.80615234375
 20
17.7021503448486328
 30
0.0
 40
0.0
 40
0.0
 40
0.0
 40
0.0
 40
4.0
 40
4.0
 40
4.0
 40
4.0
  0
LWPOLYLINE
  5
6B
100
AcDbEntity
  8
mainlayer
 62
1
370
-1
 48
1.0
  6
BYLAYER
100
AcDbPolyline
 90
18
 70
0
 10
-3193.80615234375
 20
17.7021503448486328
 10
-3191.03955078125
 20
17.3515644073486328
 10
-3191.03955078125
 20
17.3515644073486328
 10
-3191.38916015625
 20
19.5761737823486328
 10
-3191.38916015625
 20
19.5761737823486328
 10
-3191.03662109375
 20
21.5722675323486328
 10
-3191.03662109375
 20
21.5722675323486328
 10
-3189.97998046875
 20
23.1835956573486328
 10
-3189.97998046875
 20
23.1835956573486328
 10
-3188.81494140625
 20
24.0478534698486328
 10
-3188.81494140625
 20
24.0478534698486328
 10
-3186.92919921875
 20
24.5800800323486328
 10
-3186.92919921875
 20
24.5800800323486328
 10
-3184.79443359375
 20
24.3867206573486328
 10
-3184.79443359375
 20
24.3867206573486328
 10
-3183.39697265625
 20
23.7402362823486328
 10
-3183.39697265625
 20
23.7402362823486328
 10
-3182.58056640625
 20
23.0703144073486328
  0
SPLINE
  5
6C
100
AcDbEntity
  8
mainlayer
 62
1
370
-1
 48
1.0
  6
BYLAYER
100
AcDbSpline
 70
8
 71
3
 72
8
 73
4
 74
0
 10
-3182.58056640625
 20
23.0703144073486328
 30
0.0
 10
-3182.1879882812509095
 20
22.6757831573486399
 30
0.0
 10
-3181.86181640625
 20
22.2255878448486328
 30
0.0
 10
-3181.61083984375
 20
21.7294940948486328
 30
0.0
 40
0.0
 40
0.0
 40
0.0
 40
0.0
 40
4.0
 40
4.0
 40
4.0
 40
4.0
  0
SPLINE
  5
6D
100
AcDbEntity
  8
mainlayer
 62
1
370
-1
 48
1.0
  6
BYLAYER
100
AcDbSpline
 70
8
 71
3
 72
8
 73
4
 74
0
 10
-3181.61083984375
 20
21.7294940948486328
 30
0.0
 10
-3181.3598632812504547
 20
21.2334003448486364
 30
0.0
 10
-3181.18896484375
 20
20.7050800323486328
 30
0.0
 10
-3181.10302734375
 20
20.1552753448486328
 30
0.0
 40
0.0
 40
0.0
 40
0.0
 40
0.0
 40
4.0
 40
4.0
 40
4.0
 40
4.0
  0
SPLINE
  5
6E
100
AcDbEntity
  8
mainlayer
 62
1
370
-1
 48
1.0
  6
BYLAYER
100
AcDbSpline
 70
8
 71
3
 72
8
 73
4
 74
0
 10
-3181.10302734375
 20
20.1552753448486328
 30
0.0
 10
-3181.0590820312509095
 20
19.8769550323486328
 30
0.0
 10
-3181.0385742187495453
 20
19.5957050323486328
 30
0.0
 10
-3181.03955078125
 20
19.3134784698486328
 30
0.0
 40
0.0
 40
0.0
 40
0.0
 40
0.0
 40
4.0
 40
4.0
 40
4.0
 40
4.0
  0
LWPOLYLINE
  5
6F
100
AcDbEntity
  8
mainlayer
 62
1
370
-1
 48
1.0
  6
BYLAYER
100
AcDbPolyline
 90
44
 70
0
 10
-3181.03955078125
 20
19.3134784698486328
 10
-3181.33447265625
 20
17.5820331573486328
 10
-3181.33447265625
 20
17.5820331573486328
 10
-3182.22119140625
 20
16.1347675323486328
 10
-3182.22119140625
 20
16.1347675323486328
 10
-3183.77783203125
 20
15.0205087661743164
 10
-3183.77783203125
 20
15.0205087661743164
 10
-3186.08251953125
 20
14.2871103286743164
 10
-3186.08251953125
 20
14.2871103286743164
 10
-3185.66259765625
 20
11.1347665786743164
 10
-3185.66259765625
 20
11.1347665786743164
 10
-3183.42626953125
 20
11.6406259536743164
 10
-3183.42626953125
 20
11.6406259536743164
 10
-3181.52490234375
 20
12.6865243911743164
 10
-3181.52490234375
 20
12.6865243911743164
 10
-3179.97119140625
 20
14.2587900161743164
 10
-3179.97119140625
 20
14.2587900161743164
 10
-3178.93310546875
 20
16.2021503448486328
 10
-3178.93310546875
 20
16.2021503448486328
 10
-3178.46142578125
 20
18.4687519073486328
 10
-3178.46142578125
 20
18.4687519073486328
 10
-3178.57568359375
 20
21.0888690948486328
 10
-3178.57568359375
 20
21.0888690948486328
 10
-3179.34326171875
 20
23.4746112823486328
 10
-3179.34326171875
 20
23.4746112823486328
 10
-3180.76806640625
 20
25.4951190948486328
 10
-3180.76806640625
 20
25.4951190948486328
 10
-3182.66552734375
 20
26.9892597198486328
 10
-3182.66552734375
 20
26.9892597198486328
 10
-3184.85107421875
 20
27.7939472198486328
 10
-3184.85107421875
 20
27.7939472198486328
 10
-3187.07666015625
 20
27.9277362823486328
 10
-3187.07666015625
 20
27.9277362823486328
 10
-3189.25146484375
 20
27.4550800323486328
 10
-3189.25146484375
 20
27.4550800323486328
 10
-3191.00634765625
 20
26.3554706573486328
 10
-3191.00634765625
 20
26.3554706573486328
 10
-3192.23779296875
 20
24.7128925323486328
 10
-3192.23779296875
 20
24.7128925323486328
 10
-3192.79052734375
 20
23.1484394073486328
 10
-3192.79052734375
 20
23.1484394073486328
 10
-3194.01611328125
 20
25.0029315948486328
 10
-3194.01611328125
 20
25.0029315948486328
 10
-3194.96240234375
 20
25.7929706573486328
  0
SPLINE
  5
70
100
AcDbEntity
  8
mainlayer
 62
1
370
-1
 48
1.0
  6
BYLAYER
100
AcDbSpline
 70
8
 71
3
 72
8
 73
4
 74
0
 10
-3194.96240234375
 20
25.7929706573486328
 30
0.0
 10
-3195.4497070312504547
 20
26.1103534698486435
 30
0.0
 10
-3195.98095703125
 20
26.3466815948486328
 30
0.0
 10
-3196.54248046875
 20
26.4980487823486328
 30
0.0
 40
0.0
 40
0.0
 40
0.0
 40
0.0
 40
4.0
 40
4.0
 40
4.0
 40
4.0
  0
SPLINE
  5
71
100
AcDbEntity
  8
mainlayer
 62
1
370
-1
 48
1.0
  6
BYLAYER
100
AcDbSpline
 70
8
 71
3
 72
8
 73
4
 74
0
 10
-3196.54248046875
 20
26.4980487823486328
 30
0.0
 10
-3197.0161132812504547
 20
26.6250019073486364
 30
0.0
 10
-3197.50146484375
 20
26.6875019073486293
 30
0.0
 10
-3197.99169921875
 20
26.6865253448486328
 30
0.0
 40
0.0
 40
0.0
 40
0.0
 40
0.0
 40
4.0
 40
4.0
 40
4.0
 40
4.0
  0
SPLINE
  5
72
100
AcDbEntity
  8
mainlayer
 62
1
370
-1
 48
1.0
  6
BYLAYER
100
AcDbSpline
 70
8
 71
3
 72
8
 73
4
 74
0
 10
-3197.99169921875
 20
26.6865253448486328
 30
0.0
 10
-3198.6684570312509095
 20
26.6826190948486399
 30
0.0
 10
-3199.3364257812495453
 20
26.5732440948486328
 30
0.0
 10
-3199.97900390625
 20
26.3613300323486328
 30
0.0
 40
0.0
 40
0.0
 40
0.0
 40
0.0
 40
4.0
 40
4.0
 40
4.0
 40
4.0
  0
SPLINE
  5
73
100
AcDbEntity
  8
mainlayer
 62
1
370
-1
 48
1.0
  6
BYLAYER
100
AcDbSpline
 70
8
 71
3
 72
8
 73
4
 74
0
 10
-3199.97900390625
 20
26.3613300323486328
 30
0.0
 10
-3200.4418945312504547
 20
26.2080097198486399
 30
0.0
 10
-3200.88525390625
 20
26.0029315948486328
 30
0.0
 10
-3201.30224609375
 20
25.7490253448486328
 30
0.0
 40
0.0
 40
0.0
 40
0.0
 40
0.0
 40
4.0
 40
4.0
 40
4.0
 40
4.0
  0
LWPOLYLINE
  5
74
100
AcDbEntity
  8
mainlayer
 62
1
370
-1
 48
1.0
  6
BYLAYER
100
AcDbPolyline
 90
18
 70
0
 10
-3201.30224609375
 20
25.7490253448486328
 10
-3202.99365234375
 20
24.2529315948486328
 10
-3202.99365234375
 20
24.2529315948486328
 10
-3204.15673828125
 20
22.1386737823486328
 10
-3204.15673828125
 20
22.1386737823486328
 10
-3204.65087890625
 20
19.6933612823486328
 10
-3204.65087890625
 20
19.6933612823486328
 10
-3204.41943359375
 20
17.0283222198486328
 10
-3204.41943359375
 20
17.0283222198486328
 10
-3203.68408203125
 20
15.1640634536743164
 10
-3203.68408203125
 20
15.1640634536743164
 10
-3202.46435546875
 20
13.5878915786743164
 10
-3202.46435546875
 20
13.5878915786743164
 10
-3200.82275390625
 20
12.3955087661743164
 10
-3200.82275390625
 20
12.3955087661743164
 10
-3198.77978515625
 20
11.6171884536743164
 10
-3198.77978515625
 20
11.6171884536743164
 10
-3198.00927734375
 20
11.4501962661743164
  0
LWPOLYLINE
  5
75
100
AcDbEntity
  8
mainlayer
 62
1
370
-1
 48
1.0
  6
BYLAYER
100
AcDbPolyline
 90
16
 70
0
 10
-3178.88525390625
 20
49.6816368103027344
 10
-3186.66064453125
 20
46.6865196228027344
 10
-3186.66064453125
 20
46.6865196228027344
 10
-3186.66064453125
 20
35.951171875
 10
-3186.66064453125
 20
35.951171875
 10
-3178.88525390625
 20
33.130859375
 10
-3178.88525390625
 20
33.130859375
 10
-3178.88525390625
 20
29.5234394073486328
 10
-3178.88525390625
 20
29.5234394073486328
 10
-3204.55908203125
 20
39.3837890625
 10
-3204.55908203125
 20
39.3837890625
 10
-3204.55908203125
 20
43.0439453125
 10
-3204.55908203125
 20
43.0439453125
 10
-3178.88525390625
 20
53.5517539978027344
 10
-3178.88525390625
 20
53.5517539978027344
 10
-3178.88525390625
 20
49.6816368103027344
  0
LWPOLYLINE
  5
76
100
AcDbEntity
  8
mainlayer
 62
1
370
-1
 48
1.0
  6
BYLAYER
100
AcDbPolyline
 90
8
 70
0
 10
-3196.95849609375
 20
39.7509765625
 10
-3189.42822265625
 20
36.931640625
 10
-3189.42822265625
 20
36.931640625
 10
-3189.42822265625
 20
45.6357383728027344
 10
-3189.42822265625
 20
45.6357383728027344
 10
-3201.32373046875
 20
41.2939453125
 10
-3201.32373046875
 20
41.2939453125
 10
-3201.86279296875
 20
41.134765625
  0
SPLINE
  5
77
100
AcDbEntity
  8
mainlayer
 62
1
370
-1
 48
1.0
  6
BYLAYER
100
AcDbSpline
 70
8
 71
3
 72
8
 73
4
 74
0
 10
-3201.86279296875
 20
41.134765625
 30
0.0
 10
-3200.1938476562509095
 20
40.8017578125000071
 30
0.0
 10
-3198.55517578125
 20
40.3388671875
 30
0.0
 10
-3196.95849609375
 20
39.7509765625
 30
0.0
 40
0.0
 40
0.0
 40
0.0
 40
0.0
 40
4.0
 40
4.0
 40
4.0
 40
4.0
  0
LWPOLYLINE
  5
78
100
AcDbEntity
  8
mainlayer
 62
1
370
-1
 48
1.0
  6
BYLAYER
100
AcDbPolyline
 90
8
 70
0
 10
-2796.58447265625
 20
37.8798828125
 10
-2789.05322265625
 20
35.060546875
 10
-2789.05322265625
 20
35.060546875
 10
-2789.05322265625
 20
43.7646484375
 10
-2789.05322265625
 20
43.7646484375
 10
-2800.94873046875
 20
39.421875
 10
-2800.94873046875
 20
39.421875
 10
-2801.48779296875
 20
39.263671875
  0
SPLINE
  5
79
100
AcDbEntity
  8
mainlayer
 62
1
370
-1
 48
1.0
  6
BYLAYER
100
AcDbSpline
 70
8
 71
3
 72
8
 73
4
 74
0
 10
-2801.48779296875
 20
39.263671875
 30
0.0
 10
-2799.8188476562504547
 20
38.9296875
 30
0.0
 10
-2798.18115234375
 20
38.4677734375
 30
0.0
 10
-2796.58447265625
 20
37.8798828125
 30
0.0
 40
0.0
 40
0.0
 40
0.0
 40
0.0
 40
4.0
 40
4.0
 40
4.0
 40
4.0
  0
LWPOLYLINE
  5
7A
100
AcDbEntity
  8
mainlayer
 62
1
370
-1
 48
1.0
  6
BYLAYER
100
AcDbPolyline
 90
4
 70
0
 10
-2645.02294921875
 20
71.88671875
 10
-2646.35888671875
 20
73.7861328125
 10
-2646.35888671875
 20
73.7861328125
 10
-2647.36962890625
 20
74.583984375
  0
SPLINE
  5
7B
100
AcDbEntity
  8
mainlayer
 62
1
370
-1
 48
1.0
  6
BYLAYER
100
AcDbSpline
 70
8
 71
3
 72
8
 73
4
 74
0
 10
-2647.36962890625
 20
74.583984375
 30
0.0
 10
-2647.8999023437504547
 20
74.9130859375000284
 30
0.0
 10
-2648.47412109375
 20
75.1552734375
 30
0.0
 10
-2649.07958984375
 20
75.3046875
 30
0.0
 40
0.0
 40
0.0
 40
0.0
 40
0.0
 40
4.0
 40
4.0
 40
4.0
 40
4.0
  0
SPLINE
  5
7C
100
AcDbEntity
  8
mainlayer
 62
1
370
-1
 48
1.0
  6
BYLAYER
100
AcDbSpline
 70
8
 71
3
 72
8
 73
4
 74
0
 10
-2649.07958984375
 20
75.3046875
 30
0.0
 10
-2649.5356445312504547
 20
75.4169921875000142
 30
0.0
 10
-2650.00048828125
 20
75.4755859375
 30
0.0
 10
-2650.47021484375
 20
75.4775390625
 30
0.0
 40
0.0
 40
0.0
 40
0.0
 40
0.0
 40
4.0
 40
4.0
 40
4.0
 40
4.0
  0
LWPOLYLINE
  5
7D
100
AcDbEntity
  8
mainlayer
 62
1
370
-1
 48
1.0
  6
BYLAYER
100
AcDbPolyline
 90
4
 70
0
 10
-2650.47021484375
 20
75.4775390625
 10
-2652.62255859375
 20
75.083984375
 10
-2652.62255859375
 20
75.083984375
 10
-2653.85888671875
 20
74.470703125
  0
SPLINE
  5
7E
100
AcDbEntity
  8
mainlayer
 62
1
370
-1
 48
1.0
  6
BYLAYER
100
AcDbSpline
 70
8
 71
3
 72
8
 73
4
 74
0
 10
-2653.85888671875
 20
74.470703125
 30
0.0
 10
-2654.4116210937504547
 20
74.1240234375
 30
0.0
 10
-2654.9038085937495453
 20
73.6962890625
 30
0.0
 10
-2655.32373046875
 20
73.1962890625
 30
0.0
 40
0.0
 40
0.0
 40
0.0
 40
0.0
 40
4.0
 40
4.0
 40
4.0
 40
4.0
  0
SPLINE
  5
7F
100
AcDbEntity
  8
mainlayer
 62
1
370
-1
 48
1.0
  6
BYLAYER
100
AcDbSpline
 70
8
 71
3
 72
8
 73
4
 74
0
 10
-2655.32373046875
 20
73.1962890625
 30
0.0
 10
-2655.7065429687509095
 20
72.7392578125000142
 30
0.0
 10
-2656.0200195312495453
 20
72.232421875
 30
0.0
 10
-2656.25830078125
 20
71.685546875
 30
0.0
 40
0.0
 40
0.0
 40
0.0
 40
0.0
 40
4.0
 40
4.0
 40
4.0
 40
4.0
  0
LWPOLYLINE
  5
80
100
AcDbEntity
  8
mainlayer
 62
1
370
-1
 48
1.0
  6
BYLAYER
100
AcDbPolyline
 90
16
 70
0
 10
-2656.25830078125
 20
71.685546875
 10
-2656.92724609375
 20
69.0087890625
 10
-2656.92724609375
 20
69.0087890625
 10
-2657.03759765625
 20
57.3339805603027344
 10
-2657.03759765625
 20
57.3339805603027344
 10
-2631.36279296875
 20
57.3339805603027344
 10
-2631.36279296875
 20
57.3339805603027344
 10
-2631.47021484375
 20
69.384765625
 10
-2631.47021484375
 20
69.384765625
 10
-2632.0322265625
 20
72.0751953125
 10
-2632.0322265625
 20
72.0751953125
 10
-2633.0615234375
 20
74.076171875
 10
-2633.0615234375
 20
74.076171875
 10
-2634.7216796875
 20
75.5556640625
 10
-2634.7216796875
 20
75.5556640625
 10
-2635.4521484375
 20
75.958984375
  0
SPLINE
  5
81
100
AcDbEntity
  8
mainlayer
 62
1
370
-1
 48
1.0
  6
BYLAYER
100
AcDbSpline
 70
8
 71
3
 72
8
 73
4
 74
0
 10
-2635.4521484375
 20
75.958984375
 30
0.0
 10
-2636.1708984375004547
 20
76.3076171875000142
 30
0.0
 10
-2636.93505859375
 20
76.5390625
 30
0.0
 10
-2637.72607421875
 20
76.6494140625
 30
0.0
 40
0.0
 40
0.0
 40
0.0
 40
0.0
 40
4.0
 40
4.0
 40
4.0
 40
4.0
  0
SPLINE
  5
82
100
AcDbEntity
  8
mainlayer
 62
1
370
-1
 48
1.0
  6
BYLAYER
100
AcDbSpline
 70
8
 71
3
 72
8
 73
4
 74
0
 10
-2637.72607421875
 20
76.6494140625
 30
0.0
 10
-2638.0839843750009095
 20
76.6982421875000284
 30
0.0
 10
-2638.44482421875
 20
76.72265625
 30
0.0
 10
-2638.80615234375
 20
76.720703125
 30
0.0
 40
0.0
 40
0.0
 40
0.0
 40
0.0
 40
4.0
 40
4.0
 40
4.0
 40
4.0
  0
LWPOLYLINE
  5
83
100
AcDbEntity
  8
mainlayer
 62
1
370
-1
 48
1.0
  6
BYLAYER
100
AcDbPolyline
 90
8
 70
0
 10
-2638.80615234375
 20
76.720703125
 10
-2640.89892578125
 20
76.408203125
 10
-2640.89892578125
 20
76.408203125
 10
-2642.69384765625
 20
75.46875
 10
-2642.69384765625
 20
75.46875
 10
-2644.09912109375
 20
73.947265625
 10
-2644.09912109375
 20
73.947265625
 10
-2645.02294921875
 20
71.88671875
  0
LWPOLYLINE
  5
84
100
AcDbEntity
  8
mainlayer
 62
1
370
-1
 48
1.0
  6
BYLAYER
100
AcDbPolyline
 90
16
 70
0
 10
-2572.41455078125
 20
1821.572265625
 10
-2580.1904296875
 20
1818.5771484375
 10
-2580.1904296875
 20
1818.5771484375
 10
-2580.1904296875
 20
1807.841796875
 10
-2580.1904296875
 20
1807.841796875
 10
-2572.41455078125
 20
1805.0224609375
 10
-2572.41455078125
 20
1805.0224609375
 10
-2572.41455078125
 20
1801.4140625
 10
-2572.41455078125
 20
1801.4140625
 10
-2598.0888671875
 20
1811.2744140625
 10
-2598.0888671875
 20
1811.2744140625
 10
-2598.0888671875
 20
1814.9345703125
 10
-2598.0888671875
 20
1814.9345703125
 10
-2572.41455078125
 20
1825.4423828125
 10
-2572.41455078125
 20
1825.4423828125
 10
-2572.41455078125
 20
1821.572265625
  0
LWPOLYLINE
  5
85
100
AcDbEntity
  8
mainlayer
 62
1
370
-1
 48
1.0
  6
BYLAYER
100
AcDbPolyline
 90
8
 70
0
 10
-3637.81201171875
 20
36.623046875
 10
-3630.28076171875
 20
33.8037109375
 10
-3630.28076171875
 20
33.8037109375
 10
-3630.28076171875
 20
42.5078125
 10
-3630.28076171875
 20
42.5078125
 10
-3642.17626953125
 20
38.1650390625
 10
-3642.17626953125
 20
38.1650390625
 10
-3642.71533203125
 20
38.0068359375
  0
SPLINE
  5
86
100
AcDbEntity
  8
mainlayer
 62
1
370
-1
 48
1.0
  6
BYLAYER
100
AcDbSpline
 70
8
 71
3
 72
8
 73
4
 74
0
 10
-3642.71533203125
 20
38.0068359375
 30
0.0
 10
-3641.0463867187509095
 20
37.6728515625000142
 30
0.0
 10
-3639.4086914062495453
 20
37.2109375
 30
0.0
 10
-3637.81201171875
 20
36.623046875
 30
0.0
 40
0.0
 40
0.0
 40
0.0
 40
0.0
 40
4.0
 40
4.0
 40
4.0
 40
4.0
  0
LWPOLYLINE
  5
87
100
AcDbEntity
  8
mainlayer
 62
1
370
-1
 48
1.0
  6
BYLAYER
100
AcDbPolyline
 90
88
 70
0
 10
-2793.92236328125
 20
13.4316415786743164
 10
-2800.82275390625
 20
14.8144540786743164
 10
-2800.82275390625
 20
14.8144540786743164
 10
-2800.82275390625
 20
25.0595722198486328
 10
-2800.82275390625
 20
25.0595722198486328
 10
-2803.83447265625
 20
25.0595722198486328
 10
-2803.83447265625
 20
25.0595722198486328
 10
-2803.83447265625
 20
12.2929697036743164
 10
-2803.83447265625
 20
12.2929697036743164
 10
-2790.64697265625
 20
9.8056650161743164
 10
-2790.64697265625
 20
9.8056650161743164
 10
-2790.26220703125
 20
12.7656259536743164
 10
-2790.26220703125
 20
12.7656259536743164
 10
-2791.68505859375
 20
14.1123056411743164
 10
-2791.68505859375
 20
14.1123056411743164
 10
-2792.57568359375
 20
15.9921884536743164
 10
-2792.57568359375
 20
15.9921884536743164
 10
-2792.72412109375
 20
18.0400409698486328
 10
-2792.72412109375
 20
18.0400409698486328
 10
-2792.35888671875
 20
19.6591815948486328
 10
-2792.35888671875
 20
19.6591815948486328
 10
-2791.55517578125
 20
21.0156269073486328
 10
-2791.55517578125
 20
21.0156269073486328
 10
-2790.33935546875
 20
22.0712909698486328
 10
-2790.33935546875
 20
22.0712909698486328
 10
-2788.79736328125
 20
22.7099628448486328
 10
-2788.79736328125
 20
22.7099628448486328
 10
-2786.93408203125
 20
22.9238300323486328
 10
-2786.93408203125
 20
22.9238300323486328
 10
-2784.96435546875
 20
22.7021503448486328
 10
-2784.96435546875
 20
22.7021503448486328
 10
-2783.30908203125
 20
22.0371112823486328
 10
-2783.30908203125
 20
22.0371112823486328
 10
-2781.97900390625
 20
20.9423847198486328
 10
-2781.97900390625
 20
20.9423847198486328
 10
-2781.09326171875
 20
19.5957050323486328
 10
-2781.09326171875
 20
19.5957050323486328
 10
-2780.69091796875
 20
18.0527362823486328
 10
-2780.69091796875
 20
18.0527362823486328
 10
-2780.83544921875
 20
16.1533222198486328
 10
-2780.83544921875
 20
16.1533222198486328
 10
-2781.59619140625
 20
14.6064462661743164
 10
-2781.59619140625
 20
14.6064462661743164
 10
-2782.96337890625
 20
13.3945322036743164
 10
-2782.96337890625
 20
13.3945322036743164
 10
-2784.93017578125
 20
12.6630868911743164
 10
-2784.93017578125
 20
12.6630868911743164
 10
-2785.51611328125
 20
12.5556650161743164
 10
-2785.51611328125
 20
12.5556650161743164
 10
-2785.23583984375
 20
9.2451181411743164
 10
-2785.23583984375
 20
9.2451181411743164
 10
-2782.98583984375
 20
9.7490243911743164
 10
-2782.98583984375
 20
9.7490243911743164
 10
-2781.09423828125
 20
10.7871103286743164
 10
-2781.09423828125
 20
10.7871103286743164
 10
-2779.57470703125
 20
12.3505868911743164
 10
-2779.57470703125
 20
12.3505868911743164
 10
-2778.56298828125
 20
14.3134775161743164
 10
-2778.56298828125
 20
14.3134775161743164
 10
-2778.10302734375
 20
16.6386737823486328
 10
-2778.10302734375
 20
16.6386737823486328
 10
-2778.26708984375
 20
19.5185565948486328
 10
-2778.26708984375
 20
19.5185565948486328
 10
-2779.05908203125
 20
21.7304706573486328
 10
-2779.05908203125
 20
21.7304706573486328
 10
-2780.45947265625
 20
23.5917987823486328
 10
-2780.45947265625
 20
23.5917987823486328
 10
-2782.51904296875
 20
25.1259784698486328
 10
-2782.51904296875
 20
25.1259784698486328
 10
-2784.73388671875
 20
25.9824237823486328
 10
-2784.73388671875
 20
25.9824237823486328
 10
-2787.21435546875
 20
26.2685565948486328
 10
-2787.21435546875
 20
26.2685565948486328
 10
-2789.77294921875
 20
25.9433612823486328
 10
-2789.77294921875
 20
25.9433612823486328
 10
-2791.95654296875
 20
24.9677753448486328
 10
-2791.95654296875
 20
24.9677753448486328
 10
-2793.74951171875
 20
23.3623065948486328
 10
-2793.74951171875
 20
23.3623065948486328
 10
-2794.95068359375
 20
21.3818378448486328
 10
-2794.95068359375
 20
21.3818378448486328
 10
-2795.49658203125
 20
19.1064472198486328
 10
-2795.49658203125
 20
19.1064472198486328
 10
-2795.43212890625
 20
17.0263690948486328
 10
-2795.43212890625
 20
17.0263690948486328
 10
-2794.62744140625
 20
14.6015634536743164
 10
-2794.62744140625
 20
14.6015634536743164
 10
-2793.92236328125
 20
13.4316415786743164
  0
LWPOLYLINE
  5
88
100
AcDbEntity
  8
mainlayer
 62
1
370
-1
 48
1.0
  6
BYLAYER
100
AcDbPolyline
 90
24
 70
0
 10
-2643.21923828125
 20
66.66796875
 10
-2643.21923828125
 20
60.7314414978027344
 10
-2643.21923828125
 20
60.7314414978027344
 10
-2634.392578125
 20
60.7314414978027344
 10
-2634.392578125
 20
60.7314414978027344
 10
-2634.51513671875
 20
69.435546875
 10
-2634.51513671875
 20
69.435546875
 10
-2635.2158203125
 20
71.396484375
 10
-2635.2158203125
 20
71.396484375
 10
-2636.20263671875
 20
72.4208984375
 10
-2636.20263671875
 20
72.4208984375
 10
-2637.65234375
 20
73.0732421875
 10
-2637.65234375
 20
73.0732421875
 10
-2639.50048828125
 20
73.154296875
 10
-2639.50048828125
 20
73.154296875
 10
-2641.03076171875
 20
72.6376953125
 10
-2641.03076171875
 20
72.6376953125
 10
-2642.20361328125
 20
71.5869140625
 10
-2642.20361328125
 20
71.5869140625
 10
-2642.89111328125
 20
70.0810546875
 10
-2642.89111328125
 20
70.0810546875
 10
-2643.21240234375
 20
67.263671875
 10
-2643.21240234375
 20
67.263671875
 10
-2643.21923828125
 20
66.66796875
  0
LWPOLYLINE
  5
89
100
AcDbEntity
  8
mainlayer
 62
1
370
-1
 48
1.0
  6
BYLAYER
100
AcDbPolyline
 90
8
 70
0
 10
-2590.48779296875
 20
1811.642578125
 10
-2582.95751953125
 20
1808.822265625
 10
-2582.95751953125
 20
1808.822265625
 10
-2582.95751953125
 20
1817.5263671875
 10
-2582.95751953125
 20
1817.5263671875
 10
-2594.85302734375
 20
1813.1845703125
 10
-2594.85302734375
 20
1813.1845703125
 10
-2595.39208984375
 20
1813.025390625
  0
SPLINE
  5
8A
100
AcDbEntity
  8
mainlayer
 62
1
370
-1
 48
1.0
  6
BYLAYER
100
AcDbSpline
 70
8
 71
3
 72
8
 73
4
 74
0
 10
-2595.39208984375
 20
1813.025390625
 30
0.0
 10
-2593.7231445312504547
 20
1812.6923828125004547
 30
0.0
 10
-2592.0849609374995453
 20
1812.2304687499997726
 30
0.0
 10
-2590.48779296875
 20
1811.642578125
 30
0.0
 40
0.0
 40
0.0
 40
0.0
 40
0.0
 40
4.0
 40
4.0
 40
4.0
 40
4.0
  0
SPLINE
  5
8B
100
AcDbEntity
  8
mainlayer
 62
0
370
-1
 48
1.0
  6
BYLAYER
100
AcDbSpline
 70
8
 71
3
 72
8
 73
4
 74
0
 10
-2629.1865234375
 20
1028.626953125
 30
0.0
 10
-2629.0258789062509095
 20
1023.6806640625003411
 30
0.0
 10
-2628.833984375
 20
1018.7353515625001137
 30
0.0
 10
-2628.6103515625
 20
1013.791015625
 30
0.0
 40
0.0
 40
0.0
 40
0.0
 40
0.0
 40
4.0
 40
4.0
 40
4.0
 40
4.0
  0
SPLINE
  5
8C
100
AcDbEntity
  8
mainlayer
 62
0
370
-1
 48
1.0
  6
BYLAYER
100
AcDbSpline
 70
8
 71
3
 72
8
 73
4
 74
0
 10
-2628.6103515625
 20
1013.791015625
 30
0.0
 10
-2626.9482421875009095
 20
976.0019531250001137
 30
0.0
 10
-2623.24951171875
 20
938.357421875
 30
0.0
 10
-2617.52490234375
 20
900.9677734375
 30
0.0
 40
0.0
 40
0.0
 40
0.0
 40
0.0
 40
4.0
 40
4.0
 40
4.0
 40
4.0
  0
SPLINE
  5
8D
100
AcDbEntity
  8
mainlayer
 62
0
370
-1
 48
1.0
  6
BYLAYER
100
AcDbSpline
 70
8
 71
3
 72
8
 73
4
 74
0
 10
-2617.52490234375
 20
900.9677734375
 30
0.0
 10
-2613.8510742187504547
 20
877.1982421875002274
 30
0.0
 10
-2609.4716796875
 20
853.548828125
 30
0.0
 10
-2604.39111328125
 20
830.0400390625
 30
0.0
 40
0.0
 40
0.0
 40
0.0
 40
0.0
 40
4.0
 40
4.0
 40
4.0
 40
4.0
  0
SPLINE
  5
8E
100
AcDbEntity
  8
mainlayer
 62
0
370
-1
 48
1.0
  6
BYLAYER
100
AcDbSpline
 70
8
 71
3
 72
8
 73
4
 74
0
 10
-2604.39111328125
 20
830.0400390625
 30
0.0
 10
-2599.8696289062509095
 20
809.1054687500001137
 30
0.0
 10
-2594.9702148437495453
 20
788.2568359374998863
 30
0.0
 10
-2589.69482421875
 20
767.5
 30
0.0
 40
0.0
 40
0.0
 40
0.0
 40
0.0
 40
4.0
 40
4.0
 40
4.0
 40
4.0
  0
SPLINE
  5
8F
100
AcDbEntity
  8
mainlayer
 62
0
370
-1
 48
1.0
  6
BYLAYER
100
AcDbSpline
 70
8
 71
3
 72
8
 73
4
 74
0
 10
-2589.69482421875
 20
767.5
 30
0.0
 10
-2584.6064453125004547
 20
747.4863281250002274
 30
0.0
 10
-2579.3671875
 20
727.5126953125
 30
0.0
 10
-2573.97705078125
 20
707.578125
 30
0.0
 40
0.0
 40
0.0
 40
0.0
 40
0.0
 40
4.0
 40
4.0
 40
4.0
 40
4.0
  0
LWPOLYLINE
  5
90
100
AcDbEntity
  8
mainlayer
 62
0
370
-1
 48
1.0
  6
BYLAYER
100
AcDbPolyline
 90
2
 70
0
 10
-2573.97705078125
 20
707.578125
 10
-2562.03955078125
 20
662.9072265625
  0
SPLINE
  5
91
100
AcDbEntity
  8
mainlayer
 62
0
370
-1
 48
1.0
  6
BYLAYER
100
AcDbSpline
 70
8
 71
3
 72
8
 73
4
 74
0
 10
-2562.03955078125
 20
662.9072265625
 30
0.0
 10
-2557.4184570312509095
 20
645.5068359375001137
 30
0.0
 10
-2553.0175781249995453
 20
628.0498046875
 30
0.0
 10
-2548.83740234375
 20
610.5390625
 30
0.0
 40
0.0
 40
0.0
 40
0.0
 40
0.0
 40
4.0
 40
4.0
 40
4.0
 40
4.0
  0
SPLINE
  5
92
100
AcDbEntity
  8
mainlayer
 62
0
370
-1
 48
1.0
  6
BYLAYER
100
AcDbSpline
 70
8
 71
3
 72
8
 73
4
 74
0
 10
-2548.83740234375
 20
610.5390625
 30
0.0
 10
-2544.7641601562504547
 20
593.482421875
 30
0.0
 10
-2541.10595703125
 20
576.3310546875
 30
0.0
 10
-2537.86474609375
 20
559.0966796875
 30
0.0
 40
0.0
 40
0.0
 40
0.0
 40
0.0
 40
4.0
 40
4.0
 40
4.0
 40
4.0
  0
SPLINE
  5
93
100
AcDbEntity
  8
mainlayer
 62
0
370
-1
 48
1.0
  6
BYLAYER
100
AcDbSpline
 70
8
 71
3
 72
8
 73
4
 74
0
 10
-2537.86474609375
 20
559.0966796875
 30
0.0
 10
-2534.9545898437504547
 20
543.6044921875001137
 30
0.0
 10
-2532.55615234375
 20
528.0244140625
 30
0.0
 10
-2530.67236328125
 20
512.3740234375
 30
0.0
 40
0.0
 40
0.0
 40
0.0
 40
0.0
 40
4.0
 40
4.0
 40
4.0
 40
4.0
  0
SPLINE
  5
94
100
AcDbEntity
  8
mainlayer
 62
0
370
-1
 48
1.0
  6
BYLAYER
100
AcDbSpline
 70
8
 71
3
 72
8
 73
4
 74
0
 10
-2530.67236328125
 20
512.3740234375
 30
0.0
 10
-2528.3598632812509095
 20
492.6621093750001137
 30
0.0
 10
-2526.9580078124995453
 20
472.8652343749999432
 30
0.0
 10
-2526.470703125
 20
453.0244140625
 30
0.0
 40
0.0
 40
0.0
 40
0.0
 40
0.0
 40
4.0
 40
4.0
 40
4.0
 40
4.0
  0
SPLINE
  5
95
100
AcDbEntity
  8
mainlayer
 62
0
370
-1
 48
1.0
  6
BYLAYER
100
AcDbSpline
 70
8
 71
3
 72
8
 73
4
 74
0
 10
-2526.470703125
 20
453.0244140625
 30
0.0
 10
-2526.0141601562504547
 20
434.6533203125001137
 30
0.0
 10
-2526.146484375
 20
416.2773437500000568
 30
0.0
 10
-2526.86767578125
 20
397.9150390625
 30
0.0
 40
0.0
 40
0.0
 40
0.0
 40
0.0
 40
4.0
 40
4.0
 40
4.0
 40
4.0
  0
SPLINE
  5
96
100
AcDbEntity
  8
mainlayer
 62
0
370
-1
 48
1.0
  6
BYLAYER
100
AcDbSpline
 70
8
 71
3
 72
8
 73
4
 74
0
 10
-2526.86767578125
 20
397.9150390625
 30
0.0
 10
-2527.5874023437504547
 20
379.5224609375000568
 30
0.0
 10
-2528.69921875
 20
361.150390625
 30
0.0
 10
-2530.203125
 20
342.8056640625
 30
0.0
 40
0.0
 40
0.0
 40
0.0
 40
0.0
 40
4.0
 40
4.0
 40
4.0
 40
4.0
  0
SPLINE
  5
97
100
AcDbEntity
  8
mainlayer
 62
0
370
-1
 48
1.0
  6
BYLAYER
100
AcDbSpline
 70
8
 71
3
 72
8
 73
4
 74
0
 10
-2530.203125
 20
342.8056640625
 30
0.0
 10
-2531.5849609375004547
 20
325.8330078125000568
 30
0.0
 10
-2533.1430664062495453
 20
308.8759765625
 30
0.0
 10
-2534.876953125
 20
291.935546875
 30
0.0
 40
0.0
 40
0.0
 40
0.0
 40
0.0
 40
4.0
 40
4.0
 40
4.0
 40
4.0
  0
LWPOLYLINE
  5
98
100
AcDbEntity
  8
mainlayer
 62
0
370
-1
 48
1.0
  6
BYLAYER
100
AcDbPolyline
 90
2
 70
0
 10
-2534.876953125
 20
291.935546875
 10
-2542.69482421875
 20
215.6298828125
  0
SPLINE
  5
99
100
AcDbEntity
  8
mainlayer
 62
0
370
-1
 48
1.0
  6
BYLAYER
100
AcDbSpline
 70
8
 71
3
 72
8
 73
4
 74
0
 10
-2542.69482421875
 20
215.6298828125
 30
0.0
 10
-2544.5175781250004547
 20
197.2822265625000568
 30
0.0
 10
-2546.0869140624995453
 20
178.9111328125
 30
0.0
 10
-2547.40234375
 20
160.5205078125
 30
0.0
 40
0.0
 40
0.0
 40
0.0
 40
0.0
 40
4.0
 40
4.0
 40
4.0
 40
4.0
  0
SPLINE
  5
9A
100
AcDbEntity
  8
mainlayer
 62
0
370
-1
 48
1.0
  6
BYLAYER
100
AcDbSpline
 70
8
 71
3
 72
8
 73
4
 74
0
 10
-2547.40234375
 20
160.5205078125
 30
0.0
 10
-2548.9208984375004547
 20
139.3535156250000568
 30
0.0
 10
-2549.8408203125
 20
118.1513671875
 30
0.0
 10
-2550.16162109375
 20
96.9326171875
 30
0.0
 40
0.0
 40
0.0
 40
0.0
 40
0.0
 40
4.0
 40
4.0
 40
4.0
 40
4.0
  0
SPLINE
  5
9B
100
AcDbEntity
  8
mainlayer
 62
0
370
-1
 48
1.0
  6
BYLAYER
100
AcDbSpline
 70
8
 71
3
 72
8
 73
4
 74
0
 10
-2550.16162109375
 20
96.9326171875
 30
0.0
 10
-2550.4741210937504547
 20
72.9033203125000142
 30
0.0
 10
-2550.109375
 20
48.8749961853027273
 30
0.0
 10
-2549.06689453125
 20
24.8662128448486328
 30
0.0
 40
0.0
 40
0.0
 40
0.0
 40
0.0
 40
4.0
 40
4.0
 40
4.0
 40
4.0
  0
LWPOLYLINE
  5
9C
100
AcDbEntity
  8
mainlayer
 62
0
370
-1
 48
1.0
  6
BYLAYER
100
AcDbPolyline
 90
40
 70
0
 10
-2549.06689453125
 20
24.8662128448486328
 10
-2548.88330078125
 20
20.6269550323486328
 10
-2548.88330078125
 20
20.6269550323486328
 10
-2575.18408203125
 20
20.6269550323486328
 10
-2575.18408203125
 20
20.6269550323486328
 10
-2571.84619140625
 20
10.6259775161743164
 10
-2571.84619140625
 20
10.6259775161743164
 10
-2591.84521484375
 20
10.6259775161743164
 10
-2591.84521484375
 20
10.6259775161743164
 10
-2588.51220703125
 20
20.6269550323486328
 10
-2588.51220703125
 20
20.6269550323486328
 10
-2625.18212890625
 20
20.6269550323486328
 10
-2625.18212890625
 20
20.6269550323486328
 10
-2621.84423828125
 20
10.6259775161743164
 10
-2621.84423828125
 20
10.6259775161743164
 10
-2641.84326171875
 20
10.6259775161743164
 10
-2641.84326171875
 20
10.6259775161743164
 10
-2638.51025390625
 20
20.6269550323486328
 10
-2638.51025390625
 20
20.6269550323486328
 10
-2664.81201171875
 20
20.6269550323486328
 10
-2664.81201171875
 20
20.6269550323486328
 10
-2664.81201171875
 20
516.951171875
 10
-2664.81201171875
 20
516.951171875
 10
-2668.04345703125
 20
516.951171875
 10
-2668.04345703125
 20
516.951171875
 10
-2675.19775390625
 20
509.7958984375
 10
-2675.19775390625
 20
509.7958984375
 10
-2682.62353515625
 20
517.21875
 10
-2682.62353515625
 20
517.21875
 10
-2682.62353515625
 20
532.0390625
 10
-2682.62353515625
 20
532.0390625
 10
-2675.19775390625
 20
539.4619140625
 10
-2675.19775390625
 20
539.4619140625
 10
-2668.04345703125
 20
532.3037109375
 10
-2668.04345703125
 20
532.3037109375
 10
-2664.81201171875
 20
532.3037109375
 10
-2664.81201171875
 20
532.3037109375
 10
-2664.81201171875
 20
1028.626953125
 10
-2664.81201171875
 20
1028.626953125
 10
-2629.1865234375
 20
1028.626953125
  0
SPLINE
  5
9D
100
AcDbEntity
  8
mainlayer
 62
0
370
-1
 48
1.0
  6
BYLAYER
100
AcDbSpline
 70
8
 71
3
 72
8
 73
4
 74
0
 10
-2977.34716796875
 20
2800.6259765625
 30
0.0
 10
-2977.2055664062509095
 20
2794.3046875000004547
 30
0.0
 10
-2977.00830078125
 20
2787.984375
 30
0.0
 10
-2976.75634765625
 20
2781.6669921875
 30
0.0
 40
0.0
 40
0.0
 40
0.0
 40
0.0
 40
4.0
 40
4.0
 40
4.0
 40
4.0
  0
SPLINE
  5
9E
100
AcDbEntity
  8
mainlayer
 62
0
370
-1
 48
1.0
  6
BYLAYER
100
AcDbSpline
 70
8
 71
3
 72
8
 73
4
 74
0
 10
-2976.75634765625
 20
2781.6669921875
 30
0.0
 10
-2975.2670898437509095
 20
2743.0537109375004547
 30
0.0
 10
-2971.47314453125
 20
2704.5976562499995453
 30
0.0
 10
-2965.38916015625
 20
2666.4375
 30
0.0
 40
0.0
 40
0.0
 40
0.0
 40
0.0
 40
4.0
 40
4.0
 40
4.0
 40
4.0
  0
SPLINE
  5
9F
100
AcDbEntity
  8
mainlayer
 62
0
370
-1
 48
1.0
  6
BYLAYER
100
AcDbSpline
 70
8
 71
3
 72
8
 73
4
 74
0
 10
-2965.38916015625
 20
2666.4375
 30
0.0
 10
-2962.0327148437509095
 20
2645.5000000000004547
 30
0.0
 10
-2958.08349609375
 20
2624.6660156249995453
 30
0.0
 10
-2953.54345703125
 20
2603.953125
 30
0.0
 40
0.0
 40
0.0
 40
0.0
 40
0.0
 40
4.0
 40
4.0
 40
4.0
 40
4.0
  0
SPLINE
  5
A0
100
AcDbEntity
  8
mainlayer
 62
0
370
-1
 48
1.0
  6
BYLAYER
100
AcDbSpline
 70
8
 71
3
 72
8
 73
4
 74
0
 10
-2953.54345703125
 20
2603.953125
 30
0.0
 10
-2949.0102539062509095
 20
2583.2734375000004547
 30
0.0
 10
-2944.0688476562495453
 20
2562.6874999999995453
 30
0.0
 10
-2938.72119140625
 20
2542.203125
 30
0.0
 40
0.0
 40
0.0
 40
0.0
 40
0.0
 40
4.0
 40
4.0
 40
4.0
 40
4.0
  0
SPLINE
  5
A1
100
AcDbEntity
  8
mainlayer
 62
0
370
-1
 48
1.0
  6
BYLAYER
100
AcDbSpline
 70
8
 71
3
 72
8
 73
4
 74
0
 10
-2938.72119140625
 20
2542.203125
 30
0.0
 10
-2933.5551757812509095
 20
2522.4277343750004547
 30
0.0
 10
-2928.21435546875
 20
2502.7001953125
 30
0.0
 10
-2922.69970703125
 20
2483.01953125
 30
0.0
 40
0.0
 40
0.0
 40
0.0
 40
0.0
 40
4.0
 40
4.0
 40
4.0
 40
4.0
  0
LWPOLYLINE
  5
A2
100
AcDbEntity
  8
mainlayer
 62
0
370
-1
 48
1.0
  6
BYLAYER
100
AcDbPolyline
 90
2
 70
0
 10
-2922.69970703125
 20
2483.01953125
 10
-2915.81298828125
 20
2458.3056640625
  0
SPLINE
  5
A3
100
AcDbEntity
  8
mainlayer
 62
0
370
-1
 48
1.0
  6
BYLAYER
100
AcDbSpline
 70
8
 71
3
 72
8
 73
4
 74
0
 10
-2915.81298828125
 20
2458.3056640625
 30
0.0
 10
-2910.9194335937504547
 20
2440.8515625000004547
 30
0.0
 10
-2906.16357421875
 20
2423.359375
 30
0.0
 10
-2901.54443359375
 20
2405.8310546875
 30
0.0
 40
0.0
 40
0.0
 40
0.0
 40
0.0
 40
4.0
 40
4.0
 40
4.0
 40
4.0
  0
SPLINE
  5
A4
100
AcDbEntity
  8
mainlayer
 62
0
370
-1
 48
1.0
  6
BYLAYER
100
AcDbSpline
 70
8
 71
3
 72
8
 73
4
 74
0
 10
-2901.54443359375
 20
2405.8310546875
 30
0.0
 10
-2897.0551757812504547
 20
2388.791015625
 30
0.0
 10
-2892.90283203125
 20
2371.666015625
 30
0.0
 10
-2889.09033203125
 20
2354.462890625
 30
0.0
 40
0.0
 40
0.0
 40
0.0
 40
0.0
 40
4.0
 40
4.0
 40
4.0
 40
4.0
  0
SPLINE
  5
A5
100
AcDbEntity
  8
mainlayer
 62
0
370
-1
 48
1.0
  6
BYLAYER
100
AcDbSpline
 70
8
 71
3
 72
8
 73
4
 74
0
 10
-2889.09033203125
 20
2354.462890625
 30
0.0
 10
-2885.6577148437509095
 20
2338.9492187500004547
 30
0.0
 10
-2882.68505859375
 20
2323.341796875
 30
0.0
 10
-2880.17431640625
 20
2307.65234375
 30
0.0
 40
0.0
 40
0.0
 40
0.0
 40
0.0
 40
4.0
 40
4.0
 40
4.0
 40
4.0
  0
SPLINE
  5
A6
100
AcDbEntity
  8
mainlayer
 62
0
370
-1
 48
1.0
  6
BYLAYER
100
AcDbSpline
 70
8
 71
3
 72
8
 73
4
 74
0
 10
-2880.17431640625
 20
2307.65234375
 30
0.0
 10
-2877.39697265625
 20
2290.2822265625004547
 30
0.0
 10
-2875.40673828125
 20
2272.8037109375
 30
0.0
 10
-2874.20654296875
 20
2255.25390625
 30
0.0
 40
0.0
 40
0.0
 40
0.0
 40
0.0
 40
4.0
 40
4.0
 40
4.0
 40
4.0
  0
SPLINE
  5
A7
100
AcDbEntity
  8
mainlayer
 62
0
370
-1
 48
1.0
  6
BYLAYER
100
AcDbSpline
 70
8
 71
3
 72
8
 73
4
 74
0
 10
-2874.20654296875
 20
2255.25390625
 30
0.0
 10
-2873.0454101562504547
 20
2237.8164062500004547
 30
0.0
 10
-2872.55712890625
 20
2220.34765625
 30
0.0
 10
-2872.74169921875
 20
2202.873046875
 30
0.0
 40
0.0
 40
0.0
 40
0.0
 40
0.0
 40
4.0
 40
4.0
 40
4.0
 40
4.0
  0
SPLINE
  5
A8
100
AcDbEntity
  8
mainlayer
 62
0
370
-1
 48
1.0
  6
BYLAYER
100
AcDbSpline
 70
8
 71
3
 72
8
 73
4
 74
0
 10
-2872.74169921875
 20
2202.873046875
 30
0.0
 10
-2872.9360351562509095
 20
2184.7480468750004547
 30
0.0
 10
-2873.6518554687495453
 20
2166.6357421875
 30
0.0
 10
-2874.88818359375
 20
2148.5517578125
 30
0.0
 40
0.0
 40
0.0
 40
0.0
 40
0.0
 40
4.0
 40
4.0
 40
4.0
 40
4.0
  0
SPLINE
  5
A9
100
AcDbEntity
  8
mainlayer
 62
0
370
-1
 48
1.0
  6
BYLAYER
100
AcDbSpline
 70
8
 71
3
 72
8
 73
4
 74
0
 10
-2874.88818359375
 20
2148.5517578125
 30
0.0
 10
-2876.1274414062509095
 20
2130.4189453125004547
 30
0.0
 10
-2877.6811523437495453
 20
2112.3095703125
 30
0.0
 10
-2879.54931640625
 20
2094.23046875
 30
0.0
 40
0.0
 40
0.0
 40
0.0
 40
0.0
 40
4.0
 40
4.0
 40
4.0
 40
4.0
  0
SPLINE
  5
AA
100
AcDbEntity
  8
mainlayer
 62
0
370
-1
 48
1.0
  6
BYLAYER
100
AcDbSpline
 70
8
 71
3
 72
8
 73
4
 74
0
 10
-2879.54931640625
 20
2094.23046875
 30
0.0
 10
-2881.2778320312504547
 20
2077.4052734375004547
 30
0.0
 10
-2883.11376953125
 20
2060.591796875
 30
0.0
 10
-2885.05517578125
 20
2043.7900390625
 30
0.0
 40
0.0
 40
0.0
 40
0.0
 40
0.0
 40
4.0
 40
4.0
 40
4.0
 40
4.0
  0
LWPOLYLINE
  5
AB
100
AcDbEntity
  8
mainlayer
 62
0
370
-1
 48
1.0
  6
BYLAYER
100
AcDbPolyline
 90
2
 70
0
 10
-2885.05517578125
 20
2043.7900390625
 10
-2888.56689453125
 20
2012.7490234375
  0
SPLINE
  5
AC
100
AcDbEntity
  8
mainlayer
 62
0
370
-1
 48
1.0
  6
BYLAYER
100
AcDbSpline
 70
8
 71
3
 72
8
 73
4
 74
0
 10
-2888.56689453125
 20
2012.7490234375
 30
0.0
 10
-2890.4711914062504547
 20
1995.9521484375004547
 30
0.0
 10
-2892.2084960937495453
 20
1979.138671875
 30
0.0
 10
-2893.78076171875
 20
1962.3076171875
 30
0.0
 40
0.0
 40
0.0
 40
0.0
 40
0.0
 40
4.0
 40
4.0
 40
4.0
 40
4.0
  0
SPLINE
  5
AD
100
AcDbEntity
  8
mainlayer
 62
0
370
-1
 48
1.0
  6
BYLAYER
100
AcDbSpline
 70
8
 71
3
 72
8
 73
4
 74
0
 10
-2893.78076171875
 20
1962.3076171875
 30
0.0
 10
-2895.4790039062504547
 20
1944.2304687500002274
 30
0.0
 10
-2896.79443359375
 20
1926.1201171875002274
 30
0.0
 10
-2897.72412109375
 20
1907.986328125
 30
0.0
 40
0.0
 40
0.0
 40
0.0
 40
0.0
 40
4.0
 40
4.0
 40
4.0
 40
4.0
  0
SPLINE
  5
AE
100
AcDbEntity
  8
mainlayer
 62
0
370
-1
 48
1.0
  6
BYLAYER
100
AcDbSpline
 70
8
 71
3
 72
8
 73
4
 74
0
 10
-2897.72412109375
 20
1907.986328125
 30
0.0
 10
-2898.9213867187509095
 20
1883.4287109375004547
 30
0.0
 10
-2899.18994140625
 20
1858.8427734375
 30
0.0
 10
-2898.52880859375
 20
1834.2646484375
 30
0.0
 40
0.0
 40
0.0
 40
0.0
 40
0.0
 40
4.0
 40
4.0
 40
4.0
 40
4.0
  0
SPLINE
  5
AF
100
AcDbEntity
  8
mainlayer
 62
0
370
-1
 48
1.0
  6
BYLAYER
100
AcDbSpline
 70
8
 71
3
 72
8
 73
4
 74
0
 10
-2898.52880859375
 20
1834.2646484375
 30
0.0
 10
-2897.9028320312504547
 20
1810.9541015625004547
 30
0.0
 10
-2896.66259765625
 20
1787.6689453125
 30
0.0
 10
-2894.81005859375
 20
1764.423828125
 30
0.0
 40
0.0
 40
0.0
 40
0.0
 40
0.0
 40
4.0
 40
4.0
 40
4.0
 40
4.0
  0
SPLINE
  5
B0
100
AcDbEntity
  8
mainlayer
 62
0
370
-1
 48
1.0
  6
BYLAYER
100
AcDbSpline
 70
8
 71
3
 72
8
 73
4
 74
0
 10
-2894.81005859375
 20
1764.423828125
 30
0.0
 10
-2892.95458984375
 20
1741.1054687500004547
 30
0.0
 10
-2890.70263671875
 20
1717.8232421875
 30
0.0
 10
-2888.05322265625
 20
1694.58203125
 30
0.0
 40
0.0
 40
0.0
 40
0.0
 40
0.0
 40
4.0
 40
4.0
 40
4.0
 40
4.0
  0
SPLINE
  5
B1
100
AcDbEntity
  8
mainlayer
 62
0
370
-1
 48
1.0
  6
BYLAYER
100
AcDbSpline
 70
8
 71
3
 72
8
 73
4
 74
0
 10
-2888.05322265625
 20
1694.58203125
 30
0.0
 10
-2885.4018554687509095
 20
1671.2792968750002274
 30
0.0
 10
-2882.5698242187495453
 20
1647.9980468749997726
 30
0.0
 10
-2879.55908203125
 20
1624.7392578125
 30
0.0
 40
0.0
 40
0.0
 40
0.0
 40
0.0
 40
4.0
 40
4.0
 40
4.0
 40
4.0
  0
LWPOLYLINE
  5
B2
100
AcDbEntity
  8
mainlayer
 62
0
370
-1
 48
1.0
  6
BYLAYER
100
AcDbPolyline
 90
2
 70
0
 10
-2879.55908203125
 20
1624.7392578125
 10
-2870.62939453125
 20
1554.8994140625
  0
SPLINE
  5
B3
100
AcDbEntity
  8
mainlayer
 62
0
370
-1
 48
1.0
  6
BYLAYER
100
AcDbSpline
 70
8
 71
3
 72
8
 73
4
 74
0
 10
-2870.62939453125
 20
1554.8994140625
 30
0.0
 10
-2865.4057617187509095
 20
1513.5996093750004547
 30
0.0
 10
-2860.9750976562495453
 20
1472.20703125
 30
0.0
 10
-2857.33837890625
 20
1430.736328125
 30
0.0
 40
0.0
 40
0.0
 40
0.0
 40
0.0
 40
4.0
 40
4.0
 40
4.0
 40
4.0
  0
SPLINE
  5
B4
100
AcDbEntity
  8
mainlayer
 62
0
370
-1
 48
1.0
  6
BYLAYER
100
AcDbSpline
 70
8
 71
3
 72
8
 73
4
 74
0
 10
-2857.33837890625
 20
1430.736328125
 30
0.0
 10
-2854.4008789062504547
 20
1397.1367187500004547
 30
0.0
 10
-2851.81103515625
 20
1363.5078125
 30
0.0
 10
-2849.56884765625
 20
1329.8544921875
 30
0.0
 40
0.0
 40
0.0
 40
0.0
 40
0.0
 40
4.0
 40
4.0
 40
4.0
 40
4.0
  0
LWPOLYLINE
  5
B5
100
AcDbEntity
  8
mainlayer
 62
0
370
-1
 48
1.0
  6
BYLAYER
100
AcDbPolyline
 90
10
 70
0
 10
-2849.56884765625
 20
1329.8544921875
 10
-2844.67236328125
 20
1252.2529296875
 10
-2844.67236328125
 20
1252.2529296875
 10
-2836.35791015625
 20
1112.5693359375
 10
-2836.35791015625
 20
1112.5693359375
 10
-2828.55419921875
 20
988.4072265625
 10
-2828.55419921875
 20
988.4072265625
 10
-2825.26220703125
 20
926.3251953125
 10
-2825.26220703125
 20
926.3251953125
 10
-2824.90869140625
 20
918.5654296875
  0
SPLINE
  5
B6
100
AcDbEntity
  8
mainlayer
 62
0
370
-1
 48
1.0
  6
BYLAYER
100
AcDbSpline
 70
8
 71
3
 72
8
 73
4
 74
0
 10
-2824.90869140625
 20
918.5654296875
 30
0.0
 10
-2823.6147460937504547
 20
890.1250000000002274
 30
0.0
 10
-2822.7221679687495453
 20
861.6689453125
 30
0.0
 10
-2822.22900390625
 20
833.203125
 30
0.0
 40
0.0
 40
0.0
 40
0.0
 40
0.0
 40
4.0
 40
4.0
 40
4.0
 40
4.0
  0
SPLINE
  5
B7
100
AcDbEntity
  8
mainlayer
 62
0
370
-1
 48
1.0
  6
BYLAYER
100
AcDbSpline
 70
8
 71
3
 72
8
 73
4
 74
0
 10
-2822.22900390625
 20
833.203125
 30
0.0
 10
-2821.7133789062504547
 20
803.4560546875002274
 30
0.0
 10
-2821.8334960937495453
 20
773.7041015625
 30
0.0
 10
-2822.58935546875
 20
743.9619140625
 30
0.0
 40
0.0
 40
0.0
 40
0.0
 40
0.0
 40
4.0
 40
4.0
 40
4.0
 40
4.0
  0
SPLINE
  5
B8
100
AcDbEntity
  8
mainlayer
 62
0
370
-1
 48
1.0
  6
BYLAYER
100
AcDbSpline
 70
8
 71
3
 72
8
 73
4
 74
0
 10
-2822.58935546875
 20
743.9619140625
 30
0.0
 10
-2823.4877929687509095
 20
711.5917968750002274
 30
0.0
 10
-2825.15478515625
 20
679.2509765625
 30
0.0
 10
-2827.58935546875
 20
646.9599609375
 30
0.0
 40
0.0
 40
0.0
 40
0.0
 40
0.0
 40
4.0
 40
4.0
 40
4.0
 40
4.0
  0
SPLINE
  5
B9
100
AcDbEntity
  8
mainlayer
 62
0
370
-1
 48
1.0
  6
BYLAYER
100
AcDbSpline
 70
8
 71
3
 72
8
 73
4
 74
0
 10
-2827.58935546875
 20
646.9599609375
 30
0.0
 10
-2829.9291992187504547
 20
615.8750000000001137
 30
0.0
 10
-2832.76708984375
 20
584.83203125
 30
0.0
 10
-2836.10107421875
 20
553.837890625
 30
0.0
 40
0.0
 40
0.0
 40
0.0
 40
0.0
 40
4.0
 40
4.0
 40
4.0
 40
4.0
  0
SPLINE
  5
BA
100
AcDbEntity
  8
mainlayer
 62
0
370
-1
 48
1.0
  6
BYLAYER
100
AcDbSpline
 70
8
 71
3
 72
8
 73
4
 74
0
 10
-2836.10107421875
 20
553.837890625
 30
0.0
 10
-2839.4438476562509095
 20
522.7636718750001137
 30
0.0
 10
-2843.07958984375
 20
491.7216796875
 30
0.0
 10
-2847.00830078125
 20
460.7158203125
 30
0.0
 40
0.0
 40
0.0
 40
0.0
 40
0.0
 40
4.0
 40
4.0
 40
4.0
 40
4.0
  0
LWPOLYLINE
  5
BB
100
AcDbEntity
  8
mainlayer
 62
0
370
-1
 48
1.0
  6
BYLAYER
100
AcDbPolyline
 90
4
 70
0
 10
-2847.00830078125
 20
460.7158203125
 10
-2872.12451171875
 20
266.7109375
 10
-2872.12451171875
 20
266.7109375
 10
-2877.78369140625
 20
220.150390625
  0
SPLINE
  5
BC
100
AcDbEntity
  8
mainlayer
 62
0
370
-1
 48
1.0
  6
BYLAYER
100
AcDbSpline
 70
8
 71
3
 72
8
 73
4
 74
0
 10
-2877.78369140625
 20
220.150390625
 30
0.0
 10
-2881.7709960937509095
 20
186.5664062500000568
 30
0.0
 10
-2885.36474609375
 20
152.9375
 30
0.0
 10
-2888.56201171875
 20
119.2685546875
 30
0.0
 40
0.0
 40
0.0
 40
0.0
 40
0.0
 40
4.0
 40
4.0
 40
4.0
 40
4.0
  0
SPLINE
  5
BD
100
AcDbEntity
  8
mainlayer
 62
0
370
-1
 48
1.0
  6
BYLAYER
100
AcDbSpline
 70
8
 71
3
 72
8
 73
4
 74
0
 10
-2888.56201171875
 20
119.2685546875
 30
0.0
 10
-2891.7495117187504547
 20
85.6884765625000142
 30
0.0
 10
-2894.34619140625
 20
52.0576133728027344
 30
0.0
 10
-2896.35009765625
 20
18.3857440948486328
 30
0.0
 40
0.0
 40
0.0
 40
0.0
 40
0.0
 40
4.0
 40
4.0
 40
4.0
 40
4.0
  0
LWPOLYLINE
  5
BE
100
AcDbEntity
  8
mainlayer
 62
0
370
-1
 48
1.0
  6
BYLAYER
100
AcDbPolyline
 90
72
 70
0
 10
-2896.35009765625
 20
18.3857440948486328
 10
-2896.79150390625
 20
10.6259775161743164
 10
-2896.79150390625
 20
10.6259775161743164
 10
-2922.05322265625
 20
10.6259775161743164
 10
-2922.05322265625
 20
10.6259775161743164
 10
-2918.72021484375
 20
20.6269550323486328
 10
-2918.72021484375
 20
20.6269550323486328
 10
-2938.71923828125
 20
20.6269550323486328
 10
-2938.71923828125
 20
20.6269550323486328
 10
-2935.38134765625
 20
10.6259775161743164
 10
-2935.38134765625
 20
10.6259775161743164
 10
-2972.05126953125
 20
10.6259775161743164
 10
-2972.05126953125
 20
10.6259775161743164
 10
-2968.71826171875
 20
20.6269550323486328
 10
-2968.71826171875
 20
20.6269550323486328
 10
-2988.71728515625
 20
20.6269550323486328
 10
-2988.71728515625
 20
20.6269550323486328
 10
-2985.37939453125
 20
10.6259775161743164
 10
-2985.37939453125
 20
10.6259775161743164
 10
-3010.64111328125
 20
10.6259775161743164
 10
-3010.64111328125
 20
10.6259775161743164
 10
-3010.64111328125
 20
428.94921875
 10
-3010.64111328125
 20
428.94921875
 10
-3013.87255859375
 20
428.94921875
 10
-3013.87255859375
 20
428.94921875
 10
-3021.02685546875
 20
421.794921875
 10
-3021.02685546875
 20
421.794921875
 10
-3028.45263671875
 20
429.2177734375
 10
-3028.45263671875
 20
429.2177734375
 10
-3028.45263671875
 20
444.0380859375
 10
-3028.45263671875
 20
444.0380859375
 10
-3021.02685546875
 20
451.4599609375
 10
-3021.02685546875
 20
451.4599609375
 10
-3013.87255859375
 20
444.3017578125
 10
-3013.87255859375
 20
444.3017578125
 10
-3010.64111328125
 20
444.3017578125
 10
-3010.64111328125
 20
444.3017578125
 10
-3010.64111328125
 20
1358.94921875
 10
-3010.64111328125
 20
1358.94921875
 10
-3013.87255859375
 20
1358.94921875
 10
-3013.87255859375
 20
1358.94921875
 10
-3021.02685546875
 20
1351.794921875
 10
-3021.02685546875
 20
1351.794921875
 10
-3028.45263671875
 20
1359.2177734375
 10
-3028.45263671875
 20
1359.2177734375
 10
-3028.45263671875
 20
1374.0380859375
 10
-3028.45263671875
 20
1374.0380859375
 10
-3021.02685546875
 20
1381.4599609375
 10
-3021.02685546875
 20
1381.4599609375
 10
-3013.87255859375
 20
1374.3017578125
 10
-3013.87255859375
 20
1374.3017578125
 10
-3010.64111328125
 20
1374.3017578125
 10
-3010.64111328125
 20
1374.3017578125
 10
-3010.64111328125
 20
2288.94921875
 10
-3010.64111328125
 20
2288.94921875
 10
-3013.87255859375
 20
2288.94921875
 10
-3013.87255859375
 20
2288.94921875
 10
-3021.02685546875
 20
2281.794921875
 10
-3021.02685546875
 20
2281.794921875
 10
-3028.45263671875
 20
2289.2177734375
 10
-3028.45263671875
 20
2289.2177734375
 10
-3028.45263671875
 20
2304.0380859375
 10
-3028.45263671875
 20
2304.0380859375
 10
-3021.02685546875
 20
2311.4599609375
 10
-3021.02685546875
 20
2311.4599609375
 10
-3013.87255859375
 20
2304.3017578125
 10
-3013.87255859375
 20
2304.3017578125
 10
-3010.64111328125
 20
2304.3017578125
 10
-3010.64111328125
 20
2304.3017578125
 10
-3010.64111328125
 20
2800.6259765625
 10
-3010.64111328125
 20
2800.6259765625
 10
-2977.34716796875
 20
2800.6259765625
  0
SPLINE
  5
BF
100
AcDbEntity
  8
mainlayer
 62
0
370
-1
 48
1.0
  6
BYLAYER
100
AcDbSpline
 70
8
 71
3
 72
8
 73
4
 74
0
 10
-3402.12158203125
 20
2800.6259765625
 30
0.0
 10
-3402.1254882812509095
 20
2795.1992187500004547
 30
0.0
 10
-3402.0854492187495453
 20
2789.7724609375
 30
0.0
 10
-3401.99951171875
 20
2784.3466796875
 30
0.0
 40
0.0
 40
0.0
 40
0.0
 40
0.0
 40
4.0
 40
4.0
 40
4.0
 40
4.0
  0
SPLINE
  5
C0
100
AcDbEntity
  8
mainlayer
 62
0
370
-1
 48
1.0
  6
BYLAYER
100
AcDbSpline
 70
8
 71
3
 72
8
 73
4
 74
0
 10
-3401.99951171875
 20
2784.3466796875
 30
0.0
 10
-3401.5678710937504547
 20
2754.56640625
 30
0.0
 10
-3399.62060546875
 20
2724.8466796875
 30
0.0
 10
-3396.16259765625
 20
2695.2646484375
 30
0.0
 40
0.0
 40
0.0
 40
0.0
 40
0.0
 40
4.0
 40
4.0
 40
4.0
 40
4.0
  0
SPLINE
  5
C1
100
AcDbEntity
  8
mainlayer
 62
0
370
-1
 48
1.0
  6
BYLAYER
100
AcDbSpline
 70
8
 71
3
 72
8
 73
4
 74
0
 10
-3396.16259765625
 20
2695.2646484375
 30
0.0
 10
-3393.2397460937509095
 20
2670.7402343750009095
 30
0.0
 10
-3389.33349609375
 20
2646.3535156249995453
 30
0.0
 10
-3384.45068359375
 20
2622.1435546875
 30
0.0
 40
0.0
 40
0.0
 40
0.0
 40
0.0
 40
4.0
 40
4.0
 40
4.0
 40
4.0
  0
SPLINE
  5
C2
100
AcDbEntity
  8
mainlayer
 62
0
370
-1
 48
1.0
  6
BYLAYER
100
AcDbSpline
 70
8
 71
3
 72
8
 73
4
 74
0
 10
-3384.45068359375
 20
2622.1435546875
 30
0.0
 10
-3380.2211914062504547
 20
2601.1621093750004547
 30
0.0
 10
-3375.45458984375
 20
2580.2968749999995453
 30
0.0
 10
-3370.15380859375
 20
2559.5595703125
 30
0.0
 40
0.0
 40
0.0
 40
0.0
 40
0.0
 40
4.0
 40
4.0
 40
4.0
 40
4.0
  0
SPLINE
  5
C3
100
AcDbEntity
  8
mainlayer
 62
0
370
-1
 48
1.0
  6
BYLAYER
100
AcDbSpline
 70
8
 71
3
 72
8
 73
4
 74
0
 10
-3370.15380859375
 20
2559.5595703125
 30
0.0
 10
-3365.0297851562509095
 20
2539.5312500000004547
 30
0.0
 10
-3359.6264648437495453
 20
2519.576171875
 30
0.0
 10
-3353.94384765625
 20
2499.69921875
 30
0.0
 40
0.0
 40
0.0
 40
0.0
 40
0.0
 40
4.0
 40
4.0
 40
4.0
 40
4.0
  0
LWPOLYLINE
  5
C4
100
AcDbEntity
  8
mainlayer
 62
0
370
-1
 48
1.0
  6
BYLAYER
100
AcDbPolyline
 90
2
 70
0
 10
-3353.94384765625
 20
2499.69921875
 10
-3335.07275390625
 20
2433.9208984375
  0
SPLINE
  5
C5
100
AcDbEntity
  8
mainlayer
 62
0
370
-1
 48
1.0
  6
BYLAYER
100
AcDbSpline
 70
8
 71
3
 72
8
 73
4
 74
0
 10
-3335.07275390625
 20
2433.9208984375
 30
0.0
 10
-3332.4165039062509095
 20
2424.5722656250004547
 30
0.0
 10
-3329.81396484375
 20
2415.208984375
 30
0.0
 10
-3327.26611328125
 20
2405.8310546875
 30
0.0
 40
0.0
 40
0.0
 40
0.0
 40
0.0
 40
4.0
 40
4.0
 40
4.0
 40
4.0
  0
SPLINE
  5
C6
100
AcDbEntity
  8
mainlayer
 62
0
370
-1
 48
1.0
  6
BYLAYER
100
AcDbSpline
 70
8
 71
3
 72
8
 73
4
 74
0
 10
-3327.26611328125
 20
2405.8310546875
 30
0.0
 10
-3322.9682617187504547
 20
2390.091796875
 30
0.0
 10
-3318.97021484375
 20
2374.275390625
 30
0.0
 10
-3315.27392578125
 20
2358.384765625
 30
0.0
 40
0.0
 40
0.0
 40
0.0
 40
0.0
 40
4.0
 40
4.0
 40
4.0
 40
4.0
  0
SPLINE
  5
C7
100
AcDbEntity
  8
mainlayer
 62
0
370
-1
 48
1.0
  6
BYLAYER
100
AcDbSpline
 70
8
 71
3
 72
8
 73
4
 74
0
 10
-3315.27392578125
 20
2358.384765625
 30
0.0
 10
-3311.6625976562509095
 20
2342.8691406250004547
 30
0.0
 10
-3308.5317382812495453
 20
2327.2490234375
 30
0.0
 10
-3305.88427734375
 20
2311.5400390625
 30
0.0
 40
0.0
 40
0.0
 40
0.0
 40
0.0
 40
4.0
 40
4.0
 40
4.0
 40
4.0
  0
SPLINE
  5
C8
100
AcDbEntity
  8
mainlayer
 62
0
370
-1
 48
1.0
  6
BYLAYER
100
AcDbSpline
 70
8
 71
3
 72
8
 73
4
 74
0
 10
-3305.88427734375
 20
2311.5400390625
 30
0.0
 10
-3302.8471679687509095
 20
2293.5390625
 30
0.0
 10
-3300.7192382812495453
 20
2275.4091796875
 30
0.0
 10
-3299.50732421875
 20
2257.1943359375
 30
0.0
 40
0.0
 40
0.0
 40
0.0
 40
0.0
 40
4.0
 40
4.0
 40
4.0
 40
4.0
  0
SPLINE
  5
C9
100
AcDbEntity
  8
mainlayer
 62
0
370
-1
 48
1.0
  6
BYLAYER
100
AcDbSpline
 70
8
 71
3
 72
8
 73
4
 74
0
 10
-3299.50732421875
 20
2257.1943359375
 30
0.0
 10
-3298.5034179687504547
 20
2241.6943359375004547
 30
0.0
 10
-3298.09130859375
 20
2226.166015625
 30
0.0
 10
-3298.27099609375
 20
2210.6337890625
 30
0.0
 40
0.0
 40
0.0
 40
0.0
 40
0.0
 40
4.0
 40
4.0
 40
4.0
 40
4.0
  0
SPLINE
  5
CA
100
AcDbEntity
  8
mainlayer
 62
0
370
-1
 48
1.0
  6
BYLAYER
100
AcDbSpline
 70
8
 71
3
 72
8
 73
4
 74
0
 10
-3298.27099609375
 20
2210.6337890625
 30
0.0
 10
-3298.4643554687504547
 20
2193.8017578125004547
 30
0.0
 10
-3299.16552734375
 20
2176.982421875
 30
0.0
 10
-3300.37548828125
 20
2160.1923828125
 30
0.0
 40
0.0
 40
0.0
 40
0.0
 40
0.0
 40
4.0
 40
4.0
 40
4.0
 40
4.0
  0
SPLINE
  5
CB
100
AcDbEntity
  8
mainlayer
 62
0
370
-1
 48
1.0
  6
BYLAYER
100
AcDbSpline
 70
8
 71
3
 72
8
 73
4
 74
0
 10
-3300.37548828125
 20
2160.1923828125
 30
0.0
 10
-3301.6860351562509095
 20
2142.0537109375004547
 30
0.0
 10
-3303.35791015625
 20
2123.943359375
 30
0.0
 10
-3305.38916015625
 20
2105.87109375
 30
0.0
 40
0.0
 40
0.0
 40
0.0
 40
0.0
 40
4.0
 40
4.0
 40
4.0
 40
4.0
  0
SPLINE
  5
CC
100
AcDbEntity
  8
mainlayer
 62
0
370
-1
 48
1.0
  6
BYLAYER
100
AcDbSpline
 70
8
 71
3
 72
8
 73
4
 74
0
 10
-3305.38916015625
 20
2105.87109375
 30
0.0
 10
-3307.1206054687504547
 20
2090.3369140625004547
 30
0.0
 10
-3308.96337890625
 20
2074.81640625
 30
0.0
 10
-3310.91748046875
 20
2059.3095703125
 30
0.0
 40
0.0
 40
0.0
 40
0.0
 40
0.0
 40
4.0
 40
4.0
 40
4.0
 40
4.0
  0
LWPOLYLINE
  5
CD
100
AcDbEntity
  8
mainlayer
 62
0
370
-1
 48
1.0
  6
BYLAYER
100
AcDbPolyline
 90
2
 70
0
 10
-3310.91748046875
 20
2059.3095703125
 10
-3314.76904296875
 20
2028.26953125
  0
SPLINE
  5
CE
100
AcDbEntity
  8
mainlayer
 62
0
370
-1
 48
1.0
  6
BYLAYER
100
AcDbSpline
 70
8
 71
3
 72
8
 73
4
 74
0
 10
-3314.76904296875
 20
2028.26953125
 30
0.0
 10
-3316.5346679687504547
 20
2014.0556640625006821
 30
0.0
 10
-3318.1879882812495453
 20
1999.828125
 30
0.0
 10
-3319.72998046875
 20
1985.5888671875
 30
0.0
 40
0.0
 40
0.0
 40
0.0
 40
0.0
 40
4.0
 40
4.0
 40
4.0
 40
4.0
  0
SPLINE
  5
CF
100
AcDbEntity
  8
mainlayer
 62
0
370
-1
 48
1.0
  6
BYLAYER
100
AcDbSpline
 70
8
 71
3
 72
8
 73
4
 74
0
 10
-3319.72998046875
 20
1985.5888671875
 30
0.0
 10
-3321.7045898437504547
 20
1967.5166015625004547
 30
0.0
 10
-3323.29443359375
 20
1949.4072265624997726
 30
0.0
 10
-3324.49755859375
 20
1931.267578125
 30
0.0
 40
0.0
 40
0.0
 40
0.0
 40
0.0
 40
4.0
 40
4.0
 40
4.0
 40
4.0
  0
SPLINE
  5
D0
100
AcDbEntity
  8
mainlayer
 62
0
370
-1
 48
1.0
  6
BYLAYER
100
AcDbSpline
 70
8
 71
3
 72
8
 73
4
 74
0
 10
-3324.49755859375
 20
1931.267578125
 30
0.0
 10
-3325.6040039062509095
 20
1914.4746093750004547
 30
0.0
 10
-3326.18408203125
 20
1897.6552734374997726
 30
0.0
 10
-3326.23974609375
 20
1880.826171875
 30
0.0
 40
0.0
 40
0.0
 40
0.0
 40
0.0
 40
4.0
 40
4.0
 40
4.0
 40
4.0
  0
SPLINE
  5
D1
100
AcDbEntity
  8
mainlayer
 62
0
370
-1
 48
1.0
  6
BYLAYER
100
AcDbSpline
 70
8
 71
3
 72
8
 73
4
 74
0
 10
-3326.23974609375
 20
1880.826171875
 30
0.0
 10
-3326.2475585937509095
 20
1860.1103515625004547
 30
0.0
 10
-3325.51416015625
 20
1839.408203125
 30
0.0
 10
-3324.04150390625
 20
1818.7451171875
 30
0.0
 40
0.0
 40
0.0
 40
0.0
 40
0.0
 40
4.0
 40
4.0
 40
4.0
 40
4.0
  0
SPLINE
  5
D2
100
AcDbEntity
  8
mainlayer
 62
0
370
-1
 48
1.0
  6
BYLAYER
100
AcDbSpline
 70
8
 71
3
 72
8
 73
4
 74
0
 10
-3324.04150390625
 20
1818.7451171875
 30
0.0
 10
-3322.5629882812509095
 20
1798.0009765625004547
 30
0.0
 10
-3320.54638671875
 20
1777.3017578125
 30
0.0
 10
-3317.99462890625
 20
1756.6630859375
 30
0.0
 40
0.0
 40
0.0
 40
0.0
 40
0.0
 40
4.0
 40
4.0
 40
4.0
 40
4.0
  0
SPLINE
  5
D3
100
AcDbEntity
  8
mainlayer
 62
0
370
-1
 48
1.0
  6
BYLAYER
100
AcDbSpline
 70
8
 71
3
 72
8
 73
4
 74
0
 10
-3317.99462890625
 20
1756.6630859375
 30
0.0
 10
-3315.4331054687509095
 20
1735.9228515625002274
 30
0.0
 10
-3312.53369140625
 20
1715.2275390624997726
 30
0.0
 10
-3309.29541015625
 20
1694.58203125
 30
0.0
 40
0.0
 40
0.0
 40
0.0
 40
0.0
 40
4.0
 40
4.0
 40
4.0
 40
4.0
  0
SPLINE
  5
D4
100
AcDbEntity
  8
mainlayer
 62
0
370
-1
 48
1.0
  6
BYLAYER
100
AcDbSpline
 70
8
 71
3
 72
8
 73
4
 74
0
 10
-3309.29541015625
 20
1694.58203125
 30
0.0
 10
-3306.0493164062509095
 20
1673.8652343750002274
 30
0.0
 10
-3302.66552734375
 20
1653.171875
 30
0.0
 10
-3299.14208984375
 20
1632.5009765625
 30
0.0
 40
0.0
 40
0.0
 40
0.0
 40
0.0
 40
4.0
 40
4.0
 40
4.0
 40
4.0
  0
LWPOLYLINE
  5
D5
100
AcDbEntity
  8
mainlayer
 62
0
370
-1
 48
1.0
  6
BYLAYER
100
AcDbPolyline
 90
4
 70
0
 10
-3299.14208984375
 20
1632.5009765625
 10
-3286.22802734375
 20
1554.8994140625
 10
-3286.22802734375
 20
1554.8994140625
 10
-3285.00439453125
 20
1547.138671875
  0
SPLINE
  5
D6
100
AcDbEntity
  8
mainlayer
 62
0
370
-1
 48
1.0
  6
BYLAYER
100
AcDbSpline
 70
8
 71
3
 72
8
 73
4
 74
0
 10
-3285.00439453125
 20
1547.138671875
 30
0.0
 10
-3279.9165039062504547
 20
1514.9111328125002274
 30
0.0
 10
-3275.60302734375
 20
1482.5712890625
 30
0.0
 10
-3272.06787109375
 20
1450.13671875
 30
0.0
 40
0.0
 40
0.0
 40
0.0
 40
0.0
 40
4.0
 40
4.0
 40
4.0
 40
4.0
  0
SPLINE
  5
D7
100
AcDbEntity
  8
mainlayer
 62
0
370
-1
 48
1.0
  6
BYLAYER
100
AcDbSpline
 70
8
 71
3
 72
8
 73
4
 74
0
 10
-3272.06787109375
 20
1450.13671875
 30
0.0
 10
-3269.1206054687509095
 20
1423.0156250000002274
 30
0.0
 10
-3266.5815429687504547
 20
1395.853515625
 30
0.0
 10
-3264.45263671875
 20
1368.6552734375
 30
0.0
 40
0.0
 40
0.0
 40
0.0
 40
0.0
 40
4.0
 40
4.0
 40
4.0
 40
4.0
  0
SPLINE
  5
D8
100
AcDbEntity
  8
mainlayer
 62
0
370
-1
 48
1.0
  6
BYLAYER
100
AcDbSpline
 70
8
 71
3
 72
8
 73
4
 74
0
 10
-3264.45263671875
 20
1368.6552734375
 30
0.0
 10
-3262.0327148437504547
 20
1337.6357421875002274
 30
0.0
 10
-3259.91552734375
 20
1306.59375
 30
0.0
 10
-3258.10205078125
 20
1275.533203125
 30
0.0
 40
0.0
 40
0.0
 40
0.0
 40
0.0
 40
4.0
 40
4.0
 40
4.0
 40
4.0
  0
LWPOLYLINE
  5
D9
100
AcDbEntity
  8
mainlayer
 62
0
370
-1
 48
1.0
  6
BYLAYER
100
AcDbPolyline
 90
4
 70
0
 10
-3258.10205078125
 20
1275.533203125
 10
-3249.21826171875
 20
1120.330078125
 10
-3249.21826171875
 20
1120.330078125
 10
-3241.63232421875
 20
1003.9267578125
  0
SPLINE
  5
DA
100
AcDbEntity
  8
mainlayer
 62
0
370
-1
 48
1.0
  6
BYLAYER
100
AcDbSpline
 70
8
 71
3
 72
8
 73
4
 74
0
 10
-3241.63232421875
 20
1003.9267578125
 30
0.0
 10
-3239.9682617187504547
 20
978.0712890625002274
 30
0.0
 10
-3238.50732421875
 20
952.2041015624998863
 30
0.0
 10
-3237.25146484375
 20
926.3251953125
 30
0.0
 40
0.0
 40
0.0
 40
0.0
 40
0.0
 40
4.0
 40
4.0
 40
4.0
 40
4.0
  0
SPLINE
  5
DB
100
AcDbEntity
  8
mainlayer
 62
0
370
-1
 48
1.0
  6
BYLAYER
100
AcDbSpline
 70
8
 71
3
 72
8
 73
4
 74
0
 10
-3237.25146484375
 20
926.3251953125
 30
0.0
 10
-3236.0610351562509095
 20
901.7636718750001137
 30
0.0
 10
-3235.20751953125
 20
877.1884765624998863
 30
0.0
 10
-3234.69189453125
 20
852.603515625
 30
0.0
 40
0.0
 40
0.0
 40
0.0
 40
0.0
 40
4.0
 40
4.0
 40
4.0
 40
4.0
  0
SPLINE
  5
DC
100
AcDbEntity
  8
mainlayer
 62
0
370
-1
 48
1.0
  6
BYLAYER
100
AcDbSpline
 70
8
 71
3
 72
8
 73
4
 74
0
 10
-3234.69189453125
 20
852.603515625
 30
0.0
 10
-3234.0844726562509095
 20
824.1513671875001137
 30
0.0
 10
-3234.1411132812495453
 20
795.6923828124998863
 30
0.0
 10
-3234.86279296875
 20
767.2421875
 30
0.0
 40
0.0
 40
0.0
 40
0.0
 40
0.0
 40
4.0
 40
4.0
 40
4.0
 40
4.0
  0
SPLINE
  5
DD
100
AcDbEntity
  8
mainlayer
 62
0
370
-1
 48
1.0
  6
BYLAYER
100
AcDbSpline
 70
8
 71
3
 72
8
 73
4
 74
0
 10
-3234.86279296875
 20
767.2421875
 30
0.0
 10
-3235.6411132812504547
 20
738.7490234375002274
 30
0.0
 10
-3237.19873046875
 20
710.2880859375001137
 30
0.0
 10
-3239.53564453125
 20
681.8798828125
 30
0.0
 40
0.0
 40
0.0
 40
0.0
 40
0.0
 40
4.0
 40
4.0
 40
4.0
 40
4.0
  0
SPLINE
  5
DE
100
AcDbEntity
  8
mainlayer
 62
0
370
-1
 48
1.0
  6
BYLAYER
100
AcDbSpline
 70
8
 71
3
 72
8
 73
4
 74
0
 10
-3239.53564453125
 20
681.8798828125
 30
0.0
 10
-3241.3315429687509095
 20
659.8632812500002274
 30
0.0
 10
-3243.44775390625
 20
637.8740234374998863
 30
0.0
 10
-3245.88330078125
 20
615.9189453125
 30
0.0
 40
0.0
 40
0.0
 40
0.0
 40
0.0
 40
4.0
 40
4.0
 40
4.0
 40
4.0
  0
SPLINE
  5
DF
100
AcDbEntity
  8
mainlayer
 62
0
370
-1
 48
1.0
  6
BYLAYER
100
AcDbSpline
 70
8
 71
3
 72
8
 73
4
 74
0
 10
-3245.88330078125
 20
615.9189453125
 30
0.0
 10
-3248.7612304687509095
 20
590.0244140625001137
 30
0.0
 10
-3251.8715820312495453
 20
564.15625
 30
0.0
 10
-3255.21533203125
 20
538.3173828125
 30
0.0
 40
0.0
 40
0.0
 40
0.0
 40
0.0
 40
4.0
 40
4.0
 40
4.0
 40
4.0
  0
LWPOLYLINE
  5
E0
100
AcDbEntity
  8
mainlayer
 62
0
370
-1
 48
1.0
  6
BYLAYER
100
AcDbPolyline
 90
4
 70
0
 10
-3255.21533203125
 20
538.3173828125
 10
-3270.22509765625
 20
421.9150390625
 10
-3270.22509765625
 20
421.9150390625
 10
-3272.11572265625
 20
406.39453125
  0
SPLINE
  5
E1
100
AcDbEntity
  8
mainlayer
 62
0
370
-1
 48
1.0
  6
BYLAYER
100
AcDbSpline
 70
8
 71
3
 72
8
 73
4
 74
0
 10
-3272.11572265625
 20
406.39453125
 30
0.0
 10
-3275.5629882812509095
 20
377.9863281250000568
 30
0.0
 10
-3278.59130859375
 20
349.5302734375
 30
0.0
 10
-3281.20068359375
 20
321.0322265625
 30
0.0
 40
0.0
 40
0.0
 40
0.0
 40
0.0
 40
4.0
 40
4.0
 40
4.0
 40
4.0
  0
SPLINE
  5
E2
100
AcDbEntity
  8
mainlayer
 62
0
370
-1
 48
1.0
  6
BYLAYER
100
AcDbSpline
 70
8
 71
3
 72
8
 73
4
 74
0
 10
-3281.20068359375
 20
321.0322265625
 30
0.0
 10
-3284.4653320312504547
 20
284.8632812500000568
 30
0.0
 10
-3287.13720703125
 20
248.646484375
 30
0.0
 10
-3289.21728515625
 20
212.390625
 30
0.0
 40
0.0
 40
0.0
 40
0.0
 40
0.0
 40
4.0
 40
4.0
 40
4.0
 40
4.0
  0
SPLINE
  5
E3
100
AcDbEntity
  8
mainlayer
 62
0
370
-1
 48
1.0
  6
BYLAYER
100
AcDbSpline
 70
8
 71
3
 72
8
 73
4
 74
0
 10
-3289.21728515625
 20
212.390625
 30
0.0
 10
-3291.2944335937509095
 20
176.1953125000000284
 30
0.0
 10
-3292.97216796875
 20
139.98046875
 30
0.0
 10
-3294.25244140625
 20
103.748046875
 30
0.0
 40
0.0
 40
0.0
 40
0.0
 40
0.0
 40
4.0
 40
4.0
 40
4.0
 40
4.0
  0
LWPOLYLINE
  5
E4
100
AcDbEntity
  8
mainlayer
 62
0
370
-1
 48
1.0
  6
BYLAYER
100
AcDbPolyline
 90
82
 70
0
 10
-3294.25244140625
 20
103.748046875
 10
-3296.67529296875
 20
26.1464862823486328
 10
-3296.67529296875
 20
26.1464862823486328
 10
-3297.08740234375
 20
10.6259775161743164
 10
-3297.08740234375
 20
10.6259775161743164
 10
-3314.85595703125
 20
10.6259775161743164
 10
-3314.85595703125
 20
10.6259775161743164
 10
-3311.51904296875
 20
20.6269550323486328
 10
-3311.51904296875
 20
20.6269550323486328
 10
-3338.18896484375
 20
20.6269550323486328
 10
-3338.18896484375
 20
20.6269550323486328
 10
-3334.85498046875
 20
10.6259775161743164
 10
-3334.85498046875
 20
10.6259775161743164
 10
-3354.85400390625
 20
10.6259775161743164
 10
-3354.85400390625
 20
10.6259775161743164
 10
-3351.52099609375
 20
20.6269550323486328
 10
-3351.52099609375
 20
20.6269550323486328
 10
-3378.19091796875
 20
20.6269550323486328
 10
-3378.19091796875
 20
20.6269550323486328
 10
-3374.85302734375
 20
10.6259775161743164
 10
-3374.85302734375
 20
10.6259775161743164
 10
-3394.85205078125
 20
10.6259775161743164
 10
-3394.85205078125
 20
10.6259775161743164
 10
-3391.51904296875
 20
20.6269550323486328
 10
-3391.51904296875
 20
20.6269550323486328
 10
-3418.18896484375
 20
20.6269550323486328
 10
-3418.18896484375
 20
20.6269550323486328
 10
-3414.85107421875
 20
10.6259775161743164
 10
-3414.85107421875
 20
10.6259775161743164
 10
-3432.61962890625
 20
10.6259775161743164
 10
-3432.61962890625
 20
10.6259775161743164
 10
-3432.61962890625
 20
428.94921875
 10
-3432.61962890625
 20
428.94921875
 10
-3435.85107421875
 20
428.94921875
 10
-3435.85107421875
 20
428.94921875
 10
-3443.00537109375
 20
421.794921875
 10
-3443.00537109375
 20
421.794921875
 10
-3450.43115234375
 20
429.2177734375
 10
-3450.43115234375
 20
429.2177734375
 10
-3450.43115234375
 20
444.0380859375
 10
-3450.43115234375
 20
444.0380859375
 10
-3443.00537109375
 20
451.4599609375
 10
-3443.00537109375
 20
451.4599609375
 10
-3435.85107421875
 20
444.3017578125
 10
-3435.85107421875
 20
444.3017578125
 10
-3432.61962890625
 20
444.3017578125
 10
-3432.61962890625
 20
444.3017578125
 10
-3432.61962890625
 20
1358.94921875
 10
-3432.61962890625
 20
1358.94921875
 10
-3435.85107421875
 20
1358.94921875
 10
-3435.85107421875
 20
1358.94921875
 10
-3443.00537109375
 20
1351.794921875
 10
-3443.00537109375
 20
1351.794921875
 10
-3450.43115234375
 20
1359.2177734375
 10
-3450.43115234375
 20
1359.2177734375
 10
-3450.43115234375
 20
1374.0380859375
 10
-3450.43115234375
 20
1374.0380859375
 10
-3443.00537109375
 20
1381.4599609375
 10
-3443.00537109375
 20
1381.4599609375
 10
-3435.85107421875
 20
1374.3017578125
 10
-3435.85107421875
 20
1374.3017578125
 10
-3432.61962890625
 20
1374.3017578125
 10
-3432.61962890625
 20
1374.3017578125
 10
-3432.61962890625
 20
2288.94921875
 10
-3432.61962890625
 20
2288.94921875
 10
-3435.85107421875
 20
2288.94921875
 10
-3435.85107421875
 20
2288.94921875
 10
-3443.00537109375
 20
2281.794921875
 10
-3443.00537109375
 20
2281.794921875
 10
-3450.43115234375
 20
2289.2177734375
 10
-3450.43115234375
 20
2289.2177734375
 10
-3450.43115234375
 20
2304.0380859375
 10
-3450.43115234375
 20
2304.0380859375
 10
-3443.00537109375
 20
2311.4599609375
 10
-3443.00537109375
 20
2311.4599609375
 10
-3435.85107421875
 20
2304.3017578125
 10
-3435.85107421875
 20
2304.3017578125
 10
-3432.61962890625
 20
2304.3017578125
 10
-3432.61962890625
 20
2304.3017578125
 10
-3432.61962890625
 20
2800.6259765625
 10
-3432.61962890625
 20
2800.6259765625
 10
-3402.12158203125
 20
2800.6259765625
  0
SPLINE
  5
E5
100
AcDbEntity
  8
mainlayer
 62
0
370
-1
 48
1.0
  6
BYLAYER
100
AcDbSpline
 70
8
 71
3
 72
8
 73
4
 74
0
 10
-3102.12548828125
 20
2790.640625
 30
0.0
 10
-3101.5424804687504547
 20
2782.9326171875004547
 30
0.0
 10
-3100.8920898437495453
 20
2775.2294921875
 30
0.0
 10
-3100.17529296875
 20
2767.5322265625
 30
0.0
 40
0.0
 40
0.0
 40
0.0
 40
0.0
 40
4.0
 40
4.0
 40
4.0
 40
4.0
  0
SPLINE
  5
E6
100
AcDbEntity
  8
mainlayer
 62
0
370
-1
 48
1.0
  6
BYLAYER
100
AcDbSpline
 70
8
 71
3
 72
8
 73
4
 74
0
 10
-3100.17529296875
 20
2767.5322265625
 30
0.0
 10
-3098.1108398437504547
 20
2745.6650390625004547
 30
0.0
 10
-3095.65185546875
 20
2723.837890625
 30
0.0
 10
-3092.80029296875
 20
2702.0595703125
 30
0.0
 40
0.0
 40
0.0
 40
0.0
 40
0.0
 40
4.0
 40
4.0
 40
4.0
 40
4.0
  0
SPLINE
  5
E7
100
AcDbEntity
  8
mainlayer
 62
0
370
-1
 48
1.0
  6
BYLAYER
100
AcDbSpline
 70
8
 71
3
 72
8
 73
4
 74
0
 10
-3092.80029296875
 20
2702.0595703125
 30
0.0
 10
-3089.9448242187504547
 20
2680.2089843750009095
 30
0.0
 10
-3086.89794921875
 20
2658.3837890625
 30
0.0
 10
-3083.65966796875
 20
2636.5869140625
 30
0.0
 40
0.0
 40
0.0
 40
0.0
 40
0.0
 40
4.0
 40
4.0
 40
4.0
 40
4.0
  0
LWPOLYLINE
  5
E8
100
AcDbEntity
  8
mainlayer
 62
0
370
-1
 48
1.0
  6
BYLAYER
100
AcDbPolyline
 90
2
 70
0
 10
-3083.65966796875
 20
2636.5869140625
 10
-3070.14892578125
 20
2544.1552734375
  0
SPLINE
  5
E9
100
AcDbEntity
  8
mainlayer
 62
0
370
-1
 48
1.0
  6
BYLAYER
100
AcDbSpline
 70
8
 71
3
 72
8
 73
4
 74
0
 10
-3070.14892578125
 20
2544.1552734375
 30
0.0
 10
-3067.2670898437509095
 20
2523.6484375000009095
 30
0.0
 10
-3064.6401367187495453
 20
2503.1064453125
 30
0.0
 10
-3062.26904296875
 20
2482.5341796875
 30
0.0
 40
0.0
 40
0.0
 40
0.0
 40
0.0
 40
4.0
 40
4.0
 40
4.0
 40
4.0
  0
SPLINE
  5
EA
100
AcDbEntity
  8
mainlayer
 62
0
370
-1
 48
1.0
  6
BYLAYER
100
AcDbSpline
 70
8
 71
3
 72
8
 73
4
 74
0
 10
-3062.26904296875
 20
2482.5341796875
 30
0.0
 10
-3058.7631835937504547
 20
2451.7724609375004547
 30
0.0
 10
-3055.7436523437495453
 20
2420.9599609375
 30
0.0
 10
-3053.21142578125
 20
2390.1025390625
 30
0.0
 40
0.0
 40
0.0
 40
0.0
 40
0.0
 40
4.0
 40
4.0
 40
4.0
 40
4.0
  0
SPLINE
  5
EB
100
AcDbEntity
  8
mainlayer
 62
0
370
-1
 48
1.0
  6
BYLAYER
100
AcDbSpline
 70
8
 71
3
 72
8
 73
4
 74
0
 10
-3053.21142578125
 20
2390.1025390625
 30
0.0
 10
-3050.6860351562509095
 20
2359.3134765625004547
 30
0.0
 10
-3048.4526367187495453
 20
2328.501953125
 30
0.0
 10
-3046.51123046875
 20
2297.6708984375
 30
0.0
 40
0.0
 40
0.0
 40
0.0
 40
0.0
 40
4.0
 40
4.0
 40
4.0
 40
4.0
  0
LWPOLYLINE
  5
EC
100
AcDbEntity
  8
mainlayer
 62
0
370
-1
 48
1.0
  6
BYLAYER
100
AcDbPolyline
 90
4
 70
0
 10
-3046.51123046875
 20
2297.6708984375
 10
-3035.44970703125
 20
2112.8076171875
 10
-3035.44970703125
 20
2112.8076171875
 10
-3027.38134765625
 20
1989.5654296875
  0
SPLINE
  5
ED
100
AcDbEntity
  8
mainlayer
 62
0
370
-1
 48
1.0
  6
BYLAYER
100
AcDbSpline
 70
8
 71
3
 72
8
 73
4
 74
0
 10
-3027.38134765625
 20
1989.5654296875
 30
0.0
 10
-3025.6020507812509095
 20
1961.3369140625004547
 30
0.0
 10
-3024.08740234375
 20
1933.0927734374997726
 30
0.0
 10
-3022.83740234375
 20
1904.8359375
 30
0.0
 40
0.0
 40
0.0
 40
0.0
 40
0.0
 40
4.0
 40
4.0
 40
4.0
 40
4.0
  0
SPLINE
  5
EE
100
AcDbEntity
  8
mainlayer
 62
0
370
-1
 48
1.0
  6
BYLAYER
100
AcDbSpline
 70
8
 71
3
 72
8
 73
4
 74
0
 10
-3022.83740234375
 20
1904.8359375
 30
0.0
 10
-3021.7045898437509095
 20
1879.1728515625004547
 30
0.0
 10
-3020.95458984375
 20
1853.4951171875
 30
0.0
 10
-3020.58642578125
 20
1827.8095703125
 30
0.0
 40
0.0
 40
0.0
 40
0.0
 40
0.0
 40
4.0
 40
4.0
 40
4.0
 40
4.0
  0
SPLINE
  5
EF
100
AcDbEntity
  8
mainlayer
 62
0
370
-1
 48
1.0
  6
BYLAYER
100
AcDbSpline
 70
8
 71
3
 72
8
 73
4
 74
0
 10
-3020.58642578125
 20
1827.8095703125
 30
0.0
 10
-3020.1499023437504547
 20
1798.2792968750002274
 30
0.0
 10
-3020.42822265625
 20
1768.7470703125
 30
0.0
 10
-3021.41943359375
 20
1739.2294921875
 30
0.0
 40
0.0
 40
0.0
 40
0.0
 40
0.0
 40
4.0
 40
4.0
 40
4.0
 40
4.0
  0
SPLINE
  5
F0
100
AcDbEntity
  8
mainlayer
 62
0
370
-1
 48
1.0
  6
BYLAYER
100
AcDbSpline
 70
8
 71
3
 72
8
 73
4
 74
0
 10
-3021.41943359375
 20
1739.2294921875
 30
0.0
 10
-3022.4438476562504547
 20
1710.9511718750002274
 30
0.0
 10
-3024.11669921875
 20
1682.703125
 30
0.0
 10
-3026.43701171875
 20
1654.5009765625
 30
0.0
 40
0.0
 40
0.0
 40
0.0
 40
0.0
 40
4.0
 40
4.0
 40
4.0
 40
4.0
  0
SPLINE
  5
F1
100
AcDbEntity
  8
mainlayer
 62
0
370
-1
 48
1.0
  6
BYLAYER
100
AcDbSpline
 70
8
 71
3
 72
8
 73
4
 74
0
 10
-3026.43701171875
 20
1654.5009765625
 30
0.0
 10
-3028.4331054687509095
 20
1630.0771484375002274
 30
0.0
 10
-3030.76318359375
 20
1605.68359375
 30
0.0
 10
-3033.42822265625
 20
1581.3251953125
 30
0.0
 40
0.0
 40
0.0
 40
0.0
 40
0.0
 40
4.0
 40
4.0
 40
4.0
 40
4.0
  0
SPLINE
  5
F2
100
AcDbEntity
  8
mainlayer
 62
0
370
-1
 48
1.0
  6
BYLAYER
100
AcDbSpline
 70
8
 71
3
 72
8
 73
4
 74
0
 10
-3033.42822265625
 20
1581.3251953125
 30
0.0
 10
-3036.5239257812504547
 20
1553.0537109375002274
 30
0.0
 10
-3039.85986328125
 20
1524.810546875
 30
0.0
 10
-3043.43505859375
 20
1496.5966796875
 30
0.0
 40
0.0
 40
0.0
 40
0.0
 40
0.0
 40
4.0
 40
4.0
 40
4.0
 40
4.0
  0
LWPOLYLINE
  5
F3
100
AcDbEntity
  8
mainlayer
 62
0
370
-1
 48
1.0
  6
BYLAYER
100
AcDbPolyline
 90
2
 70
0
 10
-3043.43505859375
 20
1496.5966796875
 10
-3059.99755859375
 20
1365.6513671875
  0
SPLINE
  5
F4
100
AcDbEntity
  8
mainlayer
 62
0
370
-1
 48
1.0
  6
BYLAYER
100
AcDbSpline
 70
8
 71
3
 72
8
 73
4
 74
0
 10
-3059.99755859375
 20
1365.6513671875
 30
0.0
 10
-3067.5034179687504547
 20
1304.1542968750002274
 30
0.0
 10
-3073.83837890625
 20
1242.5263671875
 30
0.0
 10
-3078.99951171875
 20
1180.7880859375
 30
0.0
 40
0.0
 40
0.0
 40
0.0
 40
0.0
 40
4.0
 40
4.0
 40
4.0
 40
4.0
  0
SPLINE
  5
F5
100
AcDbEntity
  8
mainlayer
 62
0
370
-1
 48
1.0
  6
BYLAYER
100
AcDbSpline
 70
8
 71
3
 72
8
 73
4
 74
0
 10
-3078.99951171875
 20
1180.7880859375
 30
0.0
 10
-3084.1440429687504547
 20
1119.2558593750004547
 30
0.0
 10
-3087.92626953125
 20
1057.6240234375
 30
0.0
 10
-3090.34521484375
 20
995.9248046875
 30
0.0
 40
0.0
 40
0.0
 40
0.0
 40
0.0
 40
4.0
 40
4.0
 40
4.0
 40
4.0
  0
SPLINE
  5
F6
100
AcDbEntity
  8
mainlayer
 62
0
370
-1
 48
1.0
  6
BYLAYER
100
AcDbSpline
 70
8
 71
3
 72
8
 73
4
 74
0
 10
-3090.34521484375
 20
995.9248046875
 30
0.0
 10
-3091.4106445312504547
 20
967.6894531250002274
 30
0.0
 10
-3092.2260742187495453
 20
939.4453125
 30
0.0
 10
-3092.79248046875
 20
911.1953125
 30
0.0
 40
0.0
 40
0.0
 40
0.0
 40
0.0
 40
4.0
 40
4.0
 40
4.0
 40
4.0
  0
LWPOLYLINE
  5
F7
100
AcDbEntity
  8
mainlayer
 62
0
370
-1
 48
1.0
  6
BYLAYER
100
AcDbPolyline
 90
2
 70
0
 10
-3092.79248046875
 20
911.1953125
 10
-3094.37841796875
 20
834.1689453125
  0
SPLINE
  5
F8
100
AcDbEntity
  8
mainlayer
 62
0
370
-1
 48
1.0
  6
BYLAYER
100
AcDbSpline
 70
8
 71
3
 72
8
 73
4
 74
0
 10
-3094.37841796875
 20
834.1689453125
 30
0.0
 10
-3094.9145507812504547
 20
808.4873046875002274
 30
0.0
 10
-3095.66552734375
 20
782.8115234374998863
 30
0.0
 10
-3096.63134765625
 20
757.142578125
 30
0.0
 40
0.0
 40
0.0
 40
0.0
 40
0.0
 40
4.0
 40
4.0
 40
4.0
 40
4.0
  0
SPLINE
  5
F9
100
AcDbEntity
  8
mainlayer
 62
0
370
-1
 48
1.0
  6
BYLAYER
100
AcDbSpline
 70
8
 71
3
 72
8
 73
4
 74
0
 10
-3096.63134765625
 20
757.142578125
 30
0.0
 10
-3097.5034179687504547
 20
734.0175781250001137
 30
0.0
 10
-3098.71142578125
 20
710.9082031249998863
 30
0.0
 10
-3100.25634765625
 20
687.818359375
 30
0.0
 40
0.0
 40
0.0
 40
0.0
 40
0.0
 40
4.0
 40
4.0
 40
4.0
 40
4.0
  0
SPLINE
  5
FA
100
AcDbEntity
  8
mainlayer
 62
0
370
-1
 48
1.0
  6
BYLAYER
100
AcDbSpline
 70
8
 71
3
 72
8
 73
4
 74
0
 10
-3100.25634765625
 20
687.818359375
 30
0.0
 10
-3102.0502929687504547
 20
660.8007812500001137
 30
0.0
 10
-3104.51416015625
 20
633.8369140624998863
 30
0.0
 10
-3107.64599609375
 20
606.94140625
 30
0.0
 40
0.0
 40
0.0
 40
0.0
 40
0.0
 40
4.0
 40
4.0
 40
4.0
 40
4.0
  0
SPLINE
  5
FB
100
AcDbEntity
  8
mainlayer
 62
0
370
-1
 48
1.0
  6
BYLAYER
100
AcDbSpline
 70
8
 71
3
 72
8
 73
4
 74
0
 10
-3107.64599609375
 20
606.94140625
 30
0.0
 10
-3109.9418945312504547
 20
587.623046875
 30
0.0
 10
-3112.61474609375
 20
568.3525390625
 30
0.0
 10
-3115.66259765625
 20
549.138671875
 30
0.0
 40
0.0
 40
0.0
 40
0.0
 40
0.0
 40
4.0
 40
4.0
 40
4.0
 40
4.0
  0
SPLINE
  5
FC
100
AcDbEntity
  8
mainlayer
 62
0
370
-1
 48
1.0
  6
BYLAYER
100
AcDbSpline
 70
8
 71
3
 72
8
 73
4
 74
0
 10
-3115.66259765625
 20
549.138671875
 30
0.0
 10
-3118.5336914062504547
 20
531.0087890625001137
 30
0.0
 10
-3121.52197265625
 20
512.8974609375
 30
0.0
 10
-3124.62744140625
 20
494.806640625
 30
0.0
 40
0.0
 40
0.0
 40
0.0
 40
0.0
 40
4.0
 40
4.0
 40
4.0
 40
4.0
  0
LWPOLYLINE
  5
FD
100
AcDbEntity
  8
mainlayer
 62
0
370
-1
 48
1.0
  6
BYLAYER
100
AcDbPolyline
 90
2
 70
0
 10
-3124.62744140625
 20
494.806640625
 10
-3129.92138671875
 20
463.3837890625
  0
SPLINE
  5
FE
100
AcDbEntity
  8
mainlayer
 62
0
370
-1
 48
1.0
  6
BYLAYER
100
AcDbSpline
 70
8
 71
3
 72
8
 73
4
 74
0
 10
-3129.92138671875
 20
463.3837890625
 30
0.0
 10
-3133.2827148437504547
 20
443.4023437500000568
 30
0.0
 10
-3136.39111328125
 20
423.3798828125
 30
0.0
 10
-3139.24658203125
 20
403.3193359375
 30
0.0
 40
0.0
 40
0.0
 40
0.0
 40
0.0
 40
4.0
 40
4.0
 40
4.0
 40
4.0
  0
SPLINE
  5
FF
100
AcDbEntity
  8
mainlayer
 62
0
370
-1
 48
1.0
  6
BYLAYER
100
AcDbSpline
 70
8
 71
3
 72
8
 73
4
 74
0
 10
-3139.24658203125
 20
403.3193359375
 30
0.0
 10
-3142.1772460937509095
 20
382.6757812500000568
 30
0.0
 10
-3144.60888671875
 20
361.9667968749999432
 30
0.0
 10
-3146.53759765625
 20
341.205078125
 30
0.0
 40
0.0
 40
0.0
 40
0.0
 40
0.0
 40
4.0
 40
4.0
 40
4.0
 40
4.0
  0
SPLINE
  5
100
100
AcDbEntity
  8
mainlayer
 62
0
370
-1
 48
1.0
  6
BYLAYER
100
AcDbSpline
 70
8
 71
3
 72
8
 73
4
 74
0
 10
-3146.53759765625
 20
341.205078125
 30
0.0
 10
-3148.5356445312509095
 20
319.6464843750000568
 30
0.0
 10
-3149.7954101562495453
 20
298.03125
 30
0.0
 10
-3150.31298828125
 20
276.38671875
 30
0.0
 40
0.0
 40
0.0
 40
0.0
 40
0.0
 40
4.0
 40
4.0
 40
4.0
 40
4.0
  0
SPLINE
  5
101
100
AcDbEntity
  8
mainlayer
 62
0
370
-1
 48
1.0
  6
BYLAYER
100
AcDbSpline
 70
8
 71
3
 72
8
 73
4
 74
0
 10
-3150.31298828125
 20
276.38671875
 30
0.0
 10
-3151.3383789062509095
 20
234.3896484375000284
 30
0.0
 10
-3149.07373046875
 20
192.4414062499999716
 30
0.0
 10
-3143.53369140625
 20
150.798828125
 30
0.0
 40
0.0
 40
0.0
 40
0.0
 40
0.0
 40
4.0
 40
4.0
 40
4.0
 40
4.0
  0
SPLINE
  5
102
100
AcDbEntity
  8
mainlayer
 62
0
370
-1
 48
1.0
  6
BYLAYER
100
AcDbSpline
 70
8
 71
3
 72
8
 73
4
 74
0
 10
-3143.53369140625
 20
150.798828125
 30
0.0
 10
-3141.2758789062504547
 20
133.9492187500000284
 30
0.0
 10
-3138.70166015625
 20
117.1455078125
 30
0.0
 10
-3135.81103515625
 20
100.392578125
 30
0.0
 40
0.0
 40
0.0
 40
0.0
 40
0.0
 40
4.0
 40
4.0
 40
4.0
 40
4.0
  0
SPLINE
  5
103
100
AcDbEntity
  8
mainlayer
 62
0
370
-1
 48
1.0
  6
BYLAYER
100
AcDbSpline
 70
8
 71
3
 72
8
 73
4
 74
0
 10
-3135.81103515625
 20
100.392578125
 30
0.0
 10
-3132.7270507812504547
 20
82.4599609375000142
 30
0.0
 10
-3129.51025390625
 20
64.5498046874999858
 30
0.0
 10
-3126.16162109375
 20
46.6650352478027344
 30
0.0
 40
0.0
 40
0.0
 40
0.0
 40
0.0
 40
4.0
 40
4.0
 40
4.0
 40
4.0
  0
LWPOLYLINE
  5
104
100
AcDbEntity
  8
mainlayer
 62
0
370
-1
 48
1.0
  6
BYLAYER
100
AcDbPolyline
 90
72
 70
0
 10
-3126.16162109375
 20
46.6650352478027344
 10
-3117.65869140625
 20
0.640626072883606
 10
-3117.65869140625
 20
0.640626072883606
 10
-3214.27783203125
 20
0.640626072883606
 10
-3214.27783203125
 20
0.640626072883606
 10
-3214.27783203125
 20
496.9638671875
 10
-3214.27783203125
 20
496.9638671875
 10
-3217.50927734375
 20
496.9638671875
 10
-3217.50927734375
 20
496.9638671875
 10
-3224.66357421875
 20
489.8095703125
 10
-3224.66357421875
 20
489.8095703125
 10
-3232.08935546875
 20
497.232421875
 10
-3232.08935546875
 20
497.232421875
 10
-3232.08935546875
 20
512.0517578125
 10
-3232.08935546875
 20
512.0517578125
 10
-3224.66357421875
 20
519.474609375
 10
-3224.66357421875
 20
519.474609375
 10
-3217.50927734375
 20
512.31640625
 10
-3217.50927734375
 20
512.31640625
 10
-3214.27783203125
 20
512.31640625
 10
-3214.27783203125
 20
512.31640625
 10
-3214.27783203125
 20
1426.9638671875
 10
-3214.27783203125
 20
1426.9638671875
 10
-3217.50927734375
 20
1426.9638671875
 10
-3217.50927734375
 20
1426.9638671875
 10
-3224.66357421875
 20
1419.8095703125
 10
-3224.66357421875
 20
1419.8095703125
 10
-3232.08935546875
 20
1427.232421875
 10
-3232.08935546875
 20
1427.232421875
 10
-3232.08935546875
 20
1442.0517578125
 10
-3232.08935546875
 20
1442.0517578125
 10
-3224.66357421875
 20
1449.474609375
 10
-3224.66357421875
 20
1449.474609375
 10
-3217.50927734375
 20
1442.31640625
 10
-3217.50927734375
 20
1442.31640625
 10
-3214.27783203125
 20
1442.31640625
 10
-3214.27783203125
 20
1442.31640625
 10
-3214.27783203125
 20
2356.9638671875
 10
-3214.27783203125
 20
2356.9638671875
 10
-3217.50927734375
 20
2356.9638671875
 10
-3217.50927734375
 20
2356.9638671875
 10
-3224.66357421875
 20
2349.8095703125
 10
-3224.66357421875
 20
2349.8095703125
 10
-3232.08935546875
 20
2357.2314453125
 10
-3232.08935546875
 20
2357.2314453125
 10
-3232.08935546875
 20
2372.0517578125
 10
-3232.08935546875
 20
2372.0517578125
 10
-3224.66357421875
 20
2379.474609375
 10
-3224.66357421875
 20
2379.474609375
 10
-3217.50927734375
 20
2372.31640625
 10
-3217.50927734375
 20
2372.31640625
 10
-3214.27783203125
 20
2372.31640625
 10
-3214.27783203125
 20
2372.31640625
 10
-3214.27783203125
 20
2790.640625
 10
-3214.27783203125
 20
2790.640625
 10
-3189.29638671875
 20
2790.640625
 10
-3189.29638671875
 20
2790.640625
 10
-3192.62939453125
 20
2780.638671875
 10
-3192.62939453125
 20
2780.638671875
 10
-3172.63037109375
 20
2780.638671875
 10
-3172.63037109375
 20
2780.638671875
 10
-3175.96826171875
 20
2790.640625
 10
-3175.96826171875
 20
2790.640625
 10
-3139.29833984375
 20
2790.640625
 10
-3139.29833984375
 20
2790.640625
 10
-3142.63134765625
 20
2780.638671875
 10
-3142.63134765625
 20
2780.638671875
 10
-3122.63232421875
 20
2780.638671875
 10
-3122.63232421875
 20
2780.638671875
 10
-3125.97021484375
 20
2790.640625
 10
-3125.97021484375
 20
2790.640625
 10
-3102.12548828125
 20
2790.640625
  0
SPLINE
  5
105
100
AcDbEntity
  8
mainlayer
 62
0
370
-1
 48
1.0
  6
BYLAYER
100
AcDbSpline
 70
8
 71
3
 72
8
 73
4
 74
0
 10
-2708.32958984375
 20
0.0000010937500292
 30
0.0
 10
-2708.8930664062509095
 20
2.954102754592896
 30
0.0
 10
-2709.45947265625
 20
5.9082040786743164
 30
0.0
 10
-2710.02880859375
 20
8.8613290786743164
 30
0.0
 40
0.0
 40
0.0
 40
0.0
 40
0.0
 40
4.0
 40
4.0
 40
4.0
 40
4.0
  0
LWPOLYLINE
  5
106
100
AcDbEntity
  8
mainlayer
 62
0
370
-1
 48
1.0
  6
BYLAYER
100
AcDbPolyline
 90
2
 70
0
 10
-2710.02880859375
 20
8.8613290786743164
 10
-2726.15576171875
 20
91.9287109375
  0
SPLINE
  5
107
100
AcDbEntity
  8
mainlayer
 62
0
370
-1
 48
1.0
  6
BYLAYER
100
AcDbSpline
 70
8
 71
3
 72
8
 73
4
 74
0
 10
-2726.15576171875
 20
91.9287109375
 30
0.0
 10
-2729.3686523437509095
 20
108.8300781250000142
 30
0.0
 10
-2732.32177734375
 20
125.7792968749999716
 30
0.0
 10
-2735.01416015625
 20
142.771484375
 30
0.0
 40
0.0
 40
0.0
 40
0.0
 40
0.0
 40
4.0
 40
4.0
 40
4.0
 40
4.0
  0
SPLINE
  5
108
100
AcDbEntity
  8
mainlayer
 62
0
370
-1
 48
1.0
  6
BYLAYER
100
AcDbSpline
 70
8
 71
3
 72
8
 73
4
 74
0
 10
-2735.01416015625
 20
142.771484375
 30
0.0
 10
-2738.1801757812504547
 20
162.7197265625000568
 30
0.0
 10
-2740.6450195312495453
 20
182.767578125
 30
0.0
 10
-2742.40673828125
 20
202.888671875
 30
0.0
 40
0.0
 40
0.0
 40
0.0
 40
0.0
 40
4.0
 40
4.0
 40
4.0
 40
4.0
  0
SPLINE
  5
109
100
AcDbEntity
  8
mainlayer
 62
0
370
-1
 48
1.0
  6
BYLAYER
100
AcDbSpline
 70
8
 71
3
 72
8
 73
4
 74
0
 10
-2742.40673828125
 20
202.888671875
 30
0.0
 10
-2744.9819335937504547
 20
232.9707031250000568
 30
0.0
 10
-2745.9995117187495453
 20
263.1455078125
 30
0.0
 10
-2745.45654296875
 20
293.3330078125
 30
0.0
 40
0.0
 40
0.0
 40
0.0
 40
0.0
 40
4.0
 40
4.0
 40
4.0
 40
4.0
  0
SPLINE
  5
10A
100
AcDbEntity
  8
mainlayer
 62
0
370
-1
 48
1.0
  6
BYLAYER
100
AcDbSpline
 70
8
 71
3
 72
8
 73
4
 74
0
 10
-2745.45654296875
 20
293.3330078125
 30
0.0
 10
-2745.0463867187504547
 20
316.0996093750001137
 30
0.0
 10
-2743.92822265625
 20
338.841796875
 30
0.0
 10
-2742.10205078125
 20
361.5380859375
 30
0.0
 40
0.0
 40
0.0
 40
0.0
 40
0.0
 40
4.0
 40
4.0
 40
4.0
 40
4.0
  0
SPLINE
  5
10B
100
AcDbEntity
  8
mainlayer
 62
0
370
-1
 48
1.0
  6
BYLAYER
100
AcDbSpline
 70
8
 71
3
 72
8
 73
4
 74
0
 10
-2742.10205078125
 20
361.5380859375
 30
0.0
 10
-2740.4516601562509095
 20
382.0273437500001137
 30
0.0
 10
-2738.4233398437495453
 20
402.482421875
 30
0.0
 10
-2736.01708984375
 20
422.896484375
 30
0.0
 40
0.0
 40
0.0
 40
0.0
 40
0.0
 40
4.0
 40
4.0
 40
4.0
 40
4.0
  0
SPLINE
  5
10C
100
AcDbEntity
  8
mainlayer
 62
0
370
-1
 48
1.0
  6
BYLAYER
100
AcDbSpline
 70
8
 71
3
 72
8
 73
4
 74
0
 10
-2736.01708984375
 20
422.896484375
 30
0.0
 10
-2733.8374023437509095
 20
441.4453125
 30
0.0
 10
-2731.5346679687495453
 20
459.9794921875
 30
0.0
 10
-2729.11083984375
 20
478.498046875
 30
0.0
 40
0.0
 40
0.0
 40
0.0
 40
0.0
 40
4.0
 40
4.0
 40
4.0
 40
4.0
  0
LWPOLYLINE
  5
10D
100
AcDbEntity
  8
mainlayer
 62
0
370
-1
 48
1.0
  6
BYLAYER
100
AcDbPolyline
 90
2
 70
0
 10
-2729.11083984375
 20
478.498046875
 10
-2722.25537109375
 20
533.037109375
  0
SPLINE
  5
10E
100
AcDbEntity
  8
mainlayer
 62
0
370
-1
 48
1.0
  6
BYLAYER
100
AcDbSpline
 70
8
 71
3
 72
8
 73
4
 74
0
 10
-2722.25537109375
 20
533.037109375
 30
0.0
 10
-2720.0874023437509095
 20
551.0068359375002274
 30
0.0
 10
-2718.22021484375
 20
569.0107421875
 30
0.0
 10
-2716.65673828125
 20
587.0439453125
 30
0.0
 40
0.0
 40
0.0
 40
0.0
 40
0.0
 40
4.0
 40
4.0
 40
4.0
 40
4.0
  0
SPLINE
  5
10F
100
AcDbEntity
  8
mainlayer
 62
0
370
-1
 48
1.0
  6
BYLAYER
100
AcDbSpline
 70
8
 71
3
 72
8
 73
4
 74
0
 10
-2716.65673828125
 20
587.0439453125
 30
0.0
 10
-2714.7368164062509095
 20
610.1162109375001137
 30
0.0
 10
-2713.38623046875
 20
633.2294921875
 30
0.0
 10
-2712.60498046875
 20
656.3681640625
 30
0.0
 40
0.0
 40
0.0
 40
0.0
 40
0.0
 40
4.0
 40
4.0
 40
4.0
 40
4.0
  0
SPLINE
  5
110
100
AcDbEntity
  8
mainlayer
 62
0
370
-1
 48
1.0
  6
BYLAYER
100
AcDbSpline
 70
8
 71
3
 72
8
 73
4
 74
0
 10
-2712.60498046875
 20
656.3681640625
 30
0.0
 10
-2711.9008789062504547
 20
676.9023437500001137
 30
0.0
 10
-2711.4936523437495453
 20
697.443359375
 30
0.0
 10
-2711.38134765625
 20
717.9892578125
 30
0.0
 40
0.0
 40
0.0
 40
0.0
 40
0.0
 40
4.0
 40
4.0
 40
4.0
 40
4.0
  0
SPLINE
  5
111
100
AcDbEntity
  8
mainlayer
 62
0
370
-1
 48
1.0
  6
BYLAYER
100
AcDbSpline
 70
8
 71
3
 72
8
 73
4
 74
0
 10
-2711.38134765625
 20
717.9892578125
 30
0.0
 10
-2711.2553710937504547
 20
741.0966796875002274
 30
0.0
 10
-2711.29931640625
 20
764.205078125
 30
0.0
 10
-2711.51220703125
 20
787.3125
 30
0.0
 40
0.0
 40
0.0
 40
0.0
 40
0.0
 40
4.0
 40
4.0
 40
4.0
 40
4.0
  0
LWPOLYLINE
  5
112
100
AcDbEntity
  8
mainlayer
 62
0
370
-1
 48
1.0
  6
BYLAYER
100
AcDbPolyline
 90
2
 70
0
 10
-2711.51220703125
 20
787.3125
 10
-2711.97021484375
 20
848.93359375
  0
SPLINE
  5
113
100
AcDbEntity
  8
mainlayer
 62
0
370
-1
 48
1.0
  6
BYLAYER
100
AcDbSpline
 70
8
 71
3
 72
8
 73
4
 74
0
 10
-2711.97021484375
 20
848.93359375
 30
0.0
 10
-2712.0952148437504547
 20
869.4746093750002274
 30
0.0
 10
-2712.04150390625
 20
890.0146484375
 30
0.0
 10
-2711.80810546875
 20
910.5546875
 30
0.0
 40
0.0
 40
0.0
 40
0.0
 40
0.0
 40
4.0
 40
4.0
 40
4.0
 40
4.0
  0
SPLINE
  5
114
100
AcDbEntity
  8
mainlayer
 62
0
370
-1
 48
1.0
  6
BYLAYER
100
AcDbSpline
 70
8
 71
3
 72
8
 73
4
 74
0
 10
-2711.80810546875
 20
910.5546875
 30
0.0
 10
-2711.5629882812504547
 20
932.3886718750002274
 30
0.0
 10
-2710.94287109375
 20
954.2148437499998863
 30
0.0
 10
-2709.94677734375
 20
976.02734375
 30
0.0
 40
0.0
 40
0.0
 40
0.0
 40
0.0
 40
4.0
 40
4.0
 40
4.0
 40
4.0
  0
SPLINE
  5
115
100
AcDbEntity
  8
mainlayer
 62
0
370
-1
 48
1.0
  6
BYLAYER
100
AcDbSpline
 70
8
 71
3
 72
8
 73
4
 74
0
 10
-2709.94677734375
 20
976.02734375
 30
0.0
 10
-2708.5190429687504547
 20
1005.6015625
 30
0.0
 10
-2706.3940429687495453
 20
1035.134765625
 30
0.0
 10
-2703.57275390625
 20
1064.6083984375
 30
0.0
 40
0.0
 40
0.0
 40
0.0
 40
0.0
 40
4.0
 40
4.0
 40
4.0
 40
4.0
  0
SPLINE
  5
116
100
AcDbEntity
  8
mainlayer
 62
0
370
-1
 48
1.0
  6
BYLAYER
100
AcDbSpline
 70
8
 71
3
 72
8
 73
4
 74
0
 10
-2703.57275390625
 20
1064.6083984375
 30
0.0
 10
-2701.1245117187504547
 20
1090.3232421875002274
 30
0.0
 10
-2698.31103515625
 20
1116.0
 30
0.0
 10
-2695.13232421875
 20
1141.634765625
 30
0.0
 40
0.0
 40
0.0
 40
0.0
 40
0.0
 40
4.0
 40
4.0
 40
4.0
 40
4.0
  0
SPLINE
  5
117
100
AcDbEntity
  8
mainlayer
 62
0
370
-1
 48
1.0
  6
BYLAYER
100
AcDbSpline
 70
8
 71
3
 72
8
 73
4
 74
0
 10
-2695.13232421875
 20
1141.634765625
 30
0.0
 10
-2691.6264648437504547
 20
1169.9101562500002274
 30
0.0
 10
-2687.87353515625
 20
1198.154296875
 30
0.0
 10
-2683.87255859375
 20
1226.36328125
 30
0.0
 40
0.0
 40
0.0
 40
0.0
 40
0.0
 40
4.0
 40
4.0
 40
4.0
 40
4.0
  0
LWPOLYLINE
  5
118
100
AcDbEntity
  8
mainlayer
 62
0
370
-1
 48
1.0
  6
BYLAYER
100
AcDbPolyline
 90
6
 70
0
 10
-2683.87255859375
 20
1226.36328125
 10
-2663.00341796875
 20
1372.7138671875
 10
-2663.00341796875
 20
1372.7138671875
 10
-2654.83251953125
 20
1434.3349609375
 10
-2654.83251953125
 20
1434.3349609375
 10
-2653.85986328125
 20
1442.037109375
  0
SPLINE
  5
119
100
AcDbEntity
  8
mainlayer
 62
0
370
-1
 48
1.0
  6
BYLAYER
100
AcDbSpline
 70
8
 71
3
 72
8
 73
4
 74
0
 10
-2653.85986328125
 20
1442.037109375
 30
0.0
 10
-2649.32861328125
 20
1477.9257812500002274
 30
0.0
 10
-2645.2905273437495453
 20
1513.8740234375
 30
0.0
 10
-2641.74560546875
 20
1549.8740234375
 30
0.0
 40
0.0
 40
0.0
 40
0.0
 40
0.0
 40
4.0
 40
4.0
 40
4.0
 40
4.0
  0
SPLINE
  5
11A
100
AcDbEntity
  8
mainlayer
 62
0
370
-1
 48
1.0
  6
BYLAYER
100
AcDbSpline
 70
8
 71
3
 72
8
 73
4
 74
0
 10
-2641.74560546875
 20
1549.8740234375
 30
0.0
 10
-2638.2109375000009095
 20
1585.7636718750004547
 30
0.0
 10
-2635.35888671875
 20
1621.7138671875
 30
0.0
 10
-2633.1904296875
 20
1657.7119140625
 30
0.0
 40
0.0
 40
0.0
 40
0.0
 40
0.0
 40
4.0
 40
4.0
 40
4.0
 40
4.0
  0
SPLINE
  5
11B
100
AcDbEntity
  8
mainlayer
 62
0
370
-1
 48
1.0
  6
BYLAYER
100
AcDbSpline
 70
8
 71
3
 72
8
 73
4
 74
0
 10
-2633.1904296875
 20
1657.7119140625
 30
0.0
 10
-2630.4111328125009095
 20
1703.8789062500004547
 30
0.0
 10
-2629.068359375
 20
1750.109375
 30
0.0
 10
-2629.16357421875
 20
1796.359375
 30
0.0
 40
0.0
 40
0.0
 40
0.0
 40
0.0
 40
4.0
 40
4.0
 40
4.0
 40
4.0
  0
SPLINE
  5
11C
100
AcDbEntity
  8
mainlayer
 62
0
370
-1
 48
1.0
  6
BYLAYER
100
AcDbSpline
 70
8
 71
3
 72
8
 73
4
 74
0
 10
-2629.16357421875
 20
1796.359375
 30
0.0
 10
-2629.23681640625
 20
1827.1777343750004547
 30
0.0
 10
-2629.78515625
 20
1857.990234375
 30
0.0
 10
-2630.80859375
 20
1888.791015625
 30
0.0
 40
0.0
 40
0.0
 40
0.0
 40
0.0
 40
4.0
 40
4.0
 40
4.0
 40
4.0
  0
SPLINE
  5
11D
100
AcDbEntity
  8
mainlayer
 62
0
370
-1
 48
1.0
  6
BYLAYER
100
AcDbSpline
 70
8
 71
3
 72
8
 73
4
 74
0
 10
-2630.80859375
 20
1888.791015625
 30
0.0
 10
-2631.8325195312504547
 20
1919.6132812500002274
 30
0.0
 10
-2633.15185546875
 20
1950.4248046875
 30
0.0
 10
-2634.76708984375
 20
1981.22265625
 30
0.0
 40
0.0
 40
0.0
 40
0.0
 40
0.0
 40
4.0
 40
4.0
 40
4.0
 40
4.0
  0
LWPOLYLINE
  5
11E
100
AcDbEntity
  8
mainlayer
 62
0
370
-1
 48
1.0
  6
BYLAYER
100
AcDbPolyline
 90
10
 70
0
 10
-2634.76708984375
 20
1981.22265625
 10
-2640.41845703125
 20
2081.3564453125
 10
-2640.41845703125
 20
2081.3564453125
 10
-2653.01708984375
 20
2297.0302734375
 10
-2653.01708984375
 20
2297.0302734375
 10
-2658.16455078125
 20
2374.0576171875
 10
-2658.16455078125
 20
2374.0576171875
 10
-2662.93505859375
 20
2435.6787109375
 10
-2662.93505859375
 20
2435.6787109375
 10
-2667.01708984375
 20
2481.89453125
  0
SPLINE
  5
11F
100
AcDbEntity
  8
mainlayer
 62
0
370
-1
 48
1.0
  6
BYLAYER
100
AcDbSpline
 70
8
 71
3
 72
8
 73
4
 74
0
 10
-2667.01708984375
 20
2481.89453125
 30
0.0
 10
-2669.4409179687504547
 20
2507.5917968750004547
 30
0.0
 10
-2672.0747070312495453
 20
2533.267578125
 30
0.0
 10
-2674.91943359375
 20
2558.9208984375
 30
0.0
 40
0.0
 40
0.0
 40
0.0
 40
0.0
 40
4.0
 40
4.0
 40
4.0
 40
4.0
  0
LWPOLYLINE
  5
120
100
AcDbEntity
  8
mainlayer
 62
0
370
-1
 48
1.0
  6
BYLAYER
100
AcDbPolyline
 90
2
 70
0
 10
-2674.91943359375
 20
2558.9208984375
 10
-2684.18603515625
 20
2643.6494140625
  0
SPLINE
  5
121
100
AcDbEntity
  8
mainlayer
 62
0
370
-1
 48
1.0
  6
BYLAYER
100
AcDbSpline
 70
8
 71
3
 72
8
 73
4
 74
0
 10
-2684.18603515625
 20
2643.6494140625
 30
0.0
 10
-2686.6518554687509095
 20
2666.7353515625004547
 30
0.0
 10
-2688.88916015625
 20
2689.84375
 30
0.0
 10
-2690.89599609375
 20
2712.9736328125
 30
0.0
 40
0.0
 40
0.0
 40
0.0
 40
0.0
 40
4.0
 40
4.0
 40
4.0
 40
4.0
  0
SPLINE
  5
122
100
AcDbEntity
  8
mainlayer
 62
0
370
-1
 48
1.0
  6
BYLAYER
100
AcDbSpline
 70
8
 71
3
 72
8
 73
4
 74
0
 10
-2690.89599609375
 20
2712.9736328125
 30
0.0
 10
-2693.01123046875
 20
2737.3330078125004547
 30
0.0
 10
-2694.66357421875
 20
2761.7275390625
 30
0.0
 10
-2695.85400390625
 20
2786.1484375
 30
0.0
 40
0.0
 40
0.0
 40
0.0
 40
0.0
 40
4.0
 40
4.0
 40
4.0
 40
4.0
  0
LWPOLYLINE
  5
123
100
AcDbEntity
  8
mainlayer
 62
0
370
-1
 48
1.0
  6
BYLAYER
100
AcDbPolyline
 90
72
 70
0
 10
-2695.85400390625
 20
2786.1484375
 10
-2696.03076171875
 20
2790.0
 10
-2696.03076171875
 20
2790.0
 10
-2722.33154296875
 20
2790.0
 10
-2722.33154296875
 20
2790.0
 10
-2718.99365234375
 20
2779.9990234375
 10
-2718.99365234375
 20
2779.9990234375
 10
-2738.99267578125
 20
2779.9990234375
 10
-2738.99267578125
 20
2779.9990234375
 10
-2735.65966796875
 20
2790.0
 10
-2735.65966796875
 20
2790.0
 10
-2772.32958984375
 20
2790.0
 10
-2772.32958984375
 20
2790.0
 10
-2768.99169921875
 20
2779.9990234375
 10
-2768.99169921875
 20
2779.9990234375
 10
-2788.99072265625
 20
2779.9990234375
 10
-2788.99072265625
 20
2779.9990234375
 10
-2785.65771484375
 20
2790.0
 10
-2785.65771484375
 20
2790.0
 10
-2811.95947265625
 20
2790.0
 10
-2811.95947265625
 20
2790.0
 10
-2811.95947265625
 20
2371.6767578125
 10
-2811.95947265625
 20
2371.6767578125
 10
-2815.19091796875
 20
2371.6767578125
 10
-2815.19091796875
 20
2371.6767578125
 10
-2822.34521484375
 20
2378.8349609375
 10
-2822.34521484375
 20
2378.8349609375
 10
-2829.77099609375
 20
2371.412109375
 10
-2829.77099609375
 20
2371.412109375
 10
-2829.77099609375
 20
2356.591796875
 10
-2829.77099609375
 20
2356.591796875
 10
-2822.34521484375
 20
2349.1689453125
 10
-2822.34521484375
 20
2349.1689453125
 10
-2815.19091796875
 20
2356.32421875
 10
-2815.19091796875
 20
2356.32421875
 10
-2811.95947265625
 20
2356.32421875
 10
-2811.95947265625
 20
2356.32421875
 10
-2811.95947265625
 20
1441.6767578125
 10
-2811.95947265625
 20
1441.6767578125
 10
-2815.19091796875
 20
1441.6767578125
 10
-2815.19091796875
 20
1441.6767578125
 10
-2822.34521484375
 20
1448.833984375
 10
-2822.34521484375
 20
1448.833984375
 10
-2829.77099609375
 20
1441.412109375
 10
-2829.77099609375
 20
1441.412109375
 10
-2829.77099609375
 20
1426.591796875
 10
-2829.77099609375
 20
1426.591796875
 10
-2822.34521484375
 20
1419.1689453125
 10
-2822.34521484375
 20
1419.1689453125
 10
-2815.19091796875
 20
1426.32421875
 10
-2815.19091796875
 20
1426.32421875
 10
-2811.95947265625
 20
1426.32421875
 10
-2811.95947265625
 20
1426.32421875
 10
-2811.95947265625
 20
511.6767578125
 10
-2811.95947265625
 20
511.6767578125
 10
-2815.19091796875
 20
511.6767578125
 10
-2815.19091796875
 20
511.6767578125
 10
-2822.34521484375
 20
518.833984375
 10
-2822.34521484375
 20
518.833984375
 10
-2829.77099609375
 20
511.412109375
 10
-2829.77099609375
 20
511.412109375
 10
-2829.77099609375
 20
496.591796875
 10
-2829.77099609375
 20
496.591796875
 10
-2822.34521484375
 20
489.1689453125
 10
-2822.34521484375
 20
489.1689453125
 10
-2815.19091796875
 20
496.3232421875
 10
-2815.19091796875
 20
496.3232421875
 10
-2811.95947265625
 20
496.3232421875
 10
-2811.95947265625
 20
496.3232421875
 10
-2811.95947265625
 20
0.0000010937500292
 10
-2811.95947265625
 20
0.0000010937500292
 10
-2708.32958984375
 20
0.0000010937500292
  0
LWPOLYLINE
  5
124
100
AcDbEntity
  8
mainlayer
 62
0
370
-1
 48
1.0
  6
BYLAYER
100
AcDbPolyline
 90
2
 70
0
 10
-3567.89794921875
 20
0.625977635383606
 10
-3575.75146484375
 20
46.6503868103027344
  0
SPLINE
  5
125
100
AcDbEntity
  8
mainlayer
 62
0
370
-1
 48
1.0
  6
BYLAYER
100
AcDbSpline
 70
8
 71
3
 72
8
 73
4
 74
0
 10
-3575.75146484375
 20
46.6503868103027344
 30
0.0
 10
-3578.5092773437504547
 20
62.8037071228027486
 30
0.0
 10
-3581.14404296875
 20
78.9775390625
 30
0.0
 10
-3583.65478515625
 20
95.1708984375
 30
0.0
 40
0.0
 40
0.0
 40
0.0
 40
0.0
 40
4.0
 40
4.0
 40
4.0
 40
4.0
  0
SPLINE
  5
126
100
AcDbEntity
  8
mainlayer
 62
0
370
-1
 48
1.0
  6
BYLAYER
100
AcDbSpline
 70
8
 71
3
 72
8
 73
4
 74
0
 10
-3583.65478515625
 20
95.1708984375
 30
0.0
 10
-3586.2778320312509095
 20
112.0244140625000426
 30
0.0
 10
-3588.57958984375
 20
128.9248046875
 30
0.0
 10
-3590.55712890625
 20
145.8662109375
 30
0.0
 40
0.0
 40
0.0
 40
0.0
 40
0.0
 40
4.0
 40
4.0
 40
4.0
 40
4.0
  0
SPLINE
  5
127
100
AcDbEntity
  8
mainlayer
 62
0
370
-1
 48
1.0
  6
BYLAYER
100
AcDbSpline
 70
8
 71
3
 72
8
 73
4
 74
0
 10
-3590.55712890625
 20
145.8662109375
 30
0.0
 10
-3594.9370117187504547
 20
183.2734375000000568
 30
0.0
 10
-3596.5844726562495453
 20
220.9003906249999716
 30
0.0
 10
-3595.48974609375
 20
258.546875
 30
0.0
 40
0.0
 40
0.0
 40
0.0
 40
0.0
 40
4.0
 40
4.0
 40
4.0
 40
4.0
  0
SPLINE
  5
128
100
AcDbEntity
  8
mainlayer
 62
0
370
-1
 48
1.0
  6
BYLAYER
100
AcDbSpline
 70
8
 71
3
 72
8
 73
4
 74
0
 10
-3595.48974609375
 20
258.546875
 30
0.0
 10
-3594.8022460937509095
 20
281.9121093750000568
 30
0.0
 10
-3593.17041015625
 20
305.23046875
 30
0.0
 10
-3590.59716796875
 20
328.4638671875
 30
0.0
 40
0.0
 40
0.0
 40
0.0
 40
0.0
 40
4.0
 40
4.0
 40
4.0
 40
4.0
  0
SPLINE
  5
129
100
AcDbEntity
  8
mainlayer
 62
0
370
-1
 48
1.0
  6
BYLAYER
100
AcDbSpline
 70
8
 71
3
 72
8
 73
4
 74
0
 10
-3590.59716796875
 20
328.4638671875
 30
0.0
 10
-3588.2788085937504547
 20
349.4111328125000568
 30
0.0
 10
-3585.36767578125
 20
370.28515625
 30
0.0
 10
-3581.86669921875
 20
391.0673828125
 30
0.0
 40
0.0
 40
0.0
 40
0.0
 40
0.0
 40
4.0
 40
4.0
 40
4.0
 40
4.0
  0
SPLINE
  5
12A
100
AcDbEntity
  8
mainlayer
 62
0
370
-1
 48
1.0
  6
BYLAYER
100
AcDbSpline
 70
8
 71
3
 72
8
 73
4
 74
0
 10
-3581.86669921875
 20
391.0673828125
 30
0.0
 10
-3578.4604492187504547
 20
411.2724609375001137
 30
0.0
 10
-3574.70263671875
 20
431.4150390625
 30
0.0
 10
-3570.59619140625
 20
451.4892578125
 30
0.0
 40
0.0
 40
0.0
 40
0.0
 40
0.0
 40
4.0
 40
4.0
 40
4.0
 40
4.0
  0
SPLINE
  5
12B
100
AcDbEntity
  8
mainlayer
 62
0
370
-1
 48
1.0
  6
BYLAYER
100
AcDbSpline
 70
8
 71
3
 72
8
 73
4
 74
0
 10
-3570.59619140625
 20
451.4892578125
 30
0.0
 10
-3567.1196289062509095
 20
468.5449218750000568
 30
0.0
 10
-3563.54931640625
 20
485.580078125
 30
0.0
 10
-3559.88525390625
 20
502.5966796875
 30
0.0
 40
0.0
 40
0.0
 40
0.0
 40
0.0
 40
4.0
 40
4.0
 40
4.0
 40
4.0
  0
LWPOLYLINE
  5
12C
100
AcDbEntity
  8
mainlayer
 62
0
370
-1
 48
1.0
  6
BYLAYER
100
AcDbPolyline
 90
2
 70
0
 10
-3559.88525390625
 20
502.5966796875
 10
-3548.49853515625
 20
556.8427734375
  0
SPLINE
  5
12D
100
AcDbEntity
  8
mainlayer
 62
0
370
-1
 48
1.0
  6
BYLAYER
100
AcDbSpline
 70
8
 71
3
 72
8
 73
4
 74
0
 10
-3548.49853515625
 20
556.8427734375
 30
0.0
 10
-3544.0541992187509095
 20
578.5917968750001137
 30
0.0
 10
-3540.04150390625
 20
600.423828125
 30
0.0
 10
-3536.46337890625
 20
622.33203125
 30
0.0
 40
0.0
 40
0.0
 40
0.0
 40
0.0
 40
4.0
 40
4.0
 40
4.0
 40
4.0
  0
SPLINE
  5
12E
100
AcDbEntity
  8
mainlayer
 62
0
370
-1
 48
1.0
  6
BYLAYER
100
AcDbSpline
 70
8
 71
3
 72
8
 73
4
 74
0
 10
-3536.46337890625
 20
622.33203125
 30
0.0
 10
-3530.6694335937509095
 20
658.1298828125
 30
0.0
 10
-3525.95947265625
 20
694.0869140625
 30
0.0
 10
-3522.33544921875
 20
730.1689453125
 30
0.0
 40
0.0
 40
0.0
 40
0.0
 40
0.0
 40
4.0
 40
4.0
 40
4.0
 40
4.0
  0
SPLINE
  5
12F
100
AcDbEntity
  8
mainlayer
 62
0
370
-1
 48
1.0
  6
BYLAYER
100
AcDbSpline
 70
8
 71
3
 72
8
 73
4
 74
0
 10
-3522.33544921875
 20
730.1689453125
 30
0.0
 10
-3519.1098632812509095
 20
762.2060546875001137
 30
0.0
 10
-3516.57470703125
 20
794.3056640625
 30
0.0
 10
-3514.73095703125
 20
826.4521484375
 30
0.0
 40
0.0
 40
0.0
 40
0.0
 40
0.0
 40
4.0
 40
4.0
 40
4.0
 40
4.0
  0
SPLINE
  5
130
100
AcDbEntity
  8
mainlayer
 62
0
370
-1
 48
1.0
  6
BYLAYER
100
AcDbSpline
 70
8
 71
3
 72
8
 73
4
 74
0
 10
-3514.73095703125
 20
826.4521484375
 30
0.0
 10
-3512.8168945312509095
 20
859.8056640625001137
 30
0.0
 10
-3511.4575195312495453
 20
893.1865234374998863
 30
0.0
 10
-3510.65087890625
 20
926.5859375
 30
0.0
 40
0.0
 40
0.0
 40
0.0
 40
0.0
 40
4.0
 40
4.0
 40
4.0
 40
4.0
  0
SPLINE
  5
131
100
AcDbEntity
  8
mainlayer
 62
0
370
-1
 48
1.0
  6
BYLAYER
100
AcDbSpline
 70
8
 71
3
 72
8
 73
4
 74
0
 10
-3510.65087890625
 20
926.5859375
 30
0.0
 10
-3509.9077148437504547
 20
957.3916015625003411
 30
0.0
 10
-3509.46142578125
 20
988.203125
 30
0.0
 10
-3509.31298828125
 20
1019.017578125
 30
0.0
 40
0.0
 40
0.0
 40
0.0
 40
0.0
 40
4.0
 40
4.0
 40
4.0
 40
4.0
  0
LWPOLYLINE
  5
132
100
AcDbEntity
  8
mainlayer
 62
0
370
-1
 48
1.0
  6
BYLAYER
100
AcDbPolyline
 90
4
 70
0
 10
-3509.31298828125
 20
1019.017578125
 10
-3508.64306640625
 20
1157.6650390625
 10
-3508.64306640625
 20
1157.6650390625
 10
-3508.09521484375
 20
1196.1787109375
  0
SPLINE
  5
133
100
AcDbEntity
  8
mainlayer
 62
0
370
-1
 48
1.0
  6
BYLAYER
100
AcDbSpline
 70
8
 71
3
 72
8
 73
4
 74
0
 10
-3508.09521484375
 20
1196.1787109375
 30
0.0
 10
-3507.6430664062504547
 20
1221.8632812500002274
 30
0.0
 10
-3506.85400390625
 20
1247.5400390625
 30
0.0
 10
-3505.72900390625
 20
1273.205078125
 30
0.0
 40
0.0
 40
0.0
 40
0.0
 40
0.0
 40
4.0
 40
4.0
 40
4.0
 40
4.0
  0
SPLINE
  5
134
100
AcDbEntity
  8
mainlayer
 62
0
370
-1
 48
1.0
  6
BYLAYER
100
AcDbSpline
 70
8
 71
3
 72
8
 73
4
 74
0
 10
-3505.72900390625
 20
1273.205078125
 30
0.0
 10
-3504.4418945312509095
 20
1302.7734375000004547
 30
0.0
 10
-3502.48291015625
 20
1332.3046875
 30
0.0
 10
-3499.85498046875
 20
1361.78515625
 30
0.0
 40
0.0
 40
0.0
 40
0.0
 40
0.0
 40
4.0
 40
4.0
 40
4.0
 40
4.0
  0
SPLINE
  5
135
100
AcDbEntity
  8
mainlayer
 62
0
370
-1
 48
1.0
  6
BYLAYER
100
AcDbSpline
 70
8
 71
3
 72
8
 73
4
 74
0
 10
-3499.85498046875
 20
1361.78515625
 30
0.0
 10
-3497.8540039062513642
 20
1383.6435546875002274
 30
0.0
 10
-3495.52685546875
 20
1405.4687499999997726
 30
0.0
 10
-3492.87158203125
 20
1427.2578125
 30
0.0
 40
0.0
 40
0.0
 40
0.0
 40
0.0
 40
4.0
 40
4.0
 40
4.0
 40
4.0
  0
SPLINE
  5
136
100
AcDbEntity
  8
mainlayer
 62
0
370
-1
 48
1.0
  6
BYLAYER
100
AcDbSpline
 70
8
 71
3
 72
8
 73
4
 74
0
 10
-3492.87158203125
 20
1427.2578125
 30
0.0
 10
-3490.0561523437509095
 20
1450.3886718750004547
 30
0.0
 10
-3487.06494140625
 20
1473.4970703125
 30
0.0
 10
-3483.89794921875
 20
1496.58203125
 30
0.0
 40
0.0
 40
0.0
 40
0.0
 40
0.0
 40
4.0
 40
4.0
 40
4.0
 40
4.0
  0
LWPOLYLINE
  5
137
100
AcDbEntity
  8
mainlayer
 62
0
370
-1
 48
1.0
  6
BYLAYER
100
AcDbPolyline
 90
2
 70
0
 10
-3483.89794921875
 20
1496.58203125
 10
-3475.48974609375
 20
1558.203125
  0
SPLINE
  5
138
100
AcDbEntity
  8
mainlayer
 62
0
370
-1
 48
1.0
  6
BYLAYER
100
AcDbSpline
 70
8
 71
3
 72
8
 73
4
 74
0
 10
-3475.48974609375
 20
1558.203125
 30
0.0
 10
-3472.3422851562509095
 20
1581.2861328125002274
 30
0.0
 10
-3469.38330078125
 20
1604.3945312499997726
 30
0.0
 10
-3466.61181640625
 20
1627.5263671875
 30
0.0
 40
0.0
 40
0.0
 40
0.0
 40
0.0
 40
4.0
 40
4.0
 40
4.0
 40
4.0
  0
SPLINE
  5
139
100
AcDbEntity
  8
mainlayer
 62
0
370
-1
 48
1.0
  6
BYLAYER
100
AcDbSpline
 70
8
 71
3
 72
8
 73
4
 74
0
 10
-3466.61181640625
 20
1627.5263671875
 30
0.0
 10
-3464.1596679687509095
 20
1648.0351562500004547
 30
0.0
 10
-3462.00537109375
 20
1668.5771484374997726
 30
0.0
 10
-3460.14990234375
 20
1689.1474609375
 30
0.0
 40
0.0
 40
0.0
 40
0.0
 40
0.0
 40
4.0
 40
4.0
 40
4.0
 40
4.0
  0
SPLINE
  5
13A
100
AcDbEntity
  8
mainlayer
 62
0
370
-1
 48
1.0
  6
BYLAYER
100
AcDbSpline
 70
8
 71
3
 72
8
 73
4
 74
0
 10
-3460.14990234375
 20
1689.1474609375
 30
0.0
 10
-3457.4731445312504547
 20
1718.6152343750002274
 30
0.0
 10
-3455.71435546875
 20
1748.1513671875
 30
0.0
 10
-3454.87451171875
 20
1777.728515625
 30
0.0
 40
0.0
 40
0.0
 40
0.0
 40
0.0
 40
4.0
 40
4.0
 40
4.0
 40
4.0
  0
SPLINE
  5
13B
100
AcDbEntity
  8
mainlayer
 62
0
370
-1
 48
1.0
  6
BYLAYER
100
AcDbSpline
 70
8
 71
3
 72
8
 73
4
 74
0
 10
-3454.87451171875
 20
1777.728515625
 30
0.0
 10
-3454.1430664062504547
 20
1804.6835937500002274
 30
0.0
 10
-3454.0297851562495453
 20
1831.6474609375
 30
0.0
 10
-3454.53564453125
 20
1858.6064453125
 30
0.0
 40
0.0
 40
0.0
 40
0.0
 40
0.0
 40
4.0
 40
4.0
 40
4.0
 40
4.0
  0
SPLINE
  5
13C
100
AcDbEntity
  8
mainlayer
 62
0
370
-1
 48
1.0
  6
BYLAYER
100
AcDbSpline
 70
8
 71
3
 72
8
 73
4
 74
0
 10
-3454.53564453125
 20
1858.6064453125
 30
0.0
 10
-3454.9555664062509095
 20
1881.7236328125002274
 30
0.0
 10
-3455.68994140625
 20
1904.8330078125
 30
0.0
 10
-3456.73779296875
 20
1927.9296875
 30
0.0
 40
0.0
 40
0.0
 40
0.0
 40
0.0
 40
4.0
 40
4.0
 40
4.0
 40
4.0
  0
SPLINE
  5
13D
100
AcDbEntity
  8
mainlayer
 62
0
370
-1
 48
1.0
  6
BYLAYER
100
AcDbSpline
 70
8
 71
3
 72
8
 73
4
 74
0
 10
-3456.73779296875
 20
1927.9296875
 30
0.0
 10
-3457.9028320312504547
 20
1953.6162109375004547
 30
0.0
 10
-3459.2758789062495453
 20
1979.2919921875
 30
0.0
 10
-3460.85693359375
 20
2004.9560546875
 30
0.0
 40
0.0
 40
0.0
 40
0.0
 40
0.0
 40
4.0
 40
4.0
 40
4.0
 40
4.0
  0
LWPOLYLINE
  5
13E
100
AcDbEntity
  8
mainlayer
 62
0
370
-1
 48
1.0
  6
BYLAYER
100
AcDbPolyline
 90
4
 70
0
 10
-3460.85693359375
 20
2004.9560546875
 10
-3468.44970703125
 20
2128.19921875
 10
-3468.44970703125
 20
2128.19921875
 10
-3475.79931640625
 20
2266.845703125
  0
SPLINE
  5
13F
100
AcDbEntity
  8
mainlayer
 62
0
370
-1
 48
1.0
  6
BYLAYER
100
AcDbSpline
 70
8
 71
3
 72
8
 73
4
 74
0
 10
-3475.79931640625
 20
2266.845703125
 30
0.0
 10
-3477.3500976562509095
 20
2295.1064453125004547
 30
0.0
 10
-3479.18017578125
 20
2323.3505859375
 30
0.0
 10
-3481.28662109375
 20
2351.5751953125
 30
0.0
 40
0.0
 40
0.0
 40
0.0
 40
0.0
 40
4.0
 40
4.0
 40
4.0
 40
4.0
  0
SPLINE
  5
140
100
AcDbEntity
  8
mainlayer
 62
0
370
-1
 48
1.0
  6
BYLAYER
100
AcDbSpline
 70
8
 71
3
 72
8
 73
4
 74
0
 10
-3481.28662109375
 20
2351.5751953125
 30
0.0
 10
-3483.2084960937509095
 20
2377.2861328125009095
 30
0.0
 10
-3485.5366210937495453
 20
2402.9638671875
 30
0.0
 10
-3488.26806640625
 20
2428.6015625
 30
0.0
 40
0.0
 40
0.0
 40
0.0
 40
0.0
 40
4.0
 40
4.0
 40
4.0
 40
4.0
  0
SPLINE
  5
141
100
AcDbEntity
  8
mainlayer
 62
0
370
-1
 48
1.0
  6
BYLAYER
100
AcDbSpline
 70
8
 71
3
 72
8
 73
4
 74
0
 10
-3488.26806640625
 20
2428.6015625
 30
0.0
 10
-3492.3657226562509095
 20
2467.2890625000004547
 30
0.0
 10
-3497.75830078125
 20
2505.81640625
 30
0.0
 10
-3504.43994140625
 20
2544.1416015625
 30
0.0
 40
0.0
 40
0.0
 40
0.0
 40
0.0
 40
4.0
 40
4.0
 40
4.0
 40
4.0
  0
SPLINE
  5
142
100
AcDbEntity
  8
mainlayer
 62
0
370
-1
 48
1.0
  6
BYLAYER
100
AcDbSpline
 70
8
 71
3
 72
8
 73
4
 74
0
 10
-3504.43994140625
 20
2544.1416015625
 30
0.0
 10
-3508.0356445312509095
 20
2564.712890625
 30
0.0
 10
-3511.80224609375
 20
2585.25390625
 30
0.0
 10
-3515.73974609375
 20
2605.7626953125
 30
0.0
 40
0.0
 40
0.0
 40
0.0
 40
0.0
 40
4.0
 40
4.0
 40
4.0
 40
4.0
  0
LWPOLYLINE
  5
143
100
AcDbEntity
  8
mainlayer
 62
0
370
-1
 48
1.0
  6
BYLAYER
100
AcDbPolyline
 90
2
 70
0
 10
-3515.73974609375
 20
2605.7626953125
 10
-3528.86767578125
 20
2675.0859375
  0
SPLINE
  5
144
100
AcDbEntity
  8
mainlayer
 62
0
370
-1
 48
1.0
  6
BYLAYER
100
AcDbSpline
 70
8
 71
3
 72
8
 73
4
 74
0
 10
-3528.86767578125
 20
2675.0859375
 30
0.0
 10
-3531.9575195312504547
 20
2691.7441406250009095
 30
0.0
 10
-3534.87353515625
 20
2708.4345703124995453
 30
0.0
 10
-3537.61572265625
 20
2725.1533203125
 30
0.0
 40
0.0
 40
0.0
 40
0.0
 40
0.0
 40
4.0
 40
4.0
 40
4.0
 40
4.0
  0
SPLINE
  5
145
100
AcDbEntity
  8
mainlayer
 62
0
370
-1
 48
1.0
  6
BYLAYER
100
AcDbSpline
 70
8
 71
3
 72
8
 73
4
 74
0
 10
-3537.61572265625
 20
2725.1533203125
 30
0.0
 10
-3540.9916992187504547
 20
2745.6279296875
 30
0.0
 10
-3543.9135742187495453
 20
2766.1718749999995453
 30
0.0
 10
-3546.38037109375
 20
2786.7744140625
 30
0.0
 40
0.0
 40
0.0
 40
0.0
 40
0.0
 40
4.0
 40
4.0
 40
4.0
 40
4.0
  0
LWPOLYLINE
  5
146
100
AcDbEntity
  8
mainlayer
 62
0
370
-1
 48
1.0
  6
BYLAYER
100
AcDbPolyline
 90
72
 70
0
 10
-3546.38037109375
 20
2786.7744140625
 10
-3546.82763671875
 20
2790.6259765625
 10
-3546.82763671875
 20
2790.6259765625
 10
-3569.96240234375
 20
2790.6259765625
 10
-3569.96240234375
 20
2790.6259765625
 10
-3566.62841796875
 20
2780.6240234375
 10
-3566.62841796875
 20
2780.6240234375
 10
-3586.62744140625
 20
2780.6240234375
 10
-3586.62744140625
 20
2780.6240234375
 10
-3583.29443359375
 20
2790.6259765625
 10
-3583.29443359375
 20
2790.6259765625
 10
-3619.96435546875
 20
2790.6259765625
 10
-3619.96435546875
 20
2790.6259765625
 10
-3616.62646484375
 20
2780.6240234375
 10
-3616.62646484375
 20
2780.6240234375
 10
-3636.62548828125
 20
2780.6240234375
 10
-3636.62548828125
 20
2780.6240234375
 10
-3633.29248046875
 20
2790.6259765625
 10
-3633.29248046875
 20
2790.6259765625
 10
-3656.43115234375
 20
2790.6259765625
 10
-3656.43115234375
 20
2790.6259765625
 10
-3656.43115234375
 20
2372.3017578125
 10
-3656.43115234375
 20
2372.3017578125
 10
-3659.66259765625
 20
2372.3017578125
 10
-3659.66259765625
 20
2372.3017578125
 10
-3666.81689453125
 20
2379.4599609375
 10
-3666.81689453125
 20
2379.4599609375
 10
-3674.24267578125
 20
2372.0380859375
 10
-3674.24267578125
 20
2372.0380859375
 10
-3674.24267578125
 20
2357.2177734375
 10
-3674.24267578125
 20
2357.2177734375
 10
-3666.81689453125
 20
2349.794921875
 10
-3666.81689453125
 20
2349.794921875
 10
-3659.66259765625
 20
2356.94921875
 10
-3659.66259765625
 20
2356.94921875
 10
-3656.43115234375
 20
2356.94921875
 10
-3656.43115234375
 20
2356.94921875
 10
-3656.43115234375
 20
1442.3017578125
 10
-3656.43115234375
 20
1442.3017578125
 10
-3659.66259765625
 20
1442.3017578125
 10
-3659.66259765625
 20
1442.3017578125
 10
-3666.81689453125
 20
1449.4599609375
 10
-3666.81689453125
 20
1449.4599609375
 10
-3674.24267578125
 20
1442.0380859375
 10
-3674.24267578125
 20
1442.0380859375
 10
-3674.24267578125
 20
1427.2177734375
 10
-3674.24267578125
 20
1427.2177734375
 10
-3666.81689453125
 20
1419.794921875
 10
-3666.81689453125
 20
1419.794921875
 10
-3659.66259765625
 20
1426.94921875
 10
-3659.66259765625
 20
1426.94921875
 10
-3656.43115234375
 20
1426.94921875
 10
-3656.43115234375
 20
1426.94921875
 10
-3656.43115234375
 20
512.3017578125
 10
-3656.43115234375
 20
512.3017578125
 10
-3659.66259765625
 20
512.3017578125
 10
-3659.66259765625
 20
512.3017578125
 10
-3666.81689453125
 20
519.4599609375
 10
-3666.81689453125
 20
519.4599609375
 10
-3674.24267578125
 20
512.0380859375
 10
-3674.24267578125
 20
512.0380859375
 10
-3674.24267578125
 20
497.2177734375
 10
-3674.24267578125
 20
497.2177734375
 10
-3666.81689453125
 20
489.794921875
 10
-3666.81689453125
 20
489.794921875
 10
-3659.66259765625
 20
496.94921875
 10
-3659.66259765625
 20
496.94921875
 10
-3656.43115234375
 20
496.94921875
 10
-3656.43115234375
 20
496.94921875
 10
-3656.43115234375
 20
0.625977635383606
 10
-3656.43115234375
 20
0.625977635383606
 10
-3567.89794921875
 20
0.625977635383606
  0
SPLINE
  5
147
100
AcDbEntity
  8
mainlayer
 62
0
370
-1
 48
1.0
  6
BYLAYER
100
AcDbSpline
 70
8
 71
3
 72
8
 73
4
 74
0
 10
-2492.37890625
 20
2779.1220703125
 30
0.0
 10
-2493.9013671875004547
 20
2751.4833984375004547
 30
0.0
 10
-2494.93798828125
 20
2723.8222656249995453
 30
0.0
 10
-2495.48876953125
 20
2696.146484375
 30
0.0
 40
0.0
 40
0.0
 40
0.0
 40
0.0
 40
4.0
 40
4.0
 40
4.0
 40
4.0
  0
SPLINE
  5
148
100
AcDbEntity
  8
mainlayer
 62
0
370
-1
 48
1.0
  6
BYLAYER
100
AcDbSpline
 70
8
 71
3
 72
8
 73
4
 74
0
 10
-2495.48876953125
 20
2696.146484375
 30
0.0
 10
-2495.9379882812509095
 20
2674.0214843750009095
 30
0.0
 10
-2496.23828125
 20
2651.8945312499995453
 30
0.0
 10
-2496.38916015625
 20
2629.765625
 30
0.0
 40
0.0
 40
0.0
 40
0.0
 40
0.0
 40
4.0
 40
4.0
 40
4.0
 40
4.0
  0
LWPOLYLINE
  5
149
100
AcDbEntity
  8
mainlayer
 62
0
370
-1
 48
1.0
  6
BYLAYER
100
AcDbPolyline
 90
4
 70
0
 10
-2496.38916015625
 20
2629.765625
 10
-2497.2041015625
 20
2538.4921875
 10
-2497.2041015625
 20
2538.4921875
 10
-2497.81787109375
 20
2505.3017578125
  0
SPLINE
  5
14A
100
AcDbEntity
  8
mainlayer
 62
0
370
-1
 48
1.0
  6
BYLAYER
100
AcDbSpline
 70
8
 71
3
 72
8
 73
4
 74
0
 10
-2497.81787109375
 20
2505.3017578125
 30
0.0
 10
-2498.2788085937504547
 20
2484.548828125
 30
0.0
 10
-2499.01953125
 20
2463.8037109375
 30
0.0
 10
-2500.04052734375
 20
2443.0703125
 30
0.0
 40
0.0
 40
0.0
 40
0.0
 40
0.0
 40
4.0
 40
4.0
 40
4.0
 40
4.0
  0
SPLINE
  5
14B
100
AcDbEntity
  8
mainlayer
 62
0
370
-1
 48
1.0
  6
BYLAYER
100
AcDbSpline
 70
8
 71
3
 72
8
 73
4
 74
0
 10
-2500.04052734375
 20
2443.0703125
 30
0.0
 10
-2501.2563476562509095
 20
2418.1357421875004547
 30
0.0
 10
-2503.083984375
 20
2393.2373046875
 30
0.0
 10
-2505.52197265625
 20
2368.3916015625
 30
0.0
 40
0.0
 40
0.0
 40
0.0
 40
0.0
 40
4.0
 40
4.0
 40
4.0
 40
4.0
  0
SPLINE
  5
14C
100
AcDbEntity
  8
mainlayer
 62
0
370
-1
 48
1.0
  6
BYLAYER
100
AcDbSpline
 70
8
 71
3
 72
8
 73
4
 74
0
 10
-2505.52197265625
 20
2368.3916015625
 30
0.0
 10
-2507.3452148437504547
 20
2350.3593750000004547
 30
0.0
 10
-2509.49560546875
 20
2332.36328125
 30
0.0
 10
-2511.97216796875
 20
2314.41015625
 30
0.0
 40
0.0
 40
0.0
 40
0.0
 40
0.0
 40
4.0
 40
4.0
 40
4.0
 40
4.0
  0
SPLINE
  5
14D
100
AcDbEntity
  8
mainlayer
 62
0
370
-1
 48
1.0
  6
BYLAYER
100
AcDbSpline
 70
8
 71
3
 72
8
 73
4
 74
0
 10
-2511.97216796875
 20
2314.41015625
 30
0.0
 10
-2514.2734375000004547
 20
2297.6611328125004547
 30
0.0
 10
-2516.68212890625
 20
2280.927734375
 30
0.0
 10
-2519.19921875
 20
2264.2099609375
 30
0.0
 40
0.0
 40
0.0
 40
0.0
 40
0.0
 40
4.0
 40
4.0
 40
4.0
 40
4.0
  0
LWPOLYLINE
  5
14E
100
AcDbEntity
  8
mainlayer
 62
0
370
-1
 48
1.0
  6
BYLAYER
100
AcDbPolyline
 90
2
 70
0
 10
-2519.19921875
 20
2264.2099609375
 10
-2524.2109375
 20
2230.3330078125
  0
SPLINE
  5
14F
100
AcDbEntity
  8
mainlayer
 62
0
370
-1
 48
1.0
  6
BYLAYER
100
AcDbSpline
 70
8
 71
3
 72
8
 73
4
 74
0
 10
-2524.2109375
 20
2230.3330078125
 30
0.0
 10
-2527.1884765625009095
 20
2210.2001953125004547
 30
0.0
 10
-2529.91650390625
 20
2190.033203125
 30
0.0
 10
-2532.3935546875
 20
2169.8330078125
 30
0.0
 40
0.0
 40
0.0
 40
0.0
 40
0.0
 40
4.0
 40
4.0
 40
4.0
 40
4.0
  0
SPLINE
  5
150
100
AcDbEntity
  8
mainlayer
 62
0
370
-1
 48
1.0
  6
BYLAYER
100
AcDbSpline
 70
8
 71
3
 72
8
 73
4
 74
0
 10
-2532.3935546875
 20
2169.8330078125
 30
0.0
 10
-2534.94091796875
 20
2149.0126953125004547
 30
0.0
 10
-2536.98681640625
 20
2128.13671875
 30
0.0
 10
-2538.52978515625
 20
2107.2177734375
 30
0.0
 40
0.0
 40
0.0
 40
0.0
 40
0.0
 40
4.0
 40
4.0
 40
4.0
 40
4.0
  0
SPLINE
  5
151
100
AcDbEntity
  8
mainlayer
 62
0
370
-1
 48
1.0
  6
BYLAYER
100
AcDbSpline
 70
8
 71
3
 72
8
 73
4
 74
0
 10
-2538.52978515625
 20
2107.2177734375
 30
0.0
 10
-2540.0693359375004547
 20
2086.2480468750004547
 30
0.0
 10
-2540.923828125
 20
2065.23828125
 30
0.0
 10
-2541.0927734375
 20
2044.212890625
 30
0.0
 40
0.0
 40
0.0
 40
0.0
 40
0.0
 40
4.0
 40
4.0
 40
4.0
 40
4.0
  0
SPLINE
  5
152
100
AcDbEntity
  8
mainlayer
 62
0
370
-1
 48
1.0
  6
BYLAYER
100
AcDbSpline
 70
8
 71
3
 72
8
 73
4
 74
0
 10
-2541.0927734375
 20
2044.212890625
 30
0.0
 10
-2541.4335937500004547
 20
2003.9736328125002274
 30
0.0
 10
-2538.8212890625
 20
1963.8173828125
 30
0.0
 10
-2533.2705078125
 20
1923.9619140625
 30
0.0
 40
0.0
 40
0.0
 40
0.0
 40
0.0
 40
4.0
 40
4.0
 40
4.0
 40
4.0
  0
SPLINE
  5
153
100
AcDbEntity
  8
mainlayer
 62
0
370
-1
 48
1.0
  6
BYLAYER
100
AcDbSpline
 70
8
 71
3
 72
8
 73
4
 74
0
 10
-2533.2705078125
 20
1923.9619140625
 30
0.0
 10
-2530.9838867187509095
 20
1907.6894531250002274
 30
0.0
 10
-2528.3984374999995453
 20
1891.4609374999997726
 30
0.0
 10
-2525.515625
 20
1875.2841796875
 30
0.0
 40
0.0
 40
0.0
 40
0.0
 40
0.0
 40
4.0
 40
4.0
 40
4.0
 40
4.0
  0
SPLINE
  5
154
100
AcDbEntity
  8
mainlayer
 62
0
370
-1
 48
1.0
  6
BYLAYER
100
AcDbSpline
 70
8
 71
3
 72
8
 73
4
 74
0
 10
-2525.515625
 20
1875.2841796875
 30
0.0
 10
-2522.2670898437504547
 20
1857.0244140625004547
 30
0.0
 10
-2518.88232421875
 20
1838.7900390624997726
 30
0.0
 10
-2515.36181640625
 20
1820.58203125
 30
0.0
 40
0.0
 40
0.0
 40
0.0
 40
0.0
 40
4.0
 40
4.0
 40
4.0
 40
4.0
  0
LWPOLYLINE
  5
155
100
AcDbEntity
  8
mainlayer
 62
0
370
-1
 48
1.0
  6
BYLAYER
100
AcDbPolyline
 90
40
 70
0
 10
-2515.36181640625
 20
1820.58203125
 10
-2505.95166015625
 20
1771.123046875
 10
-2505.95166015625
 20
1771.123046875
 10
-2606.22900390625
 20
1771.123046875
 10
-2606.22900390625
 20
1771.123046875
 10
-2606.22900390625
 20
2267.4462890625
 10
-2606.22900390625
 20
2267.4462890625
 10
-2609.46044921875
 20
2267.4462890625
 10
-2609.46044921875
 20
2267.4462890625
 10
-2616.61474609375
 20
2260.2919921875
 10
-2616.61474609375
 20
2260.2919921875
 10
-2624.04052734375
 20
2267.7138671875
 10
-2624.04052734375
 20
2267.7138671875
 10
-2624.04052734375
 20
2282.5341796875
 10
-2624.04052734375
 20
2282.5341796875
 10
-2616.61474609375
 20
2289.95703125
 10
-2616.61474609375
 20
2289.95703125
 10
-2609.46044921875
 20
2282.798828125
 10
-2609.46044921875
 20
2282.798828125
 10
-2606.22900390625
 20
2282.798828125
 10
-2606.22900390625
 20
2282.798828125
 10
-2606.22900390625
 20
2779.1220703125
 10
-2606.22900390625
 20
2779.1220703125
 10
-2580.96728515625
 20
2779.1220703125
 10
-2580.96728515625
 20
2779.1220703125
 10
-2584.30517578125
 20
2789.1240234375
 10
-2584.30517578125
 20
2789.1240234375
 10
-2564.3056640625
 20
2789.1240234375
 10
-2564.3056640625
 20
2789.1240234375
 10
-2567.63916015625
 20
2779.1220703125
 10
-2567.63916015625
 20
2779.1220703125
 10
-2530.96875
 20
2779.1220703125
 10
-2530.96875
 20
2779.1220703125
 10
-2534.306640625
 20
2789.1240234375
 10
-2534.306640625
 20
2789.1240234375
 10
-2514.3076171875
 20
2789.1240234375
 10
-2514.3076171875
 20
2789.1240234375
 10
-2517.64111328125
 20
2779.1220703125
 10
-2517.64111328125
 20
2779.1220703125
 10
-2492.37890625
 20
2779.1220703125
  0
ENDSEC
  0
SECTION
  2
OBJECTS
  0
DICTIONARY
  5
C
100
AcDbDictionary
280
0
281
1
  3
ACAD_GROUP
350
D
  3
ACAD_LAYOUT
350
1A
  3
ACAD_MLINESTYLE
350
17
  3
ACAD_PLOTSETTINGS
350
19
  3
ACAD_PLOTSTYLENAME
350
E
  3
AcDbVariableDictionary
350
156
  0
DICTIONARY
  5
D
100
AcDbDictionary
280
0
281
1
  0
ACDBDICTIONARYWDFLT
  5
E
100
AcDbDictionary
281
1
  3
Normal
350
F
100
AcDbDictionaryWithDefault
340
F
  0
ACDBPLACEHOLDER
  5
F
  0
DICTIONARY
  5
17
100
AcDbDictionary
280
0
281
1
  3
Standard
350
18
  0
MLINESTYLE
  5
18
100
AcDbMlineStyle
  2
STANDARD
 70
0
  3

 62
256
 51
90.0
 52
90.0
 71
2
 49
0.5
 62
256
  6
BYLAYER
 49
-0.5
 62
256
  6
BYLAYER
  0
DICTIONARY
  5
19
100
AcDbDictionary
280
0
281
1
  0
DICTIONARY
  5
1A
100
AcDbDictionary
281
1
  3
Layout1
350
1E
  3
Layout2
350
26
  3
Model
350
22
  0
LAYOUT
  5
1E
100
AcDbPlotSettings
  1

  2
none_device
  4

  6

 40
0.0
 41
0.0
 42
0.0
 43
0.0
 44
0.0
 45
0.0
 46
0.0
 47
0.0
 48
0.0
 49
0.0
140
0.0
141
0.0
142
1.0
143
1.0
 70
688
 72
0
 73
0
 74
5
  7

 75
16
147
1.0
148
0.0
149
0.0
100
AcDbLayout
  1
Layout1
 70
1
 71
1
 10
0.0
 20
0.0
 11
420.0
 21
297.0
 12
0.0
 22
0.0
 32
0.0
 14
100000000000000000000.0
 24
100000000000000000000.0
 34
100000000000000000000.0
 15
-100000000000000000000.0
 25
-100000000000000000000.0
 35
-100000000000000000000.0
146
0.0
 13
0.0
 23
0.0
 33
0.0
 16
1.0
 26
0.0
 36
0.0
 17
0.0
 27
1.0
 37
0.0
 76
0
330
1B
  0
LAYOUT
  5
22
100
AcDbPlotSettings
  1

  2
none_device
  4

  6

 40
0.0
 41
0.0
 42
0.0
 43
0.0
 44
0.0
 45
0.0
 46
0.0
 47
0.0
 48
0.0
 49
0.0
140
0.0
141
0.0
142
1.0
143
1.0
 70
1712
 72
0
 73
0
 74
0
  7

 75
0
147
1.0
148
0.0
149
0.0
100
AcDbLayout
  1
Model
 70
1
 71
0
 10
0.0
 20
0.0
 11
12.0
 21
9.0
 12
0.0
 22
0.0
 32
0.0
 14
0.0
 24
0.0
 34
0.0
 15
0.0
 25
0.0
 35
0.0
146
0.0
 13
0.0
 23
0.0
 33
0.0
 16
1.0
 26
0.0
 36
0.0
 17
0.0
 27
1.0
 37
0.0
 76
0
330
1F
  0
LAYOUT
  5
26
100
AcDbPlotSettings
  1

  2
none_device
  4

  6

 40
0.0
 41
0.0
 42
0.0
 43
0.0
 44
0.0
 45
0.0
 46
0.0
 47
0.0
 48
0.0
 49
0.0
140
0.0
141
0.0
142
1.0
143
1.0
 70
688
 72
0
 73
0
 74
5
  7

 75
16
147
1.0
148
0.0
149
0.0
100
AcDbLayout
  1
Layout2
 70
1
 71
2
 10
0.0
 20
0.0
 11
12.0
 21
9.0
 12
0.0
 22
0.0
 32
0.0
 14
0.0
 24
0.0
 34
0.0
 15
0.0
 25
0.0
 35
0.0
146
0.0
 13
0.0
 23
0.0
 33
0.0
 16
1.0
 26
0.0
 36
0.0
 17
0.0
 27
1.0
 37
0.0
 76
0
330
23
  0
DICTIONARY
  5
156
100
AcDbDictionary
281
1
  3
DIMASSOC
350
158
  3
HIDETEXT
350
157
  0
DICTIONARYVAR
  5
157
100
DictionaryVariables
280
0
  1
2
  0
DICTIONARYVAR
  5
158
100
DictionaryVariables
280
0
  1
1
  0
ENDSEC
  0
EOF
