999
RD_DXFFile_Emport https://www.rdacs.com/
  0
SECTION
  2
HEADER
  9
$ACADVER
  1
AC1015
  9
$HANDSEED
  5
FFFF
  0
ENDSEC
  0
SECTION
  2
TABLES
  0
TABLE
  2
VPORT
  5
8
100
AcDbSymbolTable
 70
1
  0
VPORT
  5
30
100
AcDbSymbolTableRecord
100
AcDbViewportTableRecord
  2
*Active
 70
0
 10
0.0
 20
0.0
 11
1.0
 21
1.0
 12
286.3055555555554861
 22
148.5
 13
0.0
 23
0.0
 14
10.0
 24
10.0
 15
10.0
 25
10.0
 16
0.0
 26
0.0
 36
1.0
 17
0.0
 27
0.0
 37
0.0
 40
297.0
 41
1.92798353909465
 42
50.0
 43
0.0
 44
0.0
 50
0.0
 51
0.0
 71
0
 72
100
 73
1
 74
3
 75
1
 76
1
 77
0
 78
0
281
0
 65
1
110
0.0
120
0.0
130
0.0
111
1.0
121
0.0
131
0.0
112
0.0
122
1.0
132
0.0
 79
0
146
0.0
  0
ENDTAB
  0
TABLE
  2
LTYPE
  5
5
100
AcDbSymbolTable
 70
3
  0
LTYPE
  5
14
100
AcDbSymbolTableRecord
100
AcDbLinetypeTableRecord
  2
BYBLOCK
 70
0
  3

 72
65
 73
0
 40
0.0
  0
LTYPE
  5
15
100
AcDbSymbolTableRecord
100
AcDbLinetypeTableRecord
  2
BYLAYER
 70
0
  3

 72
65
 73
0
 40
0.0
  0
LTYPE
  5
16
100
AcDbSymbolTableRecord
100
AcDbLinetypeTableRecord
  2
CONTINUOUS
 70
0
  3
Solid line
 72
65
 73
0
 40
0.0
  0
ENDTAB
  0
TABLE
  2
LAYER
  5
2
100
AcDbSymbolTable
 70
3
  0
LAYER
  5
10
100
AcDbSymbolTableRecord
100
AcDbLayerTableRecord
  2
0
 70
0
 62
250
  6
CONTINUOUS
370
100
390
F
  0
LAYER
  5
31
100
AcDbSymbolTableRecord
100
AcDbLayerTableRecord
  2
mainlayer
 70
0
 62
1
  6
CONTINUOUS
370
100
390
F
  0
LAYER
  5
32
100
AcDbSymbolTableRecord
100
AcDbLayerTableRecord
  2
anotherlayer
 70
0
 62
250
  6
CONTINUOUS
370
100
390
F
  0
ENDTAB
  0
TABLE
  2
STYLE
  5
3
100
AcDbSymbolTable
 70
1
  0
STYLE
  5
33
100
AcDbSymbolTableRecord
100
AcDbTextStyleTableRecord
  2
standard
 70
0
 40
2.5
 41
1.0
 50
0.0
 71
0
 42
2.5
  3

  4

1001
ACAD
1000
txt
1071
0
  0
ENDTAB
  0
TABLE
  2
VIEW
  5
6
100
AcDbSymbolTable
 70
0
  0
ENDTAB
  0
TABLE
  2
UCS
  5
7
100
AcDbSymbolTable
 70
0
  0
ENDTAB
  0
TABLE
  2
APPID
  5
9
100
AcDbSymbolTable
 70
1
  0
APPID
  5
12
100
AcDbSymbolTableRecord
100
AcDbRegAppTableRecord
  2
ACAD
 70
0
  0
ENDTAB
  0
TABLE
  2
DIMSTYLE
  5
A
100
AcDbSymbolTable
 70
1
100
AcDbDimStyleTable
 71
0
  0
DIMSTYLE
105
27
100
AcDbSymbolTableRecord
100
AcDbDimStyleTableRecord
  2
Standard
 41
1.0
 42
1.0
 43
3.75
 44
1.0
 70
0
 73
0
 74
0
 77
1
 78
8
140
1.0
141
2.5
143
0.03937007874016
147
1.0
171
3
172
1
271
2
272
2
274
3
278
44
283
0
284
8
340
0
  0
ENDTAB
  0
TABLE
  2
BLOCK_RECORD
  5
1
100
AcDbSymbolTable
 70
1
  0
BLOCK_RECORD
  5
1F
100
AcDbSymbolTableRecord
100
AcDbBlockTableRecord
  2
*Model_Space
340
22
  0
BLOCK_RECORD
  5
1B
100
AcDbSymbolTableRecord
100
AcDbBlockTableRecord
  2
*Paper_Space
340
1E
  0
BLOCK_RECORD
  5
23
100
AcDbSymbolTableRecord
100
AcDbBlockTableRecord
  2
*Paper_Space0
340
26
  0
ENDTAB
  0
ENDSEC
  0
SECTION
  2
BLOCKS
  0
BLOCK
  5
20
100
AcDbEntity
  8
0
100
AcDbBlockBegin
  2
*Model_Space
 70
0
 10
0.0
 20
0.0
 30
0.0
  3
*Model_Space
  1

  0
ENDBLK
  5
21
100
AcDbEntity
  8
0
100
AcDbBlockEnd
  0
BLOCK
  5
1C
100
AcDbEntity
 67
1
  8
0
100
AcDbBlockBegin
  2
*Paper_Space
 70
0
 10
0.0
 20
0.0
 30
0.0
  3
*Paper_Space
  1

  0
ENDBLK
  5
1D
100
AcDbEntity
 67
1
  8
0
100
AcDbBlockEnd
  0
BLOCK
  5
24
100
AcDbEntity
  8
0
100
AcDbBlockBegin
  2
*Paper_Space0
 70
0
 10
0.0
 20
0.0
 30
0.0
  3
*Paper_Space0
  1

  0
ENDBLK
  5
25
100
AcDbEntity
  8
0
100
AcDbBlockEnd
  0
BLOCK
  5
34
100
AcDbEntity
  8
0
100
AcDbBlockBegin
  2
Z8E0FAB8
 70
0
 10
0.0
 20
0.0
 30
0.0
  3
Z8E0FAB8
  1

  0
SPLINE
  5
35
100
AcDbEntity
  8
mainlayer
 62
5
370
-1
 48
1.0
  6
BYLAYER
100
AcDbSpline
 70
8
 71
3
 72
8
 73
4
 74
0
 10
709.99853515625
 20
2528.52734375
 30
0.0
 10
710.9982910156251137
 20
2527.8535156250004547
 30
0.0
 10
712.0500488281248863
 20
2527.240234375
 30
0.0
 10
712.998046875
 20
2526.50634765625
 30
0.0
 40
0.0
 40
0.0
 40
0.0
 40
0.0
 40
4.0
 40
4.0
 40
4.0
 40
4.0
  0
SPLINE
  5
36
100
AcDbEntity
  8
mainlayer
 62
5
370
-1
 48
1.0
  6
BYLAYER
100
AcDbSpline
 70
8
 71
3
 72
8
 73
4
 74
0
 10
712.998046875
 20
2526.50634765625
 30
0.0
 10
713.9399414062502274
 20
2525.7773437500004547
 30
0.0
 10
714.8364257812501137
 20
2524.9819335937495453
 30
0.0
 10
715.67041015625
 20
2524.14013671875
 30
0.0
 40
0.0
 40
0.0
 40
0.0
 40
0.0
 40
4.0
 40
4.0
 40
4.0
 40
4.0
  0
SPLINE
  5
37
100
AcDbEntity
  8
mainlayer
 62
5
370
-1
 48
1.0
  6
BYLAYER
100
AcDbSpline
 70
8
 71
3
 72
8
 73
4
 74
0
 10
715.67041015625
 20
2524.14013671875
 30
0.0
 10
716.5009765625001137
 20
2523.3022460937509095
 30
0.0
 10
717.2802734375
 20
2522.404296875
 30
0.0
 10
717.9931640625
 20
2521.46875
 30
0.0
 40
0.0
 40
0.0
 40
0.0
 40
0.0
 40
4.0
 40
4.0
 40
4.0
 40
4.0
  0
SPLINE
  5
38
100
AcDbEntity
  8
mainlayer
 62
5
370
-1
 48
1.0
  6
BYLAYER
100
AcDbSpline
 70
8
 71
3
 72
8
 73
4
 74
0
 10
717.9931640625
 20
2521.46875
 30
0.0
 10
718.7045898437501137
 20
2520.53466796875
 30
0.0
 10
719.359619140625
 20
2519.548828125
 30
0.0
 10
719.9443359375
 20
2518.53173828125
 30
0.0
 40
0.0
 40
0.0
 40
0.0
 40
0.0
 40
4.0
 40
4.0
 40
4.0
 40
4.0
  0
SPLINE
  5
39
100
AcDbEntity
  8
mainlayer
 62
5
370
-1
 48
1.0
  6
BYLAYER
100
AcDbSpline
 70
8
 71
3
 72
8
 73
4
 74
0
 10
719.9443359375
 20
2518.53173828125
 30
0.0
 10
720.5290527343752274
 20
2517.5146484375004547
 30
0.0
 10
721.052001953125
 20
2516.4521484375
 30
0.0
 10
721.5009765625
 20
2515.3671875
 30
0.0
 40
0.0
 40
0.0
 40
0.0
 40
0.0
 40
4.0
 40
4.0
 40
4.0
 40
4.0
  0
SPLINE
  5
3A
100
AcDbEntity
  8
mainlayer
 62
5
370
-1
 48
1.0
  6
BYLAYER
100
AcDbSpline
 70
8
 71
3
 72
8
 73
4
 74
0
 10
721.5009765625
 20
2515.3671875
 30
0.0
 10
721.9509277343751137
 20
2514.2802734375004547
 30
0.0
 10
722.334228515625
 20
2513.1552734375
 30
0.0
 10
722.640625
 20
2512.015625
 30
0.0
 40
0.0
 40
0.0
 40
0.0
 40
0.0
 40
4.0
 40
4.0
 40
4.0
 40
4.0
  0
SPLINE
  5
3B
100
AcDbEntity
  8
mainlayer
 62
5
370
-1
 48
1.0
  6
BYLAYER
100
AcDbSpline
 70
8
 71
3
 72
8
 73
4
 74
0
 10
722.640625
 20
2512.015625
 30
0.0
 10
722.9482421875001137
 20
2510.8715820312509095
 30
0.0
 10
723.1845703125
 20
2509.69677734375
 30
0.0
 10
723.34130859375
 20
2508.51611328125
 30
0.0
 40
0.0
 40
0.0
 40
0.0
 40
0.0
 40
4.0
 40
4.0
 40
4.0
 40
4.0
  0
SPLINE
  5
3C
100
AcDbEntity
  8
mainlayer
 62
5
370
-1
 48
1.0
  6
BYLAYER
100
AcDbSpline
 70
8
 71
3
 72
8
 73
4
 74
0
 10
723.34130859375
 20
2508.51611328125
 30
0.0
 10
723.4990234375001137
 20
2507.3276367187504547
 30
0.0
 10
723.580322265625
 20
2506.1103515624995453
 30
0.0
 10
723.58056640625
 20
2504.90771484375
 30
0.0
 40
0.0
 40
0.0
 40
0.0
 40
0.0
 40
4.0
 40
4.0
 40
4.0
 40
4.0
  0
SPLINE
  5
3D
100
AcDbEntity
  8
mainlayer
 62
5
370
-1
 48
1.0
  6
BYLAYER
100
AcDbSpline
 70
8
 71
3
 72
8
 73
4
 74
0
 10
723.58056640625
 20
2504.90771484375
 30
0.0
 10
723.5808105468752274
 20
2503.7050781250009095
 30
0.0
 10
723.500244140625
 20
2502.48779296875
 30
0.0
 10
723.3427734375
 20
2501.29931640625
 30
0.0
 40
0.0
 40
0.0
 40
0.0
 40
0.0
 40
4.0
 40
4.0
 40
4.0
 40
4.0
  0
SPLINE
  5
3E
100
AcDbEntity
  8
mainlayer
 62
5
370
-1
 48
1.0
  6
BYLAYER
100
AcDbSpline
 70
8
 71
3
 72
8
 73
4
 74
0
 10
723.3427734375
 20
2501.29931640625
 30
0.0
 10
723.1865234375002274
 20
2500.1186523437504547
 30
0.0
 10
722.9501953124998863
 20
2498.9443359375
 30
0.0
 10
722.642578125
 20
2497.80029296875
 30
0.0
 40
0.0
 40
0.0
 40
0.0
 40
0.0
 40
4.0
 40
4.0
 40
4.0
 40
4.0
  0
SPLINE
  5
3F
100
AcDbEntity
  8
mainlayer
 62
5
370
-1
 48
1.0
  6
BYLAYER
100
AcDbSpline
 70
8
 71
3
 72
8
 73
4
 74
0
 10
722.642578125
 20
2497.80029296875
 30
0.0
 10
722.3361816406252274
 20
2496.6606445312504547
 30
0.0
 10
721.95263671875
 20
2495.53564453125
 30
0.0
 10
721.50244140625
 20
2494.44873046875
 30
0.0
 40
0.0
 40
0.0
 40
0.0
 40
0.0
 40
4.0
 40
4.0
 40
4.0
 40
4.0
  0
SPLINE
  5
40
100
AcDbEntity
  8
mainlayer
 62
5
370
-1
 48
1.0
  6
BYLAYER
100
AcDbSpline
 70
8
 71
3
 72
8
 73
4
 74
0
 10
721.50244140625
 20
2494.44873046875
 30
0.0
 10
721.0532226562501137
 20
2493.3642578125004547
 30
0.0
 10
720.530029296875
 20
2492.3017578125
 30
0.0
 10
719.9453125
 20
2491.28515625
 30
0.0
 40
0.0
 40
0.0
 40
0.0
 40
0.0
 40
4.0
 40
4.0
 40
4.0
 40
4.0
  0
SPLINE
  5
41
100
AcDbEntity
  8
mainlayer
 62
5
370
-1
 48
1.0
  6
BYLAYER
100
AcDbSpline
 70
8
 71
3
 72
8
 73
4
 74
0
 10
719.9453125
 20
2491.28515625
 30
0.0
 10
719.3605957031252274
 20
2490.2685546875004547
 30
0.0
 10
718.705322265625
 20
2489.2822265625
 30
0.0
 10
717.99365234375
 20
2488.34814453125
 30
0.0
 40
0.0
 40
0.0
 40
0.0
 40
0.0
 40
4.0
 40
4.0
 40
4.0
 40
4.0
  0
SPLINE
  5
42
100
AcDbEntity
  8
mainlayer
 62
5
370
-1
 48
1.0
  6
BYLAYER
100
AcDbSpline
 70
8
 71
3
 72
8
 73
4
 74
0
 10
717.99365234375
 20
2488.34814453125
 30
0.0
 10
717.2805175781252274
 20
2487.412109375
 30
0.0
 10
716.500732421875
 20
2486.5146484375
 30
0.0
 10
715.669921875
 20
2485.67626953125
 30
0.0
 40
0.0
 40
0.0
 40
0.0
 40
0.0
 40
4.0
 40
4.0
 40
4.0
 40
4.0
  0
SPLINE
  5
43
100
AcDbEntity
  8
mainlayer
 62
5
370
-1
 48
1.0
  6
BYLAYER
100
AcDbSpline
 70
8
 71
3
 72
8
 73
4
 74
0
 10
715.669921875
 20
2485.67626953125
 30
0.0
 10
714.8356933593751137
 20
2484.8344726562504547
 30
0.0
 10
713.93896484375
 20
2484.03955078125
 30
0.0
 10
712.9970703125
 20
2483.31005859375
 30
0.0
 40
0.0
 40
0.0
 40
0.0
 40
0.0
 40
4.0
 40
4.0
 40
4.0
 40
4.0
  0
SPLINE
  5
44
100
AcDbEntity
  8
mainlayer
 62
5
370
-1
 48
1.0
  6
BYLAYER
100
AcDbSpline
 70
8
 71
3
 72
8
 73
4
 74
0
 10
712.9970703125
 20
2483.31005859375
 30
0.0
 10
712.0490722656251137
 20
2482.57568359375
 30
0.0
 10
710.998046875
 20
2481.9619140625
 30
0.0
 10
709.99853515625
 20
2481.2880859375
 30
0.0
 40
0.0
 40
0.0
 40
0.0
 40
0.0
 40
4.0
 40
4.0
 40
4.0
 40
4.0
  0
SPLINE
  5
45
100
AcDbEntity
  8
mainlayer
 62
5
370
-1
 48
1.0
  6
BYLAYER
100
AcDbSpline
 70
8
 71
3
 72
8
 73
4
 74
0
 10
744.960693359375
 20
2474.73095703125
 30
0.0
 10
744.960693359375
 20
2483.0151367187504547
 30
0.0
 10
751.67626953125
 20
2489.7304687499995453
 30
0.0
 10
759.96044921875
 20
2489.73046875
 30
0.0
 40
0.0
 40
0.0
 40
0.0
 40
0.0
 40
4.0
 40
4.0
 40
4.0
 40
4.0
  0
SPLINE
  5
46
100
AcDbEntity
  8
mainlayer
 62
5
370
-1
 48
1.0
  6
BYLAYER
100
AcDbSpline
 70
8
 71
3
 72
8
 73
4
 74
0
 10
759.96044921875
 20
2489.73046875
 30
0.0
 10
768.2446289062502274
 20
2489.7304687500004547
 30
0.0
 10
774.9602050781248863
 20
2483.01513671875
 30
0.0
 10
774.960205078125
 20
2474.73095703125
 30
0.0
 40
0.0
 40
0.0
 40
0.0
 40
0.0
 40
4.0
 40
4.0
 40
4.0
 40
4.0
  0
SPLINE
  5
47
100
AcDbEntity
  8
mainlayer
 62
5
370
-1
 48
1.0
  6
BYLAYER
100
AcDbSpline
 70
8
 71
3
 72
8
 73
4
 74
0
 10
774.960205078125
 20
2474.73095703125
 30
0.0
 10
774.9602050781252274
 20
2466.4467773437509095
 30
0.0
 10
768.24462890625
 20
2459.7314453125
 30
0.0
 10
759.96044921875
 20
2459.7314453125
 30
0.0
 40
0.0
 40
0.0
 40
0.0
 40
0.0
 40
4.0
 40
4.0
 40
4.0
 40
4.0
  0
SPLINE
  5
48
100
AcDbEntity
  8
mainlayer
 62
5
370
-1
 48
1.0
  6
BYLAYER
100
AcDbSpline
 70
8
 71
3
 72
8
 73
4
 74
0
 10
759.96044921875
 20
2459.7314453125
 30
0.0
 10
751.6762695312501137
 20
2459.7314453125
 30
0.0
 10
744.960693359375
 20
2466.4467773437495453
 30
0.0
 10
744.960693359375
 20
2474.73095703125
 30
0.0
 40
0.0
 40
0.0
 40
0.0
 40
0.0
 40
4.0
 40
4.0
 40
4.0
 40
4.0
  0
SPLINE
  5
49
100
AcDbEntity
  8
mainlayer
 62
5
370
-1
 48
1.0
  6
BYLAYER
100
AcDbSpline
 70
8
 71
3
 72
8
 73
4
 74
0
 10
841.1474609375
 20
2504.892578125
 30
0.0
 10
841.1474609375001137
 20
2513.1752929687504547
 30
0.0
 10
847.8623046875
 20
2519.89013671875
 30
0.0
 10
856.145263671875
 20
2519.89013671875
 30
0.0
 40
0.0
 40
0.0
 40
0.0
 40
0.0
 40
4.0
 40
4.0
 40
4.0
 40
4.0
  0
SPLINE
  5
4A
100
AcDbEntity
  8
mainlayer
 62
5
370
-1
 48
1.0
  6
BYLAYER
100
AcDbSpline
 70
8
 71
3
 72
8
 73
4
 74
0
 10
856.145263671875
 20
2519.89013671875
 30
0.0
 10
864.4282226562502274
 20
2519.8901367187509095
 30
0.0
 10
871.1430664062498863
 20
2513.17529296875
 30
0.0
 10
871.14306640625
 20
2504.892578125
 30
0.0
 40
0.0
 40
0.0
 40
0.0
 40
0.0
 40
4.0
 40
4.0
 40
4.0
 40
4.0
  0
SPLINE
  5
4B
100
AcDbEntity
  8
mainlayer
 62
5
370
-1
 48
1.0
  6
BYLAYER
100
AcDbSpline
 70
8
 71
3
 72
8
 73
4
 74
0
 10
871.14306640625
 20
2504.892578125
 30
0.0
 10
871.1430664062502274
 20
2496.6093750000004547
 30
0.0
 10
864.42822265625
 20
2489.8945312499995453
 30
0.0
 10
856.145263671875
 20
2489.89453125
 30
0.0
 40
0.0
 40
0.0
 40
0.0
 40
0.0
 40
4.0
 40
4.0
 40
4.0
 40
4.0
  0
SPLINE
  5
4C
100
AcDbEntity
  8
mainlayer
 62
5
370
-1
 48
1.0
  6
BYLAYER
100
AcDbSpline
 70
8
 71
3
 72
8
 73
4
 74
0
 10
856.145263671875
 20
2489.89453125
 30
0.0
 10
847.8623046875001137
 20
2489.8945312500004547
 30
0.0
 10
841.1474609375
 20
2496.609375
 30
0.0
 10
841.1474609375
 20
2504.892578125
 30
0.0
 40
0.0
 40
0.0
 40
0.0
 40
0.0
 40
4.0
 40
4.0
 40
4.0
 40
4.0
  0
SPLINE
  5
4D
100
AcDbEntity
  8
mainlayer
 62
5
370
-1
 48
1.0
  6
BYLAYER
100
AcDbSpline
 70
8
 71
3
 72
8
 73
4
 74
0
 10
1578.10595703125
 20
2504.88525390625
 30
0.0
 10
1578.1059570312504547
 20
2513.1699218750004547
 30
0.0
 10
1584.82177734375
 20
2519.8857421875
 30
0.0
 10
1593.1064453125
 20
2519.8857421875
 30
0.0
 40
0.0
 40
0.0
 40
0.0
 40
0.0
 40
4.0
 40
4.0
 40
4.0
 40
4.0
  0
SPLINE
  5
4E
100
AcDbEntity
  8
mainlayer
 62
5
370
-1
 48
1.0
  6
BYLAYER
100
AcDbSpline
 70
8
 71
3
 72
8
 73
4
 74
0
 10
1593.1064453125
 20
2519.8857421875
 30
0.0
 10
1601.3911132812504547
 20
2519.8857421875004547
 30
0.0
 10
1608.10693359375
 20
2513.1699218749995453
 30
0.0
 10
1608.10693359375
 20
2504.88525390625
 30
0.0
 40
0.0
 40
0.0
 40
0.0
 40
0.0
 40
4.0
 40
4.0
 40
4.0
 40
4.0
  0
SPLINE
  5
4F
100
AcDbEntity
  8
mainlayer
 62
5
370
-1
 48
1.0
  6
BYLAYER
100
AcDbSpline
 70
8
 71
3
 72
8
 73
4
 74
0
 10
1608.10693359375
 20
2504.88525390625
 30
0.0
 10
1608.1069335937502274
 20
2496.6005859375009095
 30
0.0
 10
1601.3911132812497726
 20
2489.884765625
 30
0.0
 10
1593.1064453125
 20
2489.884765625
 30
0.0
 40
0.0
 40
0.0
 40
0.0
 40
0.0
 40
4.0
 40
4.0
 40
4.0
 40
4.0
  0
SPLINE
  5
50
100
AcDbEntity
  8
mainlayer
 62
5
370
-1
 48
1.0
  6
BYLAYER
100
AcDbSpline
 70
8
 71
3
 72
8
 73
4
 74
0
 10
1593.1064453125
 20
2489.884765625
 30
0.0
 10
1584.8217773437504547
 20
2489.8847656250004547
 30
0.0
 10
1578.10595703125
 20
2496.6005859375
 30
0.0
 10
1578.10595703125
 20
2504.88525390625
 30
0.0
 40
0.0
 40
0.0
 40
0.0
 40
0.0
 40
4.0
 40
4.0
 40
4.0
 40
4.0
  0
SPLINE
  5
51
100
AcDbEntity
  8
mainlayer
 62
5
370
-1
 48
1.0
  6
BYLAYER
100
AcDbSpline
 70
8
 71
3
 72
8
 73
4
 74
0
 10
1814.291259765625
 20
2478.654296875
 30
0.0
 10
1814.2912597656256821
 20
2486.9375
 30
0.0
 10
1821.0061035156247726
 20
2493.65234375
 30
0.0
 10
1829.2890625
 20
2493.65234375
 30
0.0
 40
0.0
 40
0.0
 40
0.0
 40
0.0
 40
4.0
 40
4.0
 40
4.0
 40
4.0
  0
SPLINE
  5
52
100
AcDbEntity
  8
mainlayer
 62
5
370
-1
 48
1.0
  6
BYLAYER
100
AcDbSpline
 70
8
 71
3
 72
8
 73
4
 74
0
 10
1829.2890625
 20
2493.65234375
 30
0.0
 10
1837.5720214843756821
 20
2493.6523437500004547
 30
0.0
 10
1844.286865234375
 20
2486.9374999999995453
 30
0.0
 10
1844.286865234375
 20
2478.654296875
 30
0.0
 40
0.0
 40
0.0
 40
0.0
 40
0.0
 40
4.0
 40
4.0
 40
4.0
 40
4.0
  0
SPLINE
  5
53
100
AcDbEntity
  8
mainlayer
 62
5
370
-1
 48
1.0
  6
BYLAYER
100
AcDbSpline
 70
8
 71
3
 72
8
 73
4
 74
0
 10
1844.286865234375
 20
2478.654296875
 30
0.0
 10
1844.2868652343754547
 20
2470.37109375
 30
0.0
 10
1837.5720214843747726
 20
2463.65625
 30
0.0
 10
1829.2890625
 20
2463.65625
 30
0.0
 40
0.0
 40
0.0
 40
0.0
 40
0.0
 40
4.0
 40
4.0
 40
4.0
 40
4.0
  0
SPLINE
  5
54
100
AcDbEntity
  8
mainlayer
 62
5
370
-1
 48
1.0
  6
BYLAYER
100
AcDbSpline
 70
8
 71
3
 72
8
 73
4
 74
0
 10
1829.2890625
 20
2463.65625
 30
0.0
 10
1821.0061035156252274
 20
2463.65625
 30
0.0
 10
1814.291259765625
 20
2470.37109375
 30
0.0
 10
1814.291259765625
 20
2478.654296875
 30
0.0
 40
0.0
 40
0.0
 40
0.0
 40
0.0
 40
4.0
 40
4.0
 40
4.0
 40
4.0
  0
SPLINE
  5
55
100
AcDbEntity
  8
mainlayer
 62
5
370
-1
 48
1.0
  6
BYLAYER
100
AcDbSpline
 70
8
 71
3
 72
8
 73
4
 74
0
 10
1361.021728515625
 20
2251.20849609375
 30
0.0
 10
1361.0217285156252274
 20
2259.4936523437509095
 30
0.0
 10
1367.73828125
 20
2266.2099609375
 30
0.0
 10
1376.0234375
 20
2266.2099609375
 30
0.0
 40
0.0
 40
0.0
 40
0.0
 40
0.0
 40
4.0
 40
4.0
 40
4.0
 40
4.0
  0
SPLINE
  5
56
100
AcDbEntity
  8
mainlayer
 62
5
370
-1
 48
1.0
  6
BYLAYER
100
AcDbSpline
 70
8
 71
3
 72
8
 73
4
 74
0
 10
1376.0234375
 20
2266.2099609375
 30
0.0
 10
1384.3085937500002274
 20
2266.2099609375004547
 30
0.0
 10
1391.0251464843747726
 20
2259.49365234375
 30
0.0
 10
1391.025146484375
 20
2251.20849609375
 30
0.0
 40
0.0
 40
0.0
 40
0.0
 40
0.0
 40
4.0
 40
4.0
 40
4.0
 40
4.0
  0
SPLINE
  5
57
100
AcDbEntity
  8
mainlayer
 62
5
370
-1
 48
1.0
  6
BYLAYER
100
AcDbSpline
 70
8
 71
3
 72
8
 73
4
 74
0
 10
1391.025146484375
 20
2251.20849609375
 30
0.0
 10
1391.0251464843754547
 20
2242.92333984375
 30
0.0
 10
1384.30859375
 20
2236.20703125
 30
0.0
 10
1376.0234375
 20
2236.20703125
 30
0.0
 40
0.0
 40
0.0
 40
0.0
 40
0.0
 40
4.0
 40
4.0
 40
4.0
 40
4.0
  0
SPLINE
  5
58
100
AcDbEntity
  8
mainlayer
 62
5
370
-1
 48
1.0
  6
BYLAYER
100
AcDbSpline
 70
8
 71
3
 72
8
 73
4
 74
0
 10
1376.0234375
 20
2236.20703125
 30
0.0
 10
1367.7382812500002274
 20
2236.2070312500004547
 30
0.0
 10
1361.021728515625
 20
2242.92333984375
 30
0.0
 10
1361.021728515625
 20
2251.20849609375
 30
0.0
 40
0.0
 40
0.0
 40
0.0
 40
0.0
 40
4.0
 40
4.0
 40
4.0
 40
4.0
  0
SPLINE
  5
59
100
AcDbEntity
  8
mainlayer
 62
5
370
-1
 48
1.0
  6
BYLAYER
100
AcDbSpline
 70
8
 71
3
 72
8
 73
4
 74
0
 10
766.496826171875
 20
2015.01171875
 30
0.0
 10
766.4968261718752274
 20
2023.2958984375004547
 30
0.0
 10
773.2126464843748863
 20
2030.0117187499997726
 30
0.0
 10
781.4970703125
 20
2030.01171875
 30
0.0
 40
0.0
 40
0.0
 40
0.0
 40
0.0
 40
4.0
 40
4.0
 40
4.0
 40
4.0
  0
SPLINE
  5
5A
100
AcDbEntity
  8
mainlayer
 62
5
370
-1
 48
1.0
  6
BYLAYER
100
AcDbSpline
 70
8
 71
3
 72
8
 73
4
 74
0
 10
781.4970703125
 20
2030.01171875
 30
0.0
 10
789.7814941406252274
 20
2030.0117187500006821
 30
0.0
 10
796.4973144531248863
 20
2023.2958984375
 30
0.0
 10
796.497314453125
 20
2015.01171875
 30
0.0
 40
0.0
 40
0.0
 40
0.0
 40
0.0
 40
4.0
 40
4.0
 40
4.0
 40
4.0
  0
SPLINE
  5
5B
100
AcDbEntity
  8
mainlayer
 62
5
370
-1
 48
1.0
  6
BYLAYER
100
AcDbSpline
 70
8
 71
3
 72
8
 73
4
 74
0
 10
796.497314453125
 20
2015.01171875
 30
0.0
 10
796.4973144531252274
 20
2006.7270507812502274
 30
0.0
 10
789.781494140625
 20
2000.0112304687497726
 30
0.0
 10
781.4970703125
 20
2000.01123046875
 30
0.0
 40
0.0
 40
0.0
 40
0.0
 40
0.0
 40
4.0
 40
4.0
 40
4.0
 40
4.0
  0
SPLINE
  5
5C
100
AcDbEntity
  8
mainlayer
 62
5
370
-1
 48
1.0
  6
BYLAYER
100
AcDbSpline
 70
8
 71
3
 72
8
 73
4
 74
0
 10
781.4970703125
 20
2000.01123046875
 30
0.0
 10
773.2126464843751137
 20
2000.0112304687504547
 30
0.0
 10
766.4968261718748863
 20
2006.7270507812497726
 30
0.0
 10
766.496826171875
 20
2015.01171875
 30
0.0
 40
0.0
 40
0.0
 40
0.0
 40
0.0
 40
4.0
 40
4.0
 40
4.0
 40
4.0
  0
SPLINE
  5
5D
100
AcDbEntity
  8
mainlayer
 62
5
370
-1
 48
1.0
  6
BYLAYER
100
AcDbSpline
 70
8
 71
3
 72
8
 73
4
 74
0
 10
744.656982421875
 20
1938.7470703125
 30
0.0
 10
744.6569824218751137
 20
1947.0307617187502274
 30
0.0
 10
751.37255859375
 20
1953.7465820312497726
 30
0.0
 10
759.65673828125
 20
1953.74658203125
 30
0.0
 40
0.0
 40
0.0
 40
0.0
 40
0.0
 40
4.0
 40
4.0
 40
4.0
 40
4.0
  0
SPLINE
  5
5E
100
AcDbEntity
  8
mainlayer
 62
5
370
-1
 48
1.0
  6
BYLAYER
100
AcDbSpline
 70
8
 71
3
 72
8
 73
4
 74
0
 10
759.65673828125
 20
1953.74658203125
 30
0.0
 10
767.9409179687501137
 20
1953.7465820312502274
 30
0.0
 10
774.656494140625
 20
1947.03076171875
 30
0.0
 10
774.656494140625
 20
1938.7470703125
 30
0.0
 40
0.0
 40
0.0
 40
0.0
 40
0.0
 40
4.0
 40
4.0
 40
4.0
 40
4.0
  0
SPLINE
  5
5F
100
AcDbEntity
  8
mainlayer
 62
5
370
-1
 48
1.0
  6
BYLAYER
100
AcDbSpline
 70
8
 71
3
 72
8
 73
4
 74
0
 10
774.656494140625
 20
1938.7470703125
 30
0.0
 10
774.6564941406252274
 20
1930.4628906250002274
 30
0.0
 10
767.9409179687501137
 20
1923.7470703125002274
 30
0.0
 10
759.65673828125
 20
1923.7470703125
 30
0.0
 40
0.0
 40
0.0
 40
0.0
 40
0.0
 40
4.0
 40
4.0
 40
4.0
 40
4.0
  0
SPLINE
  5
60
100
AcDbEntity
  8
mainlayer
 62
5
370
-1
 48
1.0
  6
BYLAYER
100
AcDbSpline
 70
8
 71
3
 72
8
 73
4
 74
0
 10
759.65673828125
 20
1923.7470703125
 30
0.0
 10
751.3725585937501137
 20
1923.7470703125002274
 30
0.0
 10
744.6569824218748863
 20
1930.4628906249997726
 30
0.0
 10
744.656982421875
 20
1938.7470703125
 30
0.0
 40
0.0
 40
0.0
 40
0.0
 40
0.0
 40
4.0
 40
4.0
 40
4.0
 40
4.0
  0
SPLINE
  5
61
100
AcDbEntity
  8
mainlayer
 62
5
370
-1
 48
1.0
  6
BYLAYER
100
AcDbSpline
 70
8
 71
3
 72
8
 73
4
 74
0
 10
899.923828125
 20
1873.5703125
 30
0.0
 10
899.9238281250002274
 20
1881.8554687500004547
 30
0.0
 10
906.6403808593748863
 20
1888.572265625
 30
0.0
 10
914.92578125
 20
1888.572265625
 30
0.0
 40
0.0
 40
0.0
 40
0.0
 40
0.0
 40
4.0
 40
4.0
 40
4.0
 40
4.0
  0
SPLINE
  5
62
100
AcDbEntity
  8
mainlayer
 62
5
370
-1
 48
1.0
  6
BYLAYER
100
AcDbSpline
 70
8
 71
3
 72
8
 73
4
 74
0
 10
914.92578125
 20
1888.572265625
 30
0.0
 10
923.2111816406251137
 20
1888.5722656250004547
 30
0.0
 10
929.9277343749998863
 20
1881.85546875
 30
0.0
 10
929.927734375
 20
1873.5703125
 30
0.0
 40
0.0
 40
0.0
 40
0.0
 40
0.0
 40
4.0
 40
4.0
 40
4.0
 40
4.0
  0
SPLINE
  5
63
100
AcDbEntity
  8
mainlayer
 62
5
370
-1
 48
1.0
  6
BYLAYER
100
AcDbSpline
 70
8
 71
3
 72
8
 73
4
 74
0
 10
929.927734375
 20
1873.5703125
 30
0.0
 10
929.9277343750001137
 20
1865.2846679687504547
 30
0.0
 10
923.211181640625
 20
1858.56787109375
 30
0.0
 10
914.92578125
 20
1858.56787109375
 30
0.0
 40
0.0
 40
0.0
 40
0.0
 40
0.0
 40
4.0
 40
4.0
 40
4.0
 40
4.0
  0
SPLINE
  5
64
100
AcDbEntity
  8
mainlayer
 62
5
370
-1
 48
1.0
  6
BYLAYER
100
AcDbSpline
 70
8
 71
3
 72
8
 73
4
 74
0
 10
914.92578125
 20
1858.56787109375
 30
0.0
 10
906.6403808593752274
 20
1858.5678710937504547
 30
0.0
 10
899.9238281249998863
 20
1865.28466796875
 30
0.0
 10
899.923828125
 20
1873.5703125
 30
0.0
 40
0.0
 40
0.0
 40
0.0
 40
0.0
 40
4.0
 40
4.0
 40
4.0
 40
4.0
  0
SPLINE
  5
65
100
AcDbEntity
  8
mainlayer
 62
5
370
-1
 48
1.0
  6
BYLAYER
100
AcDbSpline
 70
8
 71
3
 72
8
 73
4
 74
0
 10
1004.91064453125
 20
1889.396484375
 30
0.0
 10
1004.9106445312501137
 20
1897.6826171875004547
 30
0.0
 10
1011.6276855468748863
 20
1904.3994140625
 30
0.0
 10
1019.91357421875
 20
1904.3994140625
 30
0.0
 40
0.0
 40
0.0
 40
0.0
 40
0.0
 40
4.0
 40
4.0
 40
4.0
 40
4.0
  0
SPLINE
  5
66
100
AcDbEntity
  8
mainlayer
 62
5
370
-1
 48
1.0
  6
BYLAYER
100
AcDbSpline
 70
8
 71
3
 72
8
 73
4
 74
0
 10
1019.91357421875
 20
1904.3994140625
 30
0.0
 10
1028.1994628906252274
 20
1904.3994140625004547
 30
0.0
 10
1034.91650390625
 20
1897.6826171875
 30
0.0
 10
1034.91650390625
 20
1889.396484375
 30
0.0
 40
0.0
 40
0.0
 40
0.0
 40
0.0
 40
4.0
 40
4.0
 40
4.0
 40
4.0
  0
SPLINE
  5
67
100
AcDbEntity
  8
mainlayer
 62
5
370
-1
 48
1.0
  6
BYLAYER
100
AcDbSpline
 70
8
 71
3
 72
8
 73
4
 74
0
 10
1034.91650390625
 20
1889.396484375
 30
0.0
 10
1034.9165039062502274
 20
1881.1103515625004547
 30
0.0
 10
1028.199462890625
 20
1874.3935546875
 30
0.0
 10
1019.91357421875
 20
1874.3935546875
 30
0.0
 40
0.0
 40
0.0
 40
0.0
 40
0.0
 40
4.0
 40
4.0
 40
4.0
 40
4.0
  0
SPLINE
  5
68
100
AcDbEntity
  8
mainlayer
 62
5
370
-1
 48
1.0
  6
BYLAYER
100
AcDbSpline
 70
8
 71
3
 72
8
 73
4
 74
0
 10
1019.91357421875
 20
1874.3935546875
 30
0.0
 10
1011.6276855468752274
 20
1874.3935546875004547
 30
0.0
 10
1004.9106445312498863
 20
1881.1103515624997726
 30
0.0
 10
1004.91064453125
 20
1889.396484375
 30
0.0
 40
0.0
 40
0.0
 40
0.0
 40
0.0
 40
4.0
 40
4.0
 40
4.0
 40
4.0
  0
SPLINE
  5
69
100
AcDbEntity
  8
mainlayer
 62
5
370
-1
 48
1.0
  6
BYLAYER
100
AcDbSpline
 70
8
 71
3
 72
8
 73
4
 74
0
 10
1084.90234375
 20
1889.36865234375
 30
0.0
 10
1084.9023437500002274
 20
1897.65283203125
 30
0.0
 10
1091.6181640625
 20
1904.3686523437497726
 30
0.0
 10
1099.90234375
 20
1904.36865234375
 30
0.0
 40
0.0
 40
0.0
 40
0.0
 40
0.0
 40
4.0
 40
4.0
 40
4.0
 40
4.0
  0
SPLINE
  5
6A
100
AcDbEntity
  8
mainlayer
 62
5
370
-1
 48
1.0
  6
BYLAYER
100
AcDbSpline
 70
8
 71
3
 72
8
 73
4
 74
0
 10
1099.90234375
 20
1904.36865234375
 30
0.0
 10
1108.1865234375002274
 20
1904.3686523437504547
 30
0.0
 10
1114.90234375
 20
1897.6528320312495453
 30
0.0
 10
1114.90234375
 20
1889.36865234375
 30
0.0
 40
0.0
 40
0.0
 40
0.0
 40
0.0
 40
4.0
 40
4.0
 40
4.0
 40
4.0
  0
SPLINE
  5
6B
100
AcDbEntity
  8
mainlayer
 62
5
370
-1
 48
1.0
  6
BYLAYER
100
AcDbSpline
 70
8
 71
3
 72
8
 73
4
 74
0
 10
1114.90234375
 20
1889.36865234375
 30
0.0
 10
1114.9023437500004547
 20
1881.0844726562504547
 30
0.0
 10
1108.1865234375
 20
1874.36865234375
 30
0.0
 10
1099.90234375
 20
1874.36865234375
 30
0.0
 40
0.0
 40
0.0
 40
0.0
 40
0.0
 40
4.0
 40
4.0
 40
4.0
 40
4.0
  0
SPLINE
  5
6C
100
AcDbEntity
  8
mainlayer
 62
5
370
-1
 48
1.0
  6
BYLAYER
100
AcDbSpline
 70
8
 71
3
 72
8
 73
4
 74
0
 10
1099.90234375
 20
1874.36865234375
 30
0.0
 10
1091.6181640625002274
 20
1874.3686523437504547
 30
0.0
 10
1084.90234375
 20
1881.08447265625
 30
0.0
 10
1084.90234375
 20
1889.36865234375
 30
0.0
 40
0.0
 40
0.0
 40
0.0
 40
0.0
 40
4.0
 40
4.0
 40
4.0
 40
4.0
  0
SPLINE
  5
6D
100
AcDbEntity
  8
mainlayer
 62
5
370
-1
 48
1.0
  6
BYLAYER
100
AcDbSpline
 70
8
 71
3
 72
8
 73
4
 74
0
 10
1164.901123046875
 20
1889.36865234375
 30
0.0
 10
1164.901123046875
 20
1897.6518554687504547
 30
0.0
 10
1171.615966796875
 20
1904.3671875000002274
 30
0.0
 10
1179.8994140625
 20
1904.3671875
 30
0.0
 40
0.0
 40
0.0
 40
0.0
 40
0.0
 40
4.0
 40
4.0
 40
4.0
 40
4.0
  0
SPLINE
  5
6E
100
AcDbEntity
  8
mainlayer
 62
5
370
-1
 48
1.0
  6
BYLAYER
100
AcDbSpline
 70
8
 71
3
 72
8
 73
4
 74
0
 10
1179.8994140625
 20
1904.3671875
 30
0.0
 10
1188.1828613281252274
 20
1904.3671875000002274
 30
0.0
 10
1194.897705078125
 20
1897.6518554687497726
 30
0.0
 10
1194.897705078125
 20
1889.36865234375
 30
0.0
 40
0.0
 40
0.0
 40
0.0
 40
0.0
 40
4.0
 40
4.0
 40
4.0
 40
4.0
  0
SPLINE
  5
6F
100
AcDbEntity
  8
mainlayer
 62
5
370
-1
 48
1.0
  6
BYLAYER
100
AcDbSpline
 70
8
 71
3
 72
8
 73
4
 74
0
 10
1194.897705078125
 20
1889.36865234375
 30
0.0
 10
1194.8977050781252274
 20
1881.0854492187504547
 30
0.0
 10
1188.182861328125
 20
1874.3701171875
 30
0.0
 10
1179.8994140625
 20
1874.3701171875
 30
0.0
 40
0.0
 40
0.0
 40
0.0
 40
0.0
 40
4.0
 40
4.0
 40
4.0
 40
4.0
  0
SPLINE
  5
70
100
AcDbEntity
  8
mainlayer
 62
5
370
-1
 48
1.0
  6
BYLAYER
100
AcDbSpline
 70
8
 71
3
 72
8
 73
4
 74
0
 10
1179.8994140625
 20
1874.3701171875
 30
0.0
 10
1171.6159667968752274
 20
1874.3701171875004547
 30
0.0
 10
1164.9011230468747726
 20
1881.08544921875
 30
0.0
 10
1164.901123046875
 20
1889.36865234375
 30
0.0
 40
0.0
 40
0.0
 40
0.0
 40
0.0
 40
4.0
 40
4.0
 40
4.0
 40
4.0
  0
SPLINE
  5
71
100
AcDbEntity
  8
mainlayer
 62
5
370
-1
 48
1.0
  6
BYLAYER
100
AcDbSpline
 70
8
 71
3
 72
8
 73
4
 74
0
 10
1244.896728515625
 20
1889.34130859375
 30
0.0
 10
1244.8967285156252274
 20
1897.6264648437502274
 30
0.0
 10
1251.61328125
 20
1904.34326171875
 30
0.0
 10
1259.898681640625
 20
1904.34326171875
 30
0.0
 40
0.0
 40
0.0
 40
0.0
 40
0.0
 40
4.0
 40
4.0
 40
4.0
 40
4.0
  0
SPLINE
  5
72
100
AcDbEntity
  8
mainlayer
 62
5
370
-1
 48
1.0
  6
BYLAYER
100
AcDbSpline
 70
8
 71
3
 72
8
 73
4
 74
0
 10
1259.898681640625
 20
1904.34326171875
 30
0.0
 10
1268.1840820312502274
 20
1904.3432617187504547
 30
0.0
 10
1274.900634765625
 20
1897.6264648437497726
 30
0.0
 10
1274.900634765625
 20
1889.34130859375
 30
0.0
 40
0.0
 40
0.0
 40
0.0
 40
0.0
 40
4.0
 40
4.0
 40
4.0
 40
4.0
  0
SPLINE
  5
73
100
AcDbEntity
  8
mainlayer
 62
5
370
-1
 48
1.0
  6
BYLAYER
100
AcDbSpline
 70
8
 71
3
 72
8
 73
4
 74
0
 10
1274.900634765625
 20
1889.34130859375
 30
0.0
 10
1274.9006347656254547
 20
1881.0561523437502274
 30
0.0
 10
1268.18408203125
 20
1874.33935546875
 30
0.0
 10
1259.898681640625
 20
1874.33935546875
 30
0.0
 40
0.0
 40
0.0
 40
0.0
 40
0.0
 40
4.0
 40
4.0
 40
4.0
 40
4.0
  0
SPLINE
  5
74
100
AcDbEntity
  8
mainlayer
 62
5
370
-1
 48
1.0
  6
BYLAYER
100
AcDbSpline
 70
8
 71
3
 72
8
 73
4
 74
0
 10
1259.898681640625
 20
1874.33935546875
 30
0.0
 10
1251.6132812500002274
 20
1874.3393554687504547
 30
0.0
 10
1244.896728515625
 20
1881.05615234375
 30
0.0
 10
1244.896728515625
 20
1889.34130859375
 30
0.0
 40
0.0
 40
0.0
 40
0.0
 40
0.0
 40
4.0
 40
4.0
 40
4.0
 40
4.0
  0
SPLINE
  5
75
100
AcDbEntity
  8
mainlayer
 62
5
370
-1
 48
1.0
  6
BYLAYER
100
AcDbSpline
 70
8
 71
3
 72
8
 73
4
 74
0
 10
1483.700927734375
 20
1858.837890625
 30
0.0
 10
1483.7009277343754547
 20
1867.1206054687504547
 30
0.0
 10
1490.415283203125
 20
1873.8349609375
 30
0.0
 10
1498.69775390625
 20
1873.8349609375
 30
0.0
 40
0.0
 40
0.0
 40
0.0
 40
0.0
 40
4.0
 40
4.0
 40
4.0
 40
4.0
  0
SPLINE
  5
76
100
AcDbEntity
  8
mainlayer
 62
5
370
-1
 48
1.0
  6
BYLAYER
100
AcDbSpline
 70
8
 71
3
 72
8
 73
4
 74
0
 10
1498.69775390625
 20
1873.8349609375
 30
0.0
 10
1506.9802246093754547
 20
1873.8349609375006821
 30
0.0
 10
1513.694580078125
 20
1867.1206054687497726
 30
0.0
 10
1513.694580078125
 20
1858.837890625
 30
0.0
 40
0.0
 40
0.0
 40
0.0
 40
0.0
 40
4.0
 40
4.0
 40
4.0
 40
4.0
  0
SPLINE
  5
77
100
AcDbEntity
  8
mainlayer
 62
5
370
-1
 48
1.0
  6
BYLAYER
100
AcDbSpline
 70
8
 71
3
 72
8
 73
4
 74
0
 10
1513.694580078125
 20
1858.837890625
 30
0.0
 10
1513.6945800781254547
 20
1850.5551757812504547
 30
0.0
 10
1506.980224609375
 20
1843.8408203124997726
 30
0.0
 10
1498.69775390625
 20
1843.8408203125
 30
0.0
 40
0.0
 40
0.0
 40
0.0
 40
0.0
 40
4.0
 40
4.0
 40
4.0
 40
4.0
  0
SPLINE
  5
78
100
AcDbEntity
  8
mainlayer
 62
5
370
-1
 48
1.0
  6
BYLAYER
100
AcDbSpline
 70
8
 71
3
 72
8
 73
4
 74
0
 10
1498.69775390625
 20
1843.8408203125
 30
0.0
 10
1490.4152832031254547
 20
1843.8408203125006821
 30
0.0
 10
1483.700927734375
 20
1850.5551757812497726
 30
0.0
 10
1483.700927734375
 20
1858.837890625
 30
0.0
 40
0.0
 40
0.0
 40
0.0
 40
0.0
 40
4.0
 40
4.0
 40
4.0
 40
4.0
  0
SPLINE
  5
79
100
AcDbEntity
  8
mainlayer
 62
5
370
-1
 48
1.0
  6
BYLAYER
100
AcDbSpline
 70
8
 71
3
 72
8
 73
4
 74
0
 10
1596.96533203125
 20
1727.44091796875
 30
0.0
 10
1596.9653320312504547
 20
1735.7255859375004547
 30
0.0
 10
1603.68115234375
 20
1742.44140625
 30
0.0
 10
1611.9658203125
 20
1742.44140625
 30
0.0
 40
0.0
 40
0.0
 40
0.0
 40
0.0
 40
4.0
 40
4.0
 40
4.0
 40
4.0
  0
SPLINE
  5
7A
100
AcDbEntity
  8
mainlayer
 62
5
370
-1
 48
1.0
  6
BYLAYER
100
AcDbSpline
 70
8
 71
3
 72
8
 73
4
 74
0
 10
1611.9658203125
 20
1742.44140625
 30
0.0
 10
1620.2504882812504547
 20
1742.4414062500002274
 30
0.0
 10
1626.96630859375
 20
1735.7255859375
 30
0.0
 10
1626.96630859375
 20
1727.44091796875
 30
0.0
 40
0.0
 40
0.0
 40
0.0
 40
0.0
 40
4.0
 40
4.0
 40
4.0
 40
4.0
  0
SPLINE
  5
7B
100
AcDbEntity
  8
mainlayer
 62
5
370
-1
 48
1.0
  6
BYLAYER
100
AcDbSpline
 70
8
 71
3
 72
8
 73
4
 74
0
 10
1626.96630859375
 20
1727.44091796875
 30
0.0
 10
1626.9663085937504547
 20
1719.1562500000002274
 30
0.0
 10
1620.25048828125
 20
1712.4404296874997726
 30
0.0
 10
1611.9658203125
 20
1712.4404296875
 30
0.0
 40
0.0
 40
0.0
 40
0.0
 40
0.0
 40
4.0
 40
4.0
 40
4.0
 40
4.0
  0
SPLINE
  5
7C
100
AcDbEntity
  8
mainlayer
 62
5
370
-1
 48
1.0
  6
BYLAYER
100
AcDbSpline
 70
8
 71
3
 72
8
 73
4
 74
0
 10
1611.9658203125
 20
1712.4404296875
 30
0.0
 10
1603.6811523437502274
 20
1712.4404296875004547
 30
0.0
 10
1596.96533203125
 20
1719.15625
 30
0.0
 10
1596.96533203125
 20
1727.44091796875
 30
0.0
 40
0.0
 40
0.0
 40
0.0
 40
0.0
 40
4.0
 40
4.0
 40
4.0
 40
4.0
  0
SPLINE
  5
7D
100
AcDbEntity
  8
mainlayer
 62
5
370
-1
 48
1.0
  6
BYLAYER
100
AcDbSpline
 70
8
 71
3
 72
8
 73
4
 74
0
 10
1608.3603515625
 20
1633.6435546875
 30
0.0
 10
1608.3603515625004547
 20
1656.0839843750004547
 30
0.0
 10
1626.5520019531252274
 20
1674.275390625
 30
0.0
 10
1648.9921875
 20
1674.275390625
 30
0.0
 40
0.0
 40
0.0
 40
0.0
 40
0.0
 40
4.0
 40
4.0
 40
4.0
 40
4.0
  0
SPLINE
  5
7E
100
AcDbEntity
  8
mainlayer
 62
5
370
-1
 48
1.0
  6
BYLAYER
100
AcDbSpline
 70
8
 71
3
 72
8
 73
4
 74
0
 10
1648.9921875
 20
1674.275390625
 30
0.0
 10
1671.4323730468754547
 20
1674.2753906250002274
 30
0.0
 10
1689.6240234375
 20
1656.0839843749997726
 30
0.0
 10
1689.6240234375
 20
1633.6435546875
 30
0.0
 40
0.0
 40
0.0
 40
0.0
 40
0.0
 40
4.0
 40
4.0
 40
4.0
 40
4.0
  0
SPLINE
  5
7F
100
AcDbEntity
  8
mainlayer
 62
5
370
-1
 48
1.0
  6
BYLAYER
100
AcDbSpline
 70
8
 71
3
 72
8
 73
4
 74
0
 10
1689.6240234375
 20
1633.6435546875
 30
0.0
 10
1689.6240234375004547
 20
1611.2036132812504547
 30
0.0
 10
1671.432373046875
 20
1593.01220703125
 30
0.0
 10
1648.9921875
 20
1593.01220703125
 30
0.0
 40
0.0
 40
0.0
 40
0.0
 40
0.0
 40
4.0
 40
4.0
 40
4.0
 40
4.0
  0
SPLINE
  5
80
100
AcDbEntity
  8
mainlayer
 62
5
370
-1
 48
1.0
  6
BYLAYER
100
AcDbSpline
 70
8
 71
3
 72
8
 73
4
 74
0
 10
1648.9921875
 20
1593.01220703125
 30
0.0
 10
1626.5520019531252274
 20
1593.0122070312504547
 30
0.0
 10
1608.3603515625
 20
1611.20361328125
 30
0.0
 10
1608.3603515625
 20
1633.6435546875
 30
0.0
 40
0.0
 40
0.0
 40
0.0
 40
0.0
 40
4.0
 40
4.0
 40
4.0
 40
4.0
  0
SPLINE
  5
81
100
AcDbEntity
  8
mainlayer
 62
5
370
-1
 48
1.0
  6
BYLAYER
100
AcDbSpline
 70
8
 71
3
 72
8
 73
4
 74
0
 10
1840.691650390625
 20
1569.09228515625
 30
0.0
 10
1840.6916503906254547
 20
1577.3769531250004547
 30
0.0
 10
1847.40771484375
 20
1584.0927734375
 30
0.0
 10
1855.6923828125
 20
1584.0927734375
 30
0.0
 40
0.0
 40
0.0
 40
0.0
 40
0.0
 40
4.0
 40
4.0
 40
4.0
 40
4.0
  0
SPLINE
  5
82
100
AcDbEntity
  8
mainlayer
 62
5
370
-1
 48
1.0
  6
BYLAYER
100
AcDbSpline
 70
8
 71
3
 72
8
 73
4
 74
0
 10
1855.6923828125
 20
1584.0927734375
 30
0.0
 10
1863.9770507812504547
 20
1584.0927734375002274
 30
0.0
 10
1870.693115234375
 20
1577.376953125
 30
0.0
 10
1870.693115234375
 20
1569.09228515625
 30
0.0
 40
0.0
 40
0.0
 40
0.0
 40
0.0
 40
4.0
 40
4.0
 40
4.0
 40
4.0
  0
SPLINE
  5
83
100
AcDbEntity
  8
mainlayer
 62
5
370
-1
 48
1.0
  6
BYLAYER
100
AcDbSpline
 70
8
 71
3
 72
8
 73
4
 74
0
 10
1870.693115234375
 20
1569.09228515625
 30
0.0
 10
1870.6931152343754547
 20
1560.8076171875002274
 30
0.0
 10
1863.97705078125
 20
1554.0917968749997726
 30
0.0
 10
1855.6923828125
 20
1554.091796875
 30
0.0
 40
0.0
 40
0.0
 40
0.0
 40
0.0
 40
4.0
 40
4.0
 40
4.0
 40
4.0
  0
SPLINE
  5
84
100
AcDbEntity
  8
mainlayer
 62
5
370
-1
 48
1.0
  6
BYLAYER
100
AcDbSpline
 70
8
 71
3
 72
8
 73
4
 74
0
 10
1855.6923828125
 20
1554.091796875
 30
0.0
 10
1847.4077148437504547
 20
1554.0917968750006821
 30
0.0
 10
1840.691650390625
 20
1560.8076171875
 30
0.0
 10
1840.691650390625
 20
1569.09228515625
 30
0.0
 40
0.0
 40
0.0
 40
0.0
 40
0.0
 40
4.0
 40
4.0
 40
4.0
 40
4.0
  0
SPLINE
  5
85
100
AcDbEntity
  8
mainlayer
 62
5
370
-1
 48
1.0
  6
BYLAYER
100
AcDbSpline
 70
8
 71
3
 72
8
 73
4
 74
0
 10
1835.89208984375
 20
1479.4052734375
 30
0.0
 10
1835.8920898437502274
 20
1487.6889648437504547
 30
0.0
 10
1842.607421875
 20
1494.404296875
 30
0.0
 10
1850.89111328125
 20
1494.404296875
 30
0.0
 40
0.0
 40
0.0
 40
0.0
 40
0.0
 40
4.0
 40
4.0
 40
4.0
 40
4.0
  0
SPLINE
  5
86
100
AcDbEntity
  8
mainlayer
 62
5
370
-1
 48
1.0
  6
BYLAYER
100
AcDbSpline
 70
8
 71
3
 72
8
 73
4
 74
0
 10
1850.89111328125
 20
1494.404296875
 30
0.0
 10
1859.1748046875006821
 20
1494.4042968750004547
 30
0.0
 10
1865.89013671875
 20
1487.68896484375
 30
0.0
 10
1865.89013671875
 20
1479.4052734375
 30
0.0
 40
0.0
 40
0.0
 40
0.0
 40
0.0
 40
4.0
 40
4.0
 40
4.0
 40
4.0
  0
SPLINE
  5
87
100
AcDbEntity
  8
mainlayer
 62
5
370
-1
 48
1.0
  6
BYLAYER
100
AcDbSpline
 70
8
 71
3
 72
8
 73
4
 74
0
 10
1865.89013671875
 20
1479.4052734375
 30
0.0
 10
1865.8901367187504547
 20
1471.1215820312502274
 30
0.0
 10
1859.1748046875
 20
1464.40625
 30
0.0
 10
1850.89111328125
 20
1464.40625
 30
0.0
 40
0.0
 40
0.0
 40
0.0
 40
0.0
 40
4.0
 40
4.0
 40
4.0
 40
4.0
  0
SPLINE
  5
88
100
AcDbEntity
  8
mainlayer
 62
5
370
-1
 48
1.0
  6
BYLAYER
100
AcDbSpline
 70
8
 71
3
 72
8
 73
4
 74
0
 10
1850.89111328125
 20
1464.40625
 30
0.0
 10
1842.6074218750002274
 20
1464.4062500000002274
 30
0.0
 10
1835.8920898437497726
 20
1471.12158203125
 30
0.0
 10
1835.89208984375
 20
1479.4052734375
 30
0.0
 40
0.0
 40
0.0
 40
0.0
 40
0.0
 40
4.0
 40
4.0
 40
4.0
 40
4.0
  0
SPLINE
  5
89
100
AcDbEntity
  8
mainlayer
 62
5
370
-1
 48
1.0
  6
BYLAYER
100
AcDbSpline
 70
8
 71
3
 72
8
 73
4
 74
0
 10
1593.105712890625
 20
1543.0810546875
 30
0.0
 10
1593.1057128906252274
 20
1551.3676757812504547
 30
0.0
 10
1599.8232421875
 20
1558.08544921875
 30
0.0
 10
1608.10986328125
 20
1558.08544921875
 30
0.0
 40
0.0
 40
0.0
 40
0.0
 40
0.0
 40
4.0
 40
4.0
 40
4.0
 40
4.0
  0
SPLINE
  5
8A
100
AcDbEntity
  8
mainlayer
 62
5
370
-1
 48
1.0
  6
BYLAYER
100
AcDbSpline
 70
8
 71
3
 72
8
 73
4
 74
0
 10
1608.10986328125
 20
1558.08544921875
 30
0.0
 10
1616.3964843750004547
 20
1558.0854492187504547
 30
0.0
 10
1623.114013671875
 20
1551.36767578125
 30
0.0
 10
1623.114013671875
 20
1543.0810546875
 30
0.0
 40
0.0
 40
0.0
 40
0.0
 40
0.0
 40
4.0
 40
4.0
 40
4.0
 40
4.0
  0
SPLINE
  5
8B
100
AcDbEntity
  8
mainlayer
 62
5
370
-1
 48
1.0
  6
BYLAYER
100
AcDbSpline
 70
8
 71
3
 72
8
 73
4
 74
0
 10
1623.114013671875
 20
1543.0810546875
 30
0.0
 10
1623.1140136718752274
 20
1534.7949218750004547
 30
0.0
 10
1616.396484375
 20
1528.0771484375
 30
0.0
 10
1608.10986328125
 20
1528.0771484375
 30
0.0
 40
0.0
 40
0.0
 40
0.0
 40
0.0
 40
4.0
 40
4.0
 40
4.0
 40
4.0
  0
SPLINE
  5
8C
100
AcDbEntity
  8
mainlayer
 62
5
370
-1
 48
1.0
  6
BYLAYER
100
AcDbSpline
 70
8
 71
3
 72
8
 73
4
 74
0
 10
1608.10986328125
 20
1528.0771484375
 30
0.0
 10
1599.8232421875002274
 20
1528.0771484375004547
 30
0.0
 10
1593.105712890625
 20
1534.794921875
 30
0.0
 10
1593.105712890625
 20
1543.0810546875
 30
0.0
 40
0.0
 40
0.0
 40
0.0
 40
0.0
 40
4.0
 40
4.0
 40
4.0
 40
4.0
  0
SPLINE
  5
8D
100
AcDbEntity
  8
mainlayer
 62
5
370
-1
 48
1.0
  6
BYLAYER
100
AcDbSpline
 70
8
 71
3
 72
8
 73
4
 74
0
 10
1383.934814453125
 20
1593.572265625
 30
0.0
 10
1383.9348144531252274
 20
1601.8574218750002274
 30
0.0
 10
1390.65087890625
 20
1608.5732421875
 30
0.0
 10
1398.935546875
 20
1608.5732421875
 30
0.0
 40
0.0
 40
0.0
 40
0.0
 40
0.0
 40
4.0
 40
4.0
 40
4.0
 40
4.0
  0
SPLINE
  5
8E
100
AcDbEntity
  8
mainlayer
 62
5
370
-1
 48
1.0
  6
BYLAYER
100
AcDbSpline
 70
8
 71
3
 72
8
 73
4
 74
0
 10
1398.935546875
 20
1608.5732421875
 30
0.0
 10
1407.2202148437504547
 20
1608.5732421875004547
 30
0.0
 10
1413.936279296875
 20
1601.8574218749997726
 30
0.0
 10
1413.936279296875
 20
1593.572265625
 30
0.0
 40
0.0
 40
0.0
 40
0.0
 40
0.0
 40
4.0
 40
4.0
 40
4.0
 40
4.0
  0
SPLINE
  5
8F
100
AcDbEntity
  8
mainlayer
 62
5
370
-1
 48
1.0
  6
BYLAYER
100
AcDbSpline
 70
8
 71
3
 72
8
 73
4
 74
0
 10
1413.936279296875
 20
1593.572265625
 30
0.0
 10
1413.9362792968752274
 20
1585.2875976562502274
 30
0.0
 10
1407.22021484375
 20
1578.57177734375
 30
0.0
 10
1398.935546875
 20
1578.57177734375
 30
0.0
 40
0.0
 40
0.0
 40
0.0
 40
0.0
 40
4.0
 40
4.0
 40
4.0
 40
4.0
  0
SPLINE
  5
90
100
AcDbEntity
  8
mainlayer
 62
5
370
-1
 48
1.0
  6
BYLAYER
100
AcDbSpline
 70
8
 71
3
 72
8
 73
4
 74
0
 10
1398.935546875
 20
1578.57177734375
 30
0.0
 10
1390.6508789062502274
 20
1578.5717773437502274
 30
0.0
 10
1383.9348144531247726
 20
1585.28759765625
 30
0.0
 10
1383.934814453125
 20
1593.572265625
 30
0.0
 40
0.0
 40
0.0
 40
0.0
 40
0.0
 40
4.0
 40
4.0
 40
4.0
 40
4.0
  0
SPLINE
  5
91
100
AcDbEntity
  8
mainlayer
 62
5
370
-1
 48
1.0
  6
BYLAYER
100
AcDbSpline
 70
8
 71
3
 72
8
 73
4
 74
0
 10
1118.94970703125
 20
1683.40185546875
 30
0.0
 10
1118.94970703125
 20
1691.6855468750004547
 30
0.0
 10
1125.6650390625
 20
1698.4008789062497726
 30
0.0
 10
1133.94873046875
 20
1698.40087890625
 30
0.0
 40
0.0
 40
0.0
 40
0.0
 40
0.0
 40
4.0
 40
4.0
 40
4.0
 40
4.0
  0
SPLINE
  5
92
100
AcDbEntity
  8
mainlayer
 62
5
370
-1
 48
1.0
  6
BYLAYER
100
AcDbSpline
 70
8
 71
3
 72
8
 73
4
 74
0
 10
1133.94873046875
 20
1698.40087890625
 30
0.0
 10
1142.2324218750002274
 20
1698.4008789062502274
 30
0.0
 10
1148.94775390625
 20
1691.6855468749997726
 30
0.0
 10
1148.94775390625
 20
1683.40185546875
 30
0.0
 40
0.0
 40
0.0
 40
0.0
 40
0.0
 40
4.0
 40
4.0
 40
4.0
 40
4.0
  0
SPLINE
  5
93
100
AcDbEntity
  8
mainlayer
 62
5
370
-1
 48
1.0
  6
BYLAYER
100
AcDbSpline
 70
8
 71
3
 72
8
 73
4
 74
0
 10
1148.94775390625
 20
1683.40185546875
 30
0.0
 10
1148.9477539062502274
 20
1675.1181640625002274
 30
0.0
 10
1142.232421875
 20
1668.4028320312497726
 30
0.0
 10
1133.94873046875
 20
1668.40283203125
 30
0.0
 40
0.0
 40
0.0
 40
0.0
 40
0.0
 40
4.0
 40
4.0
 40
4.0
 40
4.0
  0
SPLINE
  5
94
100
AcDbEntity
  8
mainlayer
 62
5
370
-1
 48
1.0
  6
BYLAYER
100
AcDbSpline
 70
8
 71
3
 72
8
 73
4
 74
0
 10
1133.94873046875
 20
1668.40283203125
 30
0.0
 10
1125.6650390625004547
 20
1668.4028320312506821
 30
0.0
 10
1118.94970703125
 20
1675.1181640624997726
 30
0.0
 10
1118.94970703125
 20
1683.40185546875
 30
0.0
 40
0.0
 40
0.0
 40
0.0
 40
0.0
 40
4.0
 40
4.0
 40
4.0
 40
4.0
  0
SPLINE
  5
95
100
AcDbEntity
  8
mainlayer
 62
5
370
-1
 48
1.0
  6
BYLAYER
100
AcDbSpline
 70
8
 71
3
 72
8
 73
4
 74
0
 10
800.17822265625
 20
1793.01806640625
 30
0.0
 10
800.1782226562501137
 20
1801.3027343750006821
 30
0.0
 10
806.89404296875
 20
1808.0185546875
 30
0.0
 10
815.178466796875
 20
1808.0185546875
 30
0.0
 40
0.0
 40
0.0
 40
0.0
 40
0.0
 40
4.0
 40
4.0
 40
4.0
 40
4.0
  0
SPLINE
  5
96
100
AcDbEntity
  8
mainlayer
 62
5
370
-1
 48
1.0
  6
BYLAYER
100
AcDbSpline
 70
8
 71
3
 72
8
 73
4
 74
0
 10
815.178466796875
 20
1808.0185546875
 30
0.0
 10
823.4628906250002274
 20
1808.0185546875002274
 30
0.0
 10
830.1787109375
 20
1801.3027343749997726
 30
0.0
 10
830.1787109375
 20
1793.01806640625
 30
0.0
 40
0.0
 40
0.0
 40
0.0
 40
0.0
 40
4.0
 40
4.0
 40
4.0
 40
4.0
  0
SPLINE
  5
97
100
AcDbEntity
  8
mainlayer
 62
5
370
-1
 48
1.0
  6
BYLAYER
100
AcDbSpline
 70
8
 71
3
 72
8
 73
4
 74
0
 10
830.1787109375
 20
1793.01806640625
 30
0.0
 10
830.1787109375001137
 20
1784.7333984375004547
 30
0.0
 10
823.462890625
 20
1778.0175781250002274
 30
0.0
 10
815.178466796875
 20
1778.017578125
 30
0.0
 40
0.0
 40
0.0
 40
0.0
 40
0.0
 40
4.0
 40
4.0
 40
4.0
 40
4.0
  0
SPLINE
  5
98
100
AcDbEntity
  8
mainlayer
 62
5
370
-1
 48
1.0
  6
BYLAYER
100
AcDbSpline
 70
8
 71
3
 72
8
 73
4
 74
0
 10
815.178466796875
 20
1778.017578125
 30
0.0
 10
806.8940429687501137
 20
1778.0175781250002274
 30
0.0
 10
800.17822265625
 20
1784.7333984374997726
 30
0.0
 10
800.17822265625
 20
1793.01806640625
 30
0.0
 40
0.0
 40
0.0
 40
0.0
 40
0.0
 40
4.0
 40
4.0
 40
4.0
 40
4.0
  0
SPLINE
  5
99
100
AcDbEntity
  8
mainlayer
 62
5
370
-1
 48
1.0
  6
BYLAYER
100
AcDbSpline
 70
8
 71
3
 72
8
 73
4
 74
0
 10
991.90234375
 20
1460.796875
 30
0.0
 10
991.9023437500002274
 20
1469.0820312500004547
 30
0.0
 10
998.6186523437498863
 20
1475.79833984375
 30
0.0
 10
1006.90380859375
 20
1475.79833984375
 30
0.0
 40
0.0
 40
0.0
 40
0.0
 40
0.0
 40
4.0
 40
4.0
 40
4.0
 40
4.0
  0
SPLINE
  5
9A
100
AcDbEntity
  8
mainlayer
 62
5
370
-1
 48
1.0
  6
BYLAYER
100
AcDbSpline
 70
8
 71
3
 72
8
 73
4
 74
0
 10
1006.90380859375
 20
1475.79833984375
 30
0.0
 10
1015.1889648437502274
 20
1475.7983398437504547
 30
0.0
 10
1021.9052734374998863
 20
1469.0820312499997726
 30
0.0
 10
1021.9052734375
 20
1460.796875
 30
0.0
 40
0.0
 40
0.0
 40
0.0
 40
0.0
 40
4.0
 40
4.0
 40
4.0
 40
4.0
  0
SPLINE
  5
9B
100
AcDbEntity
  8
mainlayer
 62
5
370
-1
 48
1.0
  6
BYLAYER
100
AcDbSpline
 70
8
 71
3
 72
8
 73
4
 74
0
 10
1021.9052734375
 20
1460.796875
 30
0.0
 10
1021.9052734375001137
 20
1452.5117187500002274
 30
0.0
 10
1015.18896484375
 20
1445.79541015625
 30
0.0
 10
1006.90380859375
 20
1445.79541015625
 30
0.0
 40
0.0
 40
0.0
 40
0.0
 40
0.0
 40
4.0
 40
4.0
 40
4.0
 40
4.0
  0
SPLINE
  5
9C
100
AcDbEntity
  8
mainlayer
 62
5
370
-1
 48
1.0
  6
BYLAYER
100
AcDbSpline
 70
8
 71
3
 72
8
 73
4
 74
0
 10
1006.90380859375
 20
1445.79541015625
 30
0.0
 10
998.6186523437503411
 20
1445.7954101562502274
 30
0.0
 10
991.90234375
 20
1452.51171875
 30
0.0
 10
991.90234375
 20
1460.796875
 30
0.0
 40
0.0
 40
0.0
 40
0.0
 40
0.0
 40
4.0
 40
4.0
 40
4.0
 40
4.0
  0
SPLINE
  5
9D
100
AcDbEntity
  8
mainlayer
 62
5
370
-1
 48
1.0
  6
BYLAYER
100
AcDbSpline
 70
8
 71
3
 72
8
 73
4
 74
0
 10
863.440185546875
 20
1301.2509765625
 30
0.0
 10
863.4401855468751137
 20
1309.5346679687504547
 30
0.0
 10
870.15576171875
 20
1316.25048828125
 30
0.0
 10
878.43994140625
 20
1316.25048828125
 30
0.0
 40
0.0
 40
0.0
 40
0.0
 40
0.0
 40
4.0
 40
4.0
 40
4.0
 40
4.0
  0
SPLINE
  5
9E
100
AcDbEntity
  8
mainlayer
 62
5
370
-1
 48
1.0
  6
BYLAYER
100
AcDbSpline
 70
8
 71
3
 72
8
 73
4
 74
0
 10
878.43994140625
 20
1316.25048828125
 30
0.0
 10
886.7241210937502274
 20
1316.2504882812502274
 30
0.0
 10
893.439697265625
 20
1309.53466796875
 30
0.0
 10
893.439697265625
 20
1301.2509765625
 30
0.0
 40
0.0
 40
0.0
 40
0.0
 40
0.0
 40
4.0
 40
4.0
 40
4.0
 40
4.0
  0
SPLINE
  5
9F
100
AcDbEntity
  8
mainlayer
 62
5
370
-1
 48
1.0
  6
BYLAYER
100
AcDbSpline
 70
8
 71
3
 72
8
 73
4
 74
0
 10
893.439697265625
 20
1301.2509765625
 30
0.0
 10
893.4396972656252274
 20
1292.9667968750002274
 30
0.0
 10
886.72412109375
 20
1286.2509765625
 30
0.0
 10
878.43994140625
 20
1286.2509765625
 30
0.0
 40
0.0
 40
0.0
 40
0.0
 40
0.0
 40
4.0
 40
4.0
 40
4.0
 40
4.0
  0
SPLINE
  5
A0
100
AcDbEntity
  8
mainlayer
 62
5
370
-1
 48
1.0
  6
BYLAYER
100
AcDbSpline
 70
8
 71
3
 72
8
 73
4
 74
0
 10
878.43994140625
 20
1286.2509765625
 30
0.0
 10
870.1557617187503411
 20
1286.2509765625002274
 30
0.0
 10
863.440185546875
 20
1292.966796875
 30
0.0
 10
863.440185546875
 20
1301.2509765625
 30
0.0
 40
0.0
 40
0.0
 40
0.0
 40
0.0
 40
4.0
 40
4.0
 40
4.0
 40
4.0
  0
SPLINE
  5
A1
100
AcDbEntity
  8
mainlayer
 62
5
370
-1
 48
1.0
  6
BYLAYER
100
AcDbSpline
 70
8
 71
3
 72
8
 73
4
 74
0
 10
1015.00927734375
 20
1147.6376953125
 30
0.0
 10
1015.0092773437502274
 20
1155.9243164062502274
 30
0.0
 10
1021.7268066406248863
 20
1162.6420898437497726
 30
0.0
 10
1030.013427734375
 20
1162.64208984375
 30
0.0
 40
0.0
 40
0.0
 40
0.0
 40
0.0
 40
4.0
 40
4.0
 40
4.0
 40
4.0
  0
SPLINE
  5
A2
100
AcDbEntity
  8
mainlayer
 62
5
370
-1
 48
1.0
  6
BYLAYER
100
AcDbSpline
 70
8
 71
3
 72
8
 73
4
 74
0
 10
1030.013427734375
 20
1162.64208984375
 30
0.0
 10
1038.3000488281254547
 20
1162.6420898437502274
 30
0.0
 10
1045.017578125
 20
1155.92431640625
 30
0.0
 10
1045.017578125
 20
1147.6376953125
 30
0.0
 40
0.0
 40
0.0
 40
0.0
 40
0.0
 40
4.0
 40
4.0
 40
4.0
 40
4.0
  0
SPLINE
  5
A3
100
AcDbEntity
  8
mainlayer
 62
5
370
-1
 48
1.0
  6
BYLAYER
100
AcDbSpline
 70
8
 71
3
 72
8
 73
4
 74
0
 10
1045.017578125
 20
1147.6376953125
 30
0.0
 10
1045.0175781250002274
 20
1139.3515625000002274
 30
0.0
 10
1038.300048828125
 20
1132.6337890625
 30
0.0
 10
1030.013427734375
 20
1132.6337890625
 30
0.0
 40
0.0
 40
0.0
 40
0.0
 40
0.0
 40
4.0
 40
4.0
 40
4.0
 40
4.0
  0
SPLINE
  5
A4
100
AcDbEntity
  8
mainlayer
 62
5
370
-1
 48
1.0
  6
BYLAYER
100
AcDbSpline
 70
8
 71
3
 72
8
 73
4
 74
0
 10
1030.013427734375
 20
1132.6337890625
 30
0.0
 10
1021.7268066406253411
 20
1132.6337890625002274
 30
0.0
 10
1015.0092773437498863
 20
1139.3515625
 30
0.0
 10
1015.00927734375
 20
1147.6376953125
 30
0.0
 40
0.0
 40
0.0
 40
0.0
 40
0.0
 40
4.0
 40
4.0
 40
4.0
 40
4.0
  0
SPLINE
  5
A5
100
AcDbEntity
  8
mainlayer
 62
5
370
-1
 48
1.0
  6
BYLAYER
100
AcDbSpline
 70
8
 71
3
 72
8
 73
4
 74
0
 10
1160.075439453125
 20
1178.3935546875
 30
0.0
 10
1160.0754394531252274
 20
1186.6787109375002274
 30
0.0
 10
1166.7919921874997726
 20
1193.39501953125
 30
0.0
 10
1175.077392578125
 20
1193.39501953125
 30
0.0
 40
0.0
 40
0.0
 40
0.0
 40
0.0
 40
4.0
 40
4.0
 40
4.0
 40
4.0
  0
SPLINE
  5
A6
100
AcDbEntity
  8
mainlayer
 62
5
370
-1
 48
1.0
  6
BYLAYER
100
AcDbSpline
 70
8
 71
3
 72
8
 73
4
 74
0
 10
1175.077392578125
 20
1193.39501953125
 30
0.0
 10
1183.3627929687504547
 20
1193.3950195312502274
 30
0.0
 10
1190.079345703125
 20
1186.6787109375
 30
0.0
 10
1190.079345703125
 20
1178.3935546875
 30
0.0
 40
0.0
 40
0.0
 40
0.0
 40
0.0
 40
4.0
 40
4.0
 40
4.0
 40
4.0
  0
SPLINE
  5
A7
100
AcDbEntity
  8
mainlayer
 62
5
370
-1
 48
1.0
  6
BYLAYER
100
AcDbSpline
 70
8
 71
3
 72
8
 73
4
 74
0
 10
1190.079345703125
 20
1178.3935546875
 30
0.0
 10
1190.0793457031252274
 20
1170.1079101562502274
 30
0.0
 10
1183.36279296875
 20
1163.3916015625
 30
0.0
 10
1175.077392578125
 20
1163.3916015625
 30
0.0
 40
0.0
 40
0.0
 40
0.0
 40
0.0
 40
4.0
 40
4.0
 40
4.0
 40
4.0
  0
SPLINE
  5
A8
100
AcDbEntity
  8
mainlayer
 62
5
370
-1
 48
1.0
  6
BYLAYER
100
AcDbSpline
 70
8
 71
3
 72
8
 73
4
 74
0
 10
1175.077392578125
 20
1163.3916015625
 30
0.0
 10
1166.7919921875002274
 20
1163.3916015625004547
 30
0.0
 10
1160.075439453125
 20
1170.10791015625
 30
0.0
 10
1160.075439453125
 20
1178.3935546875
 30
0.0
 40
0.0
 40
0.0
 40
0.0
 40
0.0
 40
4.0
 40
4.0
 40
4.0
 40
4.0
  0
SPLINE
  5
A9
100
AcDbEntity
  8
mainlayer
 62
5
370
-1
 48
1.0
  6
BYLAYER
100
AcDbSpline
 70
8
 71
3
 72
8
 73
4
 74
0
 10
1244.568359375
 20
969.14697265625
 30
0.0
 10
1244.568359375
 20
977.4335937500002274
 30
0.0
 10
1251.2858886718747726
 20
984.1513671875
 30
0.0
 10
1259.572509765625
 20
984.1513671875
 30
0.0
 40
0.0
 40
0.0
 40
0.0
 40
0.0
 40
4.0
 40
4.0
 40
4.0
 40
4.0
  0
SPLINE
  5
AA
100
AcDbEntity
  8
mainlayer
 62
5
370
-1
 48
1.0
  6
BYLAYER
100
AcDbSpline
 70
8
 71
3
 72
8
 73
4
 74
0
 10
1259.572509765625
 20
984.1513671875
 30
0.0
 10
1267.8591308593754547
 20
984.1513671875001137
 30
0.0
 10
1274.57666015625
 20
977.43359375
 30
0.0
 10
1274.57666015625
 20
969.14697265625
 30
0.0
 40
0.0
 40
0.0
 40
0.0
 40
0.0
 40
4.0
 40
4.0
 40
4.0
 40
4.0
  0
SPLINE
  5
AB
100
AcDbEntity
  8
mainlayer
 62
5
370
-1
 48
1.0
  6
BYLAYER
100
AcDbSpline
 70
8
 71
3
 72
8
 73
4
 74
0
 10
1274.57666015625
 20
969.14697265625
 30
0.0
 10
1274.5766601562502274
 20
960.8603515625002274
 30
0.0
 10
1267.859130859375
 20
954.1425781249998863
 30
0.0
 10
1259.572509765625
 20
954.142578125
 30
0.0
 40
0.0
 40
0.0
 40
0.0
 40
0.0
 40
4.0
 40
4.0
 40
4.0
 40
4.0
  0
SPLINE
  5
AC
100
AcDbEntity
  8
mainlayer
 62
5
370
-1
 48
1.0
  6
BYLAYER
100
AcDbSpline
 70
8
 71
3
 72
8
 73
4
 74
0
 10
1259.572509765625
 20
954.142578125
 30
0.0
 10
1251.2858886718752274
 20
954.1425781250001137
 30
0.0
 10
1244.568359375
 20
960.8603515625001137
 30
0.0
 10
1244.568359375
 20
969.14697265625
 30
0.0
 40
0.0
 40
0.0
 40
0.0
 40
0.0
 40
4.0
 40
4.0
 40
4.0
 40
4.0
  0
SPLINE
  5
AD
100
AcDbEntity
  8
mainlayer
 62
5
370
-1
 48
1.0
  6
BYLAYER
100
AcDbSpline
 70
8
 71
3
 72
8
 73
4
 74
0
 10
1326.640625
 20
1377.46435546875
 30
0.0
 10
1326.6406250000002274
 20
1385.7500000000002274
 30
0.0
 10
1333.3574218750002274
 20
1392.466796875
 30
0.0
 10
1341.64306640625
 20
1392.466796875
 30
0.0
 40
0.0
 40
0.0
 40
0.0
 40
0.0
 40
4.0
 40
4.0
 40
4.0
 40
4.0
  0
SPLINE
  5
AE
100
AcDbEntity
  8
mainlayer
 62
5
370
-1
 48
1.0
  6
BYLAYER
100
AcDbSpline
 70
8
 71
3
 72
8
 73
4
 74
0
 10
1341.64306640625
 20
1392.466796875
 30
0.0
 10
1349.9287109375002274
 20
1392.4667968750002274
 30
0.0
 10
1356.6455078124997726
 20
1385.75
 30
0.0
 10
1356.6455078125
 20
1377.46435546875
 30
0.0
 40
0.0
 40
0.0
 40
0.0
 40
0.0
 40
4.0
 40
4.0
 40
4.0
 40
4.0
  0
SPLINE
  5
AF
100
AcDbEntity
  8
mainlayer
 62
5
370
-1
 48
1.0
  6
BYLAYER
100
AcDbSpline
 70
8
 71
3
 72
8
 73
4
 74
0
 10
1356.6455078125
 20
1377.46435546875
 30
0.0
 10
1356.6455078125002274
 20
1369.1787109375002274
 30
0.0
 10
1349.9287109375
 20
1362.4619140625
 30
0.0
 10
1341.64306640625
 20
1362.4619140625
 30
0.0
 40
0.0
 40
0.0
 40
0.0
 40
0.0
 40
4.0
 40
4.0
 40
4.0
 40
4.0
  0
SPLINE
  5
B0
100
AcDbEntity
  8
mainlayer
 62
5
370
-1
 48
1.0
  6
BYLAYER
100
AcDbSpline
 70
8
 71
3
 72
8
 73
4
 74
0
 10
1341.64306640625
 20
1362.4619140625
 30
0.0
 10
1333.3574218750002274
 20
1362.4619140625002274
 30
0.0
 10
1326.640625
 20
1369.1787109375
 30
0.0
 10
1326.640625
 20
1377.46435546875
 30
0.0
 40
0.0
 40
0.0
 40
0.0
 40
0.0
 40
4.0
 40
4.0
 40
4.0
 40
4.0
  0
SPLINE
  5
B1
100
AcDbEntity
  8
mainlayer
 62
5
370
-1
 48
1.0
  6
BYLAYER
100
AcDbSpline
 70
8
 71
3
 72
8
 73
4
 74
0
 10
1347.159423828125
 20
1313.11376953125
 30
0.0
 10
1347.1594238281252274
 20
1321.39794921875
 30
0.0
 10
1353.8752441406247726
 20
1328.1137695312497726
 30
0.0
 10
1362.159423828125
 20
1328.11376953125
 30
0.0
 40
0.0
 40
0.0
 40
0.0
 40
0.0
 40
4.0
 40
4.0
 40
4.0
 40
4.0
  0
SPLINE
  5
B2
100
AcDbEntity
  8
mainlayer
 62
5
370
-1
 48
1.0
  6
BYLAYER
100
AcDbSpline
 70
8
 71
3
 72
8
 73
4
 74
0
 10
1362.159423828125
 20
1328.11376953125
 30
0.0
 10
1370.4436035156252274
 20
1328.1137695312504547
 30
0.0
 10
1377.159423828125
 20
1321.39794921875
 30
0.0
 10
1377.159423828125
 20
1313.11376953125
 30
0.0
 40
0.0
 40
0.0
 40
0.0
 40
0.0
 40
4.0
 40
4.0
 40
4.0
 40
4.0
  0
SPLINE
  5
B3
100
AcDbEntity
  8
mainlayer
 62
5
370
-1
 48
1.0
  6
BYLAYER
100
AcDbSpline
 70
8
 71
3
 72
8
 73
4
 74
0
 10
1377.159423828125
 20
1313.11376953125
 30
0.0
 10
1377.1594238281252274
 20
1304.82958984375
 30
0.0
 10
1370.4436035156247726
 20
1298.11376953125
 30
0.0
 10
1362.159423828125
 20
1298.11376953125
 30
0.0
 40
0.0
 40
0.0
 40
0.0
 40
0.0
 40
4.0
 40
4.0
 40
4.0
 40
4.0
  0
SPLINE
  5
B4
100
AcDbEntity
  8
mainlayer
 62
5
370
-1
 48
1.0
  6
BYLAYER
100
AcDbSpline
 70
8
 71
3
 72
8
 73
4
 74
0
 10
1362.159423828125
 20
1298.11376953125
 30
0.0
 10
1353.8752441406254547
 20
1298.1137695312504547
 30
0.0
 10
1347.159423828125
 20
1304.82958984375
 30
0.0
 10
1347.159423828125
 20
1313.11376953125
 30
0.0
 40
0.0
 40
0.0
 40
0.0
 40
0.0
 40
4.0
 40
4.0
 40
4.0
 40
4.0
  0
SPLINE
  5
B5
100
AcDbEntity
  8
mainlayer
 62
5
370
-1
 48
1.0
  6
BYLAYER
100
AcDbSpline
 70
8
 71
3
 72
8
 73
4
 74
0
 10
1349.718017578125
 20
1230.41064453125
 30
0.0
 10
1349.7180175781252274
 20
1238.69482421875
 30
0.0
 10
1356.43359375
 20
1245.41064453125
 30
0.0
 10
1364.718017578125
 20
1245.41064453125
 30
0.0
 40
0.0
 40
0.0
 40
0.0
 40
0.0
 40
4.0
 40
4.0
 40
4.0
 40
4.0
  0
SPLINE
  5
B6
100
AcDbEntity
  8
mainlayer
 62
5
370
-1
 48
1.0
  6
BYLAYER
100
AcDbSpline
 70
8
 71
3
 72
8
 73
4
 74
0
 10
1364.718017578125
 20
1245.41064453125
 30
0.0
 10
1373.0024414062502274
 20
1245.4106445312504547
 30
0.0
 10
1379.718017578125
 20
1238.69482421875
 30
0.0
 10
1379.718017578125
 20
1230.41064453125
 30
0.0
 40
0.0
 40
0.0
 40
0.0
 40
0.0
 40
4.0
 40
4.0
 40
4.0
 40
4.0
  0
SPLINE
  5
B7
100
AcDbEntity
  8
mainlayer
 62
5
370
-1
 48
1.0
  6
BYLAYER
100
AcDbSpline
 70
8
 71
3
 72
8
 73
4
 74
0
 10
1379.718017578125
 20
1230.41064453125
 30
0.0
 10
1379.7180175781254547
 20
1222.1264648437502274
 30
0.0
 10
1373.00244140625
 20
1215.41064453125
 30
0.0
 10
1364.718017578125
 20
1215.41064453125
 30
0.0
 40
0.0
 40
0.0
 40
0.0
 40
0.0
 40
4.0
 40
4.0
 40
4.0
 40
4.0
  0
SPLINE
  5
B8
100
AcDbEntity
  8
mainlayer
 62
5
370
-1
 48
1.0
  6
BYLAYER
100
AcDbSpline
 70
8
 71
3
 72
8
 73
4
 74
0
 10
1364.718017578125
 20
1215.41064453125
 30
0.0
 10
1356.4335937500002274
 20
1215.4106445312502274
 30
0.0
 10
1349.718017578125
 20
1222.1264648437497726
 30
0.0
 10
1349.718017578125
 20
1230.41064453125
 30
0.0
 40
0.0
 40
0.0
 40
0.0
 40
0.0
 40
4.0
 40
4.0
 40
4.0
 40
4.0
  0
SPLINE
  5
B9
100
AcDbEntity
  8
mainlayer
 62
5
370
-1
 48
1.0
  6
BYLAYER
100
AcDbSpline
 70
8
 71
3
 72
8
 73
4
 74
0
 10
1593.137451171875
 20
1356.2314453125
 30
0.0
 10
1593.1374511718752274
 20
1364.5156250000002274
 30
0.0
 10
1599.8532714843747726
 20
1371.2314453125
 30
0.0
 10
1608.1376953125
 20
1371.2314453125
 30
0.0
 40
0.0
 40
0.0
 40
0.0
 40
0.0
 40
4.0
 40
4.0
 40
4.0
 40
4.0
  0
SPLINE
  5
BA
100
AcDbEntity
  8
mainlayer
 62
5
370
-1
 48
1.0
  6
BYLAYER
100
AcDbSpline
 70
8
 71
3
 72
8
 73
4
 74
0
 10
1608.1376953125
 20
1371.2314453125
 30
0.0
 10
1616.4221191406252274
 20
1371.2314453125002274
 30
0.0
 10
1623.137939453125
 20
1364.5156249999997726
 30
0.0
 10
1623.137939453125
 20
1356.2314453125
 30
0.0
 40
0.0
 40
0.0
 40
0.0
 40
0.0
 40
4.0
 40
4.0
 40
4.0
 40
4.0
  0
SPLINE
  5
BB
100
AcDbEntity
  8
mainlayer
 62
5
370
-1
 48
1.0
  6
BYLAYER
100
AcDbSpline
 70
8
 71
3
 72
8
 73
4
 74
0
 10
1623.137939453125
 20
1356.2314453125
 30
0.0
 10
1623.1379394531254547
 20
1347.9467773437502274
 30
0.0
 10
1616.422119140625
 20
1341.23095703125
 30
0.0
 10
1608.1376953125
 20
1341.23095703125
 30
0.0
 40
0.0
 40
0.0
 40
0.0
 40
0.0
 40
4.0
 40
4.0
 40
4.0
 40
4.0
  0
SPLINE
  5
BC
100
AcDbEntity
  8
mainlayer
 62
5
370
-1
 48
1.0
  6
BYLAYER
100
AcDbSpline
 70
8
 71
3
 72
8
 73
4
 74
0
 10
1608.1376953125
 20
1341.23095703125
 30
0.0
 10
1599.8532714843754547
 20
1341.2309570312502274
 30
0.0
 10
1593.137451171875
 20
1347.94677734375
 30
0.0
 10
1593.137451171875
 20
1356.2314453125
 30
0.0
 40
0.0
 40
0.0
 40
0.0
 40
0.0
 40
4.0
 40
4.0
 40
4.0
 40
4.0
  0
SPLINE
  5
BD
100
AcDbEntity
  8
mainlayer
 62
5
370
-1
 48
1.0
  6
BYLAYER
100
AcDbSpline
 70
8
 71
3
 72
8
 73
4
 74
0
 10
1533.702880859375
 20
1311.35498046875
 30
0.0
 10
1533.7028808593752274
 20
1319.6406250000002274
 30
0.0
 10
1540.419677734375
 20
1326.3569335937502274
 30
0.0
 10
1548.705078125
 20
1326.35693359375
 30
0.0
 40
0.0
 40
0.0
 40
0.0
 40
0.0
 40
4.0
 40
4.0
 40
4.0
 40
4.0
  0
SPLINE
  5
BE
100
AcDbEntity
  8
mainlayer
 62
5
370
-1
 48
1.0
  6
BYLAYER
100
AcDbSpline
 70
8
 71
3
 72
8
 73
4
 74
0
 10
1548.705078125
 20
1326.35693359375
 30
0.0
 10
1556.9904785156254547
 20
1326.3569335937502274
 30
0.0
 10
1563.7072753906247726
 20
1319.6406249999997726
 30
0.0
 10
1563.707275390625
 20
1311.35498046875
 30
0.0
 40
0.0
 40
0.0
 40
0.0
 40
0.0
 40
4.0
 40
4.0
 40
4.0
 40
4.0
  0
SPLINE
  5
BF
100
AcDbEntity
  8
mainlayer
 62
5
370
-1
 48
1.0
  6
BYLAYER
100
AcDbSpline
 70
8
 71
3
 72
8
 73
4
 74
0
 10
1563.707275390625
 20
1311.35498046875
 30
0.0
 10
1563.7072753906254547
 20
1303.0693359375002274
 30
0.0
 10
1556.990478515625
 20
1296.35302734375
 30
0.0
 10
1548.705078125
 20
1296.35302734375
 30
0.0
 40
0.0
 40
0.0
 40
0.0
 40
0.0
 40
4.0
 40
4.0
 40
4.0
 40
4.0
  0
SPLINE
  5
C0
100
AcDbEntity
  8
mainlayer
 62
5
370
-1
 48
1.0
  6
BYLAYER
100
AcDbSpline
 70
8
 71
3
 72
8
 73
4
 74
0
 10
1548.705078125
 20
1296.35302734375
 30
0.0
 10
1540.4196777343752274
 20
1296.3530273437502274
 30
0.0
 10
1533.702880859375
 20
1303.0693359375
 30
0.0
 10
1533.702880859375
 20
1311.35498046875
 30
0.0
 40
0.0
 40
0.0
 40
0.0
 40
0.0
 40
4.0
 40
4.0
 40
4.0
 40
4.0
  0
SPLINE
  5
C1
100
AcDbEntity
  8
mainlayer
 62
5
370
-1
 48
1.0
  6
BYLAYER
100
AcDbSpline
 70
8
 71
3
 72
8
 73
4
 74
0
 10
1593.310546875
 20
1248.29052734375
 30
0.0
 10
1593.3105468750002274
 20
1256.5756835937502274
 30
0.0
 10
1600.027099609375
 20
1263.29248046875
 30
0.0
 10
1608.3125
 20
1263.29248046875
 30
0.0
 40
0.0
 40
0.0
 40
0.0
 40
0.0
 40
4.0
 40
4.0
 40
4.0
 40
4.0
  0
SPLINE
  5
C2
100
AcDbEntity
  8
mainlayer
 62
5
370
-1
 48
1.0
  6
BYLAYER
100
AcDbSpline
 70
8
 71
3
 72
8
 73
4
 74
0
 10
1608.3125
 20
1263.29248046875
 30
0.0
 10
1616.5979003906252274
 20
1263.2924804687504547
 30
0.0
 10
1623.314453125
 20
1256.57568359375
 30
0.0
 10
1623.314453125
 20
1248.29052734375
 30
0.0
 40
0.0
 40
0.0
 40
0.0
 40
0.0
 40
4.0
 40
4.0
 40
4.0
 40
4.0
  0
SPLINE
  5
C3
100
AcDbEntity
  8
mainlayer
 62
5
370
-1
 48
1.0
  6
BYLAYER
100
AcDbSpline
 70
8
 71
3
 72
8
 73
4
 74
0
 10
1623.314453125
 20
1248.29052734375
 30
0.0
 10
1623.3144531250002274
 20
1240.0053710937502274
 30
0.0
 10
1616.597900390625
 20
1233.28857421875
 30
0.0
 10
1608.3125
 20
1233.28857421875
 30
0.0
 40
0.0
 40
0.0
 40
0.0
 40
0.0
 40
4.0
 40
4.0
 40
4.0
 40
4.0
  0
SPLINE
  5
C4
100
AcDbEntity
  8
mainlayer
 62
5
370
-1
 48
1.0
  6
BYLAYER
100
AcDbSpline
 70
8
 71
3
 72
8
 73
4
 74
0
 10
1608.3125
 20
1233.28857421875
 30
0.0
 10
1600.0270996093752274
 20
1233.2885742187502274
 30
0.0
 10
1593.310546875
 20
1240.00537109375
 30
0.0
 10
1593.310546875
 20
1248.29052734375
 30
0.0
 40
0.0
 40
0.0
 40
0.0
 40
0.0
 40
4.0
 40
4.0
 40
4.0
 40
4.0
  0
SPLINE
  5
C5
100
AcDbEntity
  8
mainlayer
 62
5
370
-1
 48
1.0
  6
BYLAYER
100
AcDbSpline
 70
8
 71
3
 72
8
 73
4
 74
0
 10
1837.718994140625
 20
1166.44921875
 30
0.0
 10
1837.7189941406252274
 20
1174.7333984375004547
 30
0.0
 10
1844.4345703125
 20
1181.44921875
 30
0.0
 10
1852.71875
 20
1181.44921875
 30
0.0
 40
0.0
 40
0.0
 40
0.0
 40
0.0
 40
4.0
 40
4.0
 40
4.0
 40
4.0
  0
SPLINE
  5
C6
100
AcDbEntity
  8
mainlayer
 62
5
370
-1
 48
1.0
  6
BYLAYER
100
AcDbSpline
 70
8
 71
3
 72
8
 73
4
 74
0
 10
1852.71875
 20
1181.44921875
 30
0.0
 10
1861.0029296875004547
 20
1181.4492187500002274
 30
0.0
 10
1867.718505859375
 20
1174.7333984375
 30
0.0
 10
1867.718505859375
 20
1166.44921875
 30
0.0
 40
0.0
 40
0.0
 40
0.0
 40
0.0
 40
4.0
 40
4.0
 40
4.0
 40
4.0
  0
SPLINE
  5
C7
100
AcDbEntity
  8
mainlayer
 62
5
370
-1
 48
1.0
  6
BYLAYER
100
AcDbSpline
 70
8
 71
3
 72
8
 73
4
 74
0
 10
1867.718505859375
 20
1166.44921875
 30
0.0
 10
1867.7185058593754547
 20
1158.1655273437502274
 30
0.0
 10
1861.0029296875
 20
1151.44970703125
 30
0.0
 10
1852.71875
 20
1151.44970703125
 30
0.0
 40
0.0
 40
0.0
 40
0.0
 40
0.0
 40
4.0
 40
4.0
 40
4.0
 40
4.0
  0
SPLINE
  5
C8
100
AcDbEntity
  8
mainlayer
 62
5
370
-1
 48
1.0
  6
BYLAYER
100
AcDbSpline
 70
8
 71
3
 72
8
 73
4
 74
0
 10
1852.71875
 20
1151.44970703125
 30
0.0
 10
1844.4345703125004547
 20
1151.4497070312502274
 30
0.0
 10
1837.718994140625
 20
1158.16552734375
 30
0.0
 10
1837.718994140625
 20
1166.44921875
 30
0.0
 40
0.0
 40
0.0
 40
0.0
 40
0.0
 40
4.0
 40
4.0
 40
4.0
 40
4.0
  0
SPLINE
  5
C9
100
AcDbEntity
  8
mainlayer
 62
5
370
-1
 48
1.0
  6
BYLAYER
100
AcDbSpline
 70
8
 71
3
 72
8
 73
4
 74
0
 10
1842.07470703125
 20
1013.45556640625
 30
0.0
 10
1842.0747070312502274
 20
1021.7402343750002274
 30
0.0
 10
1848.790771484375
 20
1028.4560546875
 30
0.0
 10
1857.0751953125
 20
1028.4560546875
 30
0.0
 40
0.0
 40
0.0
 40
0.0
 40
0.0
 40
4.0
 40
4.0
 40
4.0
 40
4.0
  0
SPLINE
  5
CA
100
AcDbEntity
  8
mainlayer
 62
5
370
-1
 48
1.0
  6
BYLAYER
100
AcDbSpline
 70
8
 71
3
 72
8
 73
4
 74
0
 10
1857.0751953125
 20
1028.4560546875
 30
0.0
 10
1865.359619140625
 20
1028.4560546875002274
 30
0.0
 10
1872.07568359375
 20
1021.7402343749998863
 30
0.0
 10
1872.07568359375
 20
1013.45556640625
 30
0.0
 40
0.0
 40
0.0
 40
0.0
 40
0.0
 40
4.0
 40
4.0
 40
4.0
 40
4.0
  0
SPLINE
  5
CB
100
AcDbEntity
  8
mainlayer
 62
5
370
-1
 48
1.0
  6
BYLAYER
100
AcDbSpline
 70
8
 71
3
 72
8
 73
4
 74
0
 10
1872.07568359375
 20
1013.45556640625
 30
0.0
 10
1872.0756835937502274
 20
1005.1708984375003411
 30
0.0
 10
1865.3596191406245453
 20
998.455078125
 30
0.0
 10
1857.0751953125
 20
998.455078125
 30
0.0
 40
0.0
 40
0.0
 40
0.0
 40
0.0
 40
4.0
 40
4.0
 40
4.0
 40
4.0
  0
SPLINE
  5
CC
100
AcDbEntity
  8
mainlayer
 62
5
370
-1
 48
1.0
  6
BYLAYER
100
AcDbSpline
 70
8
 71
3
 72
8
 73
4
 74
0
 10
1857.0751953125
 20
998.455078125
 30
0.0
 10
1848.7907714843752274
 20
998.4550781250002274
 30
0.0
 10
1842.0747070312502274
 20
1005.1708984375
 30
0.0
 10
1842.07470703125
 20
1013.45556640625
 30
0.0
 40
0.0
 40
0.0
 40
0.0
 40
0.0
 40
4.0
 40
4.0
 40
4.0
 40
4.0
  0
SPLINE
  5
CD
100
AcDbEntity
  8
mainlayer
 62
5
370
-1
 48
1.0
  6
BYLAYER
100
AcDbSpline
 70
8
 71
3
 72
8
 73
4
 74
0
 10
1678.02978515625
 20
819.0517578125
 30
0.0
 10
1678.0297851562502274
 20
827.3378906250001137
 30
0.0
 10
1684.7470703125
 20
834.05517578125
 30
0.0
 10
1693.033203125
 20
834.05517578125
 30
0.0
 40
0.0
 40
0.0
 40
0.0
 40
0.0
 40
4.0
 40
4.0
 40
4.0
 40
4.0
  0
SPLINE
  5
CE
100
AcDbEntity
  8
mainlayer
 62
5
370
-1
 48
1.0
  6
BYLAYER
100
AcDbSpline
 70
8
 71
3
 72
8
 73
4
 74
0
 10
1693.033203125
 20
834.05517578125
 30
0.0
 10
1701.3193359375002274
 20
834.0551757812501137
 30
0.0
 10
1708.03662109375
 20
827.3378906249998863
 30
0.0
 10
1708.03662109375
 20
819.0517578125
 30
0.0
 40
0.0
 40
0.0
 40
0.0
 40
0.0
 40
4.0
 40
4.0
 40
4.0
 40
4.0
  0
SPLINE
  5
CF
100
AcDbEntity
  8
mainlayer
 62
5
370
-1
 48
1.0
  6
BYLAYER
100
AcDbSpline
 70
8
 71
3
 72
8
 73
4
 74
0
 10
1708.03662109375
 20
819.0517578125
 30
0.0
 10
1708.0366210937504547
 20
810.7656250000002274
 30
0.0
 10
1701.3193359374997726
 20
804.04833984375
 30
0.0
 10
1693.033203125
 20
804.04833984375
 30
0.0
 40
0.0
 40
0.0
 40
0.0
 40
0.0
 40
4.0
 40
4.0
 40
4.0
 40
4.0
  0
SPLINE
  5
D0
100
AcDbEntity
  8
mainlayer
 62
5
370
-1
 48
1.0
  6
BYLAYER
100
AcDbSpline
 70
8
 71
3
 72
8
 73
4
 74
0
 10
1693.033203125
 20
804.04833984375
 30
0.0
 10
1684.7470703125002274
 20
804.0483398437501137
 30
0.0
 10
1678.0297851562497726
 20
810.765625
 30
0.0
 10
1678.02978515625
 20
819.0517578125
 30
0.0
 40
0.0
 40
0.0
 40
0.0
 40
0.0
 40
4.0
 40
4.0
 40
4.0
 40
4.0
  0
SPLINE
  5
D1
100
AcDbEntity
  8
mainlayer
 62
5
370
-1
 48
1.0
  6
BYLAYER
100
AcDbSpline
 70
8
 71
3
 72
8
 73
4
 74
0
 10
1608.13671875
 20
842.68994140625
 30
0.0
 10
1608.1367187500002274
 20
850.9760742187501137
 30
0.0
 10
1614.85400390625
 20
857.693359375
 30
0.0
 10
1623.14013671875
 20
857.693359375
 30
0.0
 40
0.0
 40
0.0
 40
0.0
 40
0.0
 40
4.0
 40
4.0
 40
4.0
 40
4.0
  0
SPLINE
  5
D2
100
AcDbEntity
  8
mainlayer
 62
5
370
-1
 48
1.0
  6
BYLAYER
100
AcDbSpline
 70
8
 71
3
 72
8
 73
4
 74
0
 10
1623.14013671875
 20
857.693359375
 30
0.0
 10
1631.4262695312504547
 20
857.6933593750002274
 30
0.0
 10
1638.1435546874997726
 20
850.9760742187498863
 30
0.0
 10
1638.1435546875
 20
842.68994140625
 30
0.0
 40
0.0
 40
0.0
 40
0.0
 40
0.0
 40
4.0
 40
4.0
 40
4.0
 40
4.0
  0
SPLINE
  5
D3
100
AcDbEntity
  8
mainlayer
 62
5
370
-1
 48
1.0
  6
BYLAYER
100
AcDbSpline
 70
8
 71
3
 72
8
 73
4
 74
0
 10
1638.1435546875
 20
842.68994140625
 30
0.0
 10
1638.1435546875002274
 20
834.4038085937501137
 30
0.0
 10
1631.4262695312497726
 20
827.6865234375
 30
0.0
 10
1623.14013671875
 20
827.6865234375
 30
0.0
 40
0.0
 40
0.0
 40
0.0
 40
0.0
 40
4.0
 40
4.0
 40
4.0
 40
4.0
  0
SPLINE
  5
D4
100
AcDbEntity
  8
mainlayer
 62
5
370
-1
 48
1.0
  6
BYLAYER
100
AcDbSpline
 70
8
 71
3
 72
8
 73
4
 74
0
 10
1623.14013671875
 20
827.6865234375
 30
0.0
 10
1614.8540039062504547
 20
827.6865234375002274
 30
0.0
 10
1608.1367187499997726
 20
834.4038085937498863
 30
0.0
 10
1608.13671875
 20
842.68994140625
 30
0.0
 40
0.0
 40
0.0
 40
0.0
 40
0.0
 40
4.0
 40
4.0
 40
4.0
 40
4.0
  0
SPLINE
  5
D5
100
AcDbEntity
  8
mainlayer
 62
5
370
-1
 48
1.0
  6
BYLAYER
100
AcDbSpline
 70
8
 71
3
 72
8
 73
4
 74
0
 10
1556.800048828125
 20
887.05908203125
 30
0.0
 10
1556.8000488281254547
 20
895.3452148437501137
 30
0.0
 10
1563.517333984375
 20
902.0629882812498863
 30
0.0
 10
1571.8037109375
 20
902.06298828125
 30
0.0
 40
0.0
 40
0.0
 40
0.0
 40
0.0
 40
4.0
 40
4.0
 40
4.0
 40
4.0
  0
SPLINE
  5
D6
100
AcDbEntity
  8
mainlayer
 62
5
370
-1
 48
1.0
  6
BYLAYER
100
AcDbSpline
 70
8
 71
3
 72
8
 73
4
 74
0
 10
1571.8037109375
 20
902.06298828125
 30
0.0
 10
1580.0900878906252274
 20
902.0629882812501137
 30
0.0
 10
1586.8073730468747726
 20
895.3452148437498863
 30
0.0
 10
1586.807373046875
 20
887.05908203125
 30
0.0
 40
0.0
 40
0.0
 40
0.0
 40
0.0
 40
4.0
 40
4.0
 40
4.0
 40
4.0
  0
SPLINE
  5
D7
100
AcDbEntity
  8
mainlayer
 62
5
370
-1
 48
1.0
  6
BYLAYER
100
AcDbSpline
 70
8
 71
3
 72
8
 73
4
 74
0
 10
1586.807373046875
 20
887.05908203125
 30
0.0
 10
1586.8073730468754547
 20
878.7729492187502274
 30
0.0
 10
1580.090087890625
 20
872.05517578125
 30
0.0
 10
1571.8037109375
 20
872.05517578125
 30
0.0
 40
0.0
 40
0.0
 40
0.0
 40
0.0
 40
4.0
 40
4.0
 40
4.0
 40
4.0
  0
SPLINE
  5
D8
100
AcDbEntity
  8
mainlayer
 62
5
370
-1
 48
1.0
  6
BYLAYER
100
AcDbSpline
 70
8
 71
3
 72
8
 73
4
 74
0
 10
1571.8037109375
 20
872.05517578125
 30
0.0
 10
1563.5173339843752274
 20
872.0551757812502274
 30
0.0
 10
1556.800048828125
 20
878.77294921875
 30
0.0
 10
1556.800048828125
 20
887.05908203125
 30
0.0
 40
0.0
 40
0.0
 40
0.0
 40
0.0
 40
4.0
 40
4.0
 40
4.0
 40
4.0
  0
SPLINE
  5
D9
100
AcDbEntity
  8
mainlayer
 62
5
370
-1
 48
1.0
  6
BYLAYER
100
AcDbSpline
 70
8
 71
3
 72
8
 73
4
 74
0
 10
1470.964599609375
 20
875.0
 30
0.0
 10
1470.9645996093752274
 20
883.2851562500002274
 30
0.0
 10
1477.681396484375
 20
890.001953125
 30
0.0
 10
1485.966796875
 20
890.001953125
 30
0.0
 40
0.0
 40
0.0
 40
0.0
 40
0.0
 40
4.0
 40
4.0
 40
4.0
 40
4.0
  0
SPLINE
  5
DA
100
AcDbEntity
  8
mainlayer
 62
5
370
-1
 48
1.0
  6
BYLAYER
100
AcDbSpline
 70
8
 71
3
 72
8
 73
4
 74
0
 10
1485.966796875
 20
890.001953125
 30
0.0
 10
1494.252197265625
 20
890.0019531250001137
 30
0.0
 10
1500.968994140625
 20
883.2851562499998863
 30
0.0
 10
1500.968994140625
 20
875.0
 30
0.0
 40
0.0
 40
0.0
 40
0.0
 40
0.0
 40
4.0
 40
4.0
 40
4.0
 40
4.0
  0
SPLINE
  5
DB
100
AcDbEntity
  8
mainlayer
 62
5
370
-1
 48
1.0
  6
BYLAYER
100
AcDbSpline
 70
8
 71
3
 72
8
 73
4
 74
0
 10
1500.968994140625
 20
875.0
 30
0.0
 10
1500.9689941406252274
 20
866.71435546875
 30
0.0
 10
1494.252197265625
 20
859.99755859375
 30
0.0
 10
1485.966796875
 20
859.99755859375
 30
0.0
 40
0.0
 40
0.0
 40
0.0
 40
0.0
 40
4.0
 40
4.0
 40
4.0
 40
4.0
  0
SPLINE
  5
DC
100
AcDbEntity
  8
mainlayer
 62
5
370
-1
 48
1.0
  6
BYLAYER
100
AcDbSpline
 70
8
 71
3
 72
8
 73
4
 74
0
 10
1485.966796875
 20
859.99755859375
 30
0.0
 10
1477.6813964843752274
 20
859.9975585937502274
 30
0.0
 10
1470.964599609375
 20
866.71435546875
 30
0.0
 10
1470.964599609375
 20
875.0
 30
0.0
 40
0.0
 40
0.0
 40
0.0
 40
0.0
 40
4.0
 40
4.0
 40
4.0
 40
4.0
  0
SPLINE
  5
DD
100
AcDbEntity
  8
mainlayer
 62
5
370
-1
 48
1.0
  6
BYLAYER
100
AcDbSpline
 70
8
 71
3
 72
8
 73
4
 74
0
 10
1482.049560546875
 20
950.31982421875
 30
0.0
 10
1482.0495605468752274
 20
958.6044921875001137
 30
0.0
 10
1488.765380859375
 20
965.3203124999998863
 30
0.0
 10
1497.0498046875
 20
965.3203125
 30
0.0
 40
0.0
 40
0.0
 40
0.0
 40
0.0
 40
4.0
 40
4.0
 40
4.0
 40
4.0
  0
SPLINE
  5
DE
100
AcDbEntity
  8
mainlayer
 62
5
370
-1
 48
1.0
  6
BYLAYER
100
AcDbSpline
 70
8
 71
3
 72
8
 73
4
 74
0
 10
1497.0498046875
 20
965.3203125
 30
0.0
 10
1505.3342285156252274
 20
965.3203125000001137
 30
0.0
 10
1512.050048828125
 20
958.6044921875
 30
0.0
 10
1512.050048828125
 20
950.31982421875
 30
0.0
 40
0.0
 40
0.0
 40
0.0
 40
0.0
 40
4.0
 40
4.0
 40
4.0
 40
4.0
  0
SPLINE
  5
DF
100
AcDbEntity
  8
mainlayer
 62
5
370
-1
 48
1.0
  6
BYLAYER
100
AcDbSpline
 70
8
 71
3
 72
8
 73
4
 74
0
 10
1512.050048828125
 20
950.31982421875
 30
0.0
 10
1512.0500488281252274
 20
942.0351562500002274
 30
0.0
 10
1505.334228515625
 20
935.3193359374998863
 30
0.0
 10
1497.0498046875
 20
935.3193359375
 30
0.0
 40
0.0
 40
0.0
 40
0.0
 40
0.0
 40
4.0
 40
4.0
 40
4.0
 40
4.0
  0
SPLINE
  5
E0
100
AcDbEntity
  8
mainlayer
 62
5
370
-1
 48
1.0
  6
BYLAYER
100
AcDbSpline
 70
8
 71
3
 72
8
 73
4
 74
0
 10
1497.0498046875
 20
935.3193359375
 30
0.0
 10
1488.7653808593754547
 20
935.3193359375002274
 30
0.0
 10
1482.049560546875
 20
942.03515625
 30
0.0
 10
1482.049560546875
 20
950.31982421875
 30
0.0
 40
0.0
 40
0.0
 40
0.0
 40
0.0
 40
4.0
 40
4.0
 40
4.0
 40
4.0
  0
SPLINE
  5
E1
100
AcDbEntity
  8
mainlayer
 62
5
370
-1
 48
1.0
  6
BYLAYER
100
AcDbSpline
 70
8
 71
3
 72
8
 73
4
 74
0
 10
1501.239990234375
 20
1009.7138671875
 30
0.0
 10
1501.2399902343754547
 20
1017.9960937500001137
 30
0.0
 10
1507.9541015625
 20
1024.7099609375
 30
0.0
 10
1516.236328125
 20
1024.7099609375
 30
0.0
 40
0.0
 40
0.0
 40
0.0
 40
0.0
 40
4.0
 40
4.0
 40
4.0
 40
4.0
  0
SPLINE
  5
E2
100
AcDbEntity
  8
mainlayer
 62
5
370
-1
 48
1.0
  6
BYLAYER
100
AcDbSpline
 70
8
 71
3
 72
8
 73
4
 74
0
 10
1516.236328125
 20
1024.7099609375
 30
0.0
 10
1524.5185546875002274
 20
1024.7099609375002274
 30
0.0
 10
1531.2326660156247726
 20
1017.99609375
 30
0.0
 10
1531.232666015625
 20
1009.7138671875
 30
0.0
 40
0.0
 40
0.0
 40
0.0
 40
0.0
 40
4.0
 40
4.0
 40
4.0
 40
4.0
  0
SPLINE
  5
E3
100
AcDbEntity
  8
mainlayer
 62
5
370
-1
 48
1.0
  6
BYLAYER
100
AcDbSpline
 70
8
 71
3
 72
8
 73
4
 74
0
 10
1531.232666015625
 20
1009.7138671875
 30
0.0
 10
1531.2326660156254547
 20
1001.4316406250001137
 30
0.0
 10
1524.5185546875
 20
994.7177734375
 30
0.0
 10
1516.236328125
 20
994.7177734375
 30
0.0
 40
0.0
 40
0.0
 40
0.0
 40
0.0
 40
4.0
 40
4.0
 40
4.0
 40
4.0
  0
SPLINE
  5
E4
100
AcDbEntity
  8
mainlayer
 62
5
370
-1
 48
1.0
  6
BYLAYER
100
AcDbSpline
 70
8
 71
3
 72
8
 73
4
 74
0
 10
1516.236328125
 20
994.7177734375
 30
0.0
 10
1507.9541015625002274
 20
994.7177734375001137
 30
0.0
 10
1501.2399902343752274
 20
1001.431640625
 30
0.0
 10
1501.239990234375
 20
1009.7138671875
 30
0.0
 40
0.0
 40
0.0
 40
0.0
 40
0.0
 40
4.0
 40
4.0
 40
4.0
 40
4.0
  0
SPLINE
  5
E5
100
AcDbEntity
  8
mainlayer
 62
5
370
-1
 48
1.0
  6
BYLAYER
100
AcDbSpline
 70
8
 71
3
 72
8
 73
4
 74
0
 10
1423.708984375
 20
1047.2412109375
 30
0.0
 10
1423.7089843750004547
 20
1055.5263671875002274
 30
0.0
 10
1430.425537109375
 20
1062.24267578125
 30
0.0
 10
1438.710693359375
 20
1062.24267578125
 30
0.0
 40
0.0
 40
0.0
 40
0.0
 40
0.0
 40
4.0
 40
4.0
 40
4.0
 40
4.0
  0
SPLINE
  5
E6
100
AcDbEntity
  8
mainlayer
 62
5
370
-1
 48
1.0
  6
BYLAYER
100
AcDbSpline
 70
8
 71
3
 72
8
 73
4
 74
0
 10
1438.710693359375
 20
1062.24267578125
 30
0.0
 10
1446.9958496093752274
 20
1062.2426757812502274
 30
0.0
 10
1453.71240234375
 20
1055.5263671874997726
 30
0.0
 10
1453.71240234375
 20
1047.2412109375
 30
0.0
 40
0.0
 40
0.0
 40
0.0
 40
0.0
 40
4.0
 40
4.0
 40
4.0
 40
4.0
  0
SPLINE
  5
E7
100
AcDbEntity
  8
mainlayer
 62
5
370
-1
 48
1.0
  6
BYLAYER
100
AcDbSpline
 70
8
 71
3
 72
8
 73
4
 74
0
 10
1453.71240234375
 20
1047.2412109375
 30
0.0
 10
1453.7124023437504547
 20
1038.9560546875002274
 30
0.0
 10
1446.995849609375
 20
1032.23974609375
 30
0.0
 10
1438.710693359375
 20
1032.23974609375
 30
0.0
 40
0.0
 40
0.0
 40
0.0
 40
0.0
 40
4.0
 40
4.0
 40
4.0
 40
4.0
  0
SPLINE
  5
E8
100
AcDbEntity
  8
mainlayer
 62
5
370
-1
 48
1.0
  6
BYLAYER
100
AcDbSpline
 70
8
 71
3
 72
8
 73
4
 74
0
 10
1438.710693359375
 20
1032.23974609375
 30
0.0
 10
1430.4255371093752274
 20
1032.23974609375
 30
0.0
 10
1423.708984375
 20
1038.9560546875
 30
0.0
 10
1423.708984375
 20
1047.2412109375
 30
0.0
 40
0.0
 40
0.0
 40
0.0
 40
0.0
 40
4.0
 40
4.0
 40
4.0
 40
4.0
  0
SPLINE
  5
E9
100
AcDbEntity
  8
mainlayer
 62
5
370
-1
 48
1.0
  6
BYLAYER
100
AcDbSpline
 70
8
 71
3
 72
8
 73
4
 74
0
 10
1149.872802734375
 20
695.7744140625
 30
0.0
 10
1149.8728027343752274
 20
704.0600585937501137
 30
0.0
 10
1156.58935546875
 20
710.7763671875
 30
0.0
 10
1164.874755859375
 20
710.7763671875
 30
0.0
 40
0.0
 40
0.0
 40
0.0
 40
0.0
 40
4.0
 40
4.0
 40
4.0
 40
4.0
  0
SPLINE
  5
EA
100
AcDbEntity
  8
mainlayer
 62
5
370
-1
 48
1.0
  6
BYLAYER
100
AcDbSpline
 70
8
 71
3
 72
8
 73
4
 74
0
 10
1164.874755859375
 20
710.7763671875
 30
0.0
 10
1173.1601562500002274
 20
710.7763671875001137
 30
0.0
 10
1179.876708984375
 20
704.0600585937498863
 30
0.0
 10
1179.876708984375
 20
695.7744140625
 30
0.0
 40
0.0
 40
0.0
 40
0.0
 40
0.0
 40
4.0
 40
4.0
 40
4.0
 40
4.0
  0
SPLINE
  5
EB
100
AcDbEntity
  8
mainlayer
 62
5
370
-1
 48
1.0
  6
BYLAYER
100
AcDbSpline
 70
8
 71
3
 72
8
 73
4
 74
0
 10
1179.876708984375
 20
695.7744140625
 30
0.0
 10
1179.8767089843754547
 20
687.4892578125002274
 30
0.0
 10
1173.16015625
 20
680.77294921875
 30
0.0
 10
1164.874755859375
 20
680.77294921875
 30
0.0
 40
0.0
 40
0.0
 40
0.0
 40
0.0
 40
4.0
 40
4.0
 40
4.0
 40
4.0
  0
SPLINE
  5
EC
100
AcDbEntity
  8
mainlayer
 62
5
370
-1
 48
1.0
  6
BYLAYER
100
AcDbSpline
 70
8
 71
3
 72
8
 73
4
 74
0
 10
1164.874755859375
 20
680.77294921875
 30
0.0
 10
1156.5893554687502274
 20
680.7729492187502274
 30
0.0
 10
1149.872802734375
 20
687.4892578125
 30
0.0
 10
1149.872802734375
 20
695.7744140625
 30
0.0
 40
0.0
 40
0.0
 40
0.0
 40
0.0
 40
4.0
 40
4.0
 40
4.0
 40
4.0
  0
SPLINE
  5
ED
100
AcDbEntity
  8
mainlayer
 62
5
370
-1
 48
1.0
  6
BYLAYER
100
AcDbSpline
 70
8
 71
3
 72
8
 73
4
 74
0
 10
1709.2138671875
 20
646.0048828125
 30
0.0
 10
1709.2138671875004547
 20
654.2895507812501137
 30
0.0
 10
1715.9296875
 20
661.0048828125
 30
0.0
 10
1724.2138671875
 20
661.0048828125
 30
0.0
 40
0.0
 40
0.0
 40
0.0
 40
0.0
 40
4.0
 40
4.0
 40
4.0
 40
4.0
  0
SPLINE
  5
EE
100
AcDbEntity
  8
mainlayer
 62
5
370
-1
 48
1.0
  6
BYLAYER
100
AcDbSpline
 70
8
 71
3
 72
8
 73
4
 74
0
 10
1724.2138671875
 20
661.0048828125
 30
0.0
 10
1732.4980468750002274
 20
661.0048828125001137
 30
0.0
 10
1739.2138671874997726
 20
654.2895507812498863
 30
0.0
 10
1739.2138671875
 20
646.0048828125
 30
0.0
 40
0.0
 40
0.0
 40
0.0
 40
0.0
 40
4.0
 40
4.0
 40
4.0
 40
4.0
  0
SPLINE
  5
EF
100
AcDbEntity
  8
mainlayer
 62
5
370
-1
 48
1.0
  6
BYLAYER
100
AcDbSpline
 70
8
 71
3
 72
8
 73
4
 74
0
 10
1739.2138671875
 20
646.0048828125
 30
0.0
 10
1739.2138671875004547
 20
637.7207031250001137
 30
0.0
 10
1732.498046875
 20
631.00537109375
 30
0.0
 10
1724.2138671875
 20
631.00537109375
 30
0.0
 40
0.0
 40
0.0
 40
0.0
 40
0.0
 40
4.0
 40
4.0
 40
4.0
 40
4.0
  0
SPLINE
  5
F0
100
AcDbEntity
  8
mainlayer
 62
5
370
-1
 48
1.0
  6
BYLAYER
100
AcDbSpline
 70
8
 71
3
 72
8
 73
4
 74
0
 10
1724.2138671875
 20
631.00537109375
 30
0.0
 10
1715.9296875000002274
 20
631.0053710937501137
 30
0.0
 10
1709.2138671875
 20
637.720703125
 30
0.0
 10
1709.2138671875
 20
646.0048828125
 30
0.0
 40
0.0
 40
0.0
 40
0.0
 40
0.0
 40
4.0
 40
4.0
 40
4.0
 40
4.0
  0
SPLINE
  5
F1
100
AcDbEntity
  8
mainlayer
 62
5
370
-1
 48
1.0
  6
BYLAYER
100
AcDbSpline
 70
8
 71
3
 72
8
 73
4
 74
0
 10
1735.24755859375
 20
257.94384765625
 30
0.0
 10
1735.2475585937504547
 20
266.2282714843751137
 30
0.0
 10
1741.9636230468747726
 20
272.944091796875
 30
0.0
 10
1750.248046875
 20
272.944091796875
 30
0.0
 40
0.0
 40
0.0
 40
0.0
 40
0.0
 40
4.0
 40
4.0
 40
4.0
 40
4.0
  0
SPLINE
  5
F2
100
AcDbEntity
  8
mainlayer
 62
5
370
-1
 48
1.0
  6
BYLAYER
100
AcDbSpline
 70
8
 71
3
 72
8
 73
4
 74
0
 10
1750.248046875
 20
272.944091796875
 30
0.0
 10
1758.5324707031256821
 20
272.9440917968750568
 30
0.0
 10
1765.24853515625
 20
266.228271484375
 30
0.0
 10
1765.24853515625
 20
257.94384765625
 30
0.0
 40
0.0
 40
0.0
 40
0.0
 40
0.0
 40
4.0
 40
4.0
 40
4.0
 40
4.0
  0
SPLINE
  5
F3
100
AcDbEntity
  8
mainlayer
 62
5
370
-1
 48
1.0
  6
BYLAYER
100
AcDbSpline
 70
8
 71
3
 72
8
 73
4
 74
0
 10
1765.24853515625
 20
257.94384765625
 30
0.0
 10
1765.2485351562504547
 20
249.6591796875000568
 30
0.0
 10
1758.532470703125
 20
242.9433593749999432
 30
0.0
 10
1750.248046875
 20
242.943359375
 30
0.0
 40
0.0
 40
0.0
 40
0.0
 40
0.0
 40
4.0
 40
4.0
 40
4.0
 40
4.0
  0
SPLINE
  5
F4
100
AcDbEntity
  8
mainlayer
 62
5
370
-1
 48
1.0
  6
BYLAYER
100
AcDbSpline
 70
8
 71
3
 72
8
 73
4
 74
0
 10
1750.248046875
 20
242.943359375
 30
0.0
 10
1741.9636230468752274
 20
242.9433593750000284
 30
0.0
 10
1735.24755859375
 20
249.6591796874999716
 30
0.0
 10
1735.24755859375
 20
257.94384765625
 30
0.0
 40
0.0
 40
0.0
 40
0.0
 40
0.0
 40
4.0
 40
4.0
 40
4.0
 40
4.0
  0
SPLINE
  5
F5
100
AcDbEntity
  8
mainlayer
 62
5
370
-1
 48
1.0
  6
BYLAYER
100
AcDbSpline
 70
8
 71
3
 72
8
 73
4
 74
0
 10
1403.41015625
 20
141.08544921875
 30
0.0
 10
1403.4101562500004547
 20
149.3703613281250284
 30
0.0
 10
1410.1267089843747726
 20
156.086669921875
 30
0.0
 10
1418.41162109375
 20
156.086669921875
 30
0.0
 40
0.0
 40
0.0
 40
0.0
 40
0.0
 40
4.0
 40
4.0
 40
4.0
 40
4.0
  0
SPLINE
  5
F6
100
AcDbEntity
  8
mainlayer
 62
5
370
-1
 48
1.0
  6
BYLAYER
100
AcDbSpline
 70
8
 71
3
 72
8
 73
4
 74
0
 10
1418.41162109375
 20
156.086669921875
 30
0.0
 10
1426.6965332031254547
 20
156.0866699218750568
 30
0.0
 10
1433.4130859374997726
 20
149.370361328125
 30
0.0
 10
1433.4130859375
 20
141.08544921875
 30
0.0
 40
0.0
 40
0.0
 40
0.0
 40
0.0
 40
4.0
 40
4.0
 40
4.0
 40
4.0
  0
SPLINE
  5
F7
100
AcDbEntity
  8
mainlayer
 62
5
370
-1
 48
1.0
  6
BYLAYER
100
AcDbSpline
 70
8
 71
3
 72
8
 73
4
 74
0
 10
1433.4130859375
 20
141.08544921875
 30
0.0
 10
1433.4130859375004547
 20
132.8002929687500284
 30
0.0
 10
1426.696533203125
 20
126.0839920043945312
 30
0.0
 10
1418.41162109375
 20
126.0839920043945312
 30
0.0
 40
0.0
 40
0.0
 40
0.0
 40
0.0
 40
4.0
 40
4.0
 40
4.0
 40
4.0
  0
SPLINE
  5
F8
100
AcDbEntity
  8
mainlayer
 62
5
370
-1
 48
1.0
  6
BYLAYER
100
AcDbSpline
 70
8
 71
3
 72
8
 73
4
 74
0
 10
1418.41162109375
 20
126.0839920043945312
 30
0.0
 10
1410.1267089843752274
 20
126.0839920043945597
 30
0.0
 10
1403.41015625
 20
132.80029296875
 30
0.0
 10
1403.41015625
 20
141.08544921875
 30
0.0
 40
0.0
 40
0.0
 40
0.0
 40
0.0
 40
4.0
 40
4.0
 40
4.0
 40
4.0
  0
SPLINE
  5
F9
100
AcDbEntity
  8
mainlayer
 62
5
370
-1
 48
1.0
  6
BYLAYER
100
AcDbSpline
 70
8
 71
3
 72
8
 73
4
 74
0
 10
1082.2880859375
 20
517.7900390625
 30
0.0
 10
1082.2880859375004547
 20
526.0766601562502274
 30
0.0
 10
1089.005615234375
 20
532.7939453125
 30
0.0
 10
1097.292236328125
 20
532.7939453125
 30
0.0
 40
0.0
 40
0.0
 40
0.0
 40
0.0
 40
4.0
 40
4.0
 40
4.0
 40
4.0
  0
SPLINE
  5
FA
100
AcDbEntity
  8
mainlayer
 62
5
370
-1
 48
1.0
  6
BYLAYER
100
AcDbSpline
 70
8
 71
3
 72
8
 73
4
 74
0
 10
1097.292236328125
 20
532.7939453125
 30
0.0
 10
1105.5788574218754547
 20
532.7939453125001137
 30
0.0
 10
1112.29638671875
 20
526.07666015625
 30
0.0
 10
1112.29638671875
 20
517.7900390625
 30
0.0
 40
0.0
 40
0.0
 40
0.0
 40
0.0
 40
4.0
 40
4.0
 40
4.0
 40
4.0
  0
SPLINE
  5
FB
100
AcDbEntity
  8
mainlayer
 62
5
370
-1
 48
1.0
  6
BYLAYER
100
AcDbSpline
 70
8
 71
3
 72
8
 73
4
 74
0
 10
1112.29638671875
 20
517.7900390625
 30
0.0
 10
1112.2963867187502274
 20
509.5034179687501137
 30
0.0
 10
1105.578857421875
 20
502.7861328125
 30
0.0
 10
1097.292236328125
 20
502.7861328125
 30
0.0
 40
0.0
 40
0.0
 40
0.0
 40
0.0
 40
4.0
 40
4.0
 40
4.0
 40
4.0
  0
SPLINE
  5
FC
100
AcDbEntity
  8
mainlayer
 62
5
370
-1
 48
1.0
  6
BYLAYER
100
AcDbSpline
 70
8
 71
3
 72
8
 73
4
 74
0
 10
1097.292236328125
 20
502.7861328125
 30
0.0
 10
1089.005615234375
 20
502.7861328125001137
 30
0.0
 10
1082.2880859375
 20
509.50341796875
 30
0.0
 10
1082.2880859375
 20
517.7900390625
 30
0.0
 40
0.0
 40
0.0
 40
0.0
 40
0.0
 40
4.0
 40
4.0
 40
4.0
 40
4.0
  0
SPLINE
  5
FD
100
AcDbEntity
  8
mainlayer
 62
5
370
-1
 48
1.0
  6
BYLAYER
100
AcDbSpline
 70
8
 71
3
 72
8
 73
4
 74
0
 10
742.6884765625
 20
174.70947265625
 30
0.0
 10
742.6884765625002274
 20
182.9946289062500284
 30
0.0
 10
749.40478515625
 20
189.711181640625
 30
0.0
 10
757.68994140625
 20
189.711181640625
 30
0.0
 40
0.0
 40
0.0
 40
0.0
 40
0.0
 40
4.0
 40
4.0
 40
4.0
 40
4.0
  0
SPLINE
  5
FE
100
AcDbEntity
  8
mainlayer
 62
5
370
-1
 48
1.0
  6
BYLAYER
100
AcDbSpline
 70
8
 71
3
 72
8
 73
4
 74
0
 10
757.68994140625
 20
189.711181640625
 30
0.0
 10
765.9750976562502274
 20
189.7111816406250284
 30
0.0
 10
772.69140625
 20
182.99462890625
 30
0.0
 10
772.69140625
 20
174.70947265625
 30
0.0
 40
0.0
 40
0.0
 40
0.0
 40
0.0
 40
4.0
 40
4.0
 40
4.0
 40
4.0
  0
SPLINE
  5
FF
100
AcDbEntity
  8
mainlayer
 62
5
370
-1
 48
1.0
  6
BYLAYER
100
AcDbSpline
 70
8
 71
3
 72
8
 73
4
 74
0
 10
772.69140625
 20
174.70947265625
 30
0.0
 10
772.6914062500001137
 20
166.4245605468750568
 30
0.0
 10
765.97509765625
 20
159.7080078125
 30
0.0
 10
757.68994140625
 20
159.7080078125
 30
0.0
 40
0.0
 40
0.0
 40
0.0
 40
0.0
 40
4.0
 40
4.0
 40
4.0
 40
4.0
  0
SPLINE
  5
100
100
AcDbEntity
  8
mainlayer
 62
5
370
-1
 48
1.0
  6
BYLAYER
100
AcDbSpline
 70
8
 71
3
 72
8
 73
4
 74
0
 10
757.68994140625
 20
159.7080078125
 30
0.0
 10
749.4047851562502274
 20
159.7080078125000284
 30
0.0
 10
742.6884765624998863
 20
166.4245605468749716
 30
0.0
 10
742.6884765625
 20
174.70947265625
 30
0.0
 40
0.0
 40
0.0
 40
0.0
 40
0.0
 40
4.0
 40
4.0
 40
4.0
 40
4.0
  0
SPLINE
  5
101
100
AcDbEntity
  8
mainlayer
 62
5
370
-1
 48
1.0
  6
BYLAYER
100
AcDbSpline
 70
8
 71
3
 72
8
 73
4
 74
0
 10
742.6796875
 20
67.9711990356445312
 30
0.0
 10
742.6796875000002274
 20
76.2563552856445455
 30
0.0
 10
749.396240234375
 20
82.9729080200195312
 30
0.0
 10
757.681640625
 20
82.9729080200195312
 30
0.0
 40
0.0
 40
0.0
 40
0.0
 40
0.0
 40
4.0
 40
4.0
 40
4.0
 40
4.0
  0
SPLINE
  5
102
100
AcDbEntity
  8
mainlayer
 62
5
370
-1
 48
1.0
  6
BYLAYER
100
AcDbSpline
 70
8
 71
3
 72
8
 73
4
 74
0
 10
757.681640625
 20
82.9729080200195312
 30
0.0
 10
765.9670410156252274
 20
82.9729080200195597
 30
0.0
 10
772.68359375
 20
76.2563552856445312
 30
0.0
 10
772.68359375
 20
67.9711990356445312
 30
0.0
 40
0.0
 40
0.0
 40
0.0
 40
0.0
 40
4.0
 40
4.0
 40
4.0
 40
4.0
  0
SPLINE
  5
103
100
AcDbEntity
  8
mainlayer
 62
5
370
-1
 48
1.0
  6
BYLAYER
100
AcDbSpline
 70
8
 71
3
 72
8
 73
4
 74
0
 10
772.68359375
 20
67.9711990356445312
 30
0.0
 10
772.6835937500002274
 20
59.6857948303222869
 30
0.0
 10
765.9670410156248863
 20
52.9692420959472656
 30
0.0
 10
757.681640625
 20
52.9692420959472656
 30
0.0
 40
0.0
 40
0.0
 40
0.0
 40
0.0
 40
4.0
 40
4.0
 40
4.0
 40
4.0
  0
SPLINE
  5
104
100
AcDbEntity
  8
mainlayer
 62
5
370
-1
 48
1.0
  6
BYLAYER
100
AcDbSpline
 70
8
 71
3
 72
8
 73
4
 74
0
 10
757.681640625
 20
52.9692420959472656
 30
0.0
 10
749.3962402343751137
 20
52.9692420959472798
 30
0.0
 10
742.6796875
 20
59.6857948303222585
 30
0.0
 10
742.6796875
 20
67.9711990356445312
 30
0.0
 40
0.0
 40
0.0
 40
0.0
 40
0.0
 40
4.0
 40
4.0
 40
4.0
 40
4.0
  0
SPLINE
  5
105
100
AcDbEntity
  8
mainlayer
 62
5
370
-1
 48
1.0
  6
BYLAYER
100
AcDbSpline
 70
8
 71
3
 72
8
 73
4
 74
0
 10
828.08642578125
 20
134.19140625
 30
0.0
 10
828.0864257812502274
 20
142.4763183593750284
 30
0.0
 10
834.802490234375
 20
149.1923828125
 30
0.0
 10
843.08740234375
 20
149.1923828125
 30
0.0
 40
0.0
 40
0.0
 40
0.0
 40
0.0
 40
4.0
 40
4.0
 40
4.0
 40
4.0
  0
SPLINE
  5
106
100
AcDbEntity
  8
mainlayer
 62
5
370
-1
 48
1.0
  6
BYLAYER
100
AcDbSpline
 70
8
 71
3
 72
8
 73
4
 74
0
 10
843.08740234375
 20
149.1923828125
 30
0.0
 10
851.3723144531252274
 20
149.1923828125000284
 30
0.0
 10
858.0883789062498863
 20
142.476318359375
 30
0.0
 10
858.08837890625
 20
134.19140625
 30
0.0
 40
0.0
 40
0.0
 40
0.0
 40
0.0
 40
4.0
 40
4.0
 40
4.0
 40
4.0
  0
SPLINE
  5
107
100
AcDbEntity
  8
mainlayer
 62
5
370
-1
 48
1.0
  6
BYLAYER
100
AcDbSpline
 70
8
 71
3
 72
8
 73
4
 74
0
 10
858.08837890625
 20
134.19140625
 30
0.0
 10
858.0883789062501137
 20
125.9065017700195455
 30
0.0
 10
851.3723144531248863
 20
119.190437316894517
 30
0.0
 10
843.08740234375
 20
119.1904373168945312
 30
0.0
 40
0.0
 40
0.0
 40
0.0
 40
0.0
 40
4.0
 40
4.0
 40
4.0
 40
4.0
  0
SPLINE
  5
108
100
AcDbEntity
  8
mainlayer
 62
5
370
-1
 48
1.0
  6
BYLAYER
100
AcDbSpline
 70
8
 71
3
 72
8
 73
4
 74
0
 10
843.08740234375
 20
119.1904373168945312
 30
0.0
 10
834.8024902343752274
 20
119.1904373168945455
 30
0.0
 10
828.08642578125
 20
125.906501770019517
 30
0.0
 10
828.08642578125
 20
134.19140625
 30
0.0
 40
0.0
 40
0.0
 40
0.0
 40
0.0
 40
4.0
 40
4.0
 40
4.0
 40
4.0
  0
SPLINE
  5
109
100
AcDbEntity
  8
mainlayer
 62
5
370
-1
 48
1.0
  6
BYLAYER
100
AcDbSpline
 70
8
 71
3
 72
8
 73
4
 74
0
 10
824.870849609375
 20
41.7900428771972656
 30
0.0
 10
824.8708496093752274
 20
56.8869667053222727
 30
0.0
 10
837.1096191406248863
 20
69.1257400512695312
 30
0.0
 10
852.20654296875
 20
69.1257400512695312
 30
0.0
 40
0.0
 40
0.0
 40
0.0
 40
0.0
 40
4.0
 40
4.0
 40
4.0
 40
4.0
  0
SPLINE
  5
10A
100
AcDbEntity
  8
mainlayer
 62
5
370
-1
 48
1.0
  6
BYLAYER
100
AcDbSpline
 70
8
 71
3
 72
8
 73
4
 74
0
 10
852.20654296875
 20
69.1257400512695312
 30
0.0
 10
867.3034667968753411
 20
69.1257400512695312
 30
0.0
 10
879.5422363281248863
 20
56.8869667053222585
 30
0.0
 10
879.542236328125
 20
41.7900428771972656
 30
0.0
 40
0.0
 40
0.0
 40
0.0
 40
0.0
 40
4.0
 40
4.0
 40
4.0
 40
4.0
  0
SPLINE
  5
10B
100
AcDbEntity
  8
mainlayer
 62
5
370
-1
 48
1.0
  6
BYLAYER
100
AcDbSpline
 70
8
 71
3
 72
8
 73
4
 74
0
 10
879.542236328125
 20
41.7900428771972656
 30
0.0
 10
879.5422363281251137
 20
26.6931190490722763
 30
0.0
 10
867.303466796875
 20
14.4543495178222656
 30
0.0
 10
852.20654296875
 20
14.4543495178222656
 30
0.0
 40
0.0
 40
0.0
 40
0.0
 40
0.0
 40
4.0
 40
4.0
 40
4.0
 40
4.0
  0
SPLINE
  5
10C
100
AcDbEntity
  8
mainlayer
 62
5
370
-1
 48
1.0
  6
BYLAYER
100
AcDbSpline
 70
8
 71
3
 72
8
 73
4
 74
0
 10
852.20654296875
 20
14.4543495178222656
 30
0.0
 10
837.1096191406252274
 20
14.4543495178222692
 30
0.0
 10
824.870849609375
 20
26.6931190490722621
 30
0.0
 10
824.870849609375
 20
41.7900428771972656
 30
0.0
 40
0.0
 40
0.0
 40
0.0
 40
0.0
 40
4.0
 40
4.0
 40
4.0
 40
4.0
  0
SPLINE
  5
10D
100
AcDbEntity
  8
mainlayer
 62
5
370
-1
 48
1.0
  6
BYLAYER
100
AcDbSpline
 70
8
 71
3
 72
8
 73
4
 74
0
 10
1108.1279296875
 20
48.3779335021972656
 30
0.0
 10
1108.1279296875
 20
66.9484939575195455
 30
0.0
 10
1123.1826171874997726
 20
82.0029373168945312
 30
0.0
 10
1141.753173828125
 20
82.0029373168945312
 30
0.0
 40
0.0
 40
0.0
 40
0.0
 40
0.0
 40
4.0
 40
4.0
 40
4.0
 40
4.0
  0
SPLINE
  5
10E
100
AcDbEntity
  8
mainlayer
 62
5
370
-1
 48
1.0
  6
BYLAYER
100
AcDbSpline
 70
8
 71
3
 72
8
 73
4
 74
0
 10
1141.753173828125
 20
82.0029373168945312
 30
0.0
 10
1160.3237304687502274
 20
82.0029373168945312
 30
0.0
 10
1175.37841796875
 20
66.9484939575195312
 30
0.0
 10
1175.37841796875
 20
48.3779335021972656
 30
0.0
 40
0.0
 40
0.0
 40
0.0
 40
0.0
 40
4.0
 40
4.0
 40
4.0
 40
4.0
  0
SPLINE
  5
10F
100
AcDbEntity
  8
mainlayer
 62
5
370
-1
 48
1.0
  6
BYLAYER
100
AcDbSpline
 70
8
 71
3
 72
8
 73
4
 74
0
 10
1175.37841796875
 20
48.3779335021972656
 30
0.0
 10
1175.3784179687504547
 20
29.8071327209472727
 30
0.0
 10
1160.3237304687497726
 20
14.7526893615722656
 30
0.0
 10
1141.753173828125
 20
14.7526893615722656
 30
0.0
 40
0.0
 40
0.0
 40
0.0
 40
0.0
 40
4.0
 40
4.0
 40
4.0
 40
4.0
  0
SPLINE
  5
110
100
AcDbEntity
  8
mainlayer
 62
5
370
-1
 48
1.0
  6
BYLAYER
100
AcDbSpline
 70
8
 71
3
 72
8
 73
4
 74
0
 10
1141.753173828125
 20
14.7526893615722656
 30
0.0
 10
1123.1826171875002274
 20
14.7526893615722692
 30
0.0
 10
1108.1279296875
 20
29.8071327209472656
 30
0.0
 10
1108.1279296875
 20
48.3779335021972656
 30
0.0
 40
0.0
 40
0.0
 40
0.0
 40
0.0
 40
4.0
 40
4.0
 40
4.0
 40
4.0
  0
SPLINE
  5
111
100
AcDbEntity
  8
mainlayer
 62
5
370
-1
 48
1.0
  6
BYLAYER
100
AcDbSpline
 70
8
 71
3
 72
8
 73
4
 74
0
 10
1244.577392578125
 20
33.2880897521972656
 30
0.0
 10
1244.5773925781252274
 20
41.5734901428222727
 30
0.0
 10
1251.294189453125
 20
48.2902870178222656
 30
0.0
 10
1259.57958984375
 20
48.2902870178222656
 30
0.0
 40
0.0
 40
0.0
 40
0.0
 40
0.0
 40
4.0
 40
4.0
 40
4.0
 40
4.0
  0
SPLINE
  5
112
100
AcDbEntity
  8
mainlayer
 62
5
370
-1
 48
1.0
  6
BYLAYER
100
AcDbSpline
 70
8
 71
3
 72
8
 73
4
 74
0
 10
1259.57958984375
 20
48.2902870178222656
 30
0.0
 10
1267.8649902343754547
 20
48.2902870178222727
 30
0.0
 10
1274.581787109375
 20
41.5734901428222656
 30
0.0
 10
1274.581787109375
 20
33.2880897521972656
 30
0.0
 40
0.0
 40
0.0
 40
0.0
 40
0.0
 40
4.0
 40
4.0
 40
4.0
 40
4.0
  0
SPLINE
  5
113
100
AcDbEntity
  8
mainlayer
 62
5
370
-1
 48
1.0
  6
BYLAYER
100
AcDbSpline
 70
8
 71
3
 72
8
 73
4
 74
0
 10
1274.581787109375
 20
33.2880897521972656
 30
0.0
 10
1274.5817871093754547
 20
25.0024452209472727
 30
0.0
 10
1267.864990234375
 20
18.2856483459472656
 30
0.0
 10
1259.57958984375
 20
18.2856483459472656
 30
0.0
 40
0.0
 40
0.0
 40
0.0
 40
0.0
 40
4.0
 40
4.0
 40
4.0
 40
4.0
  0
SPLINE
  5
114
100
AcDbEntity
  8
mainlayer
 62
5
370
-1
 48
1.0
  6
BYLAYER
100
AcDbSpline
 70
8
 71
3
 72
8
 73
4
 74
0
 10
1259.57958984375
 20
18.2856483459472656
 30
0.0
 10
1251.294189453125
 20
18.2856483459472692
 30
0.0
 10
1244.577392578125
 20
25.0024452209472656
 30
0.0
 10
1244.577392578125
 20
33.2880897521972656
 30
0.0
 40
0.0
 40
0.0
 40
0.0
 40
0.0
 40
4.0
 40
4.0
 40
4.0
 40
4.0
  0
SPLINE
  5
115
100
AcDbEntity
  8
mainlayer
 62
5
370
-1
 48
1.0
  6
BYLAYER
100
AcDbSpline
 70
8
 71
3
 72
8
 73
4
 74
0
 10
1466.683349609375
 20
77.3046951293945312
 30
0.0
 10
1466.6833496093752274
 20
85.5903396606445455
 30
0.0
 10
1473.39990234375
 20
92.3071365356445312
 30
0.0
 10
1481.685546875
 20
92.3071365356445312
 30
0.0
 40
0.0
 40
0.0
 40
0.0
 40
0.0
 40
4.0
 40
4.0
 40
4.0
 40
4.0
  0
SPLINE
  5
116
100
AcDbEntity
  8
mainlayer
 62
5
370
-1
 48
1.0
  6
BYLAYER
100
AcDbSpline
 70
8
 71
3
 72
8
 73
4
 74
0
 10
1481.685546875
 20
92.3071365356445312
 30
0.0
 10
1489.9711914062502274
 20
92.3071365356445455
 30
0.0
 10
1496.687744140625
 20
85.5903396606445312
 30
0.0
 10
1496.687744140625
 20
77.3046951293945312
 30
0.0
 40
0.0
 40
0.0
 40
0.0
 40
0.0
 40
4.0
 40
4.0
 40
4.0
 40
4.0
  0
SPLINE
  5
117
100
AcDbEntity
  8
mainlayer
 62
5
370
-1
 48
1.0
  6
BYLAYER
100
AcDbSpline
 70
8
 71
3
 72
8
 73
4
 74
0
 10
1496.687744140625
 20
77.3046951293945312
 30
0.0
 10
1496.6877441406254547
 20
69.0192947387695455
 30
0.0
 10
1489.97119140625
 20
62.3024940490722656
 30
0.0
 10
1481.685546875
 20
62.3024940490722656
 30
0.0
 40
0.0
 40
0.0
 40
0.0
 40
0.0
 40
4.0
 40
4.0
 40
4.0
 40
4.0
  0
SPLINE
  5
118
100
AcDbEntity
  8
mainlayer
 62
5
370
-1
 48
1.0
  6
BYLAYER
100
AcDbSpline
 70
8
 71
3
 72
8
 73
4
 74
0
 10
1481.685546875
 20
62.3024940490722656
 30
0.0
 10
1473.3999023437504547
 20
62.3024940490722727
 30
0.0
 10
1466.6833496093747726
 20
69.0192947387695312
 30
0.0
 10
1466.683349609375
 20
77.3046951293945312
 30
0.0
 40
0.0
 40
0.0
 40
0.0
 40
0.0
 40
4.0
 40
4.0
 40
4.0
 40
4.0
  0
SPLINE
  5
119
100
AcDbEntity
  8
mainlayer
 62
5
370
-1
 48
1.0
  6
BYLAYER
100
AcDbSpline
 70
8
 71
3
 72
8
 73
4
 74
0
 10
1579.83642578125
 20
105.0253982543945312
 30
0.0
 10
1579.8364257812502274
 20
113.3098220825195455
 30
0.0
 10
1586.552490234375
 20
120.0258865356445312
 30
0.0
 10
1594.8369140625
 20
120.0258865356445312
 30
0.0
 40
0.0
 40
0.0
 40
0.0
 40
0.0
 40
4.0
 40
4.0
 40
4.0
 40
4.0
  0
SPLINE
  5
11A
100
AcDbEntity
  8
mainlayer
 62
5
370
-1
 48
1.0
  6
BYLAYER
100
AcDbSpline
 70
8
 71
3
 72
8
 73
4
 74
0
 10
1594.8369140625
 20
120.0258865356445312
 30
0.0
 10
1603.1213378906252274
 20
120.0258865356445455
 30
0.0
 10
1609.8374023437497726
 20
113.3098220825195312
 30
0.0
 10
1609.83740234375
 20
105.0253982543945312
 30
0.0
 40
0.0
 40
0.0
 40
0.0
 40
0.0
 40
4.0
 40
4.0
 40
4.0
 40
4.0
  0
SPLINE
  5
11B
100
AcDbEntity
  8
mainlayer
 62
5
370
-1
 48
1.0
  6
BYLAYER
100
AcDbSpline
 70
8
 71
3
 72
8
 73
4
 74
0
 10
1609.83740234375
 20
105.0253982543945312
 30
0.0
 10
1609.8374023437502274
 20
96.7409744262695597
 30
0.0
 10
1603.1213378906247726
 20
90.0249099731445312
 30
0.0
 10
1594.8369140625
 20
90.0249099731445312
 30
0.0
 40
0.0
 40
0.0
 40
0.0
 40
0.0
 40
4.0
 40
4.0
 40
4.0
 40
4.0
  0
SPLINE
  5
11C
100
AcDbEntity
  8
mainlayer
 62
5
370
-1
 48
1.0
  6
BYLAYER
100
AcDbSpline
 70
8
 71
3
 72
8
 73
4
 74
0
 10
1594.8369140625
 20
90.0249099731445312
 30
0.0
 10
1586.5524902343754547
 20
90.0249099731445455
 30
0.0
 10
1579.83642578125
 20
96.7409744262695312
 30
0.0
 10
1579.83642578125
 20
105.0253982543945312
 30
0.0
 40
0.0
 40
0.0
 40
0.0
 40
0.0
 40
4.0
 40
4.0
 40
4.0
 40
4.0
  0
SPLINE
  5
11D
100
AcDbEntity
  8
mainlayer
 62
5
370
-1
 48
1.0
  6
BYLAYER
100
AcDbSpline
 70
8
 71
3
 72
8
 73
4
 74
0
 10
1735.248779296875
 20
29.0881385803222656
 30
0.0
 10
1735.2487792968754547
 20
37.3735389709472727
 30
0.0
 10
1741.965576171875
 20
44.0903358459472656
 30
0.0
 10
1750.2509765625
 20
44.0903358459472656
 30
0.0
 40
0.0
 40
0.0
 40
0.0
 40
0.0
 40
4.0
 40
4.0
 40
4.0
 40
4.0
  0
SPLINE
  5
11E
100
AcDbEntity
  8
mainlayer
 62
5
370
-1
 48
1.0
  6
BYLAYER
100
AcDbSpline
 70
8
 71
3
 72
8
 73
4
 74
0
 10
1750.2509765625
 20
44.0903358459472656
 30
0.0
 10
1758.5363769531254547
 20
44.0903358459472798
 30
0.0
 10
1765.253173828125
 20
37.3735389709472656
 30
0.0
 10
1765.253173828125
 20
29.0881385803222656
 30
0.0
 40
0.0
 40
0.0
 40
0.0
 40
0.0
 40
4.0
 40
4.0
 40
4.0
 40
4.0
  0
SPLINE
  5
11F
100
AcDbEntity
  8
mainlayer
 62
5
370
-1
 48
1.0
  6
BYLAYER
100
AcDbSpline
 70
8
 71
3
 72
8
 73
4
 74
0
 10
1765.253173828125
 20
29.0881385803222656
 30
0.0
 10
1765.2531738281254547
 20
20.8027381896972692
 30
0.0
 10
1758.536376953125
 20
14.0859413146972656
 30
0.0
 10
1750.2509765625
 20
14.0859413146972656
 30
0.0
 40
0.0
 40
0.0
 40
0.0
 40
0.0
 40
4.0
 40
4.0
 40
4.0
 40
4.0
  0
SPLINE
  5
120
100
AcDbEntity
  8
mainlayer
 62
5
370
-1
 48
1.0
  6
BYLAYER
100
AcDbSpline
 70
8
 71
3
 72
8
 73
4
 74
0
 10
1750.2509765625
 20
14.0859413146972656
 30
0.0
 10
1741.9655761718754547
 20
14.0859413146972674
 30
0.0
 10
1735.248779296875
 20
20.8027381896972656
 30
0.0
 10
1735.248779296875
 20
29.0881385803222656
 30
0.0
 40
0.0
 40
0.0
 40
0.0
 40
0.0
 40
4.0
 40
4.0
 40
4.0
 40
4.0
  0
ENDBLK
  5
121
100
AcDbEntity
  8
0
100
AcDbBlockEnd
  0
BLOCK
  5
122
100
AcDbEntity
  8
0
100
AcDbBlockBegin
  2
YI5EKV4S
 70
0
 10
0.0
 20
0.0
 30
0.0
  3
YI5EKV4S
  1

  0
LWPOLYLINE
  5
123
100
AcDbEntity
  8
mainlayer
 62
202
370
-1
 48
1.0
  6
BYLAYER
100
AcDbPolyline
 90
2
 70
0
 10
1407.572265625
 20
2377.71630859375
 10
1407.572265625
 20
2384.71630859375
  0
LWPOLYLINE
  5
124
100
AcDbEntity
  8
mainlayer
 62
202
370
-1
 48
1.0
  6
BYLAYER
100
AcDbPolyline
 90
2
 70
0
 10
897.6357421875
 20
2082.2216796875
 10
897.6357421875
 20
2089.2216796875
  0
LWPOLYLINE
  5
125
100
AcDbEntity
  8
mainlayer
 62
202
370
-1
 48
1.0
  6
BYLAYER
100
AcDbPolyline
 90
2
 70
0
 10
1822.9453125
 20
2082.2216796875
 10
1822.9453125
 20
2089.2216796875
  0
LWPOLYLINE
  5
126
100
AcDbEntity
  8
mainlayer
 62
202
370
-1
 48
1.0
  6
BYLAYER
100
AcDbPolyline
 90
2
 70
0
 10
1219.53955078125
 20
1780.4892578125
 10
1219.53955078125
 20
1787.4892578125
  0
LWPOLYLINE
  5
127
100
AcDbEntity
  8
mainlayer
 62
202
370
-1
 48
1.0
  6
BYLAYER
100
AcDbPolyline
 90
2
 70
0
 10
1167.38671875
 20
1544.43310546875
 10
1172.3359375
 20
1549.38232421875
  0
LWPOLYLINE
  5
128
100
AcDbEntity
  8
mainlayer
 62
202
370
-1
 48
1.0
  6
BYLAYER
100
AcDbPolyline
 90
2
 70
0
 10
894.568359375
 20
1776.53369140625
 10
901.568359375
 20
1776.53369140625
  0
LWPOLYLINE
  5
129
100
AcDbEntity
  8
mainlayer
 62
202
370
-1
 48
1.0
  6
BYLAYER
100
AcDbPolyline
 90
2
 70
0
 10
779.634765625
 20
1017.0771484375
 10
784.58447265625
 20
1022.02685546875
  0
LWPOLYLINE
  5
12A
100
AcDbEntity
  8
mainlayer
 62
202
370
-1
 48
1.0
  6
BYLAYER
100
AcDbPolyline
 90
2
 70
0
 10
784.39453125
 20
1141.619140625
 10
789.34423828125
 20
1146.56884765625
  0
LWPOLYLINE
  5
12B
100
AcDbEntity
  8
mainlayer
 62
202
370
-1
 48
1.0
  6
BYLAYER
100
AcDbPolyline
 90
2
 70
0
 10
940.5078125
 20
985.5009765625
 10
945.45751953125
 20
990.45068359375
  0
LWPOLYLINE
  5
12C
100
AcDbEntity
  8
mainlayer
 62
202
370
-1
 48
1.0
  6
BYLAYER
100
AcDbPolyline
 90
2
 70
0
 10
1171.78369140625
 20
1055.88330078125
 10
1178.78369140625
 20
1055.88330078125
  0
LWPOLYLINE
  5
12D
100
AcDbEntity
  8
mainlayer
 62
202
370
-1
 48
1.0
  6
BYLAYER
100
AcDbPolyline
 90
2
 70
0
 10
891.1357421875
 20
442.59765625
 10
898.1357421875
 20
442.59765625
  0
LWPOLYLINE
  5
12E
100
AcDbEntity
  8
mainlayer
 62
202
370
-1
 48
1.0
  6
BYLAYER
100
AcDbPolyline
 90
2
 70
0
 10
1093.66064453125
 20
596.14111328125
 10
1100.66064453125
 20
596.14111328125
  0
LWPOLYLINE
  5
12F
100
AcDbEntity
  8
mainlayer
 62
202
370
-1
 48
1.0
  6
BYLAYER
100
AcDbPolyline
 90
2
 70
0
 10
1256.28369140625
 20
270.401611328125
 10
1263.28369140625
 20
270.401611328125
  0
LWPOLYLINE
  5
130
100
AcDbEntity
  8
mainlayer
 62
202
370
-1
 48
1.0
  6
BYLAYER
100
AcDbPolyline
 90
2
 70
0
 10
1436.4775390625
 20
510.12646484375
 10
1443.4775390625
 20
510.12646484375
  0
LWPOLYLINE
  5
131
100
AcDbEntity
  8
mainlayer
 62
202
370
-1
 48
1.0
  6
BYLAYER
100
AcDbPolyline
 90
2
 70
0
 10
1746.96484375
 20
349.3720703125
 10
1753.96484375
 20
349.3720703125
  0
LWPOLYLINE
  5
132
100
AcDbEntity
  8
mainlayer
 62
202
370
-1
 48
1.0
  6
BYLAYER
100
AcDbPolyline
 90
2
 70
0
 10
1391.275390625
 20
733.40576171875
 10
1398.275390625
 20
733.40576171875
  0
LWPOLYLINE
  5
133
100
AcDbEntity
  8
mainlayer
 62
202
370
-1
 48
1.0
  6
BYLAYER
100
AcDbPolyline
 90
2
 70
0
 10
1368.4892578125
 20
1001.58251953125
 10
1373.43896484375
 20
1006.5322265625
  0
LWPOLYLINE
  5
134
100
AcDbEntity
  8
mainlayer
 62
202
370
-1
 48
1.0
  6
BYLAYER
100
AcDbPolyline
 90
2
 70
0
 10
1477.0908203125
 20
1176.88427734375
 10
1477.0908203125
 20
1183.88427734375
  0
LWPOLYLINE
  5
135
100
AcDbEntity
  8
mainlayer
 62
202
370
-1
 48
1.0
  6
BYLAYER
100
AcDbPolyline
 90
2
 70
0
 10
1594.6455078125
 20
1176.88427734375
 10
1594.6455078125
 20
1183.88427734375
  0
LWPOLYLINE
  5
136
100
AcDbEntity
  8
mainlayer
 62
202
370
-1
 48
1.0
  6
BYLAYER
100
AcDbPolyline
 90
2
 70
0
 10
1867.873046875
 20
1209.02783203125
 10
1867.873046875
 20
1216.02783203125
  0
LWPOLYLINE
  5
137
100
AcDbEntity
  8
mainlayer
 62
202
370
-1
 48
1.0
  6
BYLAYER
100
AcDbPolyline
 90
2
 70
0
 10
1348.9345703125
 20
1451.9580078125
 10
1355.9345703125
 20
1451.9580078125
  0
LWPOLYLINE
  5
138
100
AcDbEntity
  8
mainlayer
 62
202
370
-1
 48
1.0
  6
BYLAYER
100
AcDbPolyline
 90
2
 70
0
 10
1521.7177734375
 20
1517.54248046875
 10
1521.7177734375
 20
1524.54248046875
  0
ENDBLK
  5
139
100
AcDbEntity
  8
0
100
AcDbBlockEnd
  0
ENDSEC
  0
SECTION
  2
ENTITIES
  0
LWPOLYLINE
  5
13A
100
AcDbEntity
  8
mainlayer
 62
3
370
-1
 48
1.0
  6
BYLAYER
100
AcDbPolyline
 90
2
 70
0
 10
1418.6171875
 20
126.1044998168945312
 10
1418.6171875
 20
0.0000042187498366
  0
LWPOLYLINE
  5
13B
100
AcDbEntity
  8
mainlayer
 62
3
370
-1
 48
1.0
  6
BYLAYER
100
AcDbPolyline
 90
2
 70
0
 10
757.8818359375
 20
52.9831581115722656
 10
757.8818359375
 20
0.0000042187498366
  0
LWPOLYLINE
  5
13C
100
AcDbEntity
  8
mainlayer
 62
3
370
-1
 48
1.0
  6
BYLAYER
100
AcDbPolyline
 90
2
 70
0
 10
1359.779296875
 20
0.0000042187498366
 10
1359.779296875
 20
233.190185546875
  0
LWPOLYLINE
  5
13D
100
AcDbEntity
  8
mainlayer
 62
3
370
-1
 48
1.0
  6
BYLAYER
100
AcDbPolyline
 90
2
 70
0
 10
1684.9814453125
 20
0.0000042187498366
 10
1684.9814453125
 20
426.64453125
  0
LWPOLYLINE
  5
13E
100
AcDbEntity
  8
mainlayer
 62
3
370
-1
 48
1.0
  6
BYLAYER
100
AcDbPolyline
 90
2
 70
0
 10
1810.462890625
 20
483.865234375
 10
1810.462890625
 20
0.0000042187498366
  0
LWPOLYLINE
  5
13F
100
AcDbEntity
  8
mainlayer
 62
3
370
-1
 48
1.0
  6
BYLAYER
100
AcDbPolyline
 90
2
 70
0
 10
1009.6865234375
 20
82.5246658325195312
 10
1009.6865234375
 20
0.0000042187498366
  0
LWPOLYLINE
  5
140
100
AcDbEntity
  8
mainlayer
 62
3
370
-1
 48
1.0
  6
BYLAYER
100
AcDbPolyline
 90
2
 70
0
 10
946.1953125
 20
252.6318359375
 10
946.1953125
 20
0.0000042187498366
  0
LWPOLYLINE
  5
141
100
AcDbEntity
  8
mainlayer
 62
3
370
-1
 48
1.0
  6
BYLAYER
100
AcDbPolyline
 90
2
 70
0
 10
1867.8984375
 20
1003.052734375
 10
1909.75
 20
961.1982421875
  0
LWPOLYLINE
  5
142
100
AcDbEntity
  8
mainlayer
 62
3
370
-1
 48
1.0
  6
BYLAYER
100
AcDbPolyline
 90
2
 70
0
 10
1750.46484375
 20
242.918701171875
 10
1750.46484375
 20
44.0930213928222656
  0
LWPOLYLINE
  5
143
100
AcDbEntity
  8
mainlayer
 62
3
370
-1
 48
1.0
  6
BYLAYER
100
AcDbPolyline
 90
2
 70
0
 10
1608.32421875
 20
1528.10400390625
 10
1608.32421875
 20
1371.2294921875
  0
LWPOLYLINE
  5
144
100
AcDbEntity
  8
mainlayer
 62
3
370
-1
 48
1.0
  6
BYLAYER
100
AcDbPolyline
 90
2
 70
0
 10
1477.0908203125
 20
1180.38427734375
 10
1594.6455078125
 20
1180.38427734375
  0
LWPOLYLINE
  5
145
100
AcDbEntity
  8
mainlayer
 62
3
370
-1
 48
1.0
  6
BYLAYER
100
AcDbPolyline
 90
2
 70
0
 10
1867.708984375
 20
1166.52734375
 10
1909.75
 20
1166.52734375
  0
LWPOLYLINE
  5
146
100
AcDbEntity
  8
mainlayer
 62
3
370
-1
 48
1.0
  6
BYLAYER
100
AcDbPolyline
 90
2
 70
0
 10
1867.873046875
 20
1212.52783203125
 10
1909.75
 20
1212.52783203125
  0
LWPOLYLINE
  5
147
100
AcDbEntity
  8
mainlayer
 62
3
370
-1
 48
1.0
  6
BYLAYER
100
AcDbPolyline
 90
2
 70
0
 10
1785.0654296875
 20
1260.86669921875
 10
1909.75
 20
1260.86669921875
  0
LWPOLYLINE
  5
148
100
AcDbEntity
  8
mainlayer
 62
3
370
-1
 48
1.0
  6
BYLAYER
100
AcDbPolyline
 90
2
 70
0
 10
1866.3154296875
 20
1479.03955078125
 10
1909.75
 20
1479.03955078125
  0
LWPOLYLINE
  5
149
100
AcDbEntity
  8
mainlayer
 62
3
370
-1
 48
1.0
  6
BYLAYER
100
AcDbPolyline
 90
2
 70
0
 10
1020.6376953125
 20
1159.36474609375
 10
889.20166015625
 20
1290.80810546875
  0
LWPOLYLINE
  5
14A
100
AcDbEntity
  8
mainlayer
 62
3
370
-1
 48
1.0
  6
BYLAYER
100
AcDbPolyline
 90
2
 70
0
 10
1394.3798828125
 20
267.791748046875
 10
1394.3798828125
 20
565.244140625
  0
LWPOLYLINE
  5
14B
100
AcDbEntity
  8
mainlayer
 62
3
370
-1
 48
1.0
  6
BYLAYER
100
AcDbPolyline
 90
2
 70
0
 10
1438.91650390625
 20
609.78369140625
 10
1438.91650390625
 20
1032.21044921875
  0
LWPOLYLINE
  5
14C
100
AcDbEntity
  8
mainlayer
 62
3
370
-1
 48
1.0
  6
BYLAYER
100
AcDbPolyline
 90
2
 70
0
 10
1531.2294921875
 20
1009.78271484375
 10
1788.69921875
 20
1009.78271484375
  0
LWPOLYLINE
  5
14D
100
AcDbEntity
  8
mainlayer
 62
3
370
-1
 48
1.0
  6
BYLAYER
100
AcDbPolyline
 90
2
 70
0
 10
1512.0498046875
 20
950.3916015625
 10
1766.7255859375
 20
950.3916015625
  0
LWPOLYLINE
  5
14E
100
AcDbEntity
  8
mainlayer
 62
3
370
-1
 48
1.0
  6
BYLAYER
100
AcDbPolyline
 90
2
 70
0
 10
1862.6455078125
 20
854.466796875
 10
1909.75
 20
854.466796875
  0
LWPOLYLINE
  5
14F
100
AcDbEntity
  8
mainlayer
 62
3
370
-1
 48
1.0
  6
BYLAYER
100
AcDbPolyline
 90
2
 70
0
 10
1370.9638671875
 20
1004.0576171875
 10
1394.775390625
 20
980.244140625
  0
LWPOLYLINE
  5
150
100
AcDbEntity
  8
mainlayer
 62
3
370
-1
 48
1.0
  6
BYLAYER
100
AcDbPolyline
 90
2
 70
0
 10
1535.779296875
 20
575.85546875
 10
1535.779296875
 20
803.123046875
  0
LWPOLYLINE
  5
151
100
AcDbEntity
  8
mainlayer
 62
3
370
-1
 48
1.0
  6
BYLAYER
100
AcDbPolyline
 90
2
 70
0
 10
1572.0185546875
 20
839.36279296875
 10
1572.0185546875
 20
872.05908203125
  0
LWPOLYLINE
  5
152
100
AcDbEntity
  8
mainlayer
 62
3
370
-1
 48
1.0
  6
BYLAYER
100
AcDbPolyline
 90
2
 70
0
 10
1624.69140625
 20
827.78759765625
 10
1624.69140625
 20
669.6455078125
  0
LWPOLYLINE
  5
153
100
AcDbEntity
  8
mainlayer
 62
3
370
-1
 48
1.0
  6
BYLAYER
100
AcDbPolyline
 90
2
 70
0
 10
1775.751953125
 20
743.46728515625
 10
1909.75
 20
743.46728515625
  0
LWPOLYLINE
  5
154
100
AcDbEntity
  8
mainlayer
 62
3
370
-1
 48
1.0
  6
BYLAYER
100
AcDbPolyline
 90
2
 70
0
 10
1739.1845703125
 20
646.0556640625
 10
1833.923828125
 20
646.0556640625
  0
LWPOLYLINE
  5
155
100
AcDbEntity
  8
mainlayer
 62
3
370
-1
 48
1.0
  6
BYLAYER
100
AcDbPolyline
 90
2
 70
0
 10
1750.46484375
 20
457.29345703125
 10
1609.072265625
 20
598.69482421875
  0
LWPOLYLINE
  5
156
100
AcDbEntity
  8
mainlayer
 62
3
370
-1
 48
1.0
  6
BYLAYER
100
AcDbPolyline
 90
2
 70
0
 10
1439.9775390625
 20
510.12646484375
 10
1439.9775390625
 20
257.82666015625
  0
LWPOLYLINE
  5
157
100
AcDbEntity
  8
mainlayer
 62
3
370
-1
 48
1.0
  6
BYLAYER
100
AcDbPolyline
 90
2
 70
0
 10
1481.8916015625
 20
215.906982421875
 10
1481.8916015625
 20
92.3232498168945312
  0
LWPOLYLINE
  5
158
100
AcDbEntity
  8
mainlayer
 62
3
370
-1
 48
1.0
  6
BYLAYER
100
AcDbPolyline
 90
2
 70
0
 10
1486.1484375
 20
859.998046875
 10
1486.1484375
 20
455.77783203125
  0
LWPOLYLINE
  5
159
100
AcDbEntity
  8
mainlayer
 62
3
370
-1
 48
1.0
  6
BYLAYER
100
AcDbPolyline
 90
2
 70
0
 10
1595.0234375
 20
346.89892578125
 10
1595.0234375
 20
120.0232009887695312
  0
LWPOLYLINE
  5
15A
100
AcDbEntity
  8
mainlayer
 62
3
370
-1
 48
1.0
  6
BYLAYER
100
AcDbPolyline
 90
2
 70
0
 10
1671.6455078125
 20
1539.7373046875
 10
1785.0654296875
 20
1539.7373046875
  0
LWPOLYLINE
  5
15B
100
AcDbEntity
  8
mainlayer
 62
3
370
-1
 48
1.0
  6
BYLAYER
100
AcDbPolyline
 90
2
 70
0
 10
1785.0654296875
 20
1168.12939453125
 10
1671.6455078125
 20
1168.12939453125
  0
LWPOLYLINE
  5
15C
100
AcDbEntity
  8
mainlayer
 62
3
370
-1
 48
1.0
  6
BYLAYER
100
AcDbPolyline
 90
2
 70
0
 10
1521.7177734375
 20
1521.04248046875
 10
1390.5068359375
 20
1521.04248046875
  0
LWPOLYLINE
  5
15D
100
AcDbEntity
  8
mainlayer
 62
3
370
-1
 48
1.0
  6
BYLAYER
100
AcDbPolyline
 90
2
 70
0
 10
1352.4345703125
 20
1482.970703125
 10
1352.4345703125
 20
1451.9580078125
  0
LWPOLYLINE
  5
15E
100
AcDbEntity
  8
mainlayer
 62
3
370
-1
 48
1.0
  6
BYLAYER
100
AcDbPolyline
 90
2
 70
0
 10
1356.6337890625
 20
1377.51025390625
 10
1387.8798828125
 20
1377.51025390625
  0
LWPOLYLINE
  5
15F
100
AcDbEntity
  8
mainlayer
 62
3
370
-1
 48
1.0
  6
BYLAYER
100
AcDbPolyline
 90
2
 70
0
 10
1453.953125
 20
1311.4326171875
 10
1533.6806640625
 20
1311.4326171875
  0
LWPOLYLINE
  5
160
100
AcDbEntity
  8
mainlayer
 62
3
370
-1
 48
1.0
  6
BYLAYER
100
AcDbPolyline
 90
2
 70
0
 10
1593.3056640625
 20
1248.3408203125
 10
1426.5576171875
 20
1248.3408203125
  0
LWPOLYLINE
  5
161
100
AcDbEntity
  8
mainlayer
 62
3
370
-1
 48
1.0
  6
BYLAYER
100
AcDbPolyline
 90
2
 70
0
 10
1364.8876953125
 20
1215.40869140625
 10
1364.8876953125
 20
1147.98291015625
  0
LWPOLYLINE
  5
162
100
AcDbEntity
  8
mainlayer
 62
3
370
-1
 48
1.0
  6
BYLAYER
100
AcDbPolyline
 90
2
 70
0
 10
1395.5185546875
 20
1117.3505859375
 10
1702.548828125
 20
1117.3505859375
  0
LWPOLYLINE
  5
163
100
AcDbEntity
  8
mainlayer
 62
3
370
-1
 48
1.0
  6
BYLAYER
100
AcDbPolyline
 90
2
 70
0
 10
1742.296875
 20
1077.6025390625
 10
1909.75
 20
1077.6025390625
  0
LWPOLYLINE
  5
164
100
AcDbEntity
  8
mainlayer
 62
3
370
-1
 48
1.0
  6
BYLAYER
100
AcDbPolyline
 90
2
 70
0
 10
1344.5068359375
 20
1694.56591796875
 10
1432.9228515625
 20
1694.56591796875
  0
LWPOLYLINE
  5
165
100
AcDbEntity
  8
mainlayer
 62
3
370
-1
 48
1.0
  6
BYLAYER
100
AcDbPolyline
 90
2
 70
0
 10
1432.9228515625
 20
1782.98876953125
 10
1344.5068359375
 20
1782.98876953125
  0
LWPOLYLINE
  5
166
100
AcDbEntity
  8
mainlayer
 62
3
370
-1
 48
1.0
  6
BYLAYER
100
AcDbPolyline
 90
2
 70
0
 10
1432.9228515625
 20
1738.77880859375
 10
1507.7548828125
 20
1738.77880859375
  0
LWPOLYLINE
  5
167
100
AcDbEntity
  8
mainlayer
 62
3
370
-1
 48
1.0
  6
BYLAYER
100
AcDbPolyline
 90
2
 70
0
 10
1552.912109375
 20
1783.93896484375
 10
1719.8896484375
 20
1783.93896484375
  0
LWPOLYLINE
  5
168
100
AcDbEntity
  8
mainlayer
 62
3
370
-1
 48
1.0
  6
BYLAYER
100
AcDbPolyline
 90
2
 70
0
 10
1846.2890625
 20
1664.55517578125
 10
1909.75
 20
1664.55517578125
  0
LWPOLYLINE
  5
169
100
AcDbEntity
  8
mainlayer
 62
3
370
-1
 48
1.0
  6
BYLAYER
100
AcDbPolyline
 90
2
 70
0
 10
1514.12109375
 20
1858.5009765625
 10
1760.5986328125
 20
1858.5009765625
  0
LWPOLYLINE
  5
16A
100
AcDbEntity
  8
mainlayer
 62
3
370
-1
 48
1.0
  6
BYLAYER
100
AcDbPolyline
 90
2
 70
0
 10
1847.7587890625
 20
1771.33544921875
 10
1909.75
 20
1771.33544921875
  0
LWPOLYLINE
  5
16B
100
AcDbEntity
  8
mainlayer
 62
3
370
-1
 48
1.0
  6
BYLAYER
100
AcDbPolyline
 90
2
 70
0
 10
1697.7587890625
 20
1727.12158203125
 10
1845.03125
 20
1579.841796875
  0
LWPOLYLINE
  5
16C
100
AcDbEntity
  8
mainlayer
 62
3
370
-1
 48
1.0
  6
BYLAYER
100
AcDbPolyline
 90
2
 70
0
 10
1484.3359375
 20
1679.0224609375
 10
1532.4697265625
 20
1679.0224609375
  0
LWPOLYLINE
  5
16D
100
AcDbEntity
  8
mainlayer
 62
3
370
-1
 48
1.0
  6
BYLAYER
100
AcDbPolyline
 90
2
 70
0
 10
1532.4697265625
 20
1569.623046875
 10
1484.3359375
 20
1569.623046875
  0
LWPOLYLINE
  5
16E
100
AcDbEntity
  8
mainlayer
 62
3
370
-1
 48
1.0
  6
BYLAYER
100
AcDbPolyline
 90
2
 70
0
 10
1097.49853515625
 20
502.82421875
 10
1097.49853515625
 20
472.68115234375
  0
LWPOLYLINE
  5
16F
100
AcDbEntity
  8
mainlayer
 62
3
370
-1
 48
1.0
  6
BYLAYER
100
AcDbPolyline
 90
2
 70
0
 10
1052.525390625
 20
427.70703125
 10
1052.525390625
 20
125.3676834106445312
  0
LWPOLYLINE
  5
170
100
AcDbEntity
  8
mainlayer
 62
3
370
-1
 48
1.0
  6
BYLAYER
100
AcDbPolyline
 90
2
 70
0
 10
1165.072265625
 20
185.282958984375
 10
1259.78369140625
 20
90.5661697387695312
  0
LWPOLYLINE
  5
171
100
AcDbEntity
  8
mainlayer
 62
3
370
-1
 48
1.0
  6
BYLAYER
100
AcDbPolyline
 90
2
 70
0
 10
1175.28369140625
 20
1291.50634765625
 10
1017.04150390625
 20
1449.75537109375
  0
LWPOLYLINE
  5
172
100
AcDbEntity
  8
mainlayer
 62
3
370
-1
 48
1.0
  6
BYLAYER
100
AcDbPolyline
 90
2
 70
0
 10
782.109375
 20
1019.55224609375
 10
923.61328125
 20
878.041015625
  0
LWPOLYLINE
  5
173
100
AcDbEntity
  8
mainlayer
 62
3
370
-1
 48
1.0
  6
BYLAYER
100
AcDbPolyline
 90
2
 70
0
 10
923.61328125
 20
565.9267578125
 10
894.6357421875
 20
536.947265625
  0
LWPOLYLINE
  5
174
100
AcDbEntity
  8
mainlayer
 62
3
370
-1
 48
1.0
  6
BYLAYER
100
AcDbPolyline
 90
2
 70
0
 10
1067.3076171875
 20
1649.46923828125
 10
1067.3076171875
 20
1708.57568359375
  0
LWPOLYLINE
  5
175
100
AcDbEntity
  8
mainlayer
 62
3
370
-1
 48
1.0
  6
BYLAYER
100
AcDbPolyline
 90
2
 70
0
 10
1142.7177734375
 20
1783.9892578125
 10
1219.53955078125
 20
1783.9892578125
  0
LWPOLYLINE
  5
176
100
AcDbEntity
  8
mainlayer
 62
3
370
-1
 48
1.0
  6
BYLAYER
100
AcDbPolyline
 90
2
 70
0
 10
815.3486328125
 20
1778.00927734375
 10
815.3486328125
 20
1216.935546875
  0
LWPOLYLINE
  5
177
100
AcDbEntity
  8
mainlayer
 62
3
370
-1
 48
1.0
  6
BYLAYER
100
AcDbPolyline
 90
2
 70
0
 10
1009.4736328125
 20
1022.8017578125
 10
1009.4736328125
 20
315.91064453125
  0
LWPOLYLINE
  5
178
100
AcDbEntity
  8
mainlayer
 62
3
370
-1
 48
1.0
  6
BYLAYER
100
AcDbPolyline
 90
2
 70
0
 10
898.068359375
 20
1776.53369140625
 10
898.068359375
 20
1437.66259765625
  0
LWPOLYLINE
  5
179
100
AcDbEntity
  8
mainlayer
 62
3
370
-1
 48
1.0
  6
BYLAYER
100
AcDbPolyline
 90
2
 70
0
 10
1097.16064453125
 20
1238.5625
 10
1097.16064453125
 20
596.14111328125
  0
LWPOLYLINE
  5
17A
100
AcDbEntity
  8
mainlayer
 62
3
370
-1
 48
1.0
  6
BYLAYER
100
AcDbPolyline
 90
2
 70
0
 10
924.9267578125
 20
1862.41650390625
 10
983.1025390625
 20
1804.23681640625
  0
LWPOLYLINE
  5
17B
100
AcDbEntity
  8
mainlayer
 62
3
370
-1
 48
1.0
  6
BYLAYER
100
AcDbPolyline
 90
2
 70
0
 10
983.1025390625
 20
1615.19384765625
 10
1259.78369140625
 20
1338.49560546875
  0
LWPOLYLINE
  5
17C
100
AcDbEntity
  8
mainlayer
 62
3
370
-1
 48
1.0
  6
BYLAYER
100
AcDbPolyline
 90
2
 70
0
 10
1561.7607421875
 20
1961.63818359375
 10
1589.75
 20
1961.63818359375
  0
LWPOLYLINE
  5
17D
100
AcDbEntity
  8
mainlayer
 62
3
370
-1
 48
1.0
  6
BYLAYER
100
AcDbPolyline
 90
2
 70
0
 10
1589.75
 20
1989.62890625
 10
1561.7607421875
 20
1989.62890625
  0
LWPOLYLINE
  5
17E
100
AcDbEntity
  8
mainlayer
 62
3
370
-1
 48
1.0
  6
BYLAYER
100
AcDbPolyline
 90
2
 70
0
 10
1379.77734375
 20
1961.63818359375
 10
1407.7685546875
 20
1961.63818359375
  0
LWPOLYLINE
  5
17F
100
AcDbEntity
  8
mainlayer
 62
3
370
-1
 48
1.0
  6
BYLAYER
100
AcDbPolyline
 90
2
 70
0
 10
1407.7685546875
 20
1989.62890625
 10
1379.77734375
 20
1989.62890625
  0
LWPOLYLINE
  5
180
100
AcDbEntity
  8
mainlayer
 62
3
370
-1
 48
1.0
  6
BYLAYER
100
AcDbPolyline
 90
2
 70
0
 10
1197.7978515625
 20
1961.63818359375
 10
1225.78564453125
 20
1961.63818359375
  0
LWPOLYLINE
  5
181
100
AcDbEntity
  8
mainlayer
 62
3
370
-1
 48
1.0
  6
BYLAYER
100
AcDbPolyline
 90
2
 70
0
 10
1225.78564453125
 20
1989.62890625
 10
1197.7978515625
 20
1989.62890625
  0
LWPOLYLINE
  5
182
100
AcDbEntity
  8
mainlayer
 62
3
370
-1
 48
1.0
  6
BYLAYER
100
AcDbPolyline
 90
2
 70
0
 10
1016.24658203125
 20
1961.63818359375
 10
1044.236328125
 20
1961.63818359375
  0
LWPOLYLINE
  5
183
100
AcDbEntity
  8
mainlayer
 62
3
370
-1
 48
1.0
  6
BYLAYER
100
AcDbPolyline
 90
2
 70
0
 10
1044.236328125
 20
1989.62890625
 10
1016.24658203125
 20
1989.62890625
  0
LWPOLYLINE
  5
184
100
AcDbEntity
  8
mainlayer
 62
3
370
-1
 48
1.0
  6
BYLAYER
100
AcDbPolyline
 90
2
 70
0
 10
1391.0146484375
 20
2251.31494140625
 10
1777.2587890625
 20
2251.31494140625
  0
LWPOLYLINE
  5
185
100
AcDbEntity
  8
mainlayer
 62
3
370
-1
 48
1.0
  6
BYLAYER
100
AcDbPolyline
 90
2
 70
0
 10
757.8818359375
 20
772.57763671875
 10
757.8818359375
 20
189.70556640625
  0
LWPOLYLINE
  5
186
100
AcDbEntity
  8
mainlayer
 62
3
370
-1
 48
1.0
  6
BYLAYER
100
AcDbPolyline
 90
2
 70
0
 10
843.275390625
 20
149.18701171875
 10
843.275390625
 20
774.2333984375
  0
LWPOLYLINE
  5
187
100
AcDbEntity
  8
mainlayer
 62
3
370
-1
 48
1.0
  6
BYLAYER
100
AcDbPolyline
 90
2
 70
0
 10
855.4365234375
 20
2247.48095703125
 10
1066.6435546875
 20
2247.48095703125
  0
LWPOLYLINE
  5
188
100
AcDbEntity
  8
mainlayer
 62
3
370
-1
 48
1.0
  6
BYLAYER
100
AcDbPolyline
 90
2
 70
0
 10
897.6357421875
 20
2085.7216796875
 10
1070.1298828125
 20
2085.7216796875
  0
LWPOLYLINE
  5
189
100
AcDbEntity
  8
mainlayer
 62
3
370
-1
 48
1.0
  6
BYLAYER
100
AcDbPolyline
 90
2
 70
0
 10
1106.0087890625
 20
2121.6015625
 10
1701.0234375
 20
2121.6015625
  0
LWPOLYLINE
  5
18A
100
AcDbEntity
  8
mainlayer
 62
3
370
-1
 48
1.0
  6
BYLAYER
100
AcDbPolyline
 90
2
 70
0
 10
1736.900390625
 20
2085.7216796875
 10
1822.9453125
 20
2085.7216796875
  0
LWPOLYLINE
  5
18B
100
AcDbEntity
  8
mainlayer
 62
3
370
-1
 48
1.0
  6
BYLAYER
100
AcDbPolyline
 90
2
 70
0
 10
1178.25244140625
 20
2227.2421875
 10
1229.06640625
 20
2227.2421875
  0
LWPOLYLINE
  5
18C
100
AcDbEntity
  8
mainlayer
 62
3
370
-1
 48
1.0
  6
BYLAYER
100
AcDbPolyline
 90
2
 70
0
 10
1229.06640625
 20
2278.0615234375
 10
1178.25244140625
 20
2278.0615234375
  0
LWPOLYLINE
  5
18D
100
AcDbEntity
  8
mainlayer
 62
3
370
-1
 48
1.0
  6
BYLAYER
100
AcDbPolyline
 90
2
 70
0
 10
1019.400390625
 20
2307.708984375
 10
762.99658203125
 20
2307.708984375
  0
LWPOLYLINE
  5
18E
100
AcDbEntity
  8
mainlayer
 62
3
370
-1
 48
1.0
  6
BYLAYER
100
AcDbPolyline
 90
2
 70
0
 10
942.982421875
 20
987.97607421875
 10
786.86962890625
 20
1144.09423828125
  0
LWPOLYLINE
  5
18F
100
AcDbEntity
  8
mainlayer
 62
3
370
-1
 48
1.0
  6
BYLAYER
100
AcDbPolyline
 90
2
 70
0
 10
1224.4677734375
 20
1593.67529296875
 10
1383.9306640625
 20
1593.67529296875
  0
LWPOLYLINE
  5
190
100
AcDbEntity
  8
mainlayer
 62
3
370
-1
 48
1.0
  6
BYLAYER
100
AcDbPolyline
 90
6
 70
0
 10
1175.28369140625
 20
1055.88330078125
 10
1175.28369140625
 20
904.0556640625
 10
1175.28369140625
 20
904.0556640625
 10
1259.78369140625
 20
819.5478515625
 10
1259.78369140625
 20
819.5478515625
 10
1259.78369140625
 20
270.401611328125
  0
LWPOLYLINE
  5
191
100
AcDbEntity
  8
mainlayer
 62
3
370
-1
 48
1.0
  6
BYLAYER
100
AcDbPolyline
 90
2
 70
0
 10
774.6376953125
 20
1938.83642578125
 10
1857.125
 20
1938.83642578125
  0
LWPOLYLINE
  5
192
100
AcDbEntity
  8
mainlayer
 62
3
370
-1
 48
1.0
  6
BYLAYER
100
AcDbPolyline
 90
2
 70
0
 10
796.4677734375
 20
2015.0966796875
 10
1909.75
 20
2015.0966796875
  0
LWPOLYLINE
  5
193
100
AcDbEntity
  8
mainlayer
 62
3
370
-1
 48
1.0
  6
BYLAYER
100
AcDbPolyline
 90
2
 70
0
 10
871.115234375
 20
2505.0009765625
 10
1578.06640625
 20
2505.0009765625
  0
LWPOLYLINE
  5
194
100
AcDbEntity
  8
mainlayer
 62
3
370
-1
 48
1.0
  6
BYLAYER
100
AcDbPolyline
 90
2
 70
0
 10
808.33447265625
 20
2426.5029296875
 10
1777.2236328125
 20
2426.5029296875
  0
LWPOLYLINE
  5
195
100
AcDbEntity
  8
mainlayer
 62
3
370
-1
 48
1.0
  6
BYLAYER
100
AcDbPolyline
 90
2
 70
0
 10
1139.1005859375
 20
2319.9404296875
 10
1777.90625
 20
2319.9404296875
  0
LWPOLYLINE
  5
196
100
AcDbEntity
  8
mainlayer
 62
3
370
-1
 48
1.0
  6
BYLAYER
100
AcDbPolyline
 90
2
 70
0
 10
1782.201171875
 20
2177.77978515625
 10
845.400390625
 20
2177.77978515625
  0
LWPOLYLINE
  5
197
100
AcDbEntity
  8
mainlayer
 62
3
370
-1
 48
1.0
  6
BYLAYER
100
AcDbPolyline
 90
2
 70
0
 10
1407.572265625
 20
2381.21630859375
 10
1092.900390625
 20
2381.21630859375
  0
LWPOLYLINE
  5
198
100
AcDbEntity
  8
mainlayer
 62
3
370
-1
 48
1.0
  6
BYLAYER
100
AcDbPolyline
 90
2
 70
0
 10
1310.00048828125
 20
2550.0
 10
1310.00048828125
 20
0.0000042187498366
  0
LWPOLYLINE
  5
199
100
AcDbEntity
  8
mainlayer
 62
3
370
-1
 48
1.0
  6
BYLAYER
100
AcDbPolyline
 90
2
 70
0
 10
709.99853515625
 20
2550.0
 10
709.99853515625
 20
0.0000042187498366
  0
LWPOLYLINE
  5
19A
100
AcDbEntity
  8
mainlayer
 62
4
370
-1
 48
1.0
  6
BYLAYER
100
AcDbPolyline
 90
4
 70
0
 10
709.99853515625
 20
2102.0361328125
 10
709.810546875
 20
2101.85009765625
 10
709.810546875
 20
2101.85009765625
 10
855.4365234375
 20
2247.48095703125
  0
LWPOLYLINE
  5
19B
100
AcDbEntity
  8
mainlayer
 62
4
370
-1
 48
1.0
  6
BYLAYER
100
AcDbPolyline
 90
4
 70
0
 10
709.99853515625
 20
2042.3720703125
 10
709.810546875
 20
2042.185546875
 10
709.810546875
 20
2042.185546875
 10
845.400390625
 20
2177.77978515625
  0
LWPOLYLINE
  5
19C
100
AcDbEntity
  8
mainlayer
 62
4
370
-1
 48
1.0
  6
BYLAYER
100
AcDbPolyline
 90
2
 70
0
 10
1359.779296875
 20
233.190185546875
 10
1394.3798828125
 20
267.791748046875
  0
LWPOLYLINE
  5
19D
100
AcDbEntity
  8
mainlayer
 62
4
370
-1
 48
1.0
  6
BYLAYER
100
AcDbPolyline
 90
2
 70
0
 10
1394.3798828125
 20
565.244140625
 10
1438.91650390625
 20
609.78369140625
  0
LWPOLYLINE
  5
19E
100
AcDbEntity
  8
mainlayer
 62
4
370
-1
 48
1.0
  6
BYLAYER
100
AcDbPolyline
 90
2
 70
0
 10
1788.69921875
 20
1009.78271484375
 10
1909.75
 20
888.72607421875
  0
LWPOLYLINE
  5
19F
100
AcDbEntity
  8
mainlayer
 62
4
370
-1
 48
1.0
  6
BYLAYER
100
AcDbPolyline
 90
2
 70
0
 10
1766.7255859375
 20
950.3916015625
 10
1862.6455078125
 20
854.466796875
  0
LWPOLYLINE
  5
1A0
100
AcDbEntity
  8
mainlayer
 62
4
370
-1
 48
1.0
  6
BYLAYER
100
AcDbPolyline
 90
2
 70
0
 10
1394.775390625
 20
980.244140625
 10
1394.775390625
 20
733.40576171875
  0
LWPOLYLINE
  5
1A1
100
AcDbEntity
  8
mainlayer
 62
4
370
-1
 48
1.0
  6
BYLAYER
100
AcDbPolyline
 90
2
 70
0
 10
1684.9814453125
 20
426.64453125
 10
1535.779296875
 20
575.85546875
  0
LWPOLYLINE
  5
1A2
100
AcDbEntity
  8
mainlayer
 62
4
370
-1
 48
1.0
  6
BYLAYER
100
AcDbPolyline
 90
2
 70
0
 10
1535.779296875
 20
803.123046875
 10
1572.0185546875
 20
839.36279296875
  0
LWPOLYLINE
  5
1A3
100
AcDbEntity
  8
mainlayer
 62
4
370
-1
 48
1.0
  6
BYLAYER
100
AcDbPolyline
 90
2
 70
0
 10
1624.69140625
 20
669.6455078125
 10
1810.462890625
 20
483.865234375
  0
LWPOLYLINE
  5
1A4
100
AcDbEntity
  8
mainlayer
 62
4
370
-1
 48
1.0
  6
BYLAYER
100
AcDbPolyline
 90
2
 70
0
 10
1706.583984375
 20
812.6396484375
 10
1775.751953125
 20
743.46728515625
  0
LWPOLYLINE
  5
1A5
100
AcDbEntity
  8
mainlayer
 62
4
370
-1
 48
1.0
  6
BYLAYER
100
AcDbPolyline
 90
2
 70
0
 10
1833.923828125
 20
646.0556640625
 10
1909.75
 20
570.22412109375
  0
LWPOLYLINE
  5
1A6
100
AcDbEntity
  8
mainlayer
 62
4
370
-1
 48
1.0
  6
BYLAYER
100
AcDbPolyline
 90
2
 70
0
 10
1750.46484375
 20
349.3720703125
 10
1750.46484375
 20
457.29345703125
  0
LWPOLYLINE
  5
1A7
100
AcDbEntity
  8
mainlayer
 62
4
370
-1
 48
1.0
  6
BYLAYER
100
AcDbPolyline
 90
2
 70
0
 10
1439.9775390625
 20
257.82666015625
 10
1481.8916015625
 20
215.906982421875
  0
LWPOLYLINE
  5
1A8
100
AcDbEntity
  8
mainlayer
 62
4
370
-1
 48
1.0
  6
BYLAYER
100
AcDbPolyline
 90
2
 70
0
 10
1486.1484375
 20
455.77783203125
 10
1595.0234375
 20
346.89892578125
  0
LWPOLYLINE
  5
1A9
100
AcDbEntity
  8
mainlayer
 62
4
370
-1
 48
1.0
  6
BYLAYER
100
AcDbPolyline
 90
2
 70
0
 10
1785.0654296875
 20
1539.7373046875
 10
1785.0654296875
 20
1168.12939453125
  0
LWPOLYLINE
  5
1AA
100
AcDbEntity
  8
mainlayer
 62
4
370
-1
 48
1.0
  6
BYLAYER
100
AcDbPolyline
 90
2
 70
0
 10
1671.6455078125
 20
1168.12939453125
 10
1671.6455078125
 20
1539.7373046875
  0
LWPOLYLINE
  5
1AB
100
AcDbEntity
  8
mainlayer
 62
4
370
-1
 48
1.0
  6
BYLAYER
100
AcDbPolyline
 90
2
 70
0
 10
1390.5068359375
 20
1521.04248046875
 10
1352.4345703125
 20
1482.970703125
  0
LWPOLYLINE
  5
1AC
100
AcDbEntity
  8
mainlayer
 62
4
370
-1
 48
1.0
  6
BYLAYER
100
AcDbPolyline
 90
2
 70
0
 10
1387.8798828125
 20
1377.51025390625
 10
1453.953125
 20
1311.4326171875
  0
LWPOLYLINE
  5
1AD
100
AcDbEntity
  8
mainlayer
 62
4
370
-1
 48
1.0
  6
BYLAYER
100
AcDbPolyline
 90
2
 70
0
 10
1426.5576171875
 20
1248.3408203125
 10
1372.57861328125
 20
1302.3203125
  0
LWPOLYLINE
  5
1AE
100
AcDbEntity
  8
mainlayer
 62
4
370
-1
 48
1.0
  6
BYLAYER
100
AcDbPolyline
 90
2
 70
0
 10
1364.8876953125
 20
1147.98291015625
 10
1395.5185546875
 20
1117.3505859375
  0
LWPOLYLINE
  5
1AF
100
AcDbEntity
  8
mainlayer
 62
4
370
-1
 48
1.0
  6
BYLAYER
100
AcDbPolyline
 90
2
 70
0
 10
1702.548828125
 20
1117.3505859375
 10
1742.296875
 20
1077.6025390625
  0
LWPOLYLINE
  5
1B0
100
AcDbEntity
  8
mainlayer
 62
4
370
-1
 48
1.0
  6
BYLAYER
100
AcDbPolyline
 90
2
 70
0
 10
1432.9228515625
 20
1694.56591796875
 10
1432.9228515625
 20
1782.98876953125
  0
LWPOLYLINE
  5
1B1
100
AcDbEntity
  8
mainlayer
 62
4
370
-1
 48
1.0
  6
BYLAYER
100
AcDbPolyline
 90
2
 70
0
 10
1344.5068359375
 20
1782.98876953125
 10
1344.5068359375
 20
1694.56591796875
  0
LWPOLYLINE
  5
1B2
100
AcDbEntity
  8
mainlayer
 62
4
370
-1
 48
1.0
  6
BYLAYER
100
AcDbPolyline
 90
2
 70
0
 10
1507.7548828125
 20
1738.77880859375
 10
1552.912109375
 20
1783.93896484375
  0
LWPOLYLINE
  5
1B3
100
AcDbEntity
  8
mainlayer
 62
4
370
-1
 48
1.0
  6
BYLAYER
100
AcDbPolyline
 90
2
 70
0
 10
1719.8896484375
 20
1783.93896484375
 10
1846.2890625
 20
1664.55517578125
  0
LWPOLYLINE
  5
1B4
100
AcDbEntity
  8
mainlayer
 62
4
370
-1
 48
1.0
  6
BYLAYER
100
AcDbPolyline
 90
2
 70
0
 10
1760.5986328125
 20
1858.5009765625
 10
1847.7587890625
 20
1771.33544921875
  0
LWPOLYLINE
  5
1B5
100
AcDbEntity
  8
mainlayer
 62
4
370
-1
 48
1.0
  6
BYLAYER
100
AcDbPolyline
 90
2
 70
0
 10
1627.3818359375
 20
1727.12158203125
 10
1697.7587890625
 20
1727.12158203125
  0
LWPOLYLINE
  5
1B6
100
AcDbEntity
  8
mainlayer
 62
4
370
-1
 48
1.0
  6
BYLAYER
100
AcDbPolyline
 90
2
 70
0
 10
1532.4697265625
 20
1679.0224609375
 10
1532.4697265625
 20
1569.623046875
  0
LWPOLYLINE
  5
1B7
100
AcDbEntity
  8
mainlayer
 62
4
370
-1
 48
1.0
  6
BYLAYER
100
AcDbPolyline
 90
2
 70
0
 10
1484.3359375
 20
1569.623046875
 10
1484.3359375
 20
1679.0224609375
  0
LWPOLYLINE
  5
1B8
100
AcDbEntity
  8
mainlayer
 62
4
370
-1
 48
1.0
  6
BYLAYER
100
AcDbPolyline
 90
2
 70
0
 10
1144.9453125
 20
1673.203125
 10
1224.4677734375
 20
1593.67529296875
  0
LWPOLYLINE
  5
1B9
100
AcDbEntity
  8
mainlayer
 62
4
370
-1
 48
1.0
  6
BYLAYER
100
AcDbPolyline
 90
2
 70
0
 10
1097.49853515625
 20
472.68115234375
 10
1052.525390625
 20
427.70703125
  0
LWPOLYLINE
  5
1BA
100
AcDbEntity
  8
mainlayer
 62
4
370
-1
 48
1.0
  6
BYLAYER
100
AcDbPolyline
 90
2
 70
0
 10
1052.525390625
 20
125.3676834106445312
 10
1009.6865234375
 20
82.5246658325195312
  0
LWPOLYLINE
  5
1BB
100
AcDbEntity
  8
mainlayer
 62
4
370
-1
 48
1.0
  6
BYLAYER
100
AcDbPolyline
 90
2
 70
0
 10
1165.072265625
 20
680.7587890625
 10
1165.072265625
 20
185.282958984375
  0
LWPOLYLINE
  5
1BC
100
AcDbEntity
  8
mainlayer
 62
4
370
-1
 48
1.0
  6
BYLAYER
100
AcDbPolyline
 90
2
 70
0
 10
1259.78369140625
 20
90.5661697387695312
 10
1259.78369140625
 20
48.3064002990722656
  0
LWPOLYLINE
  5
1BD
100
AcDbEntity
  8
mainlayer
 62
4
370
-1
 48
1.0
  6
BYLAYER
100
AcDbPolyline
 90
2
 70
0
 10
1175.28369140625
 20
1193.39892578125
 10
1175.28369140625
 20
1291.50634765625
  0
LWPOLYLINE
  5
1BE
100
AcDbEntity
  8
mainlayer
 62
4
370
-1
 48
1.0
  6
BYLAYER
100
AcDbPolyline
 90
2
 70
0
 10
923.61328125
 20
878.041015625
 10
923.61328125
 20
565.9267578125
  0
LWPOLYLINE
  5
1BF
100
AcDbEntity
  8
mainlayer
 62
4
370
-1
 48
1.0
  6
BYLAYER
100
AcDbPolyline
 90
2
 70
0
 10
894.6357421875
 20
536.947265625
 10
894.6357421875
 20
442.59765625
  0
LWPOLYLINE
  5
1C0
100
AcDbEntity
  8
mainlayer
 62
4
370
-1
 48
1.0
  6
BYLAYER
100
AcDbPolyline
 90
2
 70
0
 10
1169.861328125
 20
1546.90771484375
 10
1067.3076171875
 20
1649.46923828125
  0
LWPOLYLINE
  5
1C1
100
AcDbEntity
  8
mainlayer
 62
4
370
-1
 48
1.0
  6
BYLAYER
100
AcDbPolyline
 90
2
 70
0
 10
1067.3076171875
 20
1708.57568359375
 10
1142.7177734375
 20
1783.9892578125
  0
LWPOLYLINE
  5
1C2
100
AcDbEntity
  8
mainlayer
 62
4
370
-1
 48
1.0
  6
BYLAYER
100
AcDbPolyline
 90
2
 70
0
 10
815.3486328125
 20
1216.935546875
 10
1009.4736328125
 20
1022.8017578125
  0
LWPOLYLINE
  5
1C3
100
AcDbEntity
  8
mainlayer
 62
4
370
-1
 48
1.0
  6
BYLAYER
100
AcDbPolyline
 90
2
 70
0
 10
1009.4736328125
 20
315.91064453125
 10
946.1953125
 20
252.6318359375
  0
LWPOLYLINE
  5
1C4
100
AcDbEntity
  8
mainlayer
 62
4
370
-1
 48
1.0
  6
BYLAYER
100
AcDbPolyline
 90
2
 70
0
 10
898.068359375
 20
1437.66259765625
 10
1097.16064453125
 20
1238.5625
  0
LWPOLYLINE
  5
1C5
100
AcDbEntity
  8
mainlayer
 62
4
370
-1
 48
1.0
  6
BYLAYER
100
AcDbPolyline
 90
2
 70
0
 10
983.1025390625
 20
1804.23681640625
 10
983.1025390625
 20
1615.19384765625
  0
LWPOLYLINE
  5
1C6
100
AcDbEntity
  8
mainlayer
 62
4
370
-1
 48
1.0
  6
BYLAYER
100
AcDbPolyline
 90
2
 70
0
 10
1259.78369140625
 20
1338.49560546875
 10
1259.78369140625
 20
984.16259765625
  0
LWPOLYLINE
  5
1C7
100
AcDbEntity
  8
mainlayer
 62
4
370
-1
 48
1.0
  6
BYLAYER
100
AcDbPolyline
 90
2
 70
0
 10
1589.75
 20
1961.63818359375
 10
1589.75
 20
1989.62890625
  0
LWPOLYLINE
  5
1C8
100
AcDbEntity
  8
mainlayer
 62
4
370
-1
 48
1.0
  6
BYLAYER
100
AcDbPolyline
 90
2
 70
0
 10
1561.7607421875
 20
1989.62890625
 10
1561.7607421875
 20
1961.63818359375
  0
LWPOLYLINE
  5
1C9
100
AcDbEntity
  8
mainlayer
 62
4
370
-1
 48
1.0
  6
BYLAYER
100
AcDbPolyline
 90
2
 70
0
 10
1407.7685546875
 20
1961.63818359375
 10
1407.7685546875
 20
1989.62890625
  0
LWPOLYLINE
  5
1CA
100
AcDbEntity
  8
mainlayer
 62
4
370
-1
 48
1.0
  6
BYLAYER
100
AcDbPolyline
 90
2
 70
0
 10
1379.77734375
 20
1989.62890625
 10
1379.77734375
 20
1961.63818359375
  0
LWPOLYLINE
  5
1CB
100
AcDbEntity
  8
mainlayer
 62
4
370
-1
 48
1.0
  6
BYLAYER
100
AcDbPolyline
 90
2
 70
0
 10
1225.78564453125
 20
1961.63818359375
 10
1225.78564453125
 20
1989.62890625
  0
LWPOLYLINE
  5
1CC
100
AcDbEntity
  8
mainlayer
 62
4
370
-1
 48
1.0
  6
BYLAYER
100
AcDbPolyline
 90
2
 70
0
 10
1197.7978515625
 20
1989.62890625
 10
1197.7978515625
 20
1961.63818359375
  0
LWPOLYLINE
  5
1CD
100
AcDbEntity
  8
mainlayer
 62
4
370
-1
 48
1.0
  6
BYLAYER
100
AcDbPolyline
 90
2
 70
0
 10
1044.236328125
 20
1961.63818359375
 10
1044.236328125
 20
1989.62890625
  0
LWPOLYLINE
  5
1CE
100
AcDbEntity
  8
mainlayer
 62
4
370
-1
 48
1.0
  6
BYLAYER
100
AcDbPolyline
 90
2
 70
0
 10
1016.24658203125
 20
1989.62890625
 10
1016.24658203125
 20
1961.63818359375
  0
LWPOLYLINE
  5
1CF
100
AcDbEntity
  8
mainlayer
 62
4
370
-1
 48
1.0
  6
BYLAYER
100
AcDbPolyline
 90
2
 70
0
 10
1857.125
 20
1938.83642578125
 10
1909.75
 20
1886.2099609375
  0
LWPOLYLINE
  5
1D0
100
AcDbEntity
  8
mainlayer
 62
4
370
-1
 48
1.0
  6
BYLAYER
100
AcDbPolyline
 90
2
 70
0
 10
1777.2587890625
 20
2251.31494140625
 10
1909.75
 20
2383.81591796875
  0
LWPOLYLINE
  5
1D1
100
AcDbEntity
  8
mainlayer
 62
4
370
-1
 48
1.0
  6
BYLAYER
100
AcDbPolyline
 90
2
 70
0
 10
770.6416015625
 20
2464.19775390625
 10
808.33447265625
 20
2426.5029296875
  0
LWPOLYLINE
  5
1D2
100
AcDbEntity
  8
mainlayer
 62
4
370
-1
 48
1.0
  6
BYLAYER
100
AcDbPolyline
 90
2
 70
0
 10
1777.2236328125
 20
2426.5029296875
 10
1818.71484375
 20
2467.99755859375
  0
LWPOLYLINE
  5
1D3
100
AcDbEntity
  8
mainlayer
 62
4
370
-1
 48
1.0
  6
BYLAYER
100
AcDbPolyline
 90
2
 70
0
 10
1066.6435546875
 20
2247.48095703125
 10
1139.1005859375
 20
2319.9404296875
  0
LWPOLYLINE
  5
1D4
100
AcDbEntity
  8
mainlayer
 62
4
370
-1
 48
1.0
  6
BYLAYER
100
AcDbPolyline
 90
2
 70
0
 10
1777.90625
 20
2319.9404296875
 10
1909.75
 20
2451.7919921875
  0
LWPOLYLINE
  5
1D5
100
AcDbEntity
  8
mainlayer
 62
4
370
-1
 48
1.0
  6
BYLAYER
100
AcDbPolyline
 90
2
 70
0
 10
1910.0
 20
2305.60791015625
 10
1782.201171875
 20
2177.77978515625
  0
LWPOLYLINE
  5
1D6
100
AcDbEntity
  8
mainlayer
 62
4
370
-1
 48
1.0
  6
BYLAYER
100
AcDbPolyline
 90
2
 70
0
 10
1070.1298828125
 20
2085.7216796875
 10
1106.0087890625
 20
2121.6015625
  0
LWPOLYLINE
  5
1D7
100
AcDbEntity
  8
mainlayer
 62
4
370
-1
 48
1.0
  6
BYLAYER
100
AcDbPolyline
 90
2
 70
0
 10
1701.0234375
 20
2121.6015625
 10
1736.900390625
 20
2085.7216796875
  0
LWPOLYLINE
  5
1D8
100
AcDbEntity
  8
mainlayer
 62
4
370
-1
 48
1.0
  6
BYLAYER
100
AcDbPolyline
 90
2
 70
0
 10
1229.06640625
 20
2227.2421875
 10
1229.06640625
 20
2278.0615234375
  0
LWPOLYLINE
  5
1D9
100
AcDbEntity
  8
mainlayer
 62
4
370
-1
 48
1.0
  6
BYLAYER
100
AcDbPolyline
 90
2
 70
0
 10
1178.25244140625
 20
2278.0615234375
 10
1178.25244140625
 20
2227.2421875
  0
LWPOLYLINE
  5
1DA
100
AcDbEntity
  8
mainlayer
 62
4
370
-1
 48
1.0
  6
BYLAYER
100
AcDbPolyline
 90
2
 70
0
 10
1092.900390625
 20
2381.21630859375
 10
1019.400390625
 20
2307.708984375
  0
LWPOLYLINE
  5
1DB
100
AcDbEntity
  8
mainlayer
 62
4
370
-1
 48
1.0
  6
BYLAYER
100
AcDbPolyline
 90
2
 70
0
 10
709.99853515625
 20
2254.70849609375
 10
762.99658203125
 20
2307.708984375
  0
LWPOLYLINE
  5
1DC
100
AcDbEntity
  8
mainlayer
 62
4
370
-1
 48
1.0
  6
BYLAYER
100
AcDbPolyline
 90
2
 70
0
 10
709.99853515625
 20
820.4599609375
 10
757.8818359375
 20
772.57763671875
  0
LWPOLYLINE
  5
1DD
100
AcDbEntity
  8
mainlayer
 62
4
370
-1
 48
1.0
  6
BYLAYER
100
AcDbPolyline
 90
2
 70
0
 10
709.99853515625
 20
907.51806640625
 10
843.275390625
 20
774.2333984375
  0
LWPOLYLINE
  5
1DE
100
AcDbEntity
  8
mainlayer
 62
0
370
-1
 48
1.0
  6
BYLAYER
100
AcDbPolyline
 90
8
 70
0
 10
709.99853515625
 20
0.0000042187498366
 10
1910.0
 20
0.0000042187498366
 10
1910.0
 20
0.0000042187498366
 10
1910.0
 20
2550.0
 10
1910.0
 20
2550.0
 10
709.99853515625
 20
2550.0
 10
709.99853515625
 20
2550.0
 10
709.99853515625
 20
0.0000042187498366
  0
INSERT
  5
1DF
100
AcDbEntity
  8
mainlayer
 62
0
370
-1
 48
1.0
  6
BYLAYER
100
AcDbBlockReference
  2
Z8E0FAB8
 10
0.0
 20
0.0
 30
0.0
  0
INSERT
  5
1E0
100
AcDbEntity
  8
mainlayer
 62
0
370
-1
 48
1.0
  6
BYLAYER
100
AcDbBlockReference
  2
YI5EKV4S
 10
0.0
 20
0.0
 30
0.0
  0
ENDSEC
  0
SECTION
  2
OBJECTS
  0
DICTIONARY
  5
C
100
AcDbDictionary
280
0
281
1
  3
ACAD_GROUP
350
D
  3
ACAD_LAYOUT
350
1A
  3
ACAD_MLINESTYLE
350
17
  3
ACAD_PLOTSETTINGS
350
19
  3
ACAD_PLOTSTYLENAME
350
E
  3
AcDbVariableDictionary
350
1E1
  0
DICTIONARY
  5
D
100
AcDbDictionary
280
0
281
1
  0
ACDBDICTIONARYWDFLT
  5
E
100
AcDbDictionary
281
1
  3
Normal
350
F
100
AcDbDictionaryWithDefault
340
F
  0
ACDBPLACEHOLDER
  5
F
  0
DICTIONARY
  5
17
100
AcDbDictionary
280
0
281
1
  3
Standard
350
18
  0
MLINESTYLE
  5
18
100
AcDbMlineStyle
  2
STANDARD
 70
0
  3

 62
256
 51
90.0
 52
90.0
 71
2
 49
0.5
 62
256
  6
BYLAYER
 49
-0.5
 62
256
  6
BYLAYER
  0
DICTIONARY
  5
19
100
AcDbDictionary
280
0
281
1
  0
DICTIONARY
  5
1A
100
AcDbDictionary
281
1
  3
Layout1
350
1E
  3
Layout2
350
26
  3
Model
350
22
  0
LAYOUT
  5
1E
100
AcDbPlotSettings
  1

  2
none_device
  4

  6

 40
0.0
 41
0.0
 42
0.0
 43
0.0
 44
0.0
 45
0.0
 46
0.0
 47
0.0
 48
0.0
 49
0.0
140
0.0
141
0.0
142
1.0
143
1.0
 70
688
 72
0
 73
0
 74
5
  7

 75
16
147
1.0
148
0.0
149
0.0
100
AcDbLayout
  1
Layout1
 70
1
 71
1
 10
0.0
 20
0.0
 11
420.0
 21
297.0
 12
0.0
 22
0.0
 32
0.0
 14
100000000000000000000.0
 24
100000000000000000000.0
 34
100000000000000000000.0
 15
-100000000000000000000.0
 25
-100000000000000000000.0
 35
-100000000000000000000.0
146
0.0
 13
0.0
 23
0.0
 33
0.0
 16
1.0
 26
0.0
 36
0.0
 17
0.0
 27
1.0
 37
0.0
 76
0
330
1B
  0
LAYOUT
  5
22
100
AcDbPlotSettings
  1

  2
none_device
  4

  6

 40
0.0
 41
0.0
 42
0.0
 43
0.0
 44
0.0
 45
0.0
 46
0.0
 47
0.0
 48
0.0
 49
0.0
140
0.0
141
0.0
142
1.0
143
1.0
 70
1712
 72
0
 73
0
 74
0
  7

 75
0
147
1.0
148
0.0
149
0.0
100
AcDbLayout
  1
Model
 70
1
 71
0
 10
0.0
 20
0.0
 11
12.0
 21
9.0
 12
0.0
 22
0.0
 32
0.0
 14
0.0
 24
0.0
 34
0.0
 15
0.0
 25
0.0
 35
0.0
146
0.0
 13
0.0
 23
0.0
 33
0.0
 16
1.0
 26
0.0
 36
0.0
 17
0.0
 27
1.0
 37
0.0
 76
0
330
1F
  0
LAYOUT
  5
26
100
AcDbPlotSettings
  1

  2
none_device
  4

  6

 40
0.0
 41
0.0
 42
0.0
 43
0.0
 44
0.0
 45
0.0
 46
0.0
 47
0.0
 48
0.0
 49
0.0
140
0.0
141
0.0
142
1.0
143
1.0
 70
688
 72
0
 73
0
 74
5
  7

 75
16
147
1.0
148
0.0
149
0.0
100
AcDbLayout
  1
Layout2
 70
1
 71
2
 10
0.0
 20
0.0
 11
12.0
 21
9.0
 12
0.0
 22
0.0
 32
0.0
 14
0.0
 24
0.0
 34
0.0
 15
0.0
 25
0.0
 35
0.0
146
0.0
 13
0.0
 23
0.0
 33
0.0
 16
1.0
 26
0.0
 36
0.0
 17
0.0
 27
1.0
 37
0.0
 76
0
330
23
  0
DICTIONARY
  5
1E1
100
AcDbDictionary
281
1
  3
DIMASSOC
350
1E3
  3
HIDETEXT
350
1E2
  0
DICTIONARYVAR
  5
1E2
100
DictionaryVariables
280
0
  1
2
  0
DICTIONARYVAR
  5
1E3
100
DictionaryVariables
280
0
  1
1
  0
ENDSEC
  0
EOF
